<svg xmlns="http://www.w3.org/2000/svg" xmlns:xlink="http://www.w3.org/1999/xlink" width="34" height="33" viewBox="0 0 34 33"><defs><path id="nr7ca" d="M663.8 3589.76a15.36 15.36 0 0 1-15.34-15.37 15.36 15.36 0 1 1 15.35 15.37zm.17-18.02c0-3.47-3.78-3.2-3.78-3.2h-5.6l.01 12.33 5.23-.03s4.49.34 4.53-3.7c0-2.34-1.9-2.9-1.9-2.9s1.5-.55 1.5-2.5zm8.33-2.52h-4.79v1.37h4.8zm-2.45 2.1c-4.58 0-4.36 4.82-4.36 4.82s-.25 4.74 4.45 4.74c3.63 0 4.15-3 4.15-3h-2.33s-.37 1.06-1.76 1.04c-2.27 0-2.2-2.2-2.2-2.2l6.4-.02s.66-5.38-4.35-5.38zm-.01 1.97c1.97 0 2.01 1.87 2.01 1.87l-4 .03s.15-1.9 1.99-1.9zm-10.12 5.41h-2.6l-.01-3.29 2.65.01s2-.14 2 1.53c0 2-2.04 1.75-2.04 1.75zm.02-5.3l-2.63.01v-2.72h2.27s2.14-.27 2.14 1.32c0 1.6-1.78 1.39-1.78 1.39z"/><mask id="nr7cc" width="2" height="2" x="-1" y="-1"><path fill="#fff" d="M647 3558h34v33h-34z"/><use xlink:href="#nr7ca"/></mask><filter id="nr7cb" width="56" height="56" x="636" y="3548" filterUnits="userSpaceOnUse"><feOffset dy="1" in="SourceGraphic" result="FeOffset1343Out"/><feGaussianBlur in="FeOffset1343Out" result="FeGaussianBlur1344Out" stdDeviation="0.4 0.4"/></filter></defs><g><g transform="translate(-647 -3559)"><g filter="url(#nr7cb)"><use fill="none" stroke-opacity=".25" stroke-width="0" mask="url(&quot;#nr7cc&quot;)" xlink:href="#nr7ca"/><use fill-opacity=".25" xlink:href="#nr7ca"/></g><use fill="#fff" xlink:href="#nr7ca"/></g></g></svg>