<svg xmlns="http://www.w3.org/2000/svg" xmlns:xlink="http://www.w3.org/1999/xlink" width="33" height="33" viewBox="0 0 33 33"><defs><path id="vic1a" d="M702.55 3586.72c-6.6 0-11.95-5.37-11.95-12 0-6.62 5.35-11.99 11.95-11.99s11.95 5.37 11.95 12c0 6.62-5.35 11.99-11.95 11.99zm9.78-10.74c-3.3-.53-6.28-.04-6.28-.04s1.3 3.42 1.92 7.05c0 0 3.72-2.06 4.36-7zm-6.25 7.98s-.85-5.01-1.96-7.6c-4.93 1.39-7.62 6.17-7.63 6.17 4.76 3.61 9.6 1.43 9.6 1.43zm-11.04-2.82c3.73-5.64 8.4-6.5 8.4-6.5l-.8-1.76s-3.21 1.24-9.94 1.45c0 .02-.33 3.7 2.34 6.8zm-2.14-8.5c5.27-.14 8.92-1.33 8.92-1.33s-1.27-2.46-3.72-5.42a10.03 10.03 0 0 0-5.2 6.75zm7.15-7.48s2.4 2.49 3.72 5.47c0 0 2.98-1.12 5.22-3.4-4.15-3.6-8.94-2.07-8.94-2.07zm10.13 3.3s-2.05 2.37-5.63 3.75c.3.64.58 1.31.85 2 3.07-.59 6.99-.03 6.99-.02a9.73 9.73 0 0 0-2.2-5.73zm-22.89 6.18a15.36 15.36 0 1 0 15.35-15.38 15.36 15.36 0 0 0-15.35 15.38z"/><mask id="vic1c" width="2" height="2" x="-1" y="-1"><path fill="#fff" d="M686 3558h33v34h-33z"/><use xlink:href="#vic1a"/></mask><filter id="vic1b" width="55" height="57" x="675" y="3548" filterUnits="userSpaceOnUse"><feOffset dy="1" in="SourceGraphic" result="FeOffset1323Out"/><feGaussianBlur in="FeOffset1323Out" result="FeGaussianBlur1324Out" stdDeviation="0.4 0.4"/></filter></defs><g><g transform="translate(-686 -3559)"><g filter="url(#vic1b)"><use fill="none" stroke-opacity=".25" stroke-width="0" mask="url(&quot;#vic1c&quot;)" xlink:href="#vic1a"/><use fill-opacity=".25" xlink:href="#vic1a"/></g><use fill="#fff" xlink:href="#vic1a"/></g></g></svg>