<svg xmlns="http://www.w3.org/2000/svg" xmlns:xlink="http://www.w3.org/1999/xlink" width="47" height="47" viewBox="0 0 47 47"><defs><path id="treaa" d="M569.22 7254.3l-2.65.01c-1.7 0-1.48 1.19-1.48 4.11l4.11-.05-.67 4.12h-3.45v14.4h-5.14v-14.4h-3.1v-4.1s3.11.02 3.11 0c.17-2.2-.99-8.22 4.1-8.22h5.17zm-28.22 8.2a22.5 22.5 0 1 0 45 0 22.5 22.5 0 0 0-45 0z"/><mask id="treac" width="2" height="2" x="-1" y="-1"><path fill="#fff" d="M539 7238h48v48h-48z"/><use xlink:href="#treaa"/></mask><filter id="treab" width="70" height="71" x="528" y="7228" filterUnits="userSpaceOnUse"><feOffset dy="1" in="SourceGraphic" result="FeOffset1203Out"/><feGaussianBlur in="FeOffset1203Out" result="FeGaussianBlur1204Out" stdDeviation="0.4 0.4"/></filter></defs><g><g transform="translate(-540 -7240)"><g filter="url(#treab)"><use fill="none" stroke-opacity=".25" stroke-width="0" mask="url(&quot;#treac&quot;)" xlink:href="#treaa"/><use fill-opacity=".25" xlink:href="#treaa"/></g><use fill="#fff" xlink:href="#treaa"/></g></g></svg>