<svg xmlns="http://www.w3.org/2000/svg" xmlns:xlink="http://www.w3.org/1999/xlink" width="47" height="47" viewBox="0 0 47 47"><defs><path id="kj7pa" d="M674.87 7251.72a2.62 2.62 0 1 1 0 5.25 2.62 2.62 0 0 1 0-5.25zm-2.3 6.9h5.08V7274h-5.09zm13.61-.09v2.28c.49-.73 1.43-2.53 4.55-2.56 5.72 0 5.7 6.21 5.7 7.67l-.07 8.05-5.06-.01s.02-7.41 0-8.5c.03-.36-.01-2.87-2.34-2.87-3.15 0-2.78 3.15-2.78 3.15v8.19h-5.15v-15.4zm5.12 6.93c0-.2 0-.18 0 0 0 .04 0 .05 0 0zm-29.26-2.89a22.5 22.5 0 1 0 45 0 22.5 22.5 0 0 0-45 0z"/><mask id="kj7pc" width="2" height="2" x="-1" y="-1"><path fill="#fff" d="M661 7239h48v48h-48z"/><use xlink:href="#kj7pa"/></mask><filter id="kj7pb" width="70" height="71" x="650" y="7229" filterUnits="userSpaceOnUse"><feOffset dy="1" in="SourceGraphic" result="FeOffset1243Out"/><feGaussianBlur in="FeOffset1243Out" result="FeGaussianBlur1244Out" stdDeviation="0.4 0.4"/></filter></defs><g><g transform="translate(-661 -7240)"><g filter="url(#kj7pb)"><use fill="none" stroke-opacity=".25" stroke-width="0" mask="url(&quot;#kj7pc&quot;)" xlink:href="#kj7pa"/><use fill-opacity=".25" xlink:href="#kj7pa"/></g><use fill="#fff" xlink:href="#kj7pa"/></g></g></svg>