<svg xmlns="http://www.w3.org/2000/svg" xmlns:xlink="http://www.w3.org/1999/xlink" width="47" height="47" viewBox="0 0 47 47"><defs><path id="e39ka" d="M802.59 7251.96h3.4v6.02H811v4.01h-5l-.01 6.27c0 3.05 2.13 3.66 6 1.88v4c-2.12.69-4.75 1.07-6.87.76-1.71-.25-4.12-1.27-4.12-3.91v-9.02h-2.99v-3.96c3.46-1.7 4.4-3.27 4.58-6.05zm-20.6 10.54a22.5 22.5 0 1 0 45 0 22.5 22.5 0 0 0-45 0z"/><mask id="e39kc" width="2" height="2" x="-1" y="-1"><path fill="#fff" d="M780 7238h48v48h-48z"/><use xlink:href="#e39ka"/></mask><filter id="e39kb" width="70" height="71" x="769" y="7228" filterUnits="userSpaceOnUse"><feOffset dy="1" in="SourceGraphic" result="FeOffset1283Out"/><feGaussianBlur in="FeOffset1283Out" result="FeGaussianBlur1284Out" stdDeviation="0.4 0.4"/></filter></defs><g><g transform="translate(-781 -7240)"><g filter="url(#e39kb)"><use fill="none" stroke-opacity=".25" stroke-width="0" mask="url(&quot;#e39kc&quot;)" xlink:href="#e39ka"/><use fill-opacity=".25" xlink:href="#e39ka"/></g><use fill="#fff" xlink:href="#e39ka"/></g></g></svg>