<svg xmlns="http://www.w3.org/2000/svg" xmlns:xlink="http://www.w3.org/1999/xlink" width="47" height="47" viewBox="0 0 47 47"><defs><path id="bqada" d="M628.78 7252.56c.24 0 .5.48.5.48s.46-.97.99-1.02c.36.2.52.76.24.95.1 0 1.19-.78 1.73-.39.06.61-1.72 1.62-1.72 1.62s4.18 0 5.92 6.05c.05 0 2.28.32 3.78-.84-.12 1.33-2.68 2.44-2.68 2.44s1.5.3 2.54.12c-.37 1.98-3.7 1.79-3.7 1.79s-2.57 8.81-10.61 10.09c-9.92 1.43-15.56-2.27-16.23-6.1.01.03 5.96 5.28 10.9.05a3 3 0 0 1-1.34-.4c-.05-.06-.64-.47-.64-1.13 0-.41.9-1.49.9-1.49s-1.93.09-3.15-1.22c-.1-.1-.78-.65.16-1.25.57-.36 1.47-.83 1.47-.83s-.85.3-1.53-.02c-.01-.01-1.4-1.12-1.66-2.18-.25-.83.92-.8.92-.8l.79-.02s-2.78-2.03-2.06-3.63c0-.02.6-1.2 9.73 4.96 0 0 1.96-6.46 4.75-7.23zm-26.8 9.91a22.5 22.5 0 1 0 45 0 22.5 22.5 0 0 0-45 0z"/><mask id="bqadc" width="2" height="2" x="-1" y="-1"><path fill="#fff" d="M600 7238h48v48h-48z"/><use xlink:href="#bqada"/></mask><filter id="bqadb" width="70" height="71" x="589" y="7228" filterUnits="userSpaceOnUse"><feOffset dy="1" in="SourceGraphic" result="FeOffset1223Out"/><feGaussianBlur in="FeOffset1223Out" result="FeGaussianBlur1224Out" stdDeviation="0.4 0.4"/></filter></defs><g><g transform="translate(-601 -7240)"><g filter="url(#bqadb)"><use fill="none" stroke-opacity=".25" stroke-width="0" mask="url(&quot;#bqadc&quot;)" xlink:href="#bqada"/><use fill-opacity=".25" xlink:href="#bqada"/></g><use fill="#fff" xlink:href="#bqada"/></g></g></svg>