<svg xmlns="http://www.w3.org/2000/svg" width="32" height="32" viewBox="0 0 32 32"><path fill="#ffce13" d="M23.764 2.105l-.361 5.29.081.6c.02.051.043.098.06.15.385-.077.759-.165 1.144-.253h.011c.517-.351 1.044-.55 1.594-.571 1.341-.066 1.989.561 2.297 1.088.759 1.308.186 3.341-.462 4.363-1.188 1.858-3.374 3.177-6.21 3.748a8.087 8.087 0 0 1-1.98 1.567c2.678.711 5.275 2.074 5.398 2.139.054.029.096.07.137.112l.42-.046a.555.555 0 0 1 .607.487.546.546 0 0 1-.263.527l1.76 3.064a.735.735 0 0 1-.106.877l.001.002c.077.14.145.284.217.425 2.403-2.7 3.863-6.218 3.863-10.068-.002-5.809-3.315-10.864-8.209-13.502zM9.354 16.389c-1.792-.439-4.232-1.429-5.616-3.616-.638-1-1.209-3-.494-4.319.286-.517.891-1.132 2.154-1.132h.165c.472.022.912.153 1.34.373.249.065.736.184 1.424.324l.067-.449a.92.92 0 0 1 .067-.271l-.02-.102-.532-4.87C3.226 5.018.077 9.951.077 15.609c0 3.9 1.496 7.457 3.956 10.175l.676-2.169c.01-.034.03-.062.045-.094a.549.549 0 0 1 .311-.95l.419-.046c1.752-2.339 4.834-3.752 6.533-4.39a8.204 8.204 0 0 1-2.081-1.603l-.581-.143z"/><path fill="#ababab" d="M17.907 21.167l2.112-1.915c-.421-.122-.846-.23-1.262-.312a.539.539 0 0 1-.319-.202c-.196.064-.384.141-.587.191a8.09 8.09 0 0 1-4.344-.139 16.59 16.59 0 0 0-1.329.468l2.419 2.273 3.312-.364z"/><path fill="#e6d0ba" d="M11.043 21.918a5.554 5.554 0 0 1-1.228-1.551l-.262.146 1.177 1.438.313-.034zm1.289-.142l-1.772-1.803c-.244.122-.493.253-.745.392a5.5 5.5 0 0 0 1.228 1.551l1.29-.14z"/><path fill="#ababab" d="M13.325 16.003c.432.324.944.534 1.557.495.242-.011.406-.11.45-.483l.008-.095-1.03-.33-.985.412zm3.119-.063c.008.05.011.111.022.152.088.318.286.395.506.406.619.038 1.14-.176 1.577-.508l-.972-.412-1.132.361zm-.067-2.948h-.11c-1.451-.022-4.21-.264-6.43-1.692-.077-.033-.154-.099-.242-.165h-.033l-.22-.186c.029.555.096 1.096.242 1.351.352.627 1.539.594 1.847 1.011.132.165.362.736.736 1.352.099.154.209.33.33.483l.083.106a3.944 3.944 0 0 1 2.17-1.399c.341-.077.715.33 1.121.308h.077c.462.033.891-.362 1.264-.274a3.965 3.965 0 0 1 2.078 1.347l.076-.097c.132-.165.242-.341.341-.506.374-.605.594-1.154.715-1.319.308-.418 1.495-.385 1.847-1.011.115-.203.182-.586.218-1.013-.137.078-.268.156-.417.233-1.989 1.01-3.638 1.428-5.693 1.472z"/><path fill="#635647" d="M22.719 11.156l-.013.008c-.067.041-.147.081-.219.123-.036.427-.103.81-.218 1.013-.352.627-1.539.594-1.847 1.011-.121.165-.341.715-.715 1.319a4.538 4.538 0 0 1-.341.506l-.076.097c.169.207.309.412.417.599.145.249.238.459.292.606l.004.009a6.48 6.48 0 0 0 .818-.742 6.85 6.85 0 0 0 .702-.868l.066-.096c.251-.376.489-.781.691-1.255 0 0 .392-1.055.451-2.337l-.012.006zm-10.138 4.097l-.083-.106c-.121-.154-.23-.33-.33-.483-.374-.615-.605-1.188-.736-1.352-.308-.418-1.495-.385-1.847-1.011-.145-.256-.213-.796-.242-1.351 0 0-.022-.011-.044-.033-.054-.044-.098-.077-.153-.131l-.001-.001-.042-.035c-.037 1.353.36 2.453.36 2.453a5.857 5.857 0 0 0 2.397 3.333l.025-.071c.05-.14.138-.346.281-.597.105-.191.243-.401.413-.613zm6.786 1.084l-.819-.347c-.437.332-.957.546-1.577.508-.22-.011-.418-.088-.506-.406-.01-.041-.014-.102-.022-.152l-.039.012c-.198-.176-.423-.439-.489-.648-.055.22-.367.443-.565.619l-.01-.003-.008.095c-.044.374-.209.473-.45.483-.613.038-1.126-.172-1.557-.495l-1.393.583c1.34.886 2.785 1.138 3.369 1.2v.011s.055 0 .154.011a.952.952 0 0 0 .121.011v-.011c.186.011.439.011.703 0v.011s.099 0 .286-.022c.044-.011.088-.011.132-.011.11-.011.23-.033.374-.055a7.348 7.348 0 0 0 1.639-.533l.094-.043c.164-.077.323-.16.479-.249.064-.036.127-.079.191-.118.132-.08.263-.149.394-.243l-.009-.006-.489-.202z"/><path fill="#373634" d="M14.595 21.529l-2.419-2.273c-.468.184-1.023.423-1.616.717l1.772 1.803 2.263-.247zm5.167-.566c.672-.294 1.385-.667 2.01-1.121a22.504 22.504 0 0 0-1.753-.591l-2.112 1.915 1.855-.203z"/><path fill="#38322b" d="M20.004 16.447L20 16.438a4.376 4.376 0 0 0-.709-1.205 3.991 3.991 0 0 0-2.078-1.347c-.374-.088-.803.308-1.264.274h-.077c-.406.022-.78-.385-1.121-.308a3.96 3.96 0 0 0-2.17 1.399 4.515 4.515 0 0 0-.413.612 3.835 3.835 0 0 0-.281.597l-.025.071a.62.62 0 0 0-.023.09l.094-.039 2.38-.994 1.04.332c.198-.176.509-.399.565-.619.066.209.291.472.489.648l.039-.012 1.131-.36 1.792.759.693.286a1.74 1.74 0 0 0-.057-.174z"/><path fill="#a37c49" d="M22.557 9.425l-.03.005-.006.001-.004.001c-1.955.33-3.998.483-6.085.483-2.843 0-5.301-.285-7.082-.592l-.008-.001h-.003l-.012-.003-.259-.042.198.176.025.019.019.014.005.005.019.016c.212.19.424.371.636.53h.011l.154.121c.088.077.176.154.264.198 2.1 1.352 4.815 1.527 5.88 1.539l.059.028.018-.028c1.88-.033 3.385-.429 5.21-1.363.36-.18.663-.347.964-.556l.091-.058.001-.001.04-.03c.228-.16.459-.357.718-.596-.274.051-.548.093-.822.136zM9.493 6.692l12.86-.077.037-.553.304-4.472a16.28 16.28 0 0 0-13.739.185l.472 4.328.065.59z"/><path fill="#373737" d="M28.589 8.409c-.308-.527-.956-1.154-2.297-1.088-.55.022-1.077.22-1.594.571h-.011c-.385.088-.759.176-1.144.253-.017-.052-.04-.099-.06-.15l-.081-.6.361-5.29c-.175-.095-.355-.178-.534-.266a15.204 15.204 0 0 0-.534-.249l-.304 4.472-.037.553-12.86.077-.065-.59-.473-4.327c-.174.083-.356.156-.526.245-.179.094-.346.205-.52.305l.532 4.87c.004.036.013.067.019.102a.837.837 0 0 0-.068.272l-.067.449a28.306 28.306 0 0 1-1.424-.324 3.238 3.238 0 0 0-1.34-.374h-.166c-1.264 0-1.868.615-2.154 1.132-.715 1.319-.143 3.319.494 4.319 1.385 2.188 3.825 3.177 5.616 3.616l.583.143a8.204 8.204 0 0 0 2.081 1.603c-1.7.64-4.781 2.052-6.533 4.39l1.617-.177c.278-.276.574-.537.885-.78a13.812 13.812 0 0 1 1.566-1.055c.088-.052.175-.097.262-.146a20.278 20.278 0 0 1 2.361-1.109c.752-.295 1.267-.449 1.329-.468a8.08 8.08 0 0 0 4.344.139c.203-.05.392-.127.587-.191a.542.542 0 0 0 .319.202c.417.081.841.19 1.262.312.602.174 1.197.379 1.753.591l.054.021.21.081a32.39 32.39 0 0 1 1.451.612l.185-.021 1.801-.198a.537.537 0 0 0-.137-.112c-.123-.065-2.72-1.429-5.398-2.139a8.106 8.106 0 0 0 1.98-1.567c2.836-.571 5.023-1.891 6.21-3.748.649-1.021 1.22-3.054.463-4.362zM4.66 12.179c-.561-.879-.879-2.407-.45-3.198.209-.375.594-.561 1.187-.561h.111c.281.019.54.091.814.216l-.008.026.185.052c.471.231.933.583 1.383.979v.011a7.413 7.413 0 0 0-.099 1.572 7.321 7.321 0 0 0 .033 1.55c.033.286.099.571.176.912.099.406.231.813.406 1.209-1.351-.494-2.824-1.34-3.737-2.768zm4.668-2.86l.012.002h.003l.008.001c1.78.307 4.239.592 7.082.592 2.087 0 4.13-.154 6.085-.483l.004-.001.006-.001.03-.005c.273-.042.548-.084.821-.137-.26.239-.49.436-.718.596l-.04.03-.001.001-.091.058c-.301.21-.604.376-.964.556-1.824.935-3.33 1.33-5.21 1.363l-.018.028-.059-.028c-1.066-.011-3.781-.186-5.88-1.539a1.377 1.377 0 0 1-.264-.198l-.154-.121h-.011a9.595 9.595 0 0 1-.636-.53l-.019-.016-.004-.003-.019-.014-.025-.019-.198-.176.26.042zm12.952 4.167c-.202.474-.44.879-.691 1.255l-.066.096a6.898 6.898 0 0 1-1.519 1.61c.03.081.052.149.056.176l-.193-.08c-.132.094-.263.162-.394.243-.064.039-.126.08-.191.118-.163.093-.32.174-.479.249l-.094.043a7.348 7.348 0 0 1-1.639.533c-.143.022-.264.044-.374.055-.044 0-.088 0-.132.011-.187.022-.286.022-.286.022v-.011a7.44 7.44 0 0 1-.703 0v.011s-.044 0-.121-.011c-.099-.011-.154-.011-.154-.011v-.011c-.583-.062-2.028-.314-3.369-1.2l-.094.039a.848.848 0 0 1 .023-.09A5.852 5.852 0 0 1 9.463 13.2s-.399-1.1-.36-2.453l.042.035.001.001c.054.054.098.087.153.131.022.022.044.033.044.033l.219.186h.033c.088.066.165.132.242.165 2.22 1.429 4.979 1.671 6.43 1.692h.11c2.056-.044 3.704-.462 5.694-1.473.148-.078.28-.156.417-.233.071-.041.152-.081.219-.123l.013-.008.012-.007c-.061 1.284-.453 2.339-.453 2.339zm4.924-1.307c-1.033 1.605-2.748 2.473-4.265 2.945a7.97 7.97 0 0 0 1.088-4.935c.385-.362.835-.813 1.385-1.439l.033-.033c.308-.198.594-.286.891-.297.659-.033 1.066.143 1.297.539.461.78.142 2.33-.429 3.22z"/><path fill="#e6d8ca" d="M7.821 28.837l-3.466 1.367v1.798H8.7v-2.69a16.84 16.84 0 0 1-.879-.476zm0 0c.288.167.581.325.879.476v-.822l-.879.347z"/><path fill="#e6b07a" d="M18.112 31.665l-6.396-4.364-1.91.759h-.009v3.943h8.428z"/><path fill="#614626" d="M7.102 22.348l3.628-.397-1.177-1.438c-.531.308-1.063.662-1.566 1.055-.311.244-.607.504-.885.78zm1.296-7.4a7.044 7.044 0 0 1-.406-1.209c-.077-.341-.143-.627-.176-.912a7.321 7.321 0 0 1-.033-1.55 7.413 7.413 0 0 1 .099-1.572v-.011c-.451-.397-.912-.747-1.384-.979l-.185-.053.008-.026a2.256 2.256 0 0 0-.813-.216h-.111c-.594 0-.979.187-1.188.561-.429.791-.11 2.319.45 3.198.913 1.428 2.386 2.275 3.739 2.769zm18.806-2.769c.571-.891.891-2.44.429-3.221-.23-.395-.638-.571-1.297-.539a1.718 1.718 0 0 0-.891.297l-.033.033c-.55.627-1 1.077-1.385 1.439a7.968 7.968 0 0 1-1.088 4.935c1.517-.473 3.232-1.341 4.265-2.945zm.79 12.192l-1.76-3.064a.546.546 0 0 1-.223.079l-.27.03.027.358.084 1.116.042.556-1.204.109-.133-1.775-.018-.233-.493.054.01.182.151 2.639-1.204.144-.156-2.777-.003-.057-.477.052.001.008.155 2.039-1.204.109-.152-2.024-4.732.518.008.06.009.069.075.543.069.502.007.051.15 1.085.036.256-3.999.481-.074-1.223-.018-.301-.001-.021v-.002a24.081 24.081 0 0 0-2.973 1.117 20.693 20.693 0 0 0-3.355 1.898l-.321-.539s1.918-1.509 5.151-2.614c.461-.157.951-.305 1.464-.441l-.014-.233-.009-.161-.007-.112-1.825.2c-1.413.577-3.329 1.388-4.963 2.176l-.303.148-1.035 3.142-.723.048 1.156-3.806s.543-.263 1.327-.62a62.887 62.887 0 0 1 1.795-.788l-2.877.315-.061.003a.544.544 0 0 1-.37-.146c-.015.032-.035.06-.045.094l-.678 2.168-1.093 3.504a.703.703 0 0 0-.023.306l.333-.13 8.335-3.296c.028-.01.055-.008.083-.01.026-.006.05-.02.078-.021l5.401-.345c.88-.108 1.792-.208 2.689-.298.187-.019.375-.037.552-.056.187-.019.365-.037.543-.047a259.98 259.98 0 0 1 5.915-.479c.524-.036.828-.055.828-.055.075.13.149.261.214.392a.736.736 0 0 0 .106-.878zM13.409 22.9l.034.267.209-.049c.098-.021.199-.04.299-.06l-.039-.257-.014-.091-.505.055.013.102.004.032zm.137 1.095l.066.523 2.024-.288-.058-.542-.005-.04-.054-.512-.058-.543-.006-.051-.696.076.008.048.083.53.065.408.023.146.022.141-.867.096-.016-.105-.047-.306c-.152.036-.322.077-.52.128l.036.291z"/><path fill="#543d21" d="M26.878 25.531l.149-.034.507-.116.028.074v.001c.042.099.124.297.228.568.426 1.108 1.258 3.496 1.588 5.978h.89c-.378-1.776-1.051-4.159-2.161-6.327-.073-.141-.141-.286-.217-.425l-.001-.002c-.066-.13-.14-.261-.214-.392 0 0-.303.019-.828.055-1.166.08-3.428.246-5.915.479-.178.009-.356.028-.543.047l-.552.056c-.896.091-1.808.19-2.689.298l3.968-.254a.526.526 0 0 1 .553.392c.011.04.028.078.031.121a.549.549 0 0 1-.513.583l-1.816.116c.141.133.299.301.466.5.176.21.361.46.552.755.085.132.17.262.257.413 0 0-.095-.065-.257-.17-.139-.09-.33-.211-.552-.347a17.78 17.78 0 0 0-1.98-1.055l-.344.023c.346.337.773.841 1.205 1.598 0 0-1.314-.898-2.644-1.506l-2.662.171 5.469 3.718a.534.534 0 0 1 .215.281l.3.871h.487l-.047-.103-1.283-2.828 1.086-.524.197.431.661 1.457.435.959.103.225-.103.056-.543.29-.075.037h1.367l-.721-1.583 1.086-.524.006.012.959 2.095h1.723a20.706 20.706 0 0 0-.803-2.998 18.714 18.714 0 0 0-.818-2.022c.08.095.639.76 1.283 1.751.572.881 1.212 2.017 1.648 3.268h2.332c-.161-1.548-.524-3.524-1.314-5.259a9.569 9.569 0 0 0-.587-1.118l.387-.09.015-.004zm-3.324 3.691l.567 1.242-1.069.571-1.421-3.118 1.087-.526.836 1.831z"/><path fill="#966f4b" d="M20.497 30.434l-.109-.24-.553-1.217-.197-.431-1.086.524.748 1.65.582 1.281h.431l.075-.037.543-.29.103-.056-.103-.225zm1.549-.539l-.14.068-.947.457.721 1.583h1.33l-.959-2.094zm1.508-.673l-.835-1.83-1.087.526.822 1.807.597 1.311 1.069-.571z"/><path fill="#9c734d" d="M27.265 26.558c-.066.064-.135.123-.202.184.79 1.736 1.154 3.712 1.314 5.259h1.002c-.331-2.482-1.162-4.87-1.588-5.978-.171.182-.346.36-.525.534zm.297-1.102a.835.835 0 0 1-.184.04l-.345.026c.095.34.176.684.231 1.037.18-.173.354-.352.525-.533-.105-.272-.187-.47-.229-.57zm-.7.078l-.387.09c.221.354.411.732.587 1.118.067-.062.137-.122.202-.184a9.208 9.208 0 0 0-.231-1.037l-.171.013zm.165-.037l.007.024.345-.026a.848.848 0 0 0 .184-.04l-.028-.074-.507.116zm-.149.034l-.016.004.171-.013-.007-.024-.149.034z"/><path fill="#73532d" d="M22.035 19.944l-.21-.081-.054-.021c-.625.455-1.337.827-2.01 1.121l3.723-.407c-.417-.188-.909-.4-1.449-.612zm-9.371 3.411c-.513.136-1.003.284-1.464.441-3.233 1.105-5.151 2.614-5.151 2.614l.321.539a20.61 20.61 0 0 1 3.355-1.897 23.5 23.5 0 0 1 2.973-1.117l-.016-.258-.019-.321zm1.345.085l-.015-.096-.044-.285c-.1.02-.2.039-.299.06-.071.015-.139.033-.209.049l.014.112.021.164.033.262c.199-.052.368-.093.52-.128l-.013-.087-.008-.052zm-5.947-.09c-.649.273-1.274.552-1.795.788-.783.357-1.327.62-1.327.62l-.456 1.5-.699 2.306.722-.048.012-.036 1.023-3.105c.1-.05.2-.098.303-.148 1.633-.789 3.55-1.6 4.963-2.176l-2.746.3z"/><path fill="#b8916c" d="M16.605 23.658l-.007-.05-.07-.503-.075-.543-.009-.068-.008-.061-.981.108.006.051.057.542.055.512.004.04.058.542-2.024.289-.066-.523-.036-.289-.033-.263-.021-.163-.014-.112-.034-.267-.004-.032-.013-.102-.079.008-.681.075.008.112.009.161.014.233.02.321.016.258v.001l.001.021.019.3.074 1.224 3.998-.482-.036-.255zm-2.655-.6l.044.285.015.096.008.051.013.087.047.306.017.104.867-.096-.023-.141-.023-.146-.065-.409-.083-.53-.008-.048-.862.095.014.091zm11.903-.169l-.084-1.116-.027-.358-1.201.131.018.233.132 1.775 1.204-.109zm-3.484-1.105l-.072.008-1.128.124.152 2.024 1.204-.11-.156-2.039zm1.68-.184l-1.203.131.003.057.156 2.777 1.204-.144-.151-2.639z"/><path fill="#402e19" d="M23.113 26.982c.332.692.591 1.365.818 2.022.381 1.101.644 2.135.803 2.998h1.311c-.436-1.251-1.076-2.387-1.648-3.268a18.115 18.115 0 0 0-1.283-1.751zm-1.998-1.443l-.184.012-9.185.586c-.028.002-.052.015-.078.021-.028.002-.055 0-.083.01l-1.779.702-.562.225-6.602 2.612c-.29.122-.431.44-.309.712.112.29.431.431.702.309l.215-.084v1.358h1.105v-1.798L8.7 28.49v3.512h1.096v-3.943h.009l1.91-.759 6.396 4.364.112.337h1.171l-.3-.871a.534.534 0 0 0-.215-.281l-.064-.043-5.406-3.676 2.663-.17c1.331.607 2.644 1.506 2.644 1.506-.433-.757-.86-1.26-1.205-1.598l.343-.022c.721.316 1.448.73 1.98 1.055a22.242 22.242 0 0 1 .809.517c-.086-.151-.171-.281-.257-.413a7.639 7.639 0 0 0-.552-.755 6.15 6.15 0 0 0-.466-.5l1.816-.116a.55.55 0 0 0 .513-.583c-.003-.044-.02-.081-.031-.121a.523.523 0 0 0-.551-.392zm4.777-5.246l-20.826 2.28a.549.549 0 0 0 .059 1.096l.061-.003 20.826-2.283a.537.537 0 0 0 .223-.079.545.545 0 0 0-.343-1.012z"/></svg>