<svg xmlns="http://www.w3.org/2000/svg" xmlns:xlink="http://www.w3.org/1999/xlink"><defs><path id="nr7ca" d="M663.8 3589.76a15.36 15.36 0 0 1-15.34-15.37 15.36 15.36 0 1 1 15.35 15.37zm.17-18.02c0-3.47-3.78-3.2-3.78-3.2h-5.6l.01 12.33 5.23-.03s4.49.34 4.53-3.7c0-2.34-1.9-2.9-1.9-2.9s1.5-.55 1.5-2.5zm8.33-2.52h-4.79v1.37h4.8zm-2.45 2.1c-4.58 0-4.36 4.82-4.36 4.82s-.25 4.74 4.45 4.74c3.63 0 4.15-3 4.15-3h-2.33s-.37 1.06-1.76 1.04c-2.27 0-2.2-2.2-2.2-2.2l6.4-.02s.66-5.38-4.35-5.38zm-.01 1.97c1.97 0 2.01 1.87 2.01 1.87l-4 .03s.15-1.9 1.99-1.9zm-10.12 5.41h-2.6l-.01-3.29 2.65.01s2-.14 2 1.53c0 2-2.04 1.75-2.04 1.75zm.02-5.3l-2.63.01v-2.72h2.27s2.14-.27 2.14 1.32c0 1.6-1.78 1.39-1.78 1.39z"/><mask id="nr7cc" width="2" height="2" x="-1" y="-1"><path fill="#fff" d="M647 3558h34v33h-34z"/><use xlink:href="#nr7ca"/></mask><filter id="nr7cb" width="56" height="56" x="636" y="3548" filterUnits="userSpaceOnUse"><feOffset dy="1" in="SourceGraphic" result="FeOffset1343Out"/><feGaussianBlur in="FeOffset1343Out" result="FeGaussianBlur1344Out" stdDeviation="0.4 0.4"/></filter><path id="vic1a" d="M702.55 3586.72c-6.6 0-11.95-5.37-11.95-12 0-6.62 5.35-11.99 11.95-11.99s11.95 5.37 11.95 12c0 6.62-5.35 11.99-11.95 11.99zm9.78-10.74c-3.3-.53-6.28-.04-6.28-.04s1.3 3.42 1.92 7.05c0 0 3.72-2.06 4.36-7zm-6.25 7.98s-.85-5.01-1.96-7.6c-4.93 1.39-7.62 6.17-7.63 6.17 4.76 3.61 9.6 1.43 9.6 1.43zm-11.04-2.82c3.73-5.64 8.4-6.5 8.4-6.5l-.8-1.76s-3.21 1.24-9.94 1.45c0 .02-.33 3.7 2.34 6.8zm-2.14-8.5c5.27-.14 8.92-1.33 8.92-1.33s-1.27-2.46-3.72-5.42a10.03 10.03 0 0 0-5.2 6.75zm7.15-7.48s2.4 2.49 3.72 5.47c0 0 2.98-1.12 5.22-3.4-4.15-3.6-8.94-2.07-8.94-2.07zm10.13 3.3s-2.05 2.37-5.63 3.75c.3.64.58 1.31.85 2 3.07-.59 6.99-.03 6.99-.02a9.73 9.73 0 0 0-2.2-5.73zm-22.89 6.18a15.36 15.36 0 1 0 15.35-15.38 15.36 15.36 0 0 0-15.35 15.38z"/><mask id="vic1c" width="2" height="2" x="-1" y="-1"><path fill="#fff" d="M686 3558h33v34h-33z"/><use xlink:href="#vic1a"/></mask><filter id="vic1b" width="55" height="57" x="675" y="3548" filterUnits="userSpaceOnUse"><feOffset dy="1" in="SourceGraphic" result="FeOffset1323Out"/><feGaussianBlur in="FeOffset1323Out" result="FeGaussianBlur1324Out" stdDeviation="0.4 0.4"/></filter><path id="treaa" d="M569.22 7254.3l-2.65.01c-1.7 0-1.48 1.19-1.48 4.11l4.11-.05-.67 4.12h-3.45v14.4h-5.14v-14.4h-3.1v-4.1s3.11.02 3.11 0c.17-2.2-.99-8.22 4.1-8.22h5.17zm-28.22 8.2a22.5 22.5 0 1 0 45 0 22.5 22.5 0 0 0-45 0z"/><mask id="treac" width="2" height="2" x="-1" y="-1"><path fill="#fff" d="M539 7238h48v48h-48z"/><use xlink:href="#treaa"/></mask><filter id="treab" width="70" height="71" x="528" y="7228" filterUnits="userSpaceOnUse"><feOffset dy="1" in="SourceGraphic" result="FeOffset1203Out"/><feGaussianBlur in="FeOffset1203Out" result="FeGaussianBlur1204Out" stdDeviation="0.4 0.4"/></filter><path id="owgya" d="M740.24 7265.58c-1.33.04-6.5.23-6.47 4.06 0 .34.12 4.02 5.92 4.12 5.4-.2 4.93-3.5 5.02-3.64-.04-2.5-3.32-4.4-4.47-4.54zm-.8-5.37c4.48 0 3.33-5.02 3.33-5.02s-1.08-4.86-4.24-4.52c-4.05.05-2.92 5.1-2.92 5.1s.94 4.28 3.83 4.44zm-.26.86c-.64.05-.8.03-1.08.05a5.36 5.36 0 0 1-5.53-5.32c-.04-2.24 1.18-3.6 2.09-4.52 1.05-.9 2.62-1.8 6.06-1.8h6.96l-2.17 1.2h-2.1c.26.17 2.31 1.48 2.44 4.52 0 3.98-3.79 4.43-3.79 6.49 0 1.13 1.25 1.58 2.1 2.36 1.94 1.4 2.63 2.99 2.63 4.7 0 3.19-2.92 6.37-8.7 6.42.02.04-7.19.14-7.42-4.84 0 .03-.33-2.23 2.76-4.12 1.91-1.27 4.44-1.38 6.42-1.58-.7-.8-1-1.41-1-2.27.01-.47.1-.79.33-1.3zm13.29-11.76h2.12v3.17h3.17v2.11h-3.17v3.18h-2.12v-3.18h-3.17v-2.11h3.17zm-30.5 13.14a22.5 22.5 0 1 0 45 0 22.5 22.5 0 0 0-45 0z"/><mask id="owgyc" width="2" height="2" x="-1" y="-1"><path fill="#fff" d="M720 7238h48v48h-48z"/><use xlink:href="#owgya"/></mask><filter id="owgyb" width="70" height="71" x="709" y="7228" filterUnits="userSpaceOnUse"><feOffset dy="1" in="SourceGraphic" result="FeOffset1263Out"/><feGaussianBlur in="FeOffset1263Out" result="FeGaussianBlur1264Out" stdDeviation="0.4 0.4"/></filter><path id="kj7pa" d="M674.87 7251.72a2.62 2.62 0 1 1 0 5.25 2.62 2.62 0 0 1 0-5.25zm-2.3 6.9h5.08V7274h-5.09zm13.61-.09v2.28c.49-.73 1.43-2.53 4.55-2.56 5.72 0 5.7 6.21 5.7 7.67l-.07 8.05-5.06-.01s.02-7.41 0-8.5c.03-.36-.01-2.87-2.34-2.87-3.15 0-2.78 3.15-2.78 3.15v8.19h-5.15v-15.4zm5.12 6.93c0-.2 0-.18 0 0 0 .04 0 .05 0 0zm-29.26-2.89a22.5 22.5 0 1 0 45 0 22.5 22.5 0 0 0-45 0z"/><mask id="kj7pc" width="2" height="2" x="-1" y="-1"><path fill="#fff" d="M661 7239h48v48h-48z"/><use xlink:href="#kj7pa"/></mask><filter id="kj7pb" width="70" height="71" x="650" y="7229" filterUnits="userSpaceOnUse"><feOffset dy="1" in="SourceGraphic" result="FeOffset1243Out"/><feGaussianBlur in="FeOffset1243Out" result="FeGaussianBlur1244Out" stdDeviation="0.4 0.4"/></filter><path id="e39ka" d="M802.59 7251.96h3.4v6.02H811v4.01h-5l-.01 6.27c0 3.05 2.13 3.66 6 1.88v4c-2.12.69-4.75 1.07-6.87.76-1.71-.25-4.12-1.27-4.12-3.91v-9.02h-2.99v-3.96c3.46-1.7 4.4-3.27 4.58-6.05zm-20.6 10.54a22.5 22.5 0 1 0 45 0 22.5 22.5 0 0 0-45 0z"/><mask id="e39kc" width="2" height="2" x="-1" y="-1"><path fill="#fff" d="M780 7238h48v48h-48z"/><use xlink:href="#e39ka"/></mask><filter id="e39kb" width="70" height="71" x="769" y="7228" filterUnits="userSpaceOnUse"><feOffset dy="1" in="SourceGraphic" result="FeOffset1283Out"/><feGaussianBlur in="FeOffset1283Out" result="FeGaussianBlur1284Out" stdDeviation="0.4 0.4"/></filter><path id="bqada" d="M628.78 7252.56c.24 0 .5.48.5.48s.46-.97.99-1.02c.36.2.52.76.24.95.1 0 1.19-.78 1.73-.39.06.61-1.72 1.62-1.72 1.62s4.18 0 5.92 6.05c.05 0 2.28.32 3.78-.84-.12 1.33-2.68 2.44-2.68 2.44s1.5.3 2.54.12c-.37 1.98-3.7 1.79-3.7 1.79s-2.57 8.81-10.61 10.09c-9.92 1.43-15.56-2.27-16.23-6.1.01.03 5.96 5.28 10.9.05a3 3 0 0 1-1.34-.4c-.05-.06-.64-.47-.64-1.13 0-.41.9-1.49.9-1.49s-1.93.09-3.15-1.22c-.1-.1-.78-.65.16-1.25.57-.36 1.47-.83 1.47-.83s-.85.3-1.53-.02c-.01-.01-1.4-1.12-1.66-2.18-.25-.83.92-.8.92-.8l.79-.02s-2.78-2.03-2.06-3.63c0-.02.6-1.2 9.73 4.96 0 0 1.96-6.46 4.75-7.23zm-26.8 9.91a22.5 22.5 0 1 0 45 0 22.5 22.5 0 0 0-45 0z"/><mask id="bqadc" width="2" height="2" x="-1" y="-1"><path fill="#fff" d="M600 7238h48v48h-48z"/><use xlink:href="#bqada"/></mask><filter id="bqadb" width="70" height="71" x="589" y="7228" filterUnits="userSpaceOnUse"><feOffset dy="1" in="SourceGraphic" result="FeOffset1223Out"/><feGaussianBlur in="FeOffset1223Out" result="FeGaussianBlur1224Out" stdDeviation="0.4 0.4"/></filter></defs><symbol id="behance" viewBox="0 0 34 33"><g><g transform="translate(-647 -3559)"><g filter="url(#nr7cb)"><use fill="none" stroke-opacity=".25" stroke-width="0" mask="url(&quot;#nr7cc&quot;)" xlink:href="#nr7ca"/><use fill-opacity=".25" xlink:href="#nr7ca"/></g><use fill="#fff" xlink:href="#nr7ca"/></g></g></symbol><symbol id="community" viewBox="0 0 200 200">
	<g fill="#FCB017">
		<path d="M134.24 5.76v23.17c1.98 2.5 3.01 5.24 2.94 8.07-.11 5-3.4 9.38-8.83 12.61l25.98 64.96c2.52-3.37 6.29-5.82 10.8-6.59 9.22-1.57 17.95 4.53 19.5 13.63.79 4.67-.47 9.21-3.13 12.75.25 2.08.36 4.16.34 6.23 7.96-13.83 12.52-29.88 12.52-47-.01-40.06-24.95-74.3-60.12-87.83zm23.76 36.83c2.37 0 4.29 1.92 4.29 4.29s-1.92 4.29-4.29 4.29-4.29-1.92-4.29-4.29 1.92-4.29 4.29-4.29zm-10.53 28.53l-1.35-11.71-11.18-1.47 11.18-1.53 1.35-11.71 1.41 11.71 11.18 1.53-11.18 1.47-1.41 11.71zm22.88 17.12l-2 16.65-2-16.65-15.82-2.12 15.82-2.12 2-16.65 2 16.65 15.88 2.12-15.88 2.12zM69.29 35.82c.04-2.67 1.04-5.21 2.88-7.53v-22.41c.12-.12.24-.18.35-.24-.24-.59-.35-1.18-.35-1.82-38 12.06-65.59 47.65-65.59 89.76 0 8.63 1.16 16.98 3.33 24.92 2.79-7.32 10.52-11.89 18.64-10.51 5.66.96 10.18 4.6 12.48 9.36l.83-1.62c-.96-7.25 1.58-15.89 12.6-24.7l.15-.29c-3.54-4.24-6.56-1.37-8.09-3.35-1.53-1.94 2.24-7.59 2.24-7.59.59-.82 1.47-1.47 2.47-1.53 2.94-.17 5.76 1.38 8.08 3.26l17.19-33.65c-1.15-.83-2.19-1.7-3.09-2.64-2.76-2.83-4.17-6.12-4.12-9.42zm-21.82 17.36c2.37 0 4.29 1.92 4.29 4.29s-1.92 4.29-4.29 4.29-4.29-1.92-4.29-4.29 1.92-4.29 4.29-4.29zm-24.65 37.17c-2.37 0-4.29-1.92-4.29-4.29s1.92-4.29 4.29-4.29 4.29 1.92 4.29 4.29-1.91 4.29-4.29 4.29zm15.59-16.06l-2.71 22.41-2.7-22.41-21.29-2.82 21.29-2.82 2.71-22.47 2.71 22.47 21.29 2.82-21.3 2.82z"/>
	</g>
	<g fill="#E6E7E8">
		<path d="M28.8 140.91c-1.88.33-3.84.37-5.83.03-1.58-.27-3.06-.76-4.44-1.41-.32-.15-.63-.31-.94-.48-.08 3.92.39 7.79 1.39 11.54l5.57-.85.52-.08 5.1-.78c-.76-2.38-1.23-4.9-1.34-7.52-.03-.16-.03-.31-.03-.45zM27.62 113.57c-6.12-1.04-11.91 3-12.93 9.02-.1.56-.13 1.12-.14 1.68-.05 3.23 1.34 6.25 3.67 8.35 1.54 1.39 3.48 2.38 5.69 2.76 1.84.31 3.65.16 5.31-.36 1.45-.46 2.79-1.2 3.93-2.17 1.31-1.12 2.36-2.54 3.03-4.19.3-.73.52-1.49.66-2.3.05-.32.09-.64.11-.97.46-5.66-3.54-10.84-9.33-11.82zM164.85 140.88c-.08 2.79-.56 5.46-1.36 7.98l4.84.74 6.34.97c1-3.74 1.47-7.62 1.39-11.53-1.62.89-3.41 1.54-5.34 1.87-2 .35-3.98.31-5.87-.03zM179 122.57c-1.02-6.02-6.81-10.06-12.93-9.02-4.44.76-7.82 3.98-8.95 7.99-.43 1.52-.55 3.14-.27 4.79.14.81.37 1.59.67 2.32.91 2.23 2.53 4.04 4.54 5.25.74.44 1.53.81 2.37 1.07 1.67.53 3.5.69 5.35.38 2.19-.37 4.12-1.35 5.65-2.72 2.36-2.11 3.77-5.16 3.71-8.42-.01-.55-.05-1.09-.14-1.64zM126.94 135.71l-14.47-.94c-1.71-.06-3.35-.53-4.88-1.35-4.35-2.24-6.94-6.88-6.65-11.76l.03-.38-2.69-.24-.04.56c-.24 3.29-1.71 6.29-4.18 8.47-2.47 2.18-5.65 3.24-8.94 3.06l-14.47-.94c-1.71-.12-3.35-.59-4.88-1.35-2.2-1.13-3.95-2.88-5.11-4.97-.04.73-.07 1.47-.07 2.21 0 12.99 6.5 24.46 16.43 31.34 1.63 1.13 3.36 2.15 5.16 3.02 1.45.7 2.96 1.3 4.5 1.81 2.4.8 4.91 1.36 7.5 1.67 1.49.18 3 .28 4.53.28l.59-.02c2.42-.04 4.79-.29 7.08-.76 2.19-.45 4.3-1.09 6.34-1.9 1.43-.57 2.82-1.21 4.16-1.93l.04-.02c.51-.28 1.01-.57 1.5-.86 9.99-6.05 16.98-16.56 18.21-28.77-.24.25-.48.49-.75.73-2.47 2.15-5.64 3.21-8.94 3.04zm-17.92 15.05l-.06.04-.2.13h-.01c-1.69 1.12-3.4 1.82-5.07 2.2-.36.08-.72.15-1.08.2-1.04.15-2.07.19-3.06.14-1.59-.08-3.11-.4-4.5-.83-2.04-.64-3.8-1.53-5.14-2.32-1.02-.58-2-1.25-2.91-1.98l-.42-.36c-3.6-3.02-6.2-6.99-6.99-11.4l38.88 1.76c-1.23 5.4-4.74 9.9-9.44 12.42zM87.12 102.41c6.64.41 11.93 6.52 11.53 13.1l2.69.24.01-.16c.41-6.82 6.29-11.94 13.12-11.53l14.47.94.12.01c-6.96-9.16-17.97-15.07-30.36-15.07-10.7 0-20.37 4.42-27.29 11.52.41-.02.82-.01 1.23.01l14.48.94z"/>
	</g>
	<g fill="#B1B3B3">
		<path d="M108.76 150.94l-.01.01.01-.01zM87.88 149l.35.23-.34-.25-.01.02zM103.72 144.56c-1.2-.68-2.58-1.2-4.19-1.5-3.74-.71-7.11-.3-9.32 1.72-.65.59-1.2 1.33-1.63 2.22 2.87 2.21 5.63 3.38 8.17 3.88l.18.03c4.76.88 8.69-.55 10.95-1.73l.14-.08c-.46-.92-1.02-1.76-1.69-2.5-.74-.79-1.61-1.48-2.61-2.04z"/>
	</g>
	<path d="M129.06 105.01l-.12-.01-14.47-.94c-6.82-.41-12.71 4.71-13.12 11.53l-.01.16-2.69-.24c.4-6.58-4.89-12.68-11.53-13.1l-14.47-.94c-.41-.02-.83-.02-1.23-.01-2.8.11-5.46 1.14-7.61 2.99l-.1.08c-1.96 1.73-3.28 3.97-3.86 6.47-.15.65-.27 1.32-.32 2l-.41 6.06c-.15 2.41.41 4.76 1.54 6.79 1.15 2.09 2.9 3.84 5.11 4.97 1.53.76 3.18 1.24 4.88 1.35l14.47.94c3.29.18 6.47-.88 8.94-3.06 2.47-2.18 3.94-5.18 4.18-8.47l.04-.56 2.69.24-.03.38c-.29 4.88 2.29 9.53 6.65 11.76 1.53.82 3.18 1.29 4.88 1.35l14.47.94c3.29.18 6.47-.88 8.94-3.06.26-.23.51-.48.75-.73 2.02-2.1 3.22-4.8 3.43-7.75l.41-6.06c.41-6.52-4.82-12.6-11.41-13.08zm-38.59 20.87c-1.35 1.24-3.12 1.82-4.94 1.71l-14.47-.94c-3.76-.24-6.65-3.59-6.41-7.24l.41-6.06c.12-1.82.94-3.53 2.29-4.71 1.35-1.24 3.12-1.82 4.94-1.71l14.47.94c.94.06 1.88.35 2.71.76 2.41 1.29 3.88 3.82 3.71 6.47l-.41 6.06c-.12 1.84-.95 3.49-2.3 4.72zm44.53-8.06l-.41 6.06c-.12 1.82-.94 3.47-2.29 4.71-1.35 1.24-3.12 1.82-4.94 1.71l-14.47-.94c-3.71-.29-6.65-3.65-6.41-7.29l.41-6.06c.24-3.76 3.47-6.65 7.24-6.41l14.47.94c.94.06 1.88.35 2.71.76 1.39.71 2.43 1.88 3.06 3.25.19.42.35.85.46 1.29.13.64.2 1.31.17 1.98z"/>
	<g fill="#373737">
		<path d="M184.62 121.61c-1.55-9.1-10.28-15.2-19.5-13.63-4.5.77-8.28 3.22-10.8 6.59-2.64 3.53-3.9 8.06-3.1 12.72.85 5.02 3.9 9.11 8 11.53.46 9.67-4.98 17.89-11.99 22.6-4.29 2.84-10.38 3.6-17.02 2.78l-.44-2.63c6.35-5.87 11.12-13.6 13.35-22.63 2.06-8.29 1.71-16.59-.65-24.18-3.12-10.25-9.81-19.25-19-25.16-18.31-40.01-50.74-14.76-61.12-5.15-.85-.94-1.88-1.96-3.04-2.91-2.32-1.88-5.14-3.43-8.08-3.26-1 .06-1.88.71-2.47 1.53 0 0-3.76 5.65-2.24 7.59 1.53 1.97 4.55-.89 8.09 3.35l.09.1-.23.18c-11.02 8.8-13.56 17.45-12.6 24.7 1.48 11.17 11.3 19.03 11.3 19.03l.13-.91c1.45 11.21 7.02 21.48 15.51 28.81l-.16.61c-8.58 1.98-16.8 1.7-22.18-1.87-7.01-4.7-12.45-12.92-11.99-22.59 4.09-2.41 7.13-6.5 7.98-11.51.6-3.51.03-6.95-1.42-9.95-2.3-4.76-6.82-8.4-12.48-9.36-8.12-1.38-15.85 3.19-18.64 10.51-.38.99-.67 2.04-.86 3.12-.8 4.68.48 9.23 3.14 12.77-2.11 17.65 5.75 35.13 21.68 45.78 2.24 1.47 4.65 2.82 7.12 3.94 6.46 2.97 13.63 4.71 20.77 5.12l-2.71 10.23h77.06l-1.75-10.43c6.33-.63 12.61-2.29 18.33-4.92 2.47-1.12 4.88-2.47 7.12-3.94 14.06-9.4 21.83-24.12 22.01-39.59.02-2.07-.09-4.15-.34-6.23 2.66-3.53 3.93-8.07 3.13-12.74zm-159.56 28.04l-.52.08-5.57.85c-1-3.74-1.47-7.62-1.39-11.54.31.17.62.33.94.48 1.38.65 2.86 1.14 4.44 1.41 1.99.34 3.96.3 5.83-.03l.01.44c.12 2.62.59 5.13 1.34 7.52l-5.08.79zm8.09-16.81c-1.14.98-2.48 1.71-3.93 2.17-1.66.52-3.47.68-5.31.36-2.21-.38-4.15-1.37-5.69-2.76-2.33-2.1-3.72-5.12-3.67-8.35.01-.56.04-1.12.14-1.68 1.02-6.02 6.81-10.06 12.93-9.02 5.79.98 9.79 6.16 9.33 11.82-.03.32-.06.64-.11.97-.14.8-.36 1.57-.66 2.3-.67 1.64-1.72 3.07-3.03 4.19zm85.27 27.85c-.49.3-.99.59-1.5.86l-.04.02c-1.34.73-2.73 1.37-4.16 1.93-2.03.8-4.15 1.45-6.34 1.9-2.29.47-4.66.72-7.08.76l-.59.02c-1.53 0-3.04-.1-4.53-.28-2.59-.31-5.09-.87-7.5-1.67-1.54-.51-3.05-1.11-4.5-1.81-1.81-.87-3.53-1.89-5.16-3.02-9.92-6.88-16.43-18.35-16.43-31.34 0-.74.03-1.48.07-2.21-1.12-2.03-1.68-4.38-1.54-6.79l.41-6.06c.05-.68.16-1.35.32-2 .58-2.5 1.9-4.75 3.86-6.47l.1-.08c2.14-1.85 4.8-2.88 7.61-2.99 6.92-7.1 16.59-11.52 27.29-11.52 12.39 0 23.4 5.92 30.36 15.07 6.59.48 11.82 6.56 11.41 13.1l-.41 6.06c-.21 2.94-1.41 5.65-3.43 7.75-1.24 12.21-8.23 22.72-18.22 28.77zm56.26-10.11l-6.34-.97-4.84-.74c.8-2.52 1.28-5.2 1.36-7.98v-.01c1.89.34 3.87.38 5.87.04 1.93-.33 3.72-.98 5.34-1.87.08 3.91-.39 7.79-1.39 11.53zm.75-17.95c-1.53 1.37-3.46 2.35-5.65 2.72-1.86.32-3.68.16-5.35-.38-.83-.27-1.63-.63-2.37-1.07-2.01-1.21-3.62-3.02-4.54-5.25-.3-.73-.53-1.51-.67-2.32-.28-1.65-.16-3.28.27-4.79 1.13-4.01 4.52-7.24 8.95-7.99 6.12-1.04 11.91 3 12.93 9.02.09.55.13 1.1.14 1.64.06 3.26-1.35 6.31-3.71 8.42zM86.58 147.99l.42.36c.92.73 1.89 1.39 2.91 1.98 1.33.8 3.1 1.69 5.14 2.32 1.39.43 2.91.75 4.5.83.99.05 2.02.01 3.06-.14.36-.05.71-.12 1.08-.2 1.67-.38 3.38-1.08 5.07-2.2l.01-.01.2-.13.06-.04c4.7-2.53 8.21-7.02 9.45-12.41l-38.88-1.76c.78 4.41 3.38 8.38 6.98 11.4zm3.63-3.21c2.21-2.02 5.57-2.43 9.32-1.72 1.62.3 2.99.82 4.19 1.5 1 .56 1.87 1.25 2.59 2.04.68.74 1.24 1.58 1.69 2.5l-.14.08c-2.26 1.18-6.19 2.61-10.95 1.73l-.18-.03c-2.54-.5-5.3-1.67-8.17-3.88.45-.9 1-1.63 1.65-2.22zm-2.32 4.2l.34.25-.35-.23.01-.02zM84.24 118.82l-.47 4.47 4.53.53.53-4.29c.64-5.53-3.3-10.53-8.83-11.18-5.53-.65-10.53 3.29-11.18 8.82l-.59 4.24 3.88.53.59-4.24c.24-2.35 2.18-5.47 6.35-5.24 3.77.19 5.6 2.83 5.19 6.36zM120.88 111.71c-5.53-.65-10.53 3.29-11.18 8.82l-.53 4.29 3.88.53.53-4.29c.24-2.35 2.18-5.47 6.35-5.24 3.76.18 5.59 2.82 5.18 6.35l-.47 4.47 4.53.53.53-4.29c.65-5.53-3.29-10.53-8.82-11.17z"/>
	</g>
	<path fill="#808184" d="M134 5.65c-10.41-4-21.71-6.18-33.53-6.18-7.88 0-15.53 1-22.88 2.82-1.82.47-3.65.94-5.41 1.53 0 .65.12 1.24.35 1.82-.12.06-.24.12-.35.24v22.41c.96-1.2 2.12-2.35 3.53-3.41l.88-.59c6.18-4.29 15.59-6.71 25.94-6.71h1.06c9.12.18 17.82 2.29 23.94 5.88h.41l.71.59c2.31 1.46 4.19 3.11 5.59 4.87v-23.16c-.06-.05-.18-.11-.24-.11z"/>
	<g fill="#FFCE13">
		<path d="M117.59 37.18c-1.88-1.06-6.94-2.53-14.65-2.53s-12.76 1.41-14.65 2.53c1.88 1.06 6.94 2.53 14.65 2.53 7.65 0 12.77-1.47 14.65-2.53zM125.88 29.35h-.06l-.71-.47c-5.29-3.29-13.24-5.29-21.71-5.41h-1c-9.41 0-18.06 2.29-23.18 6.06l-.71.59c-2.29 1.94-3.35 3.88-3.41 5.82-.06 1.76.76 3.53 2.47 5.24 1.93 2.01 4.79 3.73 8.23 5.08 4.84 1.9 10.83 3.05 17.12 3.15h1.24c9.52 0 17.21-2.27 21.94-5.37 3.25-2.13 5.1-4.65 5.17-7.1.02-2.59-1.86-5.29-5.39-7.59zm-44.06 7.83c0-6.24 11.35-8.41 21.06-8.41 9.71 0 21.06 2.18 21.06 8.41s-11.29 8.41-21.06 8.41c-9.7 0-21.06-2.18-21.06-8.41z"/>
	</g>
	<path fill="#6D6E70" d="M134.24 28.93c-1.4-1.77-3.27-3.41-5.59-4.87l-.71-.59h-.41c-6.12-3.59-14.82-5.71-23.94-5.88h-1.06c-10.35 0-19.76 2.41-25.94 6.71l-.88.59c-1.41 1.06-2.57 2.21-3.53 3.41-1.84 2.32-2.84 4.86-2.88 7.53-.06 3.29 1.35 6.59 4.12 9.41.89.94 1.94 1.82 3.09 2.64 6.21 4.46 15.91 7.22 26.38 7.42h1.29c9.72 0 18.23-2.14 24.17-5.68 5.42-3.23 8.71-7.62 8.83-12.61.07-2.84-.96-5.58-2.94-8.08zm-31.3 20.48c-6.29-.1-12.29-1.26-17.12-3.15-3.44-1.35-6.3-3.08-8.23-5.08-1.71-1.71-2.53-3.47-2.47-5.24.06-1.94 1.12-3.88 3.41-5.82l.71-.59c5.12-3.76 13.76-6.06 23.18-6.06h1c8.47.12 16.41 2.12 21.71 5.41l.71.47h.06c3.53 2.29 5.41 5 5.41 7.59-.07 2.44-1.92 4.97-5.17 7.1-4.73 3.1-12.43 5.37-21.94 5.37h-1.26z"/>
	<g fill="#FFE99E">
		<path d="M159.23 138.82c-4.1-2.41-7.15-6.51-8-11.53-.79-4.66.46-9.19 3.1-12.72l-25.98-64.96c-5.94 3.54-14.45 5.68-24.17 5.68h-1.29c-10.47-.2-20.17-2.96-26.38-7.42l-17.19 33.69c1.16.94 2.18 1.97 3.04 2.91 10.37-9.61 42.8-34.87 61.12 5.15 9.19 5.91 15.88 14.91 19 25.16 2.35 7.59 2.71 15.88.65 24.18-2.23 9.02-7 16.75-13.35 22.63l.44 2.63c6.64.81 12.74.06 17.02-2.78 7.01-4.73 12.44-12.96 11.99-22.62zM53.3 133.86l-.13.91s-9.82-7.85-11.3-19.03l-.83 1.62c1.44 3 2.01 6.43 1.42 9.95-.85 5.01-3.89 9.1-7.98 11.51-.45 9.66 4.98 17.88 11.99 22.59 5.38 3.57 13.6 3.85 22.18 1.87l.16-.61c-8.48-7.33-14.06-17.61-15.51-28.81zM54.62 90.76l-.15.29.23-.18-.08-.11zM102.88 45.59c9.76 0 21.06-2.18 21.06-8.41s-11.35-8.41-21.06-8.41c-9.71 0-21.06 2.18-21.06 8.41s11.36 8.41 21.06 8.41zm.06-10.94c7.71 0 12.76 1.47 14.65 2.53-1.88 1.06-7 2.53-14.65 2.53-7.71 0-12.76-1.47-14.65-2.53 1.89-1.12 6.95-2.53 14.65-2.53z"/>
	</g>
	<g fill="#fff">
		<path d="M89.47 108.65c-.82-.41-1.76-.71-2.71-.76l-14.47-.94c-1.82-.12-3.59.47-4.94 1.71-1.35 1.18-2.18 2.88-2.29 4.71l-.41 6.06c-.24 3.65 2.65 7 6.41 7.24l14.47.94c1.82.12 3.59-.47 4.94-1.71 1.35-1.24 2.18-2.88 2.29-4.71l.41-6.06c.18-2.66-1.29-5.19-3.7-6.48zm-.65 10.88l-.53 4.29-4.53-.53.47-4.47c.41-3.53-1.41-6.18-5.18-6.35-4.18-.24-6.12 2.88-6.35 5.24l-.59 4.24-3.88-.53.59-4.24c.65-5.53 5.65-9.47 11.18-8.82 5.53.64 9.47 5.64 8.82 11.17zM134.35 114.54c-.62-1.37-1.67-2.54-3.06-3.25-.82-.41-1.76-.71-2.71-.76l-14.47-.94c-3.76-.24-7 2.65-7.24 6.41l-.41 6.06c-.24 3.65 2.71 7 6.41 7.29l14.47.94c1.82.12 3.59-.47 4.94-1.71 1.35-1.24 2.18-2.88 2.29-4.71l.41-6.06c.03-.68-.04-1.34-.19-1.99-.09-.43-.25-.86-.44-1.28zm-4.64 8.34l-.53 4.29-4.53-.53.47-4.47c.41-3.53-1.41-6.18-5.18-6.35-4.18-.24-6.12 2.88-6.35 5.24l-.53 4.29-3.88-.53.53-4.29c.65-5.53 5.65-9.47 11.18-8.82 5.52.64 9.46 5.64 8.82 11.17zM35.71 46.18l-2.71 22.47-21.29 2.82 21.29 2.82 2.71 22.42 2.7-22.42 21.3-2.82-21.3-2.82zM170.35 84l-2-16.65-2 16.65-15.82 2.12 15.82 2.12 2 16.64 2-16.64 15.89-2.12zM148.88 56.41l-1.41-11.7-1.35 11.7-11.18 1.53 11.18 1.47 1.35 11.71 1.41-11.71 11.18-1.47z"/>
		<circle cx="47.47" cy="57.47" r="4.29"/>
		<circle cx="158" cy="46.88" r="4.29"/>
		<circle cx="22.82" cy="86.06" r="4.29"/>
	</g>
</symbol><symbol id="contact" viewBox="0 0 200 200"><path d="M105.17 199.63H92.89a18.99 18.99 0 0 0 12.28 0zm12.1-65.86c.22 1.16.41 2.37.57 3.6-.15-1.23-.35-2.43-.57-3.6zm67.64-89.48L108.04 2.67c-5.59-3.03-12.43-3.03-18.01 0L13.15 44.29c-5.53 3.03-8.98 8.62-8.98 14.62v83.23c0 6.06 3.39 11.59 8.98 14.62l16.13 8.73c-10.23-13.06-16.25-28.98-16.25-46.13 0-23.71 11.5-45.06 29.74-59.77.17-8.06 6.75-14.54 14.85-14.54h10.93a95.383 95.383 0 0 1 15.89-4.34c.69-7.56 7.05-13.49 14.79-13.49 8.2 0 14.86 6.66 14.86 14.86v2.97h26.75c8.2 0 14.86 6.66 14.86 14.86v101.45c11.05-11.22 17.78-25.91 17.78-42 0-.59-.18-6.78 3.33-10.4 3.15-3.27 8.98-3.27 11.95.06 3.27 3.69 2.68 9.93 2.62 10.64 0 14.6-4.42 28.33-12.12 40.15l5.64-3.05c5.59-2.97 9.04-8.56 8.98-14.62V58.91c0-6.06-3.39-11.59-8.97-14.62zM42.76 154.59V84.42c-8.06 9.77-11.95 21.18-11.95 34.95 0 13.01 4.41 25.12 11.95 35.22zm92.44-11.26c0-1.68-.12-3.33-.34-4.95.23 1.62.34 3.27.34 4.95zm-.33-4.95c-.22-1.62-.55-3.2-.99-4.74.43 1.54.76 3.12.99 4.74z" fill="#BBD758"/><path d="M184.31 113.01c-.48-.54-2.2-.89-3.21.12-1.37 1.43-1.72 4.76-1.66 6.12 0 19.71-9.11 37.51-23.72 50.21v6.77a80.26 80.26 0 0 0 10.35-9.26c12.09-12.9 19.38-29.5 19.38-47.59.17-1.73.11-5.06-1.14-6.37zm-165.33 6.36c0 20.19 9.08 38.52 23.78 51.93v-7.43c-11.17-12.07-17.89-27.59-17.89-44.5 0-16.76 5.17-30.38 15.87-41.67.1-.15.78-1.08 2.02-2.5v-7.76c-14.7 13.41-23.78 31.74-23.78 51.93z" fill="#DBDBDB"/><path d="M63.57 143.33c0-19.8 16.05-35.85 35.85-35.85 7.85 0 15.1 2.56 20.93 6.84l13.1-15.75H48.7v86.2c0 3.87 2.46 7.15 5.9 8.38l3.41-4.1 1.92-2.31 1.98-2.38.69-.83 2.54-3.06 1.96-2.36 1.96-2.36 5.56-6.68a35.368 35.368 0 0 1-11.05-25.74zm71.58.89c-.36 17.06-12.72 31.15-29.01 34.18l-3.94 4.64-2.48 2.92-2.45 2.88-3.77 4.44-.35.41h47.71c3.98 0 7.34-2.6 8.49-6.19.27-.86.43-1.77.43-2.73v-57.69l-14.63 17.14z" fill="#A6A8AB"/><path fill="#009435" d="M140.85 51H114.1v8.92c0 .63-.05 1.24-.13 1.85 1.95 2.86 3.1 6.32 3.1 10.04 0 9.85-7.99 17.84-17.84 17.84S81.4 81.66 81.4 71.81c0-3.73 1.15-7.18 3.1-10.04-.08-.61-.13-1.22-.13-1.85V51H57.62c-1.05 0-2.05.19-2.98.52-1.12.4-2.13 1.01-2.99 1.79a8.857 8.857 0 0 0-2.85 5.4c-.05.4-.09.8-.09 1.22v32.7h101.07v-32.7c-.01-4.94-3.99-8.93-8.93-8.93z"/><path fill="#E6E7E8" d="M108 40.45a8.903 8.903 0 0 0-8.76-7.28c-4.14 0-7.6 2.81-8.61 6.62-.19.73-.31 1.5-.31 2.3v17.84c0 4.93 3.98 8.92 8.92 8.92s8.92-3.98 8.92-8.92V42.09c0-.56-.06-1.11-.16-1.64z"/><path d="M112.44 121.81c.3.18.59.48.89.83l7.02-8.32a35.285 35.285 0 0 0-20.93-6.84c-19.8 0-35.85 16.05-35.85 35.85 0 10.11 4.22 19.26 11.06 25.74l8.74-10.4c-4.76-5.95-5.77-14.45-1.72-21.4 1.13-1.9 2.73-3.63 3.09-3.98.24-.24 1.31.48.95 1.01-1.72 6.18-.89 10.46 1.19 14.57.18.06.95.42 1.07.12.42-12.72 7.07-20.63 14.98-26.04 4.45-1.38 8.2-1.85 9.51-1.14zm-6.31 56.6c16.29-3.03 28.65-17.12 29.01-34.18l-29.01 34.18z" fill="#4B4E49"/><path fill="#A4CC40" d="M112.44 121.81c-1.31-.71-5.05-.24-9.51 1.13-7.91 5.41-14.57 13.32-14.98 26.04-.12.3-.89-.06-1.07-.12-2.08-4.1-2.91-8.38-1.19-14.57.36-.54-.71-1.25-.95-1.01-.36.36-1.96 2.08-3.09 3.98-4.04 6.96-3.03 15.46 1.72 21.4l29.96-36.03c-.3-.34-.6-.64-.89-.82z"/><path fill="#5B5E58" d="M104.71 178.7c.48-.06.95-.18 1.43-.3l29.01-34.18.05-.36.01-.36v-.18c0-4.48-.82-8.77-2.32-12.72-.5-1.32-1.08-2.6-1.72-3.83-2.59-4.95-6.3-9.21-10.82-12.45l-7.02 8.32c1.42 1.86 2.98 6.09 3.94 11.13.22 1.16.41 2.37.57 3.6.1.82.18 1.65.25 2.48.06.83.11 1.67.13 2.51.02.84.02 1.68-.01 2.51a35.285 35.285 0 0 1-.5 4.86c-.14.78-.31 1.54-.52 2.28-.21.74-.44 1.45-.72 2.14-.27.69-.59 1.34-.93 1.96-5.17 9.33-17 12.72-26.34 7.49-2.32-1.25-4.28-2.97-5.83-4.93l-8.74 10.4c6.42 6.24 15.1 10.05 24.79 10.05 1.78 0 3.56-.12 5.29-.42zm1.42-.29l29.02-34.19-29.02 34.19zm-1.42.29c.48-.06.95-.18 1.43-.3-.48.12-.96.24-1.43.3z"/><path fill="#B4DB53" d="M118.09 139.85c-.06-.83-.15-1.66-.25-2.48-.15-1.23-.34-2.43-.57-3.6-.97-5.04-2.52-9.27-3.94-11.13l-29.96 36.03c1.55 1.96 3.51 3.69 5.83 4.93 9.33 5.23 21.16 1.84 26.34-7.49.35-.62.66-1.28.93-1.96.27-.69.51-1.4.72-2.14.21-.74.38-1.5.52-2.28s.25-1.58.33-2.39.14-1.64.17-2.47c.03-.83.03-1.67.01-2.51-.03-.83-.07-1.67-.13-2.51z"/><path d="M99.42 179.12c-9.69 0-18.37-3.8-24.79-10.05l-5.56 6.68-1.96 2.36-1.96 2.36-2.54 3.06-.69.83-1.98 2.38-1.92 2.31-3.41 4.1c.94.34 1.96.53 3.02.53h35.52l.35-.41 3.77-4.44 2.45-2.88 2.48-2.92 3.94-4.64c-.48.12-.95.24-1.43.3-1.73.31-3.51.43-5.29.43zm34.03-80.56l-13.1 15.75c4.52 3.24 8.23 7.51 10.82 12.45.65 1.24 1.22 2.52 1.72 3.83 1.5 3.95 2.32 8.24 2.32 12.72v.18l-.01.36-.05.36 14.62-17.14V98.56h-16.32z" fill="#B5B7BA"/><path fill="#373737" d="M188.77 109.03c-2.97-3.33-8.8-3.33-11.95-.06-3.51 3.63-3.33 9.81-3.33 10.4 0 16.09-6.72 30.79-17.78 42V59.92c0-8.2-6.66-14.86-14.86-14.86H114.1v-2.97c0-8.2-6.66-14.86-14.86-14.86-7.74 0-14.1 5.93-14.79 13.49-5.5 1-10.81 2.47-15.89 4.34H57.62c-8.1 0-14.68 6.49-14.85 14.54-18.24 14.71-29.74 36.06-29.74 59.77 0 17.15 6.02 33.07 16.25 46.13 3.91 4.99 8.43 9.56 13.47 13.63v5.64c0 8.2 6.66 14.86 14.86 14.86h83.23c8.2 0 14.86-6.66 14.86-14.86v-1.2c9.5-6.42 17.53-14.5 23.55-23.75 7.7-11.82 12.12-25.55 12.12-40.15.07-.71.67-6.96-2.6-10.64zm-33.05 67.2v-6.77c14.61-12.69 23.72-30.5 23.72-50.21-.06-1.37.3-4.7 1.66-6.12 1.01-1.01 2.73-.65 3.21-.12 1.25 1.31 1.31 4.64 1.13 6.36 0 18.09-7.29 34.69-19.38 47.59-3.14 3.36-6.6 6.46-10.34 9.27zm-5.95 8.54c0 .95-.15 1.87-.43 2.73a8.898 8.898 0 0 1-8.49 6.19H57.62a8.92 8.92 0 0 1-3.02-.53c-3.44-1.24-5.9-4.51-5.9-8.38v-86.2h101.07v86.19zM42.76 67.44v7.76c-1.24 1.42-1.92 2.35-2.02 2.5-10.7 11.3-15.87 24.91-15.87 41.67 0 16.91 6.73 32.43 17.89 44.5v7.43c-14.7-13.41-23.78-31.74-23.78-51.93s9.08-38.52 23.78-51.93zm8.89-14.13c.86-.78 1.88-1.39 2.99-1.79.93-.33 1.93-.52 2.98-.52h26.75v8.92c0 .63.05 1.24.13 1.85-1.95 2.86-3.1 6.32-3.1 10.04 0 9.85 7.99 17.84 17.84 17.84s17.84-7.99 17.84-17.84c0-3.73-1.15-7.18-3.1-10.04.08-.61.13-1.22.13-1.85V51h26.75c4.93 0 8.92 3.98 8.92 8.92v32.7H48.7v-32.7c0-.41.04-.82.09-1.22.3-2.13 1.34-4.02 2.86-5.39zm38.67-11.22c0-.8.11-1.56.31-2.3a8.89 8.89 0 0 1 8.61-6.62c4.38 0 8 3.13 8.76 7.28.1.53.16 1.08.16 1.63v17.84c0 4.93-3.98 8.92-8.92 8.92s-8.92-3.98-8.92-8.92V42.09zm-47.56 112.5c-7.54-10.1-11.95-22.21-11.95-35.22 0-13.77 3.89-25.18 11.95-34.95v70.17z"/></symbol><symbol id="dribbble" viewBox="0 0 33 33"><g><g transform="translate(-686 -3559)"><g filter="url(#vic1b)"><use fill="none" stroke-opacity=".25" stroke-width="0" mask="url(&quot;#vic1c&quot;)" xlink:href="#vic1a"/><use fill-opacity=".25" xlink:href="#vic1a"/></g><use fill="#fff" xlink:href="#vic1a"/></g></g></symbol><symbol id="facebook" viewBox="0 0 47 47"><g><g transform="translate(-540 -7240)"><g filter="url(#treab)"><use fill="none" stroke-opacity=".25" stroke-width="0" mask="url(&quot;#treac&quot;)" xlink:href="#treaa"/><use fill-opacity=".25" xlink:href="#treaa"/></g><use fill="#fff" xlink:href="#treaa"/></g></g></symbol><symbol id="featured-item" viewBox="0 0 200 200"><path d="M136.65 7.53v23.31c1.91 2.47 2.92 5.17 2.88 7.98-.11 4.97-3.4 9.34-8.82 12.56l7.46 18.64c3.74-.4 7.61-.23 11.36.28l-1.05-9.13-11.18-1.53 11.18-1.47 1.35-11.71 1.41 11.71 11.18 1.47-11.18 1.53-1.11 9.21c7.8 1.14 15 3.68 19.34 5.45 1.43-3.53 4.11-8.39 8.36-9.66.94-.29 2 0 2.82.59 0 0 5.47 4 4.71 6.35-.8 2.44-4.62.71-6.49 6.06 9.31 3.09 14.79 7.49 17.82 12.28-1.56-38.36-26.01-70.83-60.04-83.92zm-65 30.06c.04-2.67 1.04-5.24 2.88-7.56V7.65c.12-.12.24-.18.35-.24-.23-.58-.35-1.17-.35-1.8C36.56 17.68 9 53.26 9 95.35c0 20.82 6.76 40.12 18.18 55.71l4.77-9.35 24.89-67.78-16.08 2.13-2.71 22.41-2.71-22.41-21.29-2.82 21.29-2.82 2.71-22.47 2.71 22.47 16.56 2.2 3.2-8.73 9.36 3.44 9-17.65c-1.17-.84-2.23-1.72-3.13-2.67-2.75-2.83-4.16-6.13-4.1-9.42zM44.47 169.06l.69.28c-1.22-.85-2.41-1.75-3.56-2.68.94.81 1.9 1.62 2.87 2.4z" fill="#64C9D7"/><path fill="#ADDFE6" d="M45.16 169.34c8.94 6.25 19.69 10.45 30.69 12.96-1.12-1.32-2.16-2.7-3.12-4.13-10.41-2.47-19.82-5.71-27.57-8.83zm21.06-5.47c-3.77-2.31-6.62-6.06-7.61-10.69-.11-.52-.19-1.05-.25-1.57l-26.47-9.73.06-.17-4.77 9.35c4.2 5.71 9.05 10.94 14.43 15.6 1.15.93 2.34 1.82 3.56 2.68 7.75 3.12 17.16 6.36 27.57 8.83a46.773 46.773 0 0 1-6.52-14.3zm29.5-99.68c9.22-1.57 17.95 4.53 19.5 13.63.36 2.09.28 4.16-.13 6.12l2.33.86c4.24-9.9 12.16-13.85 20.75-14.78l-7.46-18.64c-5.95 3.53-14.46 5.68-24.18 5.68h-1.29c-10.45-.2-20.13-2.95-26.34-7.39l-9 17.65 13.92 5.12a16.99 16.99 0 0 1 11.9-8.25zm15.83 98.72l-2.66 7.27-18.8-6.91c3.79 7.11 10.82 11.55 17.98 13.09 3.95.83 8.45.06 13.03-1.84l1.89-11.31-11.44-.3z"/><path d="M128.35 31.12h-.06l-.71-.47c-5.29-3.29-13.24-5.29-21.71-5.41h-.94c-9.41 0-18.06 2.29-23.18 6.06l-.88.59c-2.29 2-3.35 3.88-3.35 5.82-.06 1.76.76 3.53 2.47 5.24 1.94 2.02 4.82 3.75 8.28 5.1 4.83 1.89 10.81 3.03 17.07 3.13h1.24c9.47 0 17.16-2.25 21.9-5.33 3.29-2.14 5.17-4.68 5.21-7.14.07-2.59-1.87-5.24-5.34-7.59zm-44.17 7.82c0-6.24 11.35-8.41 21.06-8.41s21.06 2.18 21.06 8.41-11.29 8.41-21.06 8.41c-9.71 0-21.06-2.17-21.06-8.41zm35.76 0c-1.88-1.06-6.94-2.53-14.65-2.53s-12.82 1.41-14.65 2.53c1.88 1.06 6.94 2.53 14.65 2.53s12.77-1.47 14.65-2.53z" fill="#3CBFD1"/><path fill="#6D6E70" d="M136.65 30.84l-.06-.07c-1.41-1.8-3.3-3.47-5.65-4.95l-.71-.59h-.35c-6.12-3.59-14.82-5.71-23.94-5.88h-1.06c-10.35 0-19.76 2.41-25.94 6.71l-.88.59a18.652 18.652 0 0 0-3.47 3.31l-.06.07c-1.84 2.32-2.84 4.88-2.88 7.56-.06 3.29 1.35 6.59 4.11 9.41.9.95 1.96 1.84 3.13 2.67 6.21 4.44 15.89 7.19 26.34 7.39h1.29c9.72 0 18.23-2.14 24.18-5.68 5.42-3.22 8.71-7.59 8.82-12.56.04-2.8-.96-5.51-2.87-7.98zm-31.3 20.34c-6.27-.1-12.25-1.25-17.07-3.13-3.46-1.35-6.34-3.09-8.28-5.1-1.71-1.71-2.53-3.47-2.47-5.24 0-1.94 1.06-3.82 3.35-5.82l.88-.59c5.12-3.76 13.76-6.06 23.18-6.06h.94c8.47.12 16.41 2.12 21.71 5.41l.71.47h.06c3.47 2.35 5.41 5 5.35 7.59-.05 2.46-1.92 5-5.21 7.14-4.74 3.08-12.43 5.33-21.9 5.33h-1.25z"/><path fill="#9CDDE6" d="M105.24 30.53c-9.71 0-21.06 2.18-21.06 8.41s11.35 8.41 21.06 8.41c9.76 0 21.06-2.18 21.06-8.41s-11.36-8.41-21.06-8.41zm.05 10.94c-7.71 0-12.76-1.47-14.65-2.53 1.82-1.12 6.94-2.53 14.65-2.53s12.76 1.47 14.65 2.53c-1.88 1.06-6.94 2.53-14.65 2.53z"/><g fill="#fff"><path d="M56.84 73.93l.48-1.32-16.56-2.2-2.7-22.47-2.71 22.47-21.29 2.83 21.29 2.82 2.71 22.41 2.7-22.41zm92.98-27.46l-1.35 11.71-11.18 1.47 11.18 1.53 1.05 9.13.6.08 1.11-9.21 11.18-1.53-11.18-1.47-1.41-11.71z"/><circle cx="49.82" cy="59.24" r="4.29"/><circle cx="160.35" cy="48.65" r="4.29"/><circle cx="25.18" cy="87.82" r="4.29"/><path d="M68.75 109.94l3.62-.12c-.72-2.01-1.41-4.03-2.08-6.05l-1.54 6.17zm-4.1 16.41c-.2.66-.59 1.21-1.08 1.6 4.98-1.09 10.04-1.8 15.13-2.13l-.16-.29c-1.4-3.26-2.73-6.57-4.01-9.89l-7.26.25-2.62 10.46zm48.23-36.94a16.988 16.988 0 0 1-11.56 7.72C92.1 98.7 83.36 92.6 81.82 83.5c-.32-1.87-.29-3.73.01-5.5l-14.64-5.38-3.13-1.15L54.5 97.5l-15.03 40.91 19.34 7.11c1.58-5.94 6.4-10.82 12.89-12.21 9.15-1.95 18.13 3.79 20.05 12.81.82 3.86.21 7.69-1.46 10.96l3.42 1.26 10.47-26.8c-.64.92-1.77 1.46-2.94 1.28-14.76-2.47-30.12-1.47-44.35 3-.29.06-.59.12-.88.12-1.24 0-2.41-.82-2.82-2.06-.47-1.53.35-3.18 1.94-3.71 1.99-.62 4-1.17 6.02-1.67l-.14-.04a2.93 2.93 0 0 1-2.12-3.59l2.51-10c-.37-.47-.61-1.05-.63-1.7-.04-1.26.7-2.34 1.77-2.81l4.59-18.25c.35-1.29 1.47-2.18 2.82-2.24 1.41.12 2.53.82 2.88 2.12 3.06 10.59 6.76 21.06 11.12 31.18.35.8.29 1.69-.07 2.44 6.14-.09 12.29.36 18.36 1.39 1.55.29 2.65 1.7 2.42 3.31l5.53-14.15.23-.87c.68-2.24 1.56-4.41 2.57-6.52.1-.43.45-1.73 1.23-3.57-.12-5.77.38-10.67 1.37-14.8l-2.71-.99zm-8.7 25.65a2.957 2.957 0 0 1-2.88 2.24c-.24 0-.47 0-.71-.06-1.67-.42-3.8-.81-6.02-1.19l-.74 7.01c-.18 1.47-1.47 2.59-2.94 2.59h-.29c-1.65-.18-2.76-1.65-2.59-3.24l.78-7.35c-2.27-.39-4.41-.77-6.13-1.18-1.59-.35-2.53-1.94-2.18-3.53.35-1.59 1.94-2.53 3.53-2.18 1.51.38 3.39.73 5.39 1.08l.73-6.9c.18-1.65 1.71-2.82 3.24-2.59 1.65.18 2.76 1.65 2.59 3.24l-.76 7.23c2.53.43 4.93.85 6.82 1.3 1.57.35 2.51 1.94 2.16 3.53z"/></g><path d="M136.35 7.41c-10.41-4-21.71-6.18-33.53-6.18-7.88 0-15.53 1-22.88 2.82-1.82.48-3.65.95-5.41 1.54v.02c0 .64.12 1.22.35 1.8-.12.06-.24.12-.35.24v22.38l.06-.07a18.64 18.64 0 0 1 3.47-3.31l.88-.59c6.18-4.29 15.59-6.71 25.94-6.71h1.06c9.12.18 17.82 2.29 23.94 5.88h.35l.71.59c2.34 1.48 4.24 3.15 5.65 4.95V7.53a.455.455 0 0 0-.24-.12zM60.53 63.88l-3.2 8.73-.48 1.32-24.89 67.78-.06.17 26.47 9.73a16.62 16.62 0 0 1-.05-3.15c.08-1 .25-1.98.51-2.94l-19.34-7.11L54.5 97.5l9.56-26.03 3.13 1.15L81.83 78c.16-.98.41-1.93.74-2.85.34-.94.76-1.85 1.25-2.71L69.9 67.32l-9.37-3.44zm53.69 22.92c-.37.91-.82 1.79-1.34 2.62l2.7.99c.24-.98.5-1.92.8-2.82.32-.97.66-1.91 1.04-2.79l-2.33-.86c-.2.99-.49 1.94-.87 2.86zm-17.67 75.73l-4.43-.11.52-1.33 1.07-2.74-3.42-1.26c-.46.89-1 1.74-1.6 2.54l-.11.16c.42 1.22.93 2.38 1.51 3.48l18.8 6.91 2.66-7.27-3.14-.08-11.86-.3z" fill="#808184"/><path fill="#231F20" d="M196.68 91.46c-3.04-4.78-8.51-9.19-17.82-12.28 1.87-5.35 5.7-3.62 6.49-6.06.76-2.35-4.71-6.35-4.71-6.35-.82-.59-1.88-.88-2.82-.59-4.25 1.27-6.93 6.13-8.36 9.66-4.34-1.77-11.54-4.31-19.34-5.45l-.6-.08c-3.75-.51-7.61-.68-11.36-.28-8.59.92-16.51 4.88-20.75 14.78-.38.88-.72 1.81-1.04 2.79-.29.9-.56 1.83-.8 2.82-1 4.13-1.49 9.03-1.37 14.8 1.33-3.15 3.92-7.82 8.64-12.13a37.072 37.072 0 0 1 5.61-4.21c3.96-2.42 8.89-4.43 15.02-5.57 1.59-.29 3.24-.54 4.99-.71.06 0 32.91-3.35 43.9 20.7 1.26 1.9 2.38 3.91 3.36 6.01.5 1.09.97 2.2 1.39 3.35.26.64.49 1.31.7 1.98 2.12-5.7 4.07-14.99-1.13-23.18z"/><path fill="#B1B3B3" d="M144.18 151.47l.01.01-.01-.01zm20.88-1.94v-.02l-.34.25.34-.23zm-.7-2.01c-1.88-3.91-6.1-4.85-10.95-3.93-2.66.5-4.72 1.55-6.28 3.03l10.98 4.29c1.99-.65 4.09-1.72 6.25-3.39zm-6.25 3.38l-10.98-4.29c-.91.86-1.64 1.87-2.2 3.02 2.54 1.36 7.39 3.14 13.18 1.27z"/><path d="M78.66 165.99c-1.95.41-3.88.46-5.75.22a41.19 41.19 0 0 0 5.57 10.25l9.77-5.74c-1.68-2.04-3.1-4.35-4.2-6.9-1.63 1-3.43 1.75-5.39 2.17zm-1.18-5.52a11 11 0 0 0 2.57-.89c.8-.38 1.54-.85 2.21-1.39.25-.21.5-.42.73-.65.75-.72 1.39-1.54 1.91-2.43.94-1.62 1.48-3.46 1.5-5.39.01-.79-.06-1.6-.23-2.41-1.27-5.97-7.22-9.77-13.29-8.48-4.51.96-7.82 4.47-8.69 8.66-.21.99-.27 2.02-.19 3.06.04.48.09.96.2 1.44.11.52.27 1.02.45 1.51l.18.48c1.19 2.82 3.5 4.95 6.3 6 1.95.75 4.14.96 6.35.49zm114.66-35.87a37.825 37.825 0 0 0-6.03-16.89h-42.65l-2.94-10.88-6.71 10.88-2.09.12-3.16.19-3.16.19-3.51.21a37.932 37.932 0 0 0-5.78 20.18c0 1.44.09 2.86.24 4.25a37.5 37.5 0 0 0 2.54 10.02 38.306 38.306 0 0 0 17.32 19.32c.93.5 1.89.96 2.87 1.39.77.33 1.55.64 2.34.93 4 1.43 8.31 2.21 12.81 2.21 1.07 0 2.14-.06 3.19-.14 1.97-.16 3.9-.48 5.78-.93l.2-.05.22-.05c1.42-.36 2.81-.81 4.17-1.32 14.36-5.47 24.56-19.35 24.56-35.63 0-1.36-.07-2.69-.21-4zM133 116.35c-3.76.18-5.59 2.82-5.18 6.35l.47 4.47-3.82.45-.71.08-.53-4.29c-.03-.25-.04-.51-.05-.76-.12-2.77.9-5.36 2.67-7.27a9.888 9.888 0 0 1 4.08-2.66c.67-.23 1.38-.4 2.12-.49 5.53-.65 10.53 3.29 11.18 8.82l.53 4.29-3.88.53-.53-4.29c-.23-2.34-2.17-5.46-6.35-5.23zm35.69 29.94c-.84.93-1.75 1.8-2.75 2.59-.92.73-1.89 1.39-2.91 1.98-.62.37-1.33.76-2.12 1.14-2.83 1.35-6.64 2.5-10.72 1.85-1.52-.24-3.09-.73-4.65-1.56-.45-.24-.9-.51-1.35-.81h-.01l-.26-.18c-1.28-.69-2.46-1.52-3.54-2.47a18.942 18.942 0 0 1-5.91-9.94l30.7-1.39 8.18-.37c-.61 3.38-2.28 6.52-4.66 9.16zm12.13-23.82l-.59-4.24c-.24-2.35-2.18-5.47-6.35-5.24-3.76.18-5.59 2.82-5.18 6.35l.47 4.47-4.53.53-.53-4.29c-.65-5.53 3.29-10.53 8.82-11.18 5.53-.65 10.53 3.29 11.18 8.82l.59 4.24-3.88.54zM96.66 69.76c-3.13.53-5.73 2.29-7.4 4.69-.57.82-1.04 1.72-1.37 2.66-.32.93-.52 1.9-.58 2.91-.05.83-.02 1.67.12 2.53 1.02 6.02 6.81 10.06 12.93 9.02 2.9-.49 5.34-2.04 7.01-4.17.61-.78 1.12-1.64 1.51-2.56.38-.91.65-1.88.78-2.88.13-1.03.12-2.1-.07-3.17-1.02-6.03-6.81-10.07-12.93-9.03z" fill="#E6E7E8"/><path d="M82.65 113.88c1.72.41 3.86.79 6.13 1.18l-.78 7.35c-.18 1.59.94 3.06 2.59 3.24h.29c1.47 0 2.76-1.12 2.94-2.59l.74-7.01c2.23.38 4.35.77 6.02 1.19.24.06.47.06.71.06 1.35 0 2.53-.88 2.88-2.24.35-1.59-.59-3.18-2.18-3.53-1.89-.45-4.3-.87-6.82-1.3l.76-7.23c.18-1.59-.94-3.06-2.59-3.24-1.53-.24-3.06.94-3.24 2.59l-.73 6.9c-2-.34-3.88-.7-5.39-1.08-1.59-.35-3.18.59-3.53 2.18-.33 1.59.61 3.18 2.2 3.53zM102.24 127c-6.07-1.02-12.22-1.48-18.36-1.39.36-.75.42-1.63.07-2.44-4.35-10.12-8.06-20.59-11.12-31.18-.35-1.29-1.47-2-2.88-2.12-1.35.06-2.47.94-2.82 2.24l-4.59 18.25a2.972 2.972 0 0 0-1.77 2.81c.02.65.26 1.23.63 1.7l-2.51 10a2.93 2.93 0 0 0 2.12 3.59l.14.04a97.63 97.63 0 0 0-6.02 1.67c-1.59.53-2.41 2.18-1.94 3.71.41 1.24 1.59 2.06 2.82 2.06.29 0 .59-.06.88-.12 14.24-4.47 29.59-5.47 44.35-3 1.17.17 2.3-.36 2.94-1.28.23-.33.4-.71.47-1.13l.01-.1c.23-1.61-.87-3.02-2.42-3.31zm-31.95-23.24c.66 2.02 1.36 4.04 2.08 6.05l-3.62.12 1.54-6.17zm-6.73 24.19c.5-.39.88-.93 1.08-1.6l2.62-10.47 7.26-.25c1.27 3.33 2.61 6.63 4.01 9.89l.16.29c-5.09.34-10.15 1.05-15.13 2.14z" fill="#A6CE42"/><path d="M199.93 130.06c.13-4.08-.27-8.25-1.28-12.41a49.7 49.7 0 0 0-.83-3.02c-.21-.67-.44-1.34-.7-1.98-.42-1.14-.88-2.26-1.39-3.35-.97-2.11-2.1-4.11-3.36-6.01-10.99-24.05-43.85-20.7-43.9-20.7-1.75.17-3.41.41-4.99.71-6.12 1.14-11.06 3.15-15.02 5.57a37.072 37.072 0 0 0-5.61 4.21c-4.71 4.31-7.3 8.98-8.64 12.13-.78 1.84-1.13 3.14-1.23 3.57-1.01 2.1-1.89 4.28-2.57 6.52-.09.29-.15.58-.23.87l-5.53 14.15-.01.1c-.08.42-.25.8-.47 1.13l-10.47 26.8-1.07 2.74-.52 1.33 4.43.11 11.86.3 3.14.08 11.44.29-1.89 11.31c-4.58 1.91-9.08 2.67-13.03 1.84-7.16-1.54-14.18-5.97-17.98-13.09-.58-1.1-1.09-2.26-1.51-3.48l.11-.16c.61-.8 1.15-1.65 1.6-2.54 1.67-3.28 2.28-7.11 1.46-10.96-1.92-9.02-10.9-14.76-20.05-12.81a16.963 16.963 0 0 0-12.89 12.21c-.25.96-.43 1.94-.51 2.94a16.607 16.607 0 0 0 .3 4.72c.99 4.63 3.84 8.39 7.61 10.69 1.37 5.16 3.59 9.97 6.51 14.3.97 1.43 2 2.81 3.12 4.13 6.75 7.94 16.21 13.72 27.45 16.11 2.65.59 5.35.94 8.06 1.06 1.84.09 3.7.08 5.56-.01l-.09.54h77.06l-9.38-35.41 15.5.35c.01 0 1.7-17.87-.06-34.88zM71.12 159.99c-2.79-1.05-5.1-3.19-6.3-6l-.18-.48c-.18-.49-.34-.99-.45-1.51-.1-.48-.16-.96-.2-1.44-.08-1.04-.02-2.07.19-3.06.88-4.19 4.18-7.7 8.69-8.66 6.07-1.29 12.02 2.5 13.29 8.48.17.81.24 1.61.23 2.41-.02 1.92-.56 3.77-1.5 5.39-.52.89-1.16 1.71-1.91 2.43-.23.23-.48.44-.73.65-.67.54-1.41 1.01-2.21 1.39-.8.39-1.66.69-2.57.89-2.2.46-4.39.25-6.35-.49zm7.36 16.48c-2.32-3.12-4.2-6.57-5.57-10.25 1.87.24 3.8.19 5.75-.22 1.97-.42 3.77-1.17 5.38-2.16 1.1 2.55 2.53 4.85 4.2 6.9l-9.76 5.73zm89.31-12.25c-1.35.52-2.74.96-4.17 1.32l-.22.05-.2.05a39.347 39.347 0 0 1-8.97 1.07c-4.49 0-8.8-.78-12.81-2.21-.79-.28-1.58-.59-2.34-.93-.98-.42-1.94-.88-2.87-1.39a38.221 38.221 0 0 1-17.32-19.32 37.5 37.5 0 0 1-2.54-10.02c-.16-1.4-.24-2.81-.24-4.25 0-7.41 2.12-14.32 5.78-20.18l3.51-.21 3.16-.19 3.16-.19 2.09-.12 6.71-10.88 2.94 10.88h42.65c3.25 4.95 5.38 10.7 6.03 16.89.14 1.31.21 2.64.21 3.99 0 16.28-10.2 30.17-24.56 35.64zm-33.32-25.34c.9 3.93 3.02 7.37 5.91 9.94 1.08.96 2.27 1.79 3.54 2.47l.26.18.01.01c.45.3.9.57 1.35.81 1.56.83 3.12 1.32 4.65 1.56 4.08.65 7.9-.5 10.72-1.85.79-.38 1.5-.77 2.12-1.14 1.02-.58 2-1.25 2.91-1.98.99-.8 1.91-1.67 2.75-2.59 2.38-2.64 4.05-5.78 4.66-9.17l-8.18.37-30.7 1.39zm23.64 12.02c-5.79 1.87-10.64.09-13.18-1.27.57-1.14 1.3-2.15 2.2-3.02 1.56-1.48 3.62-2.53 6.28-3.03 4.84-.92 9.07.03 10.95 3.93-2.16 1.68-4.26 2.75-6.25 3.39zm6.6-1.14l.34-.25v.02l-.34.23zm8.23-40.88c-5.53.65-9.47 5.65-8.82 11.18l.53 4.29 4.53-.53-.47-4.47c-.41-3.53 1.41-6.18 5.18-6.35 4.18-.24 6.12 2.88 6.35 5.24l.59 4.24 3.88-.53-.59-4.24c-.65-5.53-5.65-9.47-11.18-8.83zm-33.59 12.71l.53 4.29 3.88-.53-.53-4.29c-.65-5.53-5.65-9.47-11.18-8.82-.74.09-1.44.26-2.12.49a10.042 10.042 0 0 0-6.75 9.93c.01.25.02.5.05.76l.53 4.29.71-.08 3.82-.45-.47-4.47c-.41-3.53 1.41-6.18 5.18-6.35 4.18-.24 6.12 2.88 6.35 5.23zm-38.03-24.46c4.99-.85 9.08-3.78 11.56-7.72.52-.83.97-1.71 1.34-2.62.37-.92.67-1.87.87-2.85.41-1.97.48-4.03.13-6.12-1.55-9.1-10.28-15.2-19.5-13.63a17.01 17.01 0 0 0-11.9 8.25A16.638 16.638 0 0 0 81.83 78c-.3 1.78-.33 3.63-.01 5.5 1.54 9.1 10.28 15.2 19.5 13.63zm-14-17.11c.06-1 .26-1.98.58-2.91.33-.95.8-1.84 1.37-2.66 1.66-2.4 4.27-4.16 7.4-4.69 6.12-1.04 11.91 3 12.93 9.02.18 1.08.19 2.14.07 3.17-.12 1-.39 1.97-.78 2.88-.39.92-.89 1.78-1.51 2.56a11.258 11.258 0 0 1-7.01 4.17c-6.12 1.04-11.91-3-12.93-9.02-.14-.85-.17-1.69-.12-2.52z" fill="#373737"/></symbol><symbol id="google-plus" viewBox="0 0 47 47"><g><g transform="translate(-721 -7240)"><g filter="url(#owgyb)"><use fill="none" stroke-opacity=".25" stroke-width="0" mask="url(&quot;#owgyc&quot;)" xlink:href="#owgya"/><use fill-opacity=".25" xlink:href="#owgya"/></g><use fill="#fff" xlink:href="#owgya"/></g></g></symbol><symbol id="interviewed" viewBox="0 0 200 200"><path d="M100.24 1.47c-6.95 0-13.73.74-20.24 2.13 2.08 2.08 4.26 4.63 6.26 7.52 3.5-.6 7.2-.93 11.12-.93 38.86 0 58.53 22.65 58.53 67.37v9.37l10.13-1.36 1.99-16.56L170 85.57l15.8 2.11-15.8 2.11-1.99 16.56-1.99-16.56-10.13-1.36c-.01 13.48-.04 31.44-.08 49.03l5.39 5.39c2.9-1.13 6.41-.51 8.62 1.66a7.898 7.898 0 0 1 2.32 5.76c13.56-15.71 21.74-35.97 21.74-58.08 0-50.1-41.9-90.72-93.64-90.72zm55.6 40.97c-1.62 0-2.93-1.31-2.93-2.93s1.31-2.93 2.93-2.93 2.93 1.31 2.93 2.93-1.31 2.93-2.93 2.93zm15.8 13.93l-1.35 11.12L169 56.37l-10.59-1.4 10.59-1.4 1.29-11.12 1.35 11.12 10.54 1.4-10.54 1.4zm7.61 50.45c-1.62 0-2.93-1.31-2.93-2.93s1.31-2.93 2.93-2.93 2.93 1.31 2.93 2.93-1.31 2.93-2.93 2.93zM46.7 26.71c.76-.82 1.62-1.56 2.61-2.18l2.52-1.58c1.03-.63 2.13-1.08 3.26-1.38 1.12-3.11 3.17-7.81 6.4-12a94.054 94.054 0 0 0-22.87 14.3c2.61.57 5.36 1.47 8.08 2.84zM19.26 46.58C11.34 59.76 6.75 75.05 6.6 91.37l13.04-1.7 1.64-13.75 1.64 13.75 13.05 1.7-13.05 1.76-1.64 13.7-1.64-13.7L6.6 91.37l-.01.82c0 20.6 7.1 39.59 19.04 54.82.39-.95.97-1.84 1.74-2.61 2.34-2.29 5.87-2.76 8.7-1.62l2.74-2.74c.03-26.2.03-52.88.03-62.48 0-2.43.11-4.86.3-7.29l-.77-.5c-6.45-4.21-15.45-12.7-19.11-23.19zm13.66 36.83c-1.62 0-2.93-1.31-2.93-2.93s1.31-2.93 2.93-2.93 2.93 1.31 2.93 2.93-1.31 2.93-2.93 2.93zm-7.25 37.05l-1.35 11.06-1.29-11.06-10.59-1.4 10.59-1.4 1.29-11.12 1.35 11.12 10.59 1.4-10.59 1.4z" fill="#20A0DB"/><path d="M83.78 181.51a94.974 94.974 0 0 1-22.73-6.91 8.26 8.26 0 0 1-1.44 2.05l-.34.33a96.574 96.574 0 0 0 28.23 8.05c-.81-.59-1.59-1.23-2.31-1.95-.5-.49-.97-1.02-1.41-1.57zm52.93-5.77c-.45.19-.9.37-1.36.55-7.08 2.79-14.62 4.74-22.46 5.77a18.994 18.994 0 0 1-3.79 3.37c9.44-.82 18.61-2.96 27.36-6.4.89-.35 1.79-.73 2.68-1.11-.59-.34-1.14-.75-1.63-1.23-.29-.28-.55-.61-.8-.95zM97.37 10.19c-3.92 0-7.62.32-11.12.93.6.86 1.18 1.76 1.74 2.68.53.87 1.04 1.76 1.52 2.68 2.48-.31 5.07-.49 7.8-.49 30.14 0 47.09 14.55 51.5 44.32l2.98.32 2.88.31-2.56 2.17-2.69 2.28c.37 3.82.56 7.85.56 12.12 0 12.35-.02 33.32-.07 54.48.81.56 1.59 1.18 2.3 1.89l3.6 3.6c.04-17.59.07-35.56.08-49.03V77.58c.01-44.74-19.66-67.39-58.52-67.39zM40.83 70.12l-1.29.41-.4-.26c-.19 2.42-.3 4.85-.3 7.29 0 9.6 0 36.28-.03 62.48l2.87-2.87 2.93-2.93c.02-24.23.02-47.8.02-56.74 0-3.09.17-6.23.52-9.38-.96.6-1.99 1.14-3.09 1.57-.41.15-.81.3-1.23.43z" fill="#B3B3B3"/><path d="M135.35 122.54c-.46-.3-.92-.6-1.39-.9-.49 3.72-1.73 6.89-3.48 9.57 1.52-.87 3.16-1.51 4.86-1.9 2.7-.62 5.53-.64 8.24-.06a54.647 54.647 0 0 0-8.23-6.71zm0 49.93c-.07-.43-.12-.87-.12-1.32s.04-.89.12-1.32c.11-.63.28-1.25.54-1.83l-8.91-8.91c-3.39-3.39-5.27-7.9-5.21-12.64 0-3.04.76-5.98 2.19-8.58-2.02 1.42-4.21 2.59-6.46 3.53v12.61c3.11 1.18 5.33 4.18 5.33 7.71 0 3.49-2.21 6.51-5.33 7.7v.31c0 3.24-.82 6.29-2.27 8.96-.65 1.21-1.45 2.33-2.34 3.36 7.84-1.03 15.38-2.98 22.46-5.77l1.36-.55a7.845 7.845 0 0 1-1.25-2.74c-.04-.16-.08-.34-.11-.52zM61.99 124.8c-.94.73-1.84 1.49-2.73 2.27-.65.57-1.29 1.15-1.91 1.75.64-.01 1.27.01 1.91.06 2.17.19 4.31.77 6.28 1.71-1.96-2.49-3.05-4.65-3.55-5.79zm17.64 44.94v-.31c-3.11-1.18-5.33-4.18-5.33-7.71 0-2.22.88-4.33 2.46-5.85.79-.83 1.78-1.45 2.87-1.86V141.1c-2.51-1.06-4.71-2.27-6.6-3.56 1.58 2.69 2.43 5.75 2.39 8.97 0 4.74-1.81 9.25-5.21 12.58L61.3 168a7.948 7.948 0 0 1 .57 3.71 8.05 8.05 0 0 1-.81 2.89 94.974 94.974 0 0 0 22.73 6.91c-.86-1.06-1.58-2.22-2.18-3.43a18.652 18.652 0 0 1-1.98-8.34z" fill="#C4C4C4"/><path d="M131.43 117.06a2.84 2.84 0 0 0-2.87 1.61c-.16.33-.26.69-.29 1.09-.61 8.22-5.75 12.93-11.46 15.63.12.45.25.91.34 1.37.23 1.19.36 2.42.36 3.66v.98c2.25-.94 4.44-2.11 6.46-3.53.8-1.45 1.81-2.81 3.02-4 1.05-1.05 2.24-1.92 3.51-2.65 1.75-2.68 2.98-5.85 3.48-9.57.06-.47.12-.93.16-1.42.1-1.64-1.07-3.05-2.71-3.17zm-64.21 4.98c-.09-.23-.21-.45-.35-.64-.75-1.09-2.11-1.62-3.4-1.17a2.962 2.962 0 0 0-1.81 3.75c.03.09.14.39.33.83.49 1.14 1.58 3.3 3.55 5.8 1.7.81 3.29 1.89 4.66 3.26 1.12 1.12 2.05 2.36 2.82 3.67 1.9 1.29 4.09 2.5 6.6 3.56v-.68c0-.8.07-1.58.16-2.35.13-1.05.34-2.07.64-3.06-10.13-4.87-13.04-12.49-13.2-12.97z" fill="#AAABB0"/><path d="M121.58 115.8c-1.11-.37-2.24-.71-3.38-1.02-.51-.14-1.03-.28-1.55-.41a44.58 44.58 0 0 1-36.51.94c-1.16.36-2.31.74-3.44 1.17-3.45 1.34-6.75 2.97-9.83 4.92.14.2.26.41.35.64.16.48 3.07 8.1 13.21 12.96 2.34-7.79 9.57-13.49 18.1-13.49 5.09 0 9.83 1.99 13.4 5.56a18.47 18.47 0 0 1 4.87 8.31c5.71-2.7 10.85-7.41 11.46-15.63.03-.39.13-.75.29-1.09l-.51-.26c-2.07-.98-4.23-1.85-6.46-2.6zm-31.29-4.94c18.69 3.63 36.87-7.41 42.25-24.96l-.17-.09-2.83-1.48c.14 2.24-2.75 4.57-6.71 5.35-3.15.62-6.07.06-7.5-1.27l-6.14 3.2 2.69-12.23 1.23-5.62-4.68-3.98-2.83-2.4H91.55l-.49.43-2.41 2.09-4.74 4.16 1.29 5.91 2.63 12.35-7.94-4.22c-1.28 1.56-4.4 2.26-7.8 1.59-3.04-.6-5.45-2.11-6.34-3.79l-.97.52-1.94 1.03c4.18 11.62 14.27 20.82 27.45 23.41zm26.33-18.38a18.062 18.062 0 0 1-9.77 12.88 18.97 18.97 0 0 1-7.9 1.93c-1.95.05-3.9-.24-5.77-.8h-.02c-2.27-.68-4.43-1.74-6.32-3.12-3.8-2.69-6.61-6.5-7.67-10.77l37.45-.12z" fill="#D1D2D4"/><path d="M100.18 97.69c-5.24-1.02-9.69.23-11.12 5.15 8.85 4.26 16 1.68 18.93.19-1.27-3.26-3.41-4.43-7.81-5.34zM70.74 83.23l-5 2.64c.89 1.68 3.3 3.19 6.34 3.79 3.4.67 6.52-.03 7.8-1.59l-3.18-1.69-5.96-3.15zm55.6-.58l-6.03 3.16-4.98 2.6c1.43 1.33 4.34 1.89 7.5 1.27 3.96-.78 6.85-3.1 6.71-5.35l-3.2-1.68z" fill="#AAAAAB"/><path d="M59.26 96.94v30.13c.89-.78 1.79-1.54 2.73-2.27-.19-.45-.3-.74-.33-.83-.53-1.52.29-3.22 1.81-3.75 1.29-.45 2.65.08 3.4 1.17 3.08-1.94 6.38-3.58 9.83-4.92 1.13-.43 2.27-.81 3.44-1.17-8.99-3.75-16.21-10.31-20.88-18.36zm57.4 17.43c.52.13 1.04.26 1.55.41a57.897 57.897 0 0 1 9.85 3.63l.51.26a2.84 2.84 0 0 1 2.87-1.61c1.64.12 2.81 1.52 2.69 3.16-.04.48-.1.95-.16 1.42.47.29.93.59 1.39.9V97.35c-4.43 7.43-10.99 13.32-18.7 17.02zm12.84-66.08v.8l2.05 4.12 2.75 5.56 1.05.11V48.29zm-8.49 4.98l1.89-3.82.75-1.51v-5.5h-5.86v16.38l.53-.05zm-14.92 6.79l5.5-.59.35-.04V48.29h-5.85zm-7.79 1.46h.4l-.2-.17zm-3.92-.89l3.76.41-.13-.11 2.23-.24v-6.55h-5.86zm-7.55-11.46c.06.06-.64.12-1.76.12-.66 0-1.48-.02-2.4-.08v10.15l2.75.29 3.1.34V48.62l-.29.43-1.4.12zm-10.89 4.1l2.75 5.68.29.03V48.81c-1.58-.24-3.31-.59-5.12-1.11l-.65-.2.26.54 2.47 5.23zm-10.84.87h-5.84v5.2l3.52-.4z" fill="#E8E8E8"/><path d="M149.43 65.38l-5.17 4.39-4.68 3.98 1.23 5.62 2.69 12.23-4.42-2.3c-.97 2.84-2.22 5.53-3.72 8.05v25.19c2.98 1.98 5.74 4.24 8.24 6.72 2.25.49 4.41 1.39 6.32 2.72.05-21.16.07-42.13.07-54.48 0-4.27-.2-8.3-.56-12.12zM53.64 92.31l2.63-12.35 1.29-5.91-4.74-4.16-4.69-4.06a20.4 20.4 0 0 1-2.99 2.29c-.34 3.15-.52 6.29-.52 9.38 0 8.94 0 32.51-.02 56.74l.37-.37c3.31-3.31 7.83-4.98 12.37-5.04.62-.6 1.26-1.18 1.91-1.75V96.94a43.427 43.427 0 0 1-2.94-6.06l-2.67 1.43zm81.71-33.43l2.88.3 1.39.14 1.46.15 7.72.83c-4.41-29.77-21.36-44.32-51.5-44.32-2.73 0-5.32.18-7.8.49 1.87 3.57 3.32 7.46 3.98 11.5.23 1.41.37 2.83.39 4.27.04 2.42-.24 4.87-.91 7.31-.77 2.81-2.05 5.62-3.97 8.38l-.47.68v11.36l5.85.64v-6.48h5.85v6.55l5.85-.63V48.29h5.85v11.14l5.85-.61V42.44h5.85v5.5l2.61-5.27.03-.05.06.12 3.16 6.35v-.8h5.85v10.59zM65.59 44.2l-.41.29-2.52 1.58c-.42.25-.86.48-1.31.68-1.21.56-2.48.92-3.78 1.09-.8 3.35-2.25 7.97-4.81 12.21l2.06-.22 1.23-.13.22-.02 3-.34v-5.2h5.84l.43-.88 3.53-7.3c-.92-.4-1.83-.84-2.75-1.34-.25-.13-.49-.28-.73-.42zm13.4 14.77l3.69.38V49.2c-1.09-.07-2.33-.19-3.69-.4v10.17zm4.41-41.38c-.52-.88-1.06-1.72-1.61-2.52a49.62 49.62 0 0 0-1.83-2.51 60.478 60.478 0 0 0-5.2-5.88c-6.99 1.98-11.23 9.66-13.39 14.83.28.07.56.15.84.24.79.24 1.56.56 2.29.94.85-1.46 2.04-3.23 3.67-5.06 1.82-2.04 4.18-4.14 7.17-5.91l1.59 1.82.07.04s-3.58 1.4-6.91 6.22c-.94 1.37-1.86 3.01-2.68 4.97l.06.06c.63.62 1.2 1.3 1.69 2.05l12.52-5.4 1 1.64-12.18 6.55c.25.75.44 1.51.54 2.28 2.53.55 4.76.71 6.68.63 5.3-.21 8.18-2.14 8.18-2.14l.59 2.4c-2.61 1.2-5.15 1.91-7.49 2.31-2.36.4-4.5.49-6.28.44l-.15-.01c-.54-.02-1.05-.05-1.52-.09-.08.53-.2 1.05-.34 1.57a12.7 12.7 0 0 1-1.09 2.71 28.431 28.431 0 0 0 2.94 1.32c2.26.88 4.46 1.42 6.44 1.76.68.12 1.34.21 1.96.28 1.65.19 3.05.24 4.07.24.48-.79.88-1.58 1.24-2.37 1.21-2.66 1.77-5.32 1.82-7.94.03-1.41-.08-2.81-.31-4.18-.68-4.08-2.38-7.94-4.38-11.29zM42.7 61.11l.54-.06 1.64-.17c.67-.68 1.28-1.42 1.84-2.2 2.63-3.66 4.16-8.15 5.01-11.49-.28-.1-.55-.2-.82-.32-.31.69-.8 1.68-1.53 2.87a28.555 28.555 0 0 1-4.92 5.96c-1.04.96-2.23 1.89-3.57 2.75-.29.19-.57.38-.87.56l-1.52-1.7s1.39-.56 3.19-2.17c2.02-1.81 4.55-4.95 6.22-10.13-.7-.58-1.35-1.24-1.92-1.97-.15-.19-.28-.39-.42-.59l-13.52 5.9-1-1.58 13.03-7.13c-.18-.48-.31-.97-.43-1.47-10.18-2.56-15.82 1.34-15.82 1.34l-.59-2.4c6.52-3.07 12.69-3.04 16.12-2.68.06-.88.22-1.75.46-2.59-3.68-1.82-7.46-2.62-10.73-2.9-3.42-.3-6.27-.05-7.85.16-1.65 3.77-2.04 7.42-1.61 10.87 1.44 11.46 12.06 20.56 16.26 23.7.18.14.35.26.51.37.91-.4 1.75-.9 2.54-1.48.25-.19.5-.38.74-.59l-.54-.47-.44-.39zm7.43-22.24c.19.3.41.58.64.84a6.69 6.69 0 0 0 2.35 1.7c.63.28 1.3.46 1.98.55 1.06.14 2.15.04 3.16-.31a7 7 0 0 0 1.3-.61l.89-.56 1.63-1.02c.32-.2.62-.43.9-.67a6.76 6.76 0 0 0 1.73-2.33c.89-2 .81-4.39-.4-6.37-.38-.58-.84-1.09-1.35-1.54-.7-.6-1.52-1.06-2.4-1.34l-.23-.08c-.6-.17-1.22-.26-1.87-.26-.37 0-.74.04-1.1.1-.33.05-.66.13-.97.23-.53.17-1.03.38-1.5.67l-.28.18-2.23 1.4a6.798 6.798 0 0 0-2.51 2.81 6.956 6.956 0 0 0-.55 4.45c.13.74.4 1.47.81 2.16z" fill="#fff"/><path d="M135.35 64.83l-2.99-.32c-1.17-.12-2.22-.82-2.69-1.81l-.18-.35-.26-.52-.02-.03-.13-.26-.19-.39-2.62-5.29-2.63 5.41-.13.27-.3.62-.21.41c-.53 1-1.52 1.7-2.69 1.81l-2.52.27-5.56.6.69.59 1.78 1.52 3.5 2.99c.82.76 1.23 1.87 1 2.93l-1.64 7.37 7.2-3.57c.27-.17.57-.27.89-.33l.04-.01c.23-.04.47-.07.71-.07.53 0 1.11.12 1.64.41l7.08 3.69-1.64-7.37c-.23-1.11.12-2.17 1-2.93l.88-.75 2.76-2.35 1.78-1.52.55-.47-5.1-.55zm-56.36.02l-2.11-.23c-1.17-.12-2.22-.82-2.69-1.81l-.63-1.29-1.01-2.07-1.76-3.6-2.72 5.68-.62 1.29c-.47.89-1.33 1.52-2.34 1.73l-.35.08-2.46.27-1.4.15-1.64.18-2.58.28.41.35 1.8 1.52 3.94 3.34c.55.51.9 1.17 1.02 1.88.06.36.06.73-.02 1.1l-1.64 7.49L64.44 80l.13-.07 4.7-2.49c.47-.29 1.11-.41 1.64-.41s1.11.12 1.64.41l7.08 3.75-1.64-7.49c-.23-1.11.12-2.22 1-2.99l1.12-.98 2.7-2.36 1.74-1.52.4-.35-2.28-.25-3.68-.4z" fill="#FFE687"/><path d="M103.81 65.85l-.29-.25-3.28-2.78-1.54-1.3h-.4l-3.92 3.39-1.08.94-1.75 1.52h14.05zm-9.93-33.6c-.02-1.44-.16-2.86-.39-4.27-.66-4.04-2.11-7.93-3.98-11.5-.48-.92-.99-1.81-1.52-2.68-.56-.92-1.14-1.82-1.74-2.68-2-2.89-4.18-5.43-6.26-7.52-.84-.85-1.67-1.62-2.47-2.31L76.47.41l-1.35.23c-5.93 1.01-10.38 4.71-13.64 8.92-3.23 4.19-5.28 8.89-6.4 12-1.13.3-2.23.75-3.26 1.38l-2.52 1.58c-.99.62-1.86 1.36-2.61 2.18a34.14 34.14 0 0 0-8.08-2.84c-8.61-1.89-15.8-.26-16-.22l-1.35.23-.64 1.23c-3.85 7.57-3.66 14.91-1.37 21.47 3.65 10.49 12.66 18.98 19.1 23.19l.77.5.4.26 1.29-.41c.42-.13.83-.28 1.23-.44 1.1-.43 2.13-.97 3.09-1.57 1.08-.68 2.08-1.44 2.99-2.29l-2.18-1.89-.23-.2-2.03-1.76c-.24.2-.49.4-.74.59-.78.58-1.63 1.08-2.54 1.48l-.51-.37c-4.2-3.14-14.82-12.24-16.26-23.7-.43-3.44-.04-7.1 1.61-10.87 1.58-.21 4.43-.46 7.85-.16 3.26.29 7.04 1.09 10.73 2.9-.24.85-.4 1.72-.46 2.59-3.43-.36-9.6-.39-16.12 2.68l.59 2.4s5.64-3.89 15.82-1.34c.11.49.25.98.43 1.47l-13.03 7.13 1 1.58 13.52-5.9c.14.2.27.4.42.59.57.74 1.22 1.39 1.92 1.97-1.68 5.18-4.21 8.32-6.22 10.13-1.8 1.61-3.19 2.17-3.19 2.17l1.52 1.7c.3-.18.58-.37.87-.56 1.34-.86 2.53-1.8 3.57-2.75 2.23-2.05 3.84-4.2 4.92-5.96.73-1.18 1.23-2.18 1.53-2.87.27.12.54.22.82.32-.85 3.34-2.38 7.83-5.01 11.49-.56.78-1.17 1.52-1.84 2.2l1.4-.15 2.8-.3 3.68-.39c2.56-4.24 4.01-8.87 4.81-12.21 1.3-.16 2.58-.53 3.78-1.09.44-.2.88-.43 1.31-.68l2.52-1.58.41-.29.72.42c.92.5 1.83.94 2.75 1.34l1.29-2.67.44-.91.64 1.36 1.11 2.35.67 1.41.65.2c1.81.52 3.54.87 5.12 1.11 1.36.21 2.6.33 3.69.4.92.06 1.74.08 2.4.08 1.11 0 1.81-.06 1.76-.12l1.4-.12.29-.43.48-.66c1.92-2.76 3.2-5.57 3.97-8.38.67-2.45.95-4.9.91-7.31zm-34.32 8.78c-.41.26-.85.46-1.3.61-1.02.35-2.1.45-3.16.31-.68-.09-1.35-.27-1.98-.55a6.816 6.816 0 0 1-2.99-2.54 6.75 6.75 0 0 1-.83-2.15c-.31-1.51-.11-3.08.55-4.45.43-.89 1.05-1.69 1.84-2.33.21-.17.43-.34.67-.48l2.23-1.4.28-.18c.47-.29.97-.5 1.5-.67.32-.1.64-.18.97-.23.36-.06.73-.1 1.1-.1.64 0 1.27.1 1.87.26l.23.08c.88.28 1.7.74 2.4 1.34.51.44.98.95 1.35 1.54a6.867 6.867 0 0 1 .4 6.37c-.39.87-.97 1.67-1.73 2.33-.28.24-.57.47-.9.67l-1.63 1.02-.87.55zm11.63-.51c-.53-.23-1.05-.49-1.58-.76.47-.86.83-1.77 1.09-2.71.14-.52.26-1.04.34-1.57.46.04.98.07 1.52.09l.15.01c1.78.06 3.92-.03 6.28-.44 2.34-.4 4.89-1.11 7.49-2.31l-.59-2.4s-2.88 1.94-8.18 2.14c-1.92.07-4.15-.08-6.68-.63-.11-.77-.29-1.53-.54-2.28l12.18-6.55-1-1.64-12.52 5.4c-.49-.76-1.06-1.44-1.69-2.05l-.06-.06c.82-1.96 1.74-3.6 2.68-4.97 3.33-4.82 6.91-6.22 6.91-6.22l-.05-.05-1.59-1.82c-3 1.77-5.35 3.87-7.17 5.91-1.63 1.83-2.83 3.6-3.67 5.06-.73-.38-1.5-.7-2.29-.94-.28-.08-.55-.17-.84-.24 2.15-5.17 6.4-12.85 13.39-14.83 1.15 1.13 3.12 3.19 5.2 5.88.61.79 1.22 1.62 1.83 2.51.55.8 1.09 1.65 1.61 2.52 1.99 3.35 3.69 7.21 4.37 11.3.23 1.37.34 2.76.31 4.18-.06 2.61-.62 5.28-1.82 7.94-.36.79-.76 1.58-1.24 2.37-1.02 0-2.42-.05-4.07-.24-.62-.07-1.28-.17-1.96-.28-1.98-.34-4.18-.88-6.44-1.76a17.9 17.9 0 0 1-1.37-.56z" fill="#C9C9C9"/><path d="M29.44 157.66c-2.03 2.22-3.19 5.07-3.19 8.1 0 3.22 1.23 6.2 3.51 8.49 2.86 2.86 7.13 3.89 11 3.11 2.06-.42 4.02-1.34 5.59-2.79l-16.91-16.91zm56.1 12.32c.06 3.39 1.4 6.56 3.8 8.96l.47.43c1.12 1.02 2.37 1.84 3.74 2.41 1.57.66 3.27 1.02 5.03 1.02 2.02 0 3.92-.47 5.62-1.28a13.15 13.15 0 0 0 2.85-1.85c2.75-2.35 4.52-5.81 4.58-9.68H85.54zm82.23-12.23l-16.93 16.93c1.59 1.43 3.53 2.34 5.58 2.75 3.87.77 8.1-.27 10.95-3.12 2.28-2.28 3.51-5.27 3.51-8.49 0-2.99-1.08-5.86-3.11-8.07z" fill="#D0D2D3"/><path d="M59.26 134.69c-2.98-.38-6.09.29-8.59 2.02-.54.37-1.06.78-1.53 1.25l-4.54 4.54-3.95 3.95 3.94 3.94 13.03 13.03 8.49-8.49c2.28-2.28 3.51-5.27 3.51-8.49 0-3.22-1.23-6.2-3.51-8.49-1.86-1.85-4.3-2.93-6.85-3.26zm52.09 2.7c-.55-2.34-1.71-4.49-3.45-6.22-2.46-2.52-5.74-3.86-9.25-3.86-6.08 0-11.19 4.18-12.63 9.82-.26 1.01-.41 2.06-.42 3.15v13.19h26.1v-13.05c0-.36-.02-.71-.05-1.06-.05-.67-.15-1.33-.3-1.97zm36.71.63c-2.28-2.28-5.27-3.51-8.49-3.51-1.47 0-2.89.27-4.21.76-1.58.59-3.03 1.51-4.27 2.75-2.28 2.28-3.51 5.27-3.51 8.49 0 3.22 1.23 6.2 3.51 8.49l8.49 8.49 16.97-16.97-8.49-8.5z" fill="#818385"/><path d="M53.08 167.14l-8.5-8.48-2.12-2.11-.8-.8-2.86-2.86-4.35-4.34c-.41-.41-.88-.59-1.4-.59-.64 0-1.11.18-1.52.59-.76.82-.76 2.11 0 2.87l21.13 21.13c.76.76 2.11.76 2.93 0a2 2 0 0 0 .33-.45v-.01c.17-.3.25-.63.25-1.01 0-.53-.23-1.05-.59-1.46l-2.5-2.48zm61.55-7.82H82.62c-.64 0-1.23.23-1.64.7-.47.47-.76 1.05-.76 1.7 0 1.35 1.05 2.4 2.4 2.4h32.02c1.35 0 2.4-1.05 2.4-2.4a2.39 2.39 0 0 0-2.41-2.4zm51.04-10.65c-.41-.53-.88-.7-1.4-.7-.64 0-1.11.23-1.52.59l-21.13 21.13c-.24.24-.39.49-.48.78-.07.21-.11.44-.11.69 0 .53.23 1.05.59 1.46.26.26.59.42.95.5.64.15 1.36.01 1.86-.41l.12-.1 1.07-1.07.86-.85 2.05-2.05 4.22-4.21 3-2.99 2.62-2.61 7.31-7.29c.11-.11.2-.23.28-.35.52-.8.42-1.86-.29-2.52z" fill="#B8B9BA"/><path d="M86.83 103.37a20.74 20.74 0 0 0 4.96 2.65c.43.17.88.33 1.36.47h.02c.35.1.72.2 1.1.29 1.53.36 3.1.55 4.67.51 2.81-.06 5.5-.76 7.9-1.93 5.09-2.52 8.72-7.26 9.77-12.88l-37.45.12c1.06 4.27 3.87 8.08 7.67 10.77zm13.35-5.68c4.41.91 6.54 2.08 7.81 5.34-2.93 1.49-10.08 4.07-18.93-.19 1.43-4.92 5.88-6.17 11.12-5.15zM43.7 61.97l2.03 1.76.23.2 2.18 1.89 4.69 4.06 4.74 4.16-1.29 5.91-2.63 12.35 2.68-1.42c.82 2.1 1.81 4.12 2.94 6.06 4.67 8.05 11.88 14.61 20.88 18.37a44.13 44.13 0 0 0 8.68 2.63c9.81 1.9 19.5.44 27.83-3.57 7.72-3.71 14.27-9.6 18.7-17.02 1.5-2.52 2.75-5.21 3.72-8.05l4.42 2.3-2.69-12.23-1.23-5.62 4.68-3.98 5.17-4.39 2.69-2.28 2.56-2.17-2.88-.31-2.98-.32-7.72-.83-1.46-.15-1.39-.14-2.88-.3-1.05-.11-2.75-5.56-2.05-4.12-3.16-6.35-.06-.12-.03.05-2.61 5.27-.75 1.51-1.89 3.81-2.69 5.5-.53.05-5.85.61-.35.04-5.5.59-5.85.63-2.22.24.12.11-3.75-.41-5.85-.64-3.1-.34-2.75-.29-3.69-.38-.29-.03-2.75-5.68-2.47-5.22-.26-.54-.67-1.41-1.11-2.35-.64-1.36-.44.91-1.29 2.67-3.53 7.3-.43.88-2.33 4.8-3.51.4-3 .34-.22.02-1.23.13-2.06.22-3.68.39-2.8.3-1.4.15-1.64.17-.54.06.45.39.53.46zm30.49.84c.47 1 1.52 1.7 2.69 1.81l2.11.23 3.69.4 2.28.25-.4.35-1.74 1.52-2.7 2.36-1.12.98c-.88.76-1.23 1.87-1 2.99l1.64 7.49-7.08-3.75c-.53-.29-1.11-.41-1.64-.41s-1.17.12-1.64.41l-4.7 2.49-.13.07-2.25 1.19 1.64-7.49c.08-.37.08-.74.02-1.1-.11-.71-.47-1.38-1.02-1.88l-3.94-3.34-1.8-1.52-.41-.35 2.58-.28 1.64-.18 1.4-.15 2.46-.27.35-.08c1.01-.21 1.87-.84 2.34-1.73l.62-1.29 2.72-5.68 1.76 3.6 1.01 2.07.62 1.29zm49.33-1.29l.13-.27 2.63-5.41 2.62 5.29.19.39.13.26.02.03.26.52.18.35c.47 1 1.52 1.7 2.69 1.81l2.99.32 5.09.55-.55.47-1.78 1.52-2.76 2.35-.88.75c-.88.76-1.23 1.81-1 2.93l1.64 7.37-7.08-3.69c-.53-.29-1.11-.41-1.64-.41-.24 0-.47.03-.71.07l-.04.01c-.32.06-.63.17-.89.33l-7.2 3.57 1.64-7.37c.23-1.05-.18-2.17-1-2.93l-3.5-2.99-1.78-1.52-.69-.59 5.56-.6 2.52-.27c1.17-.12 2.17-.82 2.69-1.81l.21-.44.31-.59zm-24.82 0l1.53 1.3 3.28 2.78.29.25 1.79 1.52 2.83 2.4 4.68 3.98-1.23 5.62-2.69 12.23 6.14-3.2 4.98-2.6 6.03-3.16 3.2 1.68 2.83 1.48.17.09c-5.39 17.55-23.56 28.59-42.25 24.96-13.17-2.59-23.26-11.79-27.46-23.43l1.94-1.03.97-.52 5-2.64 5.97 3.16 3.18 1.69 7.94 4.22-2.63-12.35-1.29-5.91 4.74-4.16 2.41-2.09.49-.43 1.76-1.52 1.08-.93 3.92-3.4.2-.17.2.18zm-23.28 84.99c.04-3.22-.81-6.28-2.39-8.97-.77-1.32-1.71-2.56-2.82-3.67-1.37-1.37-2.96-2.45-4.66-3.26-1.97-.94-4.11-1.52-6.28-1.71-.64-.06-1.27-.07-1.91-.06-4.54.06-9.06 1.73-12.37 5.04l-3.3 3.3-2.87 2.87-2.74 2.74c-2.83-1.14-6.36-.68-8.7 1.62a7.858 7.858 0 0 0-1.66 8.74l-.1.1c-3.39 3.34-5.21 7.84-5.21 12.58-.06 4.74 1.81 9.25 5.21 12.64 3.39 3.34 7.84 5.21 12.64 5.21.85 0 1.69-.08 2.52-.2v9.5h-6.2c-2.11 0-3.75 1.7-3.75 3.75 0 2.11 1.7 3.75 3.75 3.75h22.36c2.11 0 3.75-1.7 3.75-3.75s-1.7-3.75-3.75-3.75h-6.2v-14.35l.12-.1.16-.16c.98.41 2.03.63 3.11.63 1.94 0 3.78-.71 5.16-2.01l.34-.33a8.26 8.26 0 0 0 1.44-2.05 7.993 7.993 0 0 0 .84-3.57c0-1.06-.21-2.09-.6-3.03l8.91-8.91c3.38-3.35 5.2-7.85 5.2-12.59zm-45.66 27.74c-2.28-2.28-3.51-5.27-3.51-8.49 0-3.03 1.16-5.88 3.19-8.1l16.91 16.91c-1.57 1.45-3.52 2.38-5.59 2.79-3.87.78-8.14-.25-11-3.11zm25.82-1.7c-.82.76-2.17.76-2.93 0l-21.13-21.13c-.76-.76-.76-2.05 0-2.87.41-.41.88-.59 1.52-.59.53 0 1 .18 1.4.59l4.35 4.34 2.86 2.86.8.8 2.12 2.11 8.5 8.48 2.5 2.49c.35.41.59.94.59 1.46 0 .38-.08.71-.25 1.01v.01c-.09.15-.19.3-.33.44zm2.04-9.13l-13.03-13.03-3.94-3.94 3.95-3.95 4.54-4.54c.48-.47.99-.88 1.53-1.25 2.51-1.72 5.62-2.39 8.59-2.02 2.55.32 4.99 1.4 6.85 3.27 2.28 2.28 3.51 5.27 3.51 8.49 0 3.22-1.23 6.2-3.51 8.49l-8.49 8.48zm59.88-9.41v-13.59c0-1.25-.12-2.47-.36-3.66-.09-.46-.21-.92-.34-1.37-.86-3.14-2.51-5.99-4.87-8.31-3.57-3.57-8.31-5.56-13.4-5.56-8.54 0-15.77 5.7-18.1 13.49-.3.99-.51 2.01-.64 3.06-.1.77-.16 1.55-.16 2.35v13.59a7.864 7.864 0 0 0-2.87 1.86c-1.58 1.52-2.46 3.63-2.46 5.85 0 3.53 2.21 6.53 5.33 7.71v.31c0 2.93.69 5.78 1.96 8.34.6 1.21 1.33 2.37 2.18 3.43.44.55.91 1.08 1.41 1.57.72.72 1.5 1.36 2.31 1.95 1.84 1.34 3.88 2.32 6.06 2.92v4.55h-6.67c-2.17 0-3.98 1.76-3.98 3.98 0 2.17 1.76 3.98 3.98 3.98h24c2.17 0 3.98-1.76 3.98-3.98 0-2.22-1.76-4.04-3.98-4.04h-6.67v-4.66c1.75-.55 3.4-1.35 4.89-2.35 1.41-.95 2.68-2.09 3.79-3.37.89-1.03 1.68-2.15 2.34-3.36a18.71 18.71 0 0 0 2.27-8.96v-.31c3.11-1.19 5.33-4.22 5.33-7.7 0-3.54-2.21-6.54-5.33-7.72zm-10.43 25.65c-.86.74-1.82 1.36-2.85 1.85-1.7.81-3.6 1.28-5.62 1.28-1.76 0-3.46-.35-5.03-1.02-1.37-.58-2.62-1.4-3.74-2.41-.16-.14-.32-.28-.47-.43-2.4-2.4-3.75-5.56-3.8-8.96h26.1c-.08 3.88-1.84 7.34-4.59 9.69zm-21.47-39.3v-.08c.01-1.09.16-2.14.42-3.15 1.44-5.64 6.55-9.82 12.63-9.82 3.51 0 6.79 1.35 9.25 3.86a12.95 12.95 0 0 1 3.45 6.22c.15.64.26 1.3.31 1.96.03.35.05.71.05 1.06v13.05H85.6v-13.1zm-2.98 23.76a2.37 2.37 0 0 1-2.4-2.4c0-.64.29-1.23.76-1.7.41-.47 1-.7 1.64-.7h32.02c1.35 0 2.4 1.05 2.4 2.4 0 1.35-1.05 2.4-2.4 2.4H82.62zm76.32 19.55c4.74 0 9.25-1.87 12.58-5.27 3.39-3.34 5.21-7.84 5.21-12.58.06-4.8-1.81-9.25-5.21-12.64.39-.93.6-1.92.62-2.91a7.93 7.93 0 0 0-2.32-5.76c-2.21-2.17-5.73-2.79-8.62-1.66l-8.99-8.99c-.71-.71-1.49-1.33-2.3-1.89a17.764 17.764 0 0 0-6.32-2.72 18.78 18.78 0 0 0-8.24.06c-1.7.39-3.34 1.03-4.86 1.9-1.26.72-2.45 1.59-3.51 2.65-1.22 1.2-2.22 2.55-3.02 4a17.77 17.77 0 0 0-2.19 8.58c-.06 4.74 1.81 9.25 5.21 12.64l8.91 8.91a8.203 8.203 0 0 0-.66 3.15c0 .45.04.89.12 1.32l.11.53a7.845 7.845 0 0 0 2.06 3.7c.49.49 1.04.9 1.63 1.23a7.87 7.87 0 0 0 3.94 1.05c1.09 0 2.15-.22 3.13-.62l.09.09.18.16v14.36h-6.2c-2.11 0-3.75 1.7-3.75 3.75s1.64 3.75 3.75 3.75h22.36c2.05 0 3.75-1.64 3.75-3.75 0-2.05-1.64-3.75-3.75-3.75h-6.2v-9.51c.8.14 1.64.22 2.49.22zm-16.38-10.56c-.35-.08-.69-.25-.95-.5-.35-.41-.59-.94-.59-1.46 0-.25.04-.47.11-.69.09-.28.24-.54.48-.78l21.13-21.13c.41-.35.88-.59 1.52-.59.53 0 1 .18 1.4.7.71.66.8 1.72.28 2.52-.08.12-.17.24-.28.35l-7.31 7.29-2.62 2.61-3 2.99-4.22 4.21-2.05 2.05-.86.85-1.07 1.07-.12.1c-.49.43-1.2.56-1.85.41zm-11.48-35.09c1.24-1.24 2.69-2.16 4.27-2.75 1.33-.5 2.74-.76 4.21-.76 3.22 0 6.2 1.23 8.49 3.51l8.49 8.49-16.97 16.97-8.49-8.49c-2.28-2.28-3.51-5.27-3.51-8.49 0-3.21 1.23-6.2 3.51-8.48zm25.35 39.41c-2.05-.41-4-1.32-5.58-2.75l16.93-16.93c2.03 2.21 3.11 5.08 3.11 8.07 0 3.22-1.23 6.2-3.51 8.49-2.86 2.85-7.09 3.88-10.95 3.12z" fill="#373737"/><g fill="#49B7EB"><path d="M170 85.57l-1.99-16.56-1.99 16.56-10.13 1.36v1.5l10.13 1.36 1.99 16.56L170 89.79l15.8-2.11-15.8-2.11zM24.32 106.53l-1.29 11.12-10.59 1.4 10.59 1.41 1.29 11.06 1.35-11.06 10.59-1.41-10.59-1.4zm144.69-50.16l1.29 11.12 1.34-11.12 10.54-1.41-10.54-1.4-1.34-11.12-1.29 11.12-10.59 1.4zM21.28 106.82l1.64-13.7 13.05-1.75-13.05-1.7-1.64-13.75-1.64 13.75-13.04 1.7h-.01.01l13.04 1.75z"/><circle cx="179.25" cy="103.89" r="2.93"/><circle cx="32.92" cy="80.48" r="2.93"/><circle cx="155.84" cy="39.51" r="2.93"/></g></symbol><symbol id="linkedin" viewBox="0 0 47 47"><g><g transform="translate(-661 -7240)"><g filter="url(#kj7pb)"><use fill="none" stroke-opacity=".25" stroke-width="0" mask="url(&quot;#kj7pc&quot;)" xlink:href="#kj7pa"/><use fill-opacity=".25" xlink:href="#kj7pa"/></g><use fill="#fff" xlink:href="#kj7pa"/></g></g></symbol><symbol id="moderator" viewBox="0 0 32 32"><path fill="#ff9d00" d="M21.334 23.474l-.819 2.656 4.454 1.946-1.901-7.709c-.45 1.099-.963 2.288-1.734 3.107zm.341-10.212c1.61-.01 2.861 1.051 2.814 2.682.01.533-.102 1.069-.272 1.595l5.458-5.643-9.176-.904a.768.768 0 0 1-.611-.424l-3.963-8.243-1.187 2.334c1.232.304 2.28 1.304 2.28 2.992-.019 1.464-.091 2.928-.138 4.39 1.654-1.33 4.088-.877 4.795 1.221zM6.96 17.037L5.912 11.52l-3.587.376 4.659 5.272-.024-.131zm-.786 10.888l1.048-.427c.272-.11.538-.334.808-.501a.949.949 0 0 1 .59-.211h.19L7.882 21.9l-1.709 6.026z"/><path fill="#ffce13" d="M31.99 11.059zm0 0c-.046-.133-.024-.066 0 0zm0 0a.753.753 0 0 0-.63-.48L21.082 9.563 16.66.339C16.401-.2 15.583-.226 15.305.31l-2.267 4.365c.131-.035.264-.062.398-.08a2.995 2.995 0 0 1 1.136.03c.046.01.093.019.139.03l.026.006 1.187-2.334 3.962 8.245a.774.774 0 0 0 .611.424l9.176.904-5.458 5.643c-.218.68-.528 1.342-.792 1.962-.117.275-.235.568-.357.866l1.901 7.709-4.454-1.946c-.067.219-.134.438-.203.656h.987c.52 0 .96.44.96.96h-.01v.76l3.501 1.528c.554.251 1.198-.246 1.054-.846l-2.39-9.704 7.416-7.661a.74.74 0 0 0 .163-.768zM6.984 17.168l-4.659-5.272 3.587-.376c-.093-.491-.19-.965-.221-1.464l-4.947.523c-.579.058-.885.757-.49 1.214l6.758 7.661-2.71 9.544c-.182.589.467 1.12 1.016.885l2.344-.957v-1.181c0-.038.003-.075.008-.114l.006-.043.013-.062.014-.056.01-.029a.96.96 0 0 1 .078-.176l-1.618.658 1.709-6.026c-.299-1.576-.598-3.152-.899-4.73z"/><path fill="#373737" d="M21.675 13.262c-.707-2.096-3.141-2.55-4.797-1.219.048-1.462.118-2.926.138-4.39 0-1.688-1.046-2.688-2.28-2.992l-.026-.006a3.448 3.448 0 0 0-1.673.02c-1.187.315-2.186 1.29-2.213 2.93l-.01.077a3.087 3.087 0 0 0-.216-.198c-.029-.024-.058-.048-.088-.07l-.061-.046-.056-.04a3.403 3.403 0 0 0-.099-.066l-.014-.008a2.947 2.947 0 0 0-2.114-.386 3.044 3.044 0 0 0-2.019 1.398l-.032.056c-.587 1.014-.416 2.086-.205 3.2l1.048 5.517.016.088.008.043.586 3.085.312 1.645.928 4.886h-.19a.943.943 0 0 0-.59.211.988.988 0 0 0-.317.446l-.01.029-.014.056-.013.062-.006.043a.85.85 0 0 0-.008.114v3.21c0 .526.434.96.96.96h12.669c.526 0 .96-.434.96-.96v-3.21h.01c0-.52-.44-.96-.96-.96h-.987l.203-.656.819-2.656c.03-.032.061-.069.094-.109.718-.813 1.21-1.946 1.642-2.998.122-.298.24-.59.357-.866.262-.619.574-1.282.792-1.962.168-.526.282-1.062.272-1.595.046-1.632-1.205-2.693-2.814-2.682z"/><path fill="#eceff0" d="M19.69 28.386c-1.445 0-1.445 2.24 0 2.24s1.445-2.24 0-2.24z"/><path fill="#ffe994" d="M6.077 8.386l.07-.123a3.044 3.044 0 0 1 2.019-1.398 2.913 2.913 0 0 1 2.114.386l.014.008.099.066.056.04.061.046.104.083L12.273.857 2.86 8.387h3.216zM19.802.856l1.883 7.53h7.53zM2.691 26.776l3.229-7.058L.038 15.02zm22.523-7.106l3.237 7.059 2.645-11.755z"/><path fill="#e6e7e8" d="M19.086 24.301c-1.157-.034-2.085-.622-2.522-1.504-1.13.115-4.275 1.03-5.042-.104 2.014-.264 4.034-.493 6.048-.754.054-.003.107-.01.16-.014l.043-.005.122-.016.037-.006a2.97 2.97 0 0 0 .136-.026l.011-.003c1.328-.274 2.49-1.237 2.33-2.696a2.729 2.729 0 0 0-.022-.158l-.026-.131c-.162-.79-.517-1.269-.992-1.563-.757-.467-1.816-.466-2.882-.506l-.568-.022-.387-.016c-1.01-.042-2.019-.088-3.029-.134-.779-.037-1.56-.074-2.341-.106.226-.312.606-.49.989-.49 1.454.029 2.909.086 4.363.131 1.17.037 2.589-.122 3.674.395l1.578-2.629c-.098-1.715-2.01-2.368-3.214-1.163a8.639 8.639 0 0 0-1.862 2.754c.091-2.709.222-5.419.272-8.128 0-2.584-4.01-2.595-4.01 0l-.432 6.232c-.01.146-.192.123-.216.019l-.96-4.245-.029.01a3.15 3.15 0 0 0-.046-.216l-.019-.061a1.886 1.886 0 0 0-.046-.139l-.024-.054a1.985 1.985 0 0 0-.059-.131l-.021-.035c-.026-.046-.051-.093-.08-.134l-.01-.013c-.502-.733-1.467-.922-2.259-.645l-.032.011-.061.024c-.691.278-1.227.922-1.154 1.877l.003.05.014.101-.029.01 3.29 16.725h9.693c.282-.885.563-1.77.846-2.654-.339.123-.698.17-1.058.17h-.178zm4.706-8.474l-.006-.086-.002-.014c-.069-.672-.526-1.162-1.158-1.349a1.991 1.991 0 0 0-.478-.082l.213.011c.166.008.317.016-.002 0l-.218-.011c-.31-.014-.638.008-.925.141l-1.483 2.472c1.254.974 1.725 2.85.802 4.205-.04.059-.083.117-.126.173-.024.029-.048.058-.074.085l-.064.075-.086.088-.061.062-.093.082-.064.056-.091.07-.075.058-.078.053-.096.064-.059.035c-.04.024-.08.05-.122.072l-.034.018a7.445 7.445 0 0 1-.154.08l-.003.002c-.12.059-.245.112-.37.162l-.021.008c-.118.045-.24.085-.362.122l-.048.014a6.79 6.79 0 0 1-.347.09l-.064.014c-.117.026-.234.046-.35.066l-.053.01c.026.043.054.085.085.125l.008.01c.157.203.355.355.579.462.349.168.757.229 1.144.214 1.082-.042 1.539-1.07 1.995-1.896l.122-.219c.853-1.523 1.923-3.304 2.181-5.05.018-.117.032-.232.042-.347l-.003-.142z"/></symbol><symbol id="talk-shop" viewBox="0 0 200 200"><path d="M93.94 35.71c-.11-14.26 10.91-26.03 24.87-27.09l-10.05-5.2-3.12-1.65c-5.71-3-12.76-2.94-18.41.18l-1.71.88L53.59 20 8.82 44.12c-5.65 3-8.88 8.94-8.82 15v82.71c0 5.01 2.46 9.62 6.51 12.76.26-11.7 11.88-19.87 17.58-23.18a49.043 49.043 0 0 1-16.21-25.76c-.47-1.82-.82-3.71-1.06-5.53-2.82-20.82 8.06-41 26.47-50.35 1.53-.82 3.18-1.59 4.88-2.24 1.71-.65 3.53-1.18 5.35-1.65 17.47-4.41 35.12 1.18 46.94 13 1.31 1.29 2.52 2.68 3.67 4.12l-.19-27.29zm100.34 47.91c-4.89 6.26-12.47 10.31-20.99 10.38l-30.24.24c-6.94 9.18-18.29 13.88-33.88 14l-4.71.06 2.06-4.29c0-.06 1.94-4.12 3.47-12-1.95-.88-3.75-2-5.4-3.28 1.39 13.74-3.12 27.07-11.75 37.08 3.86 5.14 8.4 8.86 13.27 10.14 8.76 2.31 19.26.79 26.71-6.52-.96-4.99.16-10.31 3.55-14.54 6.2-7.73 17.59-8.89 25.45-2.58 7.86 6.3 9.2 17.68 3 25.4-3.21 4-7.82 6.23-12.61 6.58-12.7 14.28-32.39 20.43-52.29 15.25-1.29-.33-2.57-.73-3.85-1.17l7.44 40.12c1.13-.37 2.24-.84 3.29-1.42l1.71-.88L140.47 179l44.76-24.12c5.65-3 9.59-8.94 9.53-15l-.48-56.26z" fill="#F58345"/><path d="M140.98 56.14c-2.1-1.77-6.12-5.85-6.18-10.87v-2.76h.26l26.39-.22-.94 3.48c-.06.28-1.66 6.23-5.9 10.1l.07 10.24v.43c.53-.18 1.06-.37 1.57-.59.81-.35 1.59-.77 2.34-1.22 5.66-3.41 9.44-9.61 9.36-16.68-.11-10.65-8.83-19.26-19.48-19.15-10.58.11-19.13 8.71-19.14 19.27l-.01.21c.08 7.89 4.89 14.65 11.71 17.58l-.01-1.22-.04-8.6zm53-.34l-.15-20.92c-.12-11.59-9.65-21-21.24-20.88l-42.71.34-9.23.07c-11.59.12-21 9.65-20.88 21.24l.24 32c.06 8.88 5.76 16.82 14.18 19.71l2.35.82-.41 2.47c-.82 5.06-1.82 8.88-2.71 11.59 12-.88 20.59-5.06 25.65-12.53l.88-1.29 33.24-.29c11.59-.12 21-9.65 20.88-21.24l-.09-11.09zm-19.49-25.24c.16-.16.33-.3.54-.41l9.22-4.81c1.14-.59 2.5-.14 3.09.95.43.83.3 1.77-.22 2.45-.19.26-.44.48-.74.64l-9.22 4.77c-.36.18-.73.27-1.09.27-.82 0-1.59-.45-2-1.18-.48-.93-.26-2 .42-2.68zm-64.03-5.23l9.22 4.81c1.09.59 1.54 1.95.95 3.09-.24.42-.61.74-1.03.94-.3.14-.63.24-.97.24-.36 0-.73-.09-1.09-.27l-9.22-4.77a2.318 2.318 0 0 1-.96-3.09c.6-1.09 1.96-1.54 3.1-.95zm-5.01 26.52c-1.09 0-1.97-.73-2.2-1.73-.04-.17-.07-.35-.07-.54 0-1.27.86-2.36 2.27-2.27l9.77-.05c1.27 0 2.27 1 2.27 2.27.03.71-.32 1.35-.84 1.77-.38.31-.86.5-1.38.5l-9.82.05zm14.08 16.11L111 71.28c-.24.12-.48.16-.72.16l-.31-.05c-.68-.11-1.29-.54-1.57-1.23-.4-1.04.12-2.2 1.12-2.6l8.52-3.32c1.04-.4 2.2.12 2.6 1.12.31.8.07 1.67-.51 2.21-.17.16-.37.3-.6.39zm18.31 10.3l-.06-6.23V70.5c-6.77-3.31-11.83-9.6-13.43-17.17-.34-1.59-.52-3.23-.53-4.92-.11-13.33 10.37-24.36 23.56-25.01.35-.02.7-.03 1.05-.04 8.87-.07 16.72 4.55 21.17 11.53 2.42 3.79 3.84 8.27 3.88 13.08.07 8.95-4.62 16.86-11.71 21.29-.62.39-1.26.75-1.91 1.08v.27l.04 7.49c.06 6.23-5.46 6.29-5.46 6.29l-11.03.11c-.76 0-1.41-.13-1.97-.33-3.55-1.28-3.6-5.91-3.6-5.91zm48.46-8.1c-.32.8-1.08 1.28-1.88 1.28-.24 0-.48-.04-.72-.16l-8.52-3.32c-1-.4-1.52-1.56-1.12-2.6l.13-.25c.48-.83 1.52-1.24 2.47-.87l8.52 3.32c.99.4 1.51 1.55 1.13 2.58l-.01.02zm2.96-18.31l-9.81-.05c-1.23 0-2.27-1.04-2.23-2.27 0-.49.15-.93.4-1.3a2.26 2.26 0 0 1 1.87-.97l9.77.05c.81-.05 1.43.29 1.81.82l.13.18c.21.37.33.8.33 1.26l-.03.26a2.232 2.232 0 0 1-2.24 2.02zm-42.76 1.53l.06 13.02h2.59l-.01-.87-.1-12.37 1.16-.83.05-.04c1.26-.93 2.24-2.2 3-3.45.19-.31.37-.62.53-.92l-10.48.05-2.15.01c1.16 2.1 3.26 3.92 4.19 4.58l1.16.82z" fill="#BBD758"/><path fill="#fff" d="M169.6 34.89c-4.45-6.98-12.3-11.6-21.17-11.53-.35 0-.7.02-1.05.04-13.19.66-23.67 11.68-23.56 25.01.01 1.68.2 3.33.53 4.92 1.6 7.57 6.66 13.86 13.43 17.17v1.53l.06 6.23s.05 4.63 3.6 5.9c.57.2 1.21.33 1.97.33l11.03-.11s5.52-.06 5.46-6.29l-.04-7.49v-.27c.65-.33 1.29-.69 1.91-1.08 7.08-4.43 11.78-12.34 11.71-21.29-.04-4.8-1.46-9.28-3.88-13.07zm-26.3 13.07l10.48-.05c-.16.3-.35.61-.53.92-.76 1.26-1.74 2.52-3 3.45l-.05.04-1.16.83.1 12.37.01.87h-2.59l-.06-13.02-1.16-.83c-.94-.66-3.03-2.48-4.19-4.58h2.15zm15.3 16.75c-.75.45-1.53.87-2.34 1.22-.51.22-1.04.42-1.57.59v-.43l-.07-10.24c4.25-3.86 5.85-9.82 5.9-10.1l.94-3.48-26.39.22h-.26v2.76c.06 5.02 4.08 9.1 6.18 10.87l.06 8.58.01 1.22c-6.82-2.93-11.63-9.69-11.71-17.58l.01-.21c.01-10.55 8.56-19.16 19.14-19.27 10.65-.11 19.37 8.5 19.48 19.15.06 7.09-3.73 13.29-9.38 16.7z"/><path d="M119.68 30.14l-9.22-4.81c-1.14-.59-2.5-.14-3.09.95-.16.3-.24.62-.25.94-.04.87.41 1.72 1.21 2.15l9.22 4.77c.36.18.73.27 1.09.27.34 0 .67-.09.97-.24.42-.2.79-.52 1.03-.94.58-1.13.13-2.5-.96-3.09zm-3.04 21.16c.53-.42.87-1.06.84-1.77 0-1.27-1-2.27-2.27-2.27l-9.77.05c-1.41-.09-2.27 1-2.27 2.27 0 .19.03.36.07.54.24 1 1.12 1.73 2.2 1.73l9.81-.05c.53 0 1-.19 1.39-.5zm1.41 12.94l-8.52 3.32c-1 .4-1.52 1.56-1.12 2.6.28.69.89 1.13 1.57 1.23l.31.05c.24 0 .48-.04.72-.16l8.52-3.32a2.026 2.026 0 0 0 1.12-2.6c-.4-1-1.56-1.52-2.6-1.12zm58.02-29.83c.36 0 .73-.09 1.09-.27l9.22-4.77c.3-.16.54-.38.74-.64.52-.68.65-1.63.22-2.45a2.302 2.302 0 0 0-3.09-.95l-9.22 4.81c-.2.11-.38.26-.54.41-.68.69-.9 1.75-.42 2.67.41.74 1.18 1.19 2 1.19zm15.13 13.91l-.13-.18c-.39-.53-1.01-.88-1.81-.82l-9.77-.05c-.78 0-1.46.38-1.87.97-.25.37-.4.81-.4 1.3-.05 1.23 1 2.27 2.23 2.27l9.81.05c1.18 0 2.12-.87 2.25-2.01l.03-.26c-.01-.47-.13-.91-.34-1.27zm-6.02 19.24l-8.52-3.32c-.95-.36-1.99.04-2.47.87l-.13.25c-.4 1.04.12 2.2 1.12 2.6l8.52 3.32c.24.12.48.16.72.16.8 0 1.56-.48 1.88-1.28v-.02c.39-1.03-.13-2.18-1.12-2.58z" fill="#CAE861"/><path d="M76.68 110.33l-.11.22.14-.19-.03-.03zm-12.74-2.86c-.26.08-.51.17-.76.26-2.49.88-4.57 2.15-5.92 3.82-1.18 1.45-1.82 3.2-1.72 5.28.88.15 1.73.26 2.55.31 2.28.16 4.32-.03 6.12-.47 5.84-1.4 9.24-5.29 10.86-7.72-3.03-2.19-6.72-2.82-11.13-1.48z" fill="#D8DBDB"/><path d="M135.25 135.6a30.996 30.996 0 0 1-7.43 4.61l6.62 10.29c3.76-1.89 7.25-4.31 10.36-7.21-1.91-.67-3.75-1.66-5.43-3a19.022 19.022 0 0 1-4.12-4.69zm22.8-18.58c-5.19-4.17-12.73-3.4-16.84 1.72-.54.67-.99 1.38-1.35 2.12-1.6 3.21-1.61 6.96-.16 10.18.76 1.7 1.93 3.26 3.49 4.51a12.06 12.06 0 0 0 6.34 2.61c3.29.34 6.64-.67 9.18-2.96.47-.42.91-.87 1.32-1.38 4.09-5.1 3.21-12.63-1.98-16.8zM55.59 52.65c-22.64 0-41 18.36-41 41 0 6.18 1.38 12.04 3.83 17.29l3.23-1.18c2.57 4.17 5.47 7.33 8.56 9.71 9.92 7.65 21.68 7.13 30.11 5.19.4-.09.8-.19 1.19-.29l-.09-.03c.22-.07.41-.14.59-.22l.26-.08c1.51-.61 2.32-2.1 1.83-3.34-.36-.89-1.31-1.4-2.38-1.39l-.06-.04.27-.05c-.98.07-1.91.09-2.74.07h-.58c-.55-.01-1.09-.05-1.64-.1-.77-.07-1.55-.17-2.31-.32-3.94-.72-7.59-2.39-10.47-4.85-3.7 1.38-8.25 2.08-13.82 1.5 0 0 8.53-3.29 9-10.47 0 0 .94-13.59 16.65-10.94 0 0 1.22-3.64 4.86-5.71 2.18-1.24 5.22-1.92 9.38-.93 0 0 .89.01 2.24-.09 3.21-.25 9.06-1.2 12-4.67 0 0 .12 2.57-.66 5.75-.47 1.92-1.27 4.06-2.62 6.01-.35.5-.74.99-1.17 1.46.69 4.98-.45 9.99-3.2 14.12l-.14.28.03.03-.14.19c-.45.81-.94 1.56-1.47 2.23l-.35.25c-.36.31-.63.66-.83 1.03l-.05.09c-.44.89-.43 1.87.14 2.53.83.96 2.49.88 3.73-.18l.03-.03.13-.05c.84-.68 1.63-1.38 2.36-2.1a33.31 33.31 0 0 0 5.67-7.24c8.66-14.98 2.24-31.8 2.24-31.8l3.3-1.48c-7.01-12.6-20.46-21.15-35.91-21.15zm-16.65 44l-1.76-4.47c-1.35-3.59-4.47-5.12-8.18-3.41-4.06 1.88-4.35 5.82-3.41 8.24l1.53 4.29-4 1.47-1.53-4.29c-2.18-5.59.59-11.88 6.18-14.06 5.59-2.18 11.88.59 14.06 6.18l1.71 4.29-4.6 1.76zm40.59-17.47l-1.76-4.47c-1.35-3.59-4.47-5.12-8.18-3.41-4.06 1.88-4.35 5.82-3.41 8.24l1.71 4.35-4 1.47L62.18 81c-2.18-5.59.59-11.88 6.18-14.06 5.59-2.18 11.88.59 14.06 6.18l1.71 4.29-4.6 1.77zm-22.22 23.37c-.36.65-.79 1.37-1.31 2.12l1.19-.56 6.51-3.1 1.24-.59c-.37-.04-.73-.08-1.11-.13-1.55-.22-3.21-.56-5.01-1.04 0-.01-.43 1.35-1.51 3.3z" fill="#96989C"/><path d="M92.12 73.53l-.64.29-3.3 1.48s6.42 16.82-2.24 31.8c-1.44 2.49-3.3 4.93-5.67 7.24-.73.71-1.53 1.41-2.36 2.1l-.13.05-.03.03c-1.23 1.06-2.9 1.14-3.73.18-.57-.66-.58-1.64-.14-2.53-2.7 2.74-6.02 4.09-9.12 4.71-.61.12-1.22.22-1.8.28-.35.04-.7.07-1.04.1l-.27.05.06.04c1.07-.01 2.02.49 2.38 1.39.5 1.24-.32 2.73-1.83 3.34l-.26.08c-.18.07-.37.15-.59.22l.09.03c-.39.1-.78.2-1.19.29-8.43 1.94-20.2 2.46-30.11-5.19-3.08-2.38-5.99-5.55-8.56-9.71l-3.23 1.18.16.36.1.21c.17.34.41.83.74 1.44l.29.54c.2.37.41.73.63 1.09.1.18.21.36.33.54a52.78 52.78 0 0 0 4.39 6.14c7.08 8.49 20.06 18.31 40.13 12.92 1.13-.3 2.28-.65 3.45-1.06a67.111 67.111 0 0 0 9.31-4.06s2.88-1.63 6.43-4.93a44.577 44.577 0 0 0 4.4-4.73l.07-.09c7.12-8.97 13.39-24.11 3.28-45.82zm-47.94 40.5c5.89-2.19 9.61-6.11 11.83-9.36.51-.75.95-1.47 1.31-2.12 1.07-1.94 1.51-3.31 1.51-3.31 1.79.48 3.45.82 5.01 1.04.38.05.75.09 1.11.13 7.59.83 12.23-1.37 15.07-4.48.43-.47.82-.96 1.17-1.46 1.35-1.95 2.15-4.09 2.62-6.01.78-3.19.66-5.75.66-5.75-2.94 3.48-8.79 4.42-12 4.67-1.35.11-2.24.09-2.24.09-4.16-.99-7.2-.31-9.38.93-3.63 2.08-4.85 5.72-4.85 5.72-15.71-2.65-16.65 10.94-16.65 10.94-.47 7.18-9 10.47-9 10.47 5.57.58 10.13-.12 13.83-1.5z" fill="#4C4D4F"/><path fill="#373737" d="M199.82 34.82C199.71 20 187.53 8 172.65 8.12l-52 .41c-.62 0-1.23.04-1.83.08-13.97 1.06-24.99 12.83-24.87 27.09l.19 27.3a49.509 49.509 0 0 0-3.67-4.12C78.65 47.06 61 41.47 43.53 45.88c-1.82.47-3.65 1-5.35 1.65-1.71.65-3.35 1.41-4.88 2.24C14.88 59.12 4 79.29 6.82 100.12c.24 1.82.59 3.71 1.06 5.53a48.982 48.982 0 0 0 16.21 25.76c-5.7 3.31-17.32 11.48-17.58 23.18-.15 6.76 3.5 14.71 14.3 23.57l1.07-12.04.27-3.08 1.2-13.51c.15-1.31 1.14-2.33 2.41-2.58.27-.05.54-.08.82-.06 1.59.12 2.76 1.53 2.65 3.18l-1.44 15.9-3.09 34.16-5.23.05v.01l84.24-.76-.17-.93-7.44-40.12c1.28.44 2.57.84 3.85 1.17 19.9 5.18 39.59-.97 52.29-15.25 4.79-.35 9.39-2.58 12.61-6.58 6.2-7.73 4.86-19.1-3-25.4-7.86-6.3-19.25-5.14-25.45 2.58-3.39 4.23-4.51 9.56-3.55 14.54-7.45 7.3-17.96 8.83-26.71 6.52-4.87-1.28-9.41-5-13.27-10.14 8.64-10.01 13.15-23.34 11.75-37.08 1.65 1.29 3.45 2.4 5.4 3.28-1.53 7.88-3.47 11.94-3.47 12l-2.06 4.29 4.71-.06c15.59-.12 26.94-4.82 33.88-14l30.21-.25c8.52-.07 16.1-4.12 20.99-10.38a26.849 26.849 0 0 0 5.72-16.8l-.18-32zm-26.64 53.3l-33.24.29-.88 1.29c-5.06 7.47-13.65 11.65-25.65 12.53.88-2.71 1.88-6.53 2.71-11.59l.41-2.47-2.35-.82c-8.41-2.88-14.12-10.82-14.18-19.71l-.24-32c-.12-11.59 9.29-21.12 20.88-21.24l9.23-.07 42.72-.33c11.59-.12 21.12 9.29 21.24 20.88l.15 20.92.08 11.08c.12 11.59-9.3 21.12-20.88 21.24zm-31.98 30.63c4.11-5.12 11.65-5.89 16.84-1.72 5.19 4.17 6.08 11.69 1.97 16.81-.41.51-.85.96-1.32 1.38-2.54 2.28-5.89 3.3-9.18 2.96a12.06 12.06 0 0 1-6.34-2.61 12.208 12.208 0 0 1-3.49-4.51c-1.45-3.22-1.44-6.97.16-10.18.38-.75.83-1.46 1.36-2.13zm-5.95 16.85c1.08 1.74 2.44 3.34 4.13 4.69 1.67 1.34 3.52 2.33 5.43 3a44.89 44.89 0 0 1-10.36 7.21l-6.62-10.29c2.61-1.16 5.11-2.68 7.42-4.61zm-46.41-16.3l-.07.09c-.4.49-.79.97-1.19 1.42a44.577 44.577 0 0 1-3.21 3.31c-3.54 3.3-6.43 4.93-6.43 4.93a70.664 70.664 0 0 1-6.8 3.13c-.85.33-1.69.65-2.51.93-1.17.4-2.32.75-3.45 1.06-20.07 5.39-33.05-4.43-40.13-12.92a50.48 50.48 0 0 1-4.39-6.14l-.33-.54c-.23-.39-.44-.75-.63-1.09l-.29-.54c-.33-.61-.57-1.1-.74-1.44l-.1-.21-.16-.36a40.823 40.823 0 0 1-3.83-17.29c0-22.64 18.36-41 41-41 15.45 0 28.9 8.55 35.89 21.17l.64-.29c10.12 21.72 3.85 36.86-3.27 45.78z"/><path d="M27.76 84.41c-5.59 2.18-8.35 8.47-6.18 14.06l1.53 4.29 4-1.47L25.59 97c-.94-2.41-.65-6.35 3.41-8.24 3.71-1.71 6.82-.18 8.18 3.41l1.76 4.47 4.59-1.76-1.71-4.29c-2.17-5.59-8.47-8.35-14.06-6.18zm36.12.94l4-1.47-1.71-4.35c-.94-2.41-.65-6.35 3.41-8.24 3.71-1.71 6.82-.18 8.18 3.41l1.76 4.47 4.59-1.76-1.71-4.29c-2.18-5.59-8.47-8.35-14.06-6.18C62.76 69.12 60 75.41 62.18 81l1.7 4.35zm1.06 15.06l-1.23.59-6.51 3.1-1.19.56c-2.22 3.25-5.94 7.17-11.83 9.36 2.87 2.46 6.53 4.14 10.47 4.85.76.15 1.53.25 2.31.32.54.05 1.09.09 1.64.1h.58c.84.02 1.76.01 2.74-.07.34-.03.69-.06 1.04-.1.59-.07 1.19-.16 1.8-.28 3.1-.62 6.41-1.97 9.12-4.71l.05-.09c.2-.37.47-.73.83-1.03.11-.1.23-.17.35-.25.53-.67 1.02-1.42 1.47-2.23l.11-.22.14-.28c2.75-4.13 3.88-9.14 3.2-14.12-2.85 3.13-7.5 5.33-15.09 4.5zm-.74 16.27c-1.8.43-3.83.62-6.12.47-.82-.06-1.67-.16-2.55-.31-.1-2.07.54-3.83 1.72-5.28 1.36-1.67 3.43-2.93 5.92-3.82.25-.09.5-.18.76-.26 4.4-1.34 8.1-.71 11.12 1.48-1.6 2.43-5.01 6.32-10.85 7.72zm-37.61 30.2c-.28-.02-.56.01-.82.06-1.27.25-2.27 1.27-2.41 2.58l-1.2 13.51-.27 3.08-1.07 12.04-1.93 21.73v.29l.59-.01 5.23-.05 3.09-34.16 1.44-15.9c.11-1.64-1.06-3.05-2.65-3.17z"/></symbol><symbol id="tumblr" viewBox="0 0 47 47"><g><g transform="translate(-781 -7240)"><g filter="url(#e39kb)"><use fill="none" stroke-opacity=".25" stroke-width="0" mask="url(&quot;#e39kc&quot;)" xlink:href="#e39ka"/><use fill-opacity=".25" xlink:href="#e39ka"/></g><use fill="#fff" xlink:href="#e39ka"/></g></g></symbol><symbol id="twitter" viewBox="0 0 47 47"><g><g transform="translate(-601 -7240)"><g filter="url(#bqadb)"><use fill="none" stroke-opacity=".25" stroke-width="0" mask="url(&quot;#bqadc&quot;)" xlink:href="#bqada"/><use fill-opacity=".25" xlink:href="#bqada"/></g><use fill="#fff" xlink:href="#bqada"/></g></g></symbol><symbol id="war-story" viewBox="0 0 32 32"><path fill="#ffce13" d="M23.764 2.105l-.361 5.29.081.6c.02.051.043.098.06.15.385-.077.759-.165 1.144-.253h.011c.517-.351 1.044-.55 1.594-.571 1.341-.066 1.989.561 2.297 1.088.759 1.308.186 3.341-.462 4.363-1.188 1.858-3.374 3.177-6.21 3.748a8.087 8.087 0 0 1-1.98 1.567c2.678.711 5.275 2.074 5.398 2.139.054.029.096.07.137.112l.42-.046a.555.555 0 0 1 .607.487.546.546 0 0 1-.263.527l1.76 3.064a.735.735 0 0 1-.106.877l.001.002c.077.14.145.284.217.425 2.403-2.7 3.863-6.218 3.863-10.068-.002-5.809-3.315-10.864-8.209-13.502zM9.354 16.389c-1.792-.439-4.232-1.429-5.616-3.616-.638-1-1.209-3-.494-4.319.286-.517.891-1.132 2.154-1.132h.165c.472.022.912.153 1.34.373.249.065.736.184 1.424.324l.067-.449a.92.92 0 0 1 .067-.271l-.02-.102-.532-4.87C3.226 5.018.077 9.951.077 15.609c0 3.9 1.496 7.457 3.956 10.175l.676-2.169c.01-.034.03-.062.045-.094a.549.549 0 0 1 .311-.95l.419-.046c1.752-2.339 4.834-3.752 6.533-4.39a8.204 8.204 0 0 1-2.081-1.603l-.581-.143z"/><path fill="#ababab" d="M17.907 21.167l2.112-1.915c-.421-.122-.846-.23-1.262-.312a.539.539 0 0 1-.319-.202c-.196.064-.384.141-.587.191a8.09 8.09 0 0 1-4.344-.139 16.59 16.59 0 0 0-1.329.468l2.419 2.273 3.312-.364z"/><path fill="#e6d0ba" d="M11.043 21.918a5.554 5.554 0 0 1-1.228-1.551l-.262.146 1.177 1.438.313-.034zm1.289-.142l-1.772-1.803c-.244.122-.493.253-.745.392a5.5 5.5 0 0 0 1.228 1.551l1.29-.14z"/><path fill="#ababab" d="M13.325 16.003c.432.324.944.534 1.557.495.242-.011.406-.11.45-.483l.008-.095-1.03-.33-.985.412zm3.119-.063c.008.05.011.111.022.152.088.318.286.395.506.406.619.038 1.14-.176 1.577-.508l-.972-.412-1.132.361zm-.067-2.948h-.11c-1.451-.022-4.21-.264-6.43-1.692-.077-.033-.154-.099-.242-.165h-.033l-.22-.186c.029.555.096 1.096.242 1.351.352.627 1.539.594 1.847 1.011.132.165.362.736.736 1.352.099.154.209.33.33.483l.083.106a3.944 3.944 0 0 1 2.17-1.399c.341-.077.715.33 1.121.308h.077c.462.033.891-.362 1.264-.274a3.965 3.965 0 0 1 2.078 1.347l.076-.097c.132-.165.242-.341.341-.506.374-.605.594-1.154.715-1.319.308-.418 1.495-.385 1.847-1.011.115-.203.182-.586.218-1.013-.137.078-.268.156-.417.233-1.989 1.01-3.638 1.428-5.693 1.472z"/><path fill="#635647" d="M22.719 11.156l-.013.008c-.067.041-.147.081-.219.123-.036.427-.103.81-.218 1.013-.352.627-1.539.594-1.847 1.011-.121.165-.341.715-.715 1.319a4.538 4.538 0 0 1-.341.506l-.076.097c.169.207.309.412.417.599.145.249.238.459.292.606l.004.009a6.48 6.48 0 0 0 .818-.742 6.85 6.85 0 0 0 .702-.868l.066-.096c.251-.376.489-.781.691-1.255 0 0 .392-1.055.451-2.337l-.012.006zm-10.138 4.097l-.083-.106c-.121-.154-.23-.33-.33-.483-.374-.615-.605-1.188-.736-1.352-.308-.418-1.495-.385-1.847-1.011-.145-.256-.213-.796-.242-1.351 0 0-.022-.011-.044-.033-.054-.044-.098-.077-.153-.131l-.001-.001-.042-.035c-.037 1.353.36 2.453.36 2.453a5.857 5.857 0 0 0 2.397 3.333l.025-.071c.05-.14.138-.346.281-.597.105-.191.243-.401.413-.613zm6.786 1.084l-.819-.347c-.437.332-.957.546-1.577.508-.22-.011-.418-.088-.506-.406-.01-.041-.014-.102-.022-.152l-.039.012c-.198-.176-.423-.439-.489-.648-.055.22-.367.443-.565.619l-.01-.003-.008.095c-.044.374-.209.473-.45.483-.613.038-1.126-.172-1.557-.495l-1.393.583c1.34.886 2.785 1.138 3.369 1.2v.011s.055 0 .154.011a.952.952 0 0 0 .121.011v-.011c.186.011.439.011.703 0v.011s.099 0 .286-.022c.044-.011.088-.011.132-.011.11-.011.23-.033.374-.055a7.348 7.348 0 0 0 1.639-.533l.094-.043c.164-.077.323-.16.479-.249.064-.036.127-.079.191-.118.132-.08.263-.149.394-.243l-.009-.006-.489-.202z"/><path fill="#373634" d="M14.595 21.529l-2.419-2.273c-.468.184-1.023.423-1.616.717l1.772 1.803 2.263-.247zm5.167-.566c.672-.294 1.385-.667 2.01-1.121a22.504 22.504 0 0 0-1.753-.591l-2.112 1.915 1.855-.203z"/><path fill="#38322b" d="M20.004 16.447L20 16.438a4.376 4.376 0 0 0-.709-1.205 3.991 3.991 0 0 0-2.078-1.347c-.374-.088-.803.308-1.264.274h-.077c-.406.022-.78-.385-1.121-.308a3.96 3.96 0 0 0-2.17 1.399 4.515 4.515 0 0 0-.413.612 3.835 3.835 0 0 0-.281.597l-.025.071a.62.62 0 0 0-.023.09l.094-.039 2.38-.994 1.04.332c.198-.176.509-.399.565-.619.066.209.291.472.489.648l.039-.012 1.131-.36 1.792.759.693.286a1.74 1.74 0 0 0-.057-.174z"/><path fill="#a37c49" d="M22.557 9.425l-.03.005-.006.001-.004.001c-1.955.33-3.998.483-6.085.483-2.843 0-5.301-.285-7.082-.592l-.008-.001h-.003l-.012-.003-.259-.042.198.176.025.019.019.014.005.005.019.016c.212.19.424.371.636.53h.011l.154.121c.088.077.176.154.264.198 2.1 1.352 4.815 1.527 5.88 1.539l.059.028.018-.028c1.88-.033 3.385-.429 5.21-1.363.36-.18.663-.347.964-.556l.091-.058.001-.001.04-.03c.228-.16.459-.357.718-.596-.274.051-.548.093-.822.136zM9.493 6.692l12.86-.077.037-.553.304-4.472a16.28 16.28 0 0 0-13.739.185l.472 4.328.065.59z"/><path fill="#373737" d="M28.589 8.409c-.308-.527-.956-1.154-2.297-1.088-.55.022-1.077.22-1.594.571h-.011c-.385.088-.759.176-1.144.253-.017-.052-.04-.099-.06-.15l-.081-.6.361-5.29c-.175-.095-.355-.178-.534-.266a15.204 15.204 0 0 0-.534-.249l-.304 4.472-.037.553-12.86.077-.065-.59-.473-4.327c-.174.083-.356.156-.526.245-.179.094-.346.205-.52.305l.532 4.87c.004.036.013.067.019.102a.837.837 0 0 0-.068.272l-.067.449a28.306 28.306 0 0 1-1.424-.324 3.238 3.238 0 0 0-1.34-.374h-.166c-1.264 0-1.868.615-2.154 1.132-.715 1.319-.143 3.319.494 4.319 1.385 2.188 3.825 3.177 5.616 3.616l.583.143a8.204 8.204 0 0 0 2.081 1.603c-1.7.64-4.781 2.052-6.533 4.39l1.617-.177c.278-.276.574-.537.885-.78a13.812 13.812 0 0 1 1.566-1.055c.088-.052.175-.097.262-.146a20.278 20.278 0 0 1 2.361-1.109c.752-.295 1.267-.449 1.329-.468a8.08 8.08 0 0 0 4.344.139c.203-.05.392-.127.587-.191a.542.542 0 0 0 .319.202c.417.081.841.19 1.262.312.602.174 1.197.379 1.753.591l.054.021.21.081a32.39 32.39 0 0 1 1.451.612l.185-.021 1.801-.198a.537.537 0 0 0-.137-.112c-.123-.065-2.72-1.429-5.398-2.139a8.106 8.106 0 0 0 1.98-1.567c2.836-.571 5.023-1.891 6.21-3.748.649-1.021 1.22-3.054.463-4.362zM4.66 12.179c-.561-.879-.879-2.407-.45-3.198.209-.375.594-.561 1.187-.561h.111c.281.019.54.091.814.216l-.008.026.185.052c.471.231.933.583 1.383.979v.011a7.413 7.413 0 0 0-.099 1.572 7.321 7.321 0 0 0 .033 1.55c.033.286.099.571.176.912.099.406.231.813.406 1.209-1.351-.494-2.824-1.34-3.737-2.768zm4.668-2.86l.012.002h.003l.008.001c1.78.307 4.239.592 7.082.592 2.087 0 4.13-.154 6.085-.483l.004-.001.006-.001.03-.005c.273-.042.548-.084.821-.137-.26.239-.49.436-.718.596l-.04.03-.001.001-.091.058c-.301.21-.604.376-.964.556-1.824.935-3.33 1.33-5.21 1.363l-.018.028-.059-.028c-1.066-.011-3.781-.186-5.88-1.539a1.377 1.377 0 0 1-.264-.198l-.154-.121h-.011a9.595 9.595 0 0 1-.636-.53l-.019-.016-.004-.003-.019-.014-.025-.019-.198-.176.26.042zm12.952 4.167c-.202.474-.44.879-.691 1.255l-.066.096a6.898 6.898 0 0 1-1.519 1.61c.03.081.052.149.056.176l-.193-.08c-.132.094-.263.162-.394.243-.064.039-.126.08-.191.118-.163.093-.32.174-.479.249l-.094.043a7.348 7.348 0 0 1-1.639.533c-.143.022-.264.044-.374.055-.044 0-.088 0-.132.011-.187.022-.286.022-.286.022v-.011a7.44 7.44 0 0 1-.703 0v.011s-.044 0-.121-.011c-.099-.011-.154-.011-.154-.011v-.011c-.583-.062-2.028-.314-3.369-1.2l-.094.039a.848.848 0 0 1 .023-.09A5.852 5.852 0 0 1 9.463 13.2s-.399-1.1-.36-2.453l.042.035.001.001c.054.054.098.087.153.131.022.022.044.033.044.033l.219.186h.033c.088.066.165.132.242.165 2.22 1.429 4.979 1.671 6.43 1.692h.11c2.056-.044 3.704-.462 5.694-1.473.148-.078.28-.156.417-.233.071-.041.152-.081.219-.123l.013-.008.012-.007c-.061 1.284-.453 2.339-.453 2.339zm4.924-1.307c-1.033 1.605-2.748 2.473-4.265 2.945a7.97 7.97 0 0 0 1.088-4.935c.385-.362.835-.813 1.385-1.439l.033-.033c.308-.198.594-.286.891-.297.659-.033 1.066.143 1.297.539.461.78.142 2.33-.429 3.22z"/><path fill="#e6d8ca" d="M7.821 28.837l-3.466 1.367v1.798H8.7v-2.69a16.84 16.84 0 0 1-.879-.476zm0 0c.288.167.581.325.879.476v-.822l-.879.347z"/><path fill="#e6b07a" d="M18.112 31.665l-6.396-4.364-1.91.759h-.009v3.943h8.428z"/><path fill="#614626" d="M7.102 22.348l3.628-.397-1.177-1.438c-.531.308-1.063.662-1.566 1.055-.311.244-.607.504-.885.78zm1.296-7.4a7.044 7.044 0 0 1-.406-1.209c-.077-.341-.143-.627-.176-.912a7.321 7.321 0 0 1-.033-1.55 7.413 7.413 0 0 1 .099-1.572v-.011c-.451-.397-.912-.747-1.384-.979l-.185-.053.008-.026a2.256 2.256 0 0 0-.813-.216h-.111c-.594 0-.979.187-1.188.561-.429.791-.11 2.319.45 3.198.913 1.428 2.386 2.275 3.739 2.769zm18.806-2.769c.571-.891.891-2.44.429-3.221-.23-.395-.638-.571-1.297-.539a1.718 1.718 0 0 0-.891.297l-.033.033c-.55.627-1 1.077-1.385 1.439a7.968 7.968 0 0 1-1.088 4.935c1.517-.473 3.232-1.341 4.265-2.945zm.79 12.192l-1.76-3.064a.546.546 0 0 1-.223.079l-.27.03.027.358.084 1.116.042.556-1.204.109-.133-1.775-.018-.233-.493.054.01.182.151 2.639-1.204.144-.156-2.777-.003-.057-.477.052.001.008.155 2.039-1.204.109-.152-2.024-4.732.518.008.06.009.069.075.543.069.502.007.051.15 1.085.036.256-3.999.481-.074-1.223-.018-.301-.001-.021v-.002a24.081 24.081 0 0 0-2.973 1.117 20.693 20.693 0 0 0-3.355 1.898l-.321-.539s1.918-1.509 5.151-2.614c.461-.157.951-.305 1.464-.441l-.014-.233-.009-.161-.007-.112-1.825.2c-1.413.577-3.329 1.388-4.963 2.176l-.303.148-1.035 3.142-.723.048 1.156-3.806s.543-.263 1.327-.62a62.887 62.887 0 0 1 1.795-.788l-2.877.315-.061.003a.544.544 0 0 1-.37-.146c-.015.032-.035.06-.045.094l-.678 2.168-1.093 3.504a.703.703 0 0 0-.023.306l.333-.13 8.335-3.296c.028-.01.055-.008.083-.01.026-.006.05-.02.078-.021l5.401-.345c.88-.108 1.792-.208 2.689-.298.187-.019.375-.037.552-.056.187-.019.365-.037.543-.047a259.98 259.98 0 0 1 5.915-.479c.524-.036.828-.055.828-.055.075.13.149.261.214.392a.736.736 0 0 0 .106-.878zM13.409 22.9l.034.267.209-.049c.098-.021.199-.04.299-.06l-.039-.257-.014-.091-.505.055.013.102.004.032zm.137 1.095l.066.523 2.024-.288-.058-.542-.005-.04-.054-.512-.058-.543-.006-.051-.696.076.008.048.083.53.065.408.023.146.022.141-.867.096-.016-.105-.047-.306c-.152.036-.322.077-.52.128l.036.291z"/><path fill="#543d21" d="M26.878 25.531l.149-.034.507-.116.028.074v.001c.042.099.124.297.228.568.426 1.108 1.258 3.496 1.588 5.978h.89c-.378-1.776-1.051-4.159-2.161-6.327-.073-.141-.141-.286-.217-.425l-.001-.002c-.066-.13-.14-.261-.214-.392 0 0-.303.019-.828.055-1.166.08-3.428.246-5.915.479-.178.009-.356.028-.543.047l-.552.056c-.896.091-1.808.19-2.689.298l3.968-.254a.526.526 0 0 1 .553.392c.011.04.028.078.031.121a.549.549 0 0 1-.513.583l-1.816.116c.141.133.299.301.466.5.176.21.361.46.552.755.085.132.17.262.257.413 0 0-.095-.065-.257-.17-.139-.09-.33-.211-.552-.347a17.78 17.78 0 0 0-1.98-1.055l-.344.023c.346.337.773.841 1.205 1.598 0 0-1.314-.898-2.644-1.506l-2.662.171 5.469 3.718a.534.534 0 0 1 .215.281l.3.871h.487l-.047-.103-1.283-2.828 1.086-.524.197.431.661 1.457.435.959.103.225-.103.056-.543.29-.075.037h1.367l-.721-1.583 1.086-.524.006.012.959 2.095h1.723a20.706 20.706 0 0 0-.803-2.998 18.714 18.714 0 0 0-.818-2.022c.08.095.639.76 1.283 1.751.572.881 1.212 2.017 1.648 3.268h2.332c-.161-1.548-.524-3.524-1.314-5.259a9.569 9.569 0 0 0-.587-1.118l.387-.09.015-.004zm-3.324 3.691l.567 1.242-1.069.571-1.421-3.118 1.087-.526.836 1.831z"/><path fill="#966f4b" d="M20.497 30.434l-.109-.24-.553-1.217-.197-.431-1.086.524.748 1.65.582 1.281h.431l.075-.037.543-.29.103-.056-.103-.225zm1.549-.539l-.14.068-.947.457.721 1.583h1.33l-.959-2.094zm1.508-.673l-.835-1.83-1.087.526.822 1.807.597 1.311 1.069-.571z"/><path fill="#9c734d" d="M27.265 26.558c-.066.064-.135.123-.202.184.79 1.736 1.154 3.712 1.314 5.259h1.002c-.331-2.482-1.162-4.87-1.588-5.978-.171.182-.346.36-.525.534zm.297-1.102a.835.835 0 0 1-.184.04l-.345.026c.095.34.176.684.231 1.037.18-.173.354-.352.525-.533-.105-.272-.187-.47-.229-.57zm-.7.078l-.387.09c.221.354.411.732.587 1.118.067-.062.137-.122.202-.184a9.208 9.208 0 0 0-.231-1.037l-.171.013zm.165-.037l.007.024.345-.026a.848.848 0 0 0 .184-.04l-.028-.074-.507.116zm-.149.034l-.016.004.171-.013-.007-.024-.149.034z"/><path fill="#73532d" d="M22.035 19.944l-.21-.081-.054-.021c-.625.455-1.337.827-2.01 1.121l3.723-.407c-.417-.188-.909-.4-1.449-.612zm-9.371 3.411c-.513.136-1.003.284-1.464.441-3.233 1.105-5.151 2.614-5.151 2.614l.321.539a20.61 20.61 0 0 1 3.355-1.897 23.5 23.5 0 0 1 2.973-1.117l-.016-.258-.019-.321zm1.345.085l-.015-.096-.044-.285c-.1.02-.2.039-.299.06-.071.015-.139.033-.209.049l.014.112.021.164.033.262c.199-.052.368-.093.52-.128l-.013-.087-.008-.052zm-5.947-.09c-.649.273-1.274.552-1.795.788-.783.357-1.327.62-1.327.62l-.456 1.5-.699 2.306.722-.048.012-.036 1.023-3.105c.1-.05.2-.098.303-.148 1.633-.789 3.55-1.6 4.963-2.176l-2.746.3z"/><path fill="#b8916c" d="M16.605 23.658l-.007-.05-.07-.503-.075-.543-.009-.068-.008-.061-.981.108.006.051.057.542.055.512.004.04.058.542-2.024.289-.066-.523-.036-.289-.033-.263-.021-.163-.014-.112-.034-.267-.004-.032-.013-.102-.079.008-.681.075.008.112.009.161.014.233.02.321.016.258v.001l.001.021.019.3.074 1.224 3.998-.482-.036-.255zm-2.655-.6l.044.285.015.096.008.051.013.087.047.306.017.104.867-.096-.023-.141-.023-.146-.065-.409-.083-.53-.008-.048-.862.095.014.091zm11.903-.169l-.084-1.116-.027-.358-1.201.131.018.233.132 1.775 1.204-.109zm-3.484-1.105l-.072.008-1.128.124.152 2.024 1.204-.11-.156-2.039zm1.68-.184l-1.203.131.003.057.156 2.777 1.204-.144-.151-2.639z"/><path fill="#402e19" d="M23.113 26.982c.332.692.591 1.365.818 2.022.381 1.101.644 2.135.803 2.998h1.311c-.436-1.251-1.076-2.387-1.648-3.268a18.115 18.115 0 0 0-1.283-1.751zm-1.998-1.443l-.184.012-9.185.586c-.028.002-.052.015-.078.021-.028.002-.055 0-.083.01l-1.779.702-.562.225-6.602 2.612c-.29.122-.431.44-.309.712.112.29.431.431.702.309l.215-.084v1.358h1.105v-1.798L8.7 28.49v3.512h1.096v-3.943h.009l1.91-.759 6.396 4.364.112.337h1.171l-.3-.871a.534.534 0 0 0-.215-.281l-.064-.043-5.406-3.676 2.663-.17c1.331.607 2.644 1.506 2.644 1.506-.433-.757-.86-1.26-1.205-1.598l.343-.022c.721.316 1.448.73 1.98 1.055a22.242 22.242 0 0 1 .809.517c-.086-.151-.171-.281-.257-.413a7.639 7.639 0 0 0-.552-.755 6.15 6.15 0 0 0-.466-.5l1.816-.116a.55.55 0 0 0 .513-.583c-.003-.044-.02-.081-.031-.121a.523.523 0 0 0-.551-.392zm4.777-5.246l-20.826 2.28a.549.549 0 0 0 .059 1.096l.061-.003 20.826-2.283a.537.537 0 0 0 .223-.079.545.545 0 0 0-.343-1.012z"/></symbol></svg>