<!-- Generated by IcoMoon.io -->
<svg version="1.1" xmlns="http://www.w3.org/2000/svg" width="32" height="32" viewBox="0 0 32 32">
<title>community</title>
<path fill="#fcb017" d="M21.478 0.922v3.707c0.317 0.4 0.482 0.838 0.47 1.291-0.018 0.8-0.544 1.501-1.413 2.018l4.157 10.394c0.403-0.539 1.006-0.931 1.728-1.054 1.475-0.251 2.872 0.725 3.12 2.181 0.126 0.747-0.075 1.474-0.501 2.040 0.040 0.333 0.058 0.666 0.054 0.997 1.274-2.213 2.003-4.781 2.003-7.52-0.002-6.41-3.992-11.888-9.619-14.053zM25.28 6.814c0.379 0 0.686 0.307 0.686 0.686s-0.307 0.686-0.686 0.686-0.686-0.307-0.686-0.686 0.307-0.686 0.686-0.686zM23.595 11.379l-0.216-1.874-1.789-0.235 1.789-0.245 0.216-1.874 0.226 1.874 1.789 0.245-1.789 0.235-0.226 1.874zM27.256 14.118l-0.32 2.664-0.32-2.664-2.531-0.339 2.531-0.339 0.32-2.664 0.32 2.664 2.541 0.339-2.541 0.339zM11.086 5.731c0.006-0.427 0.166-0.834 0.461-1.205v-3.586c0.019-0.019 0.038-0.029 0.056-0.038-0.038-0.094-0.056-0.189-0.056-0.291-6.080 1.93-10.494 7.624-10.494 14.362 0 1.381 0.186 2.717 0.533 3.987 0.446-1.171 1.683-1.902 2.982-1.682 0.906 0.154 1.629 0.736 1.997 1.498l0.133-0.259c-0.154-1.16 0.253-2.542 2.016-3.952l0.024-0.046c-0.566-0.678-1.050-0.219-1.294-0.536-0.245-0.31 0.358-1.214 0.358-1.214 0.094-0.131 0.235-0.235 0.395-0.245 0.47-0.027 0.922 0.221 1.293 0.522l2.75-5.384c-0.184-0.133-0.35-0.272-0.494-0.422-0.442-0.453-0.667-0.979-0.659-1.507zM7.595 8.509c0.379 0 0.686 0.307 0.686 0.686s-0.307 0.686-0.686 0.686-0.686-0.307-0.686-0.686 0.307-0.686 0.686-0.686zM3.651 14.456c-0.379 0-0.686-0.307-0.686-0.686s0.307-0.686 0.686-0.686 0.686 0.307 0.686 0.686-0.306 0.686-0.686 0.686zM6.146 11.886l-0.434 3.586-0.432-3.586-3.406-0.451 3.406-0.451 0.434-3.595 0.434 3.595 3.406 0.451-3.408 0.451z"></path>
<path fill="#e6e7e8" d="M4.608 22.546c-0.301 0.053-0.614 0.059-0.933 0.005-0.253-0.043-0.49-0.122-0.71-0.226-0.051-0.024-0.101-0.050-0.15-0.077-0.013 0.627 0.062 1.246 0.222 1.846l1.79-0.274c-0.122-0.381-0.197-0.784-0.214-1.203-0.005-0.026-0.005-0.050-0.005-0.072zM4.419 18.171c-0.979-0.166-1.906 0.48-2.069 1.443-0.016 0.090-0.021 0.179-0.022 0.269-0.008 0.517 0.214 1 0.587 1.336 0.246 0.222 0.557 0.381 0.91 0.442 0.294 0.050 0.584 0.026 0.85-0.058 0.232-0.074 0.446-0.192 0.629-0.347 0.21-0.179 0.378-0.406 0.485-0.67 0.048-0.117 0.083-0.238 0.106-0.368 0.008-0.051 0.014-0.102 0.018-0.155 0.074-0.906-0.566-1.734-1.493-1.891zM26.376 22.541c-0.013 0.446-0.090 0.874-0.218 1.277l1.789 0.274c0.16-0.598 0.235-1.219 0.222-1.845-0.259 0.142-0.546 0.246-0.854 0.299-0.32 0.056-0.637 0.050-0.939-0.005zM28.64 19.611c-0.163-0.963-1.090-1.61-2.069-1.443-0.71 0.122-1.251 0.637-1.432 1.278-0.069 0.243-0.088 0.502-0.043 0.766 0.022 0.13 0.059 0.254 0.107 0.371 0.146 0.357 0.405 0.646 0.726 0.84 0.118 0.070 0.245 0.13 0.379 0.171 0.267 0.085 0.56 0.11 0.856 0.061 0.35-0.059 0.659-0.216 0.904-0.435 0.378-0.338 0.603-0.826 0.594-1.347-0.002-0.088-0.008-0.174-0.022-0.262zM20.31 21.714l-2.315-0.15c-0.274-0.010-0.536-0.085-0.781-0.216-0.696-0.358-1.11-1.101-1.064-1.882l0.005-0.061-0.43-0.038-0.006 0.090c-0.038 0.526-0.274 1.006-0.669 1.355s-0.904 0.518-1.43 0.49l-2.315-0.15c-0.274-0.019-0.536-0.094-0.781-0.216-0.352-0.181-0.632-0.461-0.818-0.795-0.006 0.117-0.011 0.235-0.011 0.354 0 2.078 1.040 3.914 2.629 5.014 0.261 0.181 0.538 0.344 0.826 0.483 0.232 0.112 0.474 0.208 0.72 0.29 0.384 0.128 0.786 0.218 1.2 0.267 0.238 0.029 0.48 0.045 0.725 0.045l0.094-0.003c0.387-0.006 0.766-0.046 1.133-0.122 0.35-0.072 0.688-0.174 1.014-0.304 0.229-0.091 0.451-0.194 0.666-0.309l0.006-0.003c0.082-0.045 0.162-0.091 0.24-0.138 1.598-0.968 2.717-2.65 2.914-4.603-0.038 0.040-0.077 0.078-0.12 0.117-0.395 0.344-0.902 0.514-1.43 0.486zM17.443 24.122l-0.010 0.006-0.032 0.021h-0.002c-0.27 0.179-0.544 0.291-0.811 0.352-0.058 0.013-0.115 0.024-0.173 0.032-0.166 0.024-0.331 0.030-0.49 0.022-0.254-0.013-0.498-0.064-0.72-0.133-0.326-0.102-0.608-0.245-0.822-0.371-0.163-0.093-0.32-0.2-0.466-0.317l-0.067-0.058c-0.576-0.483-0.992-1.118-1.118-1.824l6.221 0.282c-0.197 0.864-0.758 1.584-1.51 1.987zM13.939 16.386c1.062 0.066 1.909 1.043 1.845 2.096l0.43 0.038 0.002-0.026c0.066-1.091 1.006-1.91 2.099-1.845l2.334 0.152c-1.114-1.466-2.875-2.411-4.858-2.411-1.712 0-3.259 0.707-4.366 1.843 0.066-0.003 0.131-0.002 0.197 0.002l2.317 0.15z"></path>
<path fill="#b1b3b3" d="M17.402 24.15v0zM14.061 23.84l0.056 0.037-0.054-0.040-0.002 0.003zM16.595 23.13c-0.192-0.109-0.413-0.192-0.67-0.24-0.598-0.114-1.138-0.048-1.491 0.275-0.104 0.094-0.192 0.213-0.261 0.355 0.459 0.354 0.901 0.541 1.307 0.621l0.029 0.005c0.762 0.141 1.39-0.088 1.752-0.277l0.022-0.013c-0.074-0.147-0.163-0.282-0.27-0.4-0.118-0.126-0.258-0.237-0.418-0.326z"></path>
<path fill="#000" d="M20.65 16.802l-0.019-0.002-2.315-0.15c-1.091-0.066-2.034 0.754-2.099 1.845l-0.002 0.026-0.43-0.038c0.064-1.053-0.782-2.029-1.845-2.096l-2.315-0.15c-0.066-0.003-0.133-0.003-0.197-0.002-0.448 0.018-0.874 0.182-1.218 0.478l-0.016 0.013c-0.314 0.277-0.525 0.635-0.618 1.035-0.024 0.104-0.043 0.211-0.051 0.32l-0.066 0.97c-0.024 0.386 0.066 0.762 0.246 1.086 0.184 0.334 0.464 0.614 0.818 0.795 0.245 0.122 0.509 0.198 0.781 0.216l2.315 0.15c0.526 0.029 1.035-0.141 1.43-0.49s0.63-0.829 0.669-1.355l0.006-0.090 0.43 0.038-0.005 0.061c-0.046 0.781 0.366 1.525 1.064 1.882 0.245 0.131 0.509 0.206 0.781 0.216l2.315 0.15c0.526 0.029 1.035-0.141 1.43-0.49 0.042-0.037 0.082-0.077 0.12-0.117 0.323-0.336 0.515-0.768 0.549-1.24l0.066-0.97c0.066-1.043-0.771-2.016-1.826-2.093zM14.475 20.141c-0.216 0.198-0.499 0.291-0.79 0.274l-2.315-0.15c-0.602-0.038-1.064-0.574-1.026-1.158l0.066-0.97c0.019-0.291 0.15-0.565 0.366-0.754 0.216-0.198 0.499-0.291 0.79-0.274l2.315 0.15c0.15 0.010 0.301 0.056 0.434 0.122 0.386 0.206 0.621 0.611 0.594 1.035l-0.066 0.97c-0.019 0.294-0.152 0.558-0.368 0.755zM21.6 18.851l-0.066 0.97c-0.019 0.291-0.15 0.555-0.366 0.754s-0.499 0.291-0.79 0.274l-2.315-0.15c-0.594-0.046-1.064-0.584-1.026-1.166l0.066-0.97c0.038-0.602 0.555-1.064 1.158-1.026l2.315 0.15c0.15 0.010 0.301 0.056 0.434 0.122 0.222 0.114 0.389 0.301 0.49 0.52 0.030 0.067 0.056 0.136 0.074 0.206 0.021 0.102 0.032 0.21 0.027 0.317z"></path>
<path fill="#373737" d="M29.539 19.458c-0.248-1.456-1.645-2.432-3.12-2.181-0.72 0.123-1.325 0.515-1.728 1.054-0.422 0.565-0.624 1.29-0.496 2.035 0.136 0.803 0.624 1.458 1.28 1.845 0.074 1.547-0.797 2.862-1.918 3.616-0.686 0.454-1.661 0.576-2.723 0.445l-0.070-0.421c1.016-0.939 1.779-2.176 2.136-3.621 0.33-1.326 0.274-2.654-0.104-3.869-0.499-1.64-1.57-3.080-3.040-4.026-2.93-6.402-8.118-2.362-9.779-0.824-0.136-0.15-0.301-0.314-0.486-0.466-0.371-0.301-0.822-0.549-1.293-0.522-0.16 0.010-0.301 0.114-0.395 0.245 0 0-0.602 0.904-0.358 1.214 0.245 0.315 0.728-0.142 1.294 0.536l0.014 0.016-0.037 0.029c-1.763 1.408-2.17 2.792-2.016 3.952 0.237 1.787 1.808 3.045 1.808 3.045l0.021-0.146c0.232 1.794 1.123 3.437 2.482 4.61l-0.026 0.098c-1.373 0.317-2.688 0.272-3.549-0.299-1.122-0.752-1.992-2.067-1.918-3.614 0.654-0.386 1.141-1.040 1.277-1.842 0.096-0.562 0.005-1.112-0.227-1.592-0.368-0.762-1.091-1.344-1.997-1.498-1.299-0.221-2.536 0.51-2.982 1.682-0.061 0.158-0.107 0.326-0.138 0.499-0.128 0.749 0.077 1.477 0.502 2.043-0.338 2.824 0.92 5.621 3.469 7.325 0.358 0.235 0.744 0.451 1.139 0.63 1.034 0.475 2.181 0.754 3.323 0.819l-0.434 1.637h12.33l-0.28-1.669c1.013-0.101 2.018-0.366 2.933-0.787 0.395-0.179 0.781-0.395 1.139-0.63 2.25-1.504 3.493-3.859 3.522-6.334 0.003-0.331-0.014-0.664-0.054-0.997 0.426-0.565 0.629-1.291 0.501-2.038zM4.010 23.944l-0.083 0.013-0.891 0.136c-0.16-0.598-0.235-1.219-0.222-1.846 0.050 0.027 0.099 0.053 0.15 0.077 0.221 0.104 0.458 0.182 0.71 0.226 0.318 0.054 0.634 0.048 0.933-0.005l0.002 0.070c0.019 0.419 0.094 0.821 0.214 1.203l-0.813 0.126zM5.304 21.254c-0.182 0.157-0.397 0.274-0.629 0.347-0.266 0.083-0.555 0.109-0.85 0.058-0.354-0.061-0.664-0.219-0.91-0.442-0.373-0.336-0.595-0.819-0.587-1.336 0.002-0.090 0.006-0.179 0.022-0.269 0.163-0.963 1.090-1.61 2.069-1.443 0.926 0.157 1.566 0.986 1.493 1.891-0.005 0.051-0.010 0.102-0.018 0.155-0.022 0.128-0.058 0.251-0.106 0.368-0.107 0.262-0.275 0.491-0.485 0.67zM18.947 25.71c-0.078 0.048-0.158 0.094-0.24 0.138l-0.006 0.003c-0.214 0.117-0.437 0.219-0.666 0.309-0.325 0.128-0.664 0.232-1.014 0.304-0.366 0.075-0.746 0.115-1.133 0.122l-0.094 0.003c-0.245 0-0.486-0.016-0.725-0.045-0.414-0.050-0.814-0.139-1.2-0.267-0.246-0.082-0.488-0.178-0.72-0.29-0.29-0.139-0.565-0.302-0.826-0.483-1.587-1.101-2.629-2.936-2.629-5.014 0-0.118 0.005-0.237 0.011-0.354-0.179-0.325-0.269-0.701-0.246-1.086l0.066-0.97c0.008-0.109 0.026-0.216 0.051-0.32 0.093-0.4 0.304-0.76 0.618-1.035l0.016-0.013c0.342-0.296 0.768-0.461 1.218-0.478 1.107-1.136 2.654-1.843 4.366-1.843 1.982 0 3.744 0.947 4.858 2.411 1.054 0.077 1.891 1.050 1.826 2.096l-0.066 0.97c-0.034 0.47-0.226 0.904-0.549 1.24-0.198 1.954-1.317 3.635-2.915 4.603zM27.949 24.093l-1.789-0.274c0.128-0.403 0.205-0.832 0.218-1.277v-0.002c0.302 0.054 0.619 0.061 0.939 0.006 0.309-0.053 0.595-0.157 0.854-0.299 0.013 0.626-0.062 1.246-0.222 1.845zM28.069 21.221c-0.245 0.219-0.554 0.376-0.904 0.435-0.298 0.051-0.589 0.026-0.856-0.061-0.133-0.043-0.261-0.101-0.379-0.171-0.322-0.194-0.579-0.483-0.726-0.84-0.048-0.117-0.085-0.242-0.107-0.371-0.045-0.264-0.026-0.525 0.043-0.766 0.181-0.642 0.723-1.158 1.432-1.278 0.979-0.166 1.906 0.48 2.069 1.443 0.014 0.088 0.021 0.176 0.022 0.262 0.010 0.522-0.216 1.010-0.594 1.347zM13.853 23.678l0.067 0.058c0.147 0.117 0.302 0.222 0.466 0.317 0.213 0.128 0.496 0.27 0.822 0.371 0.222 0.069 0.466 0.12 0.72 0.133 0.158 0.008 0.323 0.002 0.49-0.022 0.058-0.008 0.114-0.019 0.173-0.032 0.267-0.061 0.541-0.173 0.811-0.352l0.002-0.002 0.032-0.021 0.010-0.006c0.752-0.405 1.314-1.123 1.512-1.986l-6.221-0.282c0.125 0.706 0.541 1.341 1.117 1.824zM14.434 23.165c0.354-0.323 0.891-0.389 1.491-0.275 0.259 0.048 0.478 0.131 0.67 0.24 0.16 0.090 0.299 0.2 0.414 0.326 0.109 0.118 0.198 0.253 0.27 0.4l-0.022 0.013c-0.362 0.189-0.99 0.418-1.752 0.277l-0.029-0.005c-0.406-0.080-0.848-0.267-1.307-0.621 0.072-0.144 0.16-0.261 0.264-0.355zM14.062 23.837l0.054 0.040-0.056-0.037 0.002-0.003zM13.478 19.011l-0.075 0.715 0.725 0.085 0.085-0.686c0.102-0.885-0.528-1.685-1.413-1.789s-1.685 0.526-1.789 1.411l-0.094 0.678 0.621 0.085 0.094-0.678c0.038-0.376 0.349-0.875 1.016-0.838 0.603 0.030 0.896 0.453 0.83 1.018zM19.341 17.874c-0.885-0.104-1.685 0.526-1.789 1.411l-0.085 0.686 0.621 0.085 0.085-0.686c0.038-0.376 0.349-0.875 1.016-0.838 0.602 0.029 0.894 0.451 0.829 1.016l-0.075 0.715 0.725 0.085 0.085-0.686c0.104-0.885-0.526-1.685-1.411-1.787z"></path>
<path fill="#808184" d="M21.44 0.904c-1.666-0.64-3.474-0.989-5.365-0.989-1.261 0-2.485 0.16-3.661 0.451-0.291 0.075-0.584 0.15-0.866 0.245 0 0.104 0.019 0.198 0.056 0.291-0.019 0.010-0.038 0.019-0.056 0.038v3.586c0.154-0.192 0.339-0.376 0.565-0.546l0.141-0.094c0.989-0.686 2.494-1.074 4.15-1.074h0.17c1.459 0.029 2.851 0.366 3.83 0.941h0.066l0.114 0.094c0.37 0.234 0.67 0.498 0.894 0.779v-3.706c-0.010-0.008-0.029-0.018-0.038-0.018z"></path>
<path fill="#ffce13" d="M18.814 5.949c-0.301-0.17-1.11-0.405-2.344-0.405s-2.042 0.226-2.344 0.405c0.301 0.17 1.11 0.405 2.344 0.405 1.224 0 2.043-0.235 2.344-0.405zM20.141 4.696h-0.010l-0.114-0.075c-0.846-0.526-2.118-0.846-3.474-0.866h-0.16c-1.506 0-2.89 0.366-3.709 0.97l-0.114 0.094c-0.366 0.31-0.536 0.621-0.546 0.931-0.010 0.282 0.122 0.565 0.395 0.838 0.309 0.322 0.766 0.597 1.317 0.813 0.774 0.304 1.733 0.488 2.739 0.504h0.198c1.523 0 2.754-0.363 3.51-0.859 0.52-0.341 0.816-0.744 0.827-1.136 0.003-0.414-0.298-0.846-0.862-1.214zM13.091 5.949c0-0.998 1.816-1.346 3.37-1.346s3.37 0.349 3.37 1.346-1.806 1.346-3.37 1.346c-1.552 0-3.37-0.349-3.37-1.346z"></path>
<path fill="#6d6e70" d="M21.478 4.629c-0.224-0.283-0.523-0.546-0.894-0.779l-0.114-0.094h-0.066c-0.979-0.574-2.371-0.914-3.83-0.941h-0.17c-1.656 0-3.162 0.386-4.15 1.074l-0.141 0.094c-0.226 0.17-0.411 0.354-0.565 0.546-0.294 0.371-0.454 0.778-0.461 1.205-0.010 0.526 0.216 1.054 0.659 1.506 0.142 0.15 0.31 0.291 0.494 0.422 0.994 0.714 2.546 1.155 4.221 1.187h0.206c1.555 0 2.917-0.342 3.867-0.909 0.867-0.517 1.394-1.219 1.413-2.018 0.011-0.454-0.154-0.893-0.47-1.293zM16.47 7.906c-1.006-0.016-1.966-0.202-2.739-0.504-0.55-0.216-1.008-0.493-1.317-0.813-0.274-0.274-0.405-0.555-0.395-0.838 0.010-0.31 0.179-0.621 0.546-0.931l0.114-0.094c0.819-0.602 2.202-0.97 3.709-0.97h0.16c1.355 0.019 2.626 0.339 3.474 0.866l0.114 0.075h0.010c0.565 0.366 0.866 0.8 0.866 1.214-0.011 0.39-0.307 0.795-0.827 1.136-0.757 0.496-1.989 0.859-3.51 0.859h-0.202z"></path>
<path fill="#ffe99e" d="M25.477 22.211c-0.656-0.386-1.144-1.042-1.28-1.845-0.126-0.746 0.074-1.47 0.496-2.035l-4.157-10.394c-0.95 0.566-2.312 0.909-3.867 0.909h-0.206c-1.675-0.032-3.227-0.474-4.221-1.187l-2.75 5.39c0.186 0.15 0.349 0.315 0.486 0.466 1.659-1.538 6.848-5.579 9.779 0.824 1.47 0.946 2.541 2.386 3.040 4.026 0.376 1.214 0.434 2.541 0.104 3.869-0.357 1.443-1.12 2.68-2.136 3.621l0.070 0.421c1.062 0.13 2.038 0.010 2.723-0.445 1.122-0.757 1.99-2.074 1.918-3.619zM8.528 21.418l-0.021 0.146s-1.571-1.256-1.808-3.045l-0.133 0.259c0.23 0.48 0.322 1.029 0.227 1.592-0.136 0.802-0.622 1.456-1.277 1.842-0.072 1.546 0.797 2.861 1.918 3.614 0.861 0.571 2.176 0.616 3.549 0.299l0.026-0.098c-1.357-1.173-2.25-2.818-2.482-4.61zM8.739 14.522l-0.024 0.046 0.037-0.029-0.013-0.018zM16.461 7.294c1.562 0 3.37-0.349 3.37-1.346s-1.816-1.346-3.37-1.346c-1.554 0-3.37 0.349-3.37 1.346s1.818 1.346 3.37 1.346zM16.47 5.544c1.234 0 2.042 0.235 2.344 0.405-0.301 0.17-1.12 0.405-2.344 0.405-1.234 0-2.042-0.235-2.344-0.405 0.302-0.179 1.112-0.405 2.344-0.405z"></path>
<path fill="#fff" d="M14.315 17.384c-0.131-0.066-0.282-0.114-0.434-0.122l-2.315-0.15c-0.291-0.019-0.574 0.075-0.79 0.274-0.216 0.189-0.349 0.461-0.366 0.754l-0.066 0.97c-0.038 0.584 0.424 1.12 1.026 1.158l2.315 0.15c0.291 0.019 0.574-0.075 0.79-0.274s0.349-0.461 0.366-0.754l0.066-0.97c0.029-0.426-0.206-0.83-0.592-1.037zM14.211 19.125l-0.085 0.686-0.725-0.085 0.075-0.715c0.066-0.565-0.226-0.989-0.829-1.016-0.669-0.038-0.979 0.461-1.016 0.838l-0.094 0.678-0.621-0.085 0.094-0.678c0.104-0.885 0.904-1.515 1.789-1.411 0.885 0.102 1.515 0.902 1.411 1.787zM21.496 18.326c-0.099-0.219-0.267-0.406-0.49-0.52-0.131-0.066-0.282-0.114-0.434-0.122l-2.315-0.15c-0.602-0.038-1.12 0.424-1.158 1.026l-0.066 0.97c-0.038 0.584 0.434 1.12 1.026 1.166l2.315 0.15c0.291 0.019 0.574-0.075 0.79-0.274s0.349-0.461 0.366-0.754l0.066-0.97c0.005-0.109-0.006-0.214-0.030-0.318-0.014-0.069-0.040-0.138-0.070-0.205zM20.754 19.661l-0.085 0.686-0.725-0.085 0.075-0.715c0.066-0.565-0.226-0.989-0.829-1.016-0.669-0.038-0.979 0.461-1.016 0.838l-0.085 0.686-0.621-0.085 0.085-0.686c0.104-0.885 0.904-1.515 1.789-1.411 0.883 0.102 1.514 0.902 1.411 1.787zM5.714 7.389l-0.434 3.595-3.406 0.451 3.406 0.451 0.434 3.587 0.432-3.587 3.408-0.451-3.408-0.451zM27.256 13.44l-0.32-2.664-0.32 2.664-2.531 0.339 2.531 0.339 0.32 2.662 0.32-2.662 2.542-0.339zM23.821 9.026l-0.226-1.872-0.216 1.872-1.789 0.245 1.789 0.235 0.216 1.874 0.226-1.874 1.789-0.235z"></path>
<path fill="#fff" d="M8.282 9.195c0 0.379-0.307 0.686-0.686 0.686s-0.686-0.307-0.686-0.686c0-0.379 0.307-0.686 0.686-0.686s0.686 0.307 0.686 0.686z"></path>
<path fill="#fff" d="M25.966 7.501c0 0.379-0.307 0.686-0.686 0.686s-0.686-0.307-0.686-0.686c0-0.379 0.307-0.686 0.686-0.686s0.686 0.307 0.686 0.686z"></path>
<path fill="#fff" d="M4.338 13.77c0 0.379-0.307 0.686-0.686 0.686s-0.686-0.307-0.686-0.686c0-0.379 0.307-0.686 0.686-0.686s0.686 0.307 0.686 0.686z"></path>
</svg>
