<!-- Generated by IcoMoon.io -->
<svg version="1.1" xmlns="http://www.w3.org/2000/svg" width="32" height="32" viewBox="0 0 32 32">
<title>contact</title>
<path fill="#bbd758" d="M16.827 31.941h-1.965c0.635 0.218 1.33 0.218 1.965 0zM18.763 21.403c0.035 0.186 0.066 0.379 0.091 0.576-0.024-0.197-0.056-0.389-0.091-0.576zM29.586 7.086l-12.299-6.659c-0.894-0.485-1.989-0.485-2.882 0l-12.301 6.659c-0.885 0.485-1.437 1.379-1.437 2.339v13.317c0 0.97 0.542 1.854 1.437 2.339l2.581 1.397c-1.637-2.090-2.6-4.637-2.6-7.381 0-3.794 1.84-7.21 4.758-9.563 0.027-1.29 1.080-2.326 2.376-2.326h1.749c0.813-0.299 1.662-0.534 2.542-0.694 0.11-1.21 1.128-2.158 2.366-2.158 1.312 0 2.378 1.066 2.378 2.378v0.475h4.28c1.312 0 2.378 1.066 2.378 2.378v16.232c1.768-1.795 2.845-4.146 2.845-6.72 0-0.094-0.029-1.085 0.533-1.664 0.504-0.523 1.437-0.523 1.912 0.010 0.523 0.59 0.429 1.589 0.419 1.702 0 2.336-0.707 4.533-1.939 6.424l0.902-0.488c0.894-0.475 1.446-1.37 1.437-2.339v-13.317c0-0.97-0.542-1.854-1.435-2.339zM6.842 24.734v-11.227c-1.29 1.563-1.912 3.389-1.912 5.592 0 2.082 0.706 4.019 1.912 5.635zM21.632 22.933c0-0.269-0.019-0.533-0.054-0.792 0.037 0.259 0.054 0.523 0.054 0.792zM21.579 22.141c-0.035-0.259-0.088-0.512-0.158-0.758 0.069 0.246 0.122 0.499 0.158 0.758z"></path>
<path fill="#dbdbdb" d="M29.49 18.082c-0.077-0.086-0.352-0.142-0.514 0.019-0.219 0.229-0.275 0.762-0.266 0.979 0 3.154-1.458 6.002-3.795 8.034v1.083c0.598-0.45 1.154-0.946 1.656-1.482 1.934-2.064 3.101-4.72 3.101-7.614 0.027-0.277 0.018-0.81-0.182-1.019zM3.037 19.099c0 3.23 1.453 6.163 3.805 8.309v-1.189c-1.787-1.931-2.862-4.414-2.862-7.12 0-2.682 0.827-4.861 2.539-6.667 0.016-0.024 0.125-0.173 0.323-0.4v-1.242c-2.352 2.146-3.805 5.078-3.805 8.309z"></path>
<path fill="#a6a8ab" d="M10.171 22.933c0-3.168 2.568-5.736 5.736-5.736 1.256 0 2.416 0.41 3.349 1.094l2.096-2.52h-13.56v13.792c0 0.619 0.394 1.144 0.944 1.341l3.203-3.853c-1.093-1.037-1.768-2.501-1.768-4.118zM21.624 23.075c-0.058 2.73-2.035 4.984-4.642 5.469l-2.078 2.446h7.634c0.637 0 1.174-0.416 1.358-0.99 0.043-0.138 0.069-0.283 0.069-0.437v-9.23l-2.341 2.742z"></path>
<path fill="#009435" d="M22.536 8.16h-4.28v1.427c0 0.101-0.008 0.198-0.021 0.296 0.312 0.458 0.496 1.011 0.496 1.606 0 1.576-1.278 2.854-2.854 2.854s-2.853-1.278-2.853-2.854c0-0.597 0.184-1.149 0.496-1.606-0.013-0.098-0.021-0.195-0.021-0.296v-1.427h-4.28c-0.168 0-0.328 0.030-0.477 0.083-0.179 0.064-0.341 0.162-0.478 0.286-0.243 0.219-0.41 0.522-0.456 0.864-0.008 0.064-0.014 0.128-0.014 0.195v5.232h16.171v-5.232c-0.002-0.79-0.638-1.429-1.429-1.429z"></path>
<path fill="#e6e7e8" d="M17.28 6.472c-0.123-0.664-0.702-1.165-1.402-1.165-0.662 0-1.216 0.45-1.378 1.059-0.030 0.117-0.050 0.24-0.050 0.368v2.854c0 0.789 0.637 1.427 1.427 1.427s1.427-0.637 1.427-1.427v-2.854c0-0.090-0.010-0.178-0.026-0.262z"></path>
<path fill="#4b4e49" d="M17.99 19.49c0.048 0.029 0.094 0.077 0.142 0.133l1.123-1.331c-0.933-0.685-2.093-1.094-3.349-1.094-3.168 0-5.736 2.568-5.736 5.736 0 1.618 0.675 3.082 1.77 4.118l1.398-1.664c-0.762-0.952-0.923-2.312-0.275-3.424 0.181-0.304 0.437-0.581 0.494-0.637 0.038-0.038 0.21 0.077 0.152 0.162-0.275 0.989-0.142 1.674 0.19 2.331 0.029 0.010 0.152 0.067 0.171 0.019 0.067-2.035 1.131-3.301 2.397-4.166 0.712-0.221 1.312-0.296 1.522-0.182zM16.981 28.546c2.606-0.485 4.584-2.739 4.642-5.469l-4.642 5.469z"></path>
<path fill="#a4cc40" d="M17.99 19.49c-0.21-0.114-0.808-0.038-1.522 0.181-1.266 0.866-2.331 2.131-2.397 4.166-0.019 0.048-0.142-0.010-0.171-0.019-0.333-0.656-0.466-1.341-0.19-2.331 0.058-0.086-0.114-0.2-0.152-0.162-0.058 0.058-0.314 0.333-0.494 0.637-0.646 1.114-0.485 2.474 0.275 3.424l4.794-5.765c-0.048-0.054-0.096-0.102-0.142-0.131z"></path>
<path fill="#5b5e58" d="M16.754 28.592c0.077-0.010 0.152-0.029 0.229-0.048l4.642-5.469 0.008-0.058 0.002-0.058v-0.029c0-0.717-0.131-1.403-0.371-2.035-0.080-0.211-0.173-0.416-0.275-0.613-0.414-0.792-1.008-1.474-1.731-1.992l-1.123 1.331c0.227 0.298 0.477 0.974 0.63 1.781 0.035 0.186 0.066 0.379 0.091 0.576 0.016 0.131 0.029 0.264 0.040 0.397 0.010 0.133 0.018 0.267 0.021 0.402s0.003 0.269-0.002 0.402c-0.005 0.133-0.013 0.264-0.027 0.395s-0.030 0.258-0.053 0.382-0.050 0.246-0.083 0.365c-0.034 0.118-0.070 0.232-0.115 0.342-0.043 0.11-0.094 0.214-0.149 0.314-0.827 1.493-2.72 2.035-4.214 1.198-0.371-0.2-0.685-0.475-0.933-0.789l-1.398 1.664c1.027 0.998 2.416 1.608 3.966 1.608 0.285 0 0.57-0.019 0.846-0.067zM16.981 28.546v0zM16.754 28.592c0.077-0.010 0.152-0.029 0.229-0.048-0.077 0.019-0.154 0.038-0.229 0.048z"></path>
<path fill="#b4db53" d="M18.894 22.376c-0.010-0.133-0.024-0.266-0.040-0.397-0.024-0.197-0.054-0.389-0.091-0.576-0.155-0.806-0.403-1.483-0.63-1.781l-4.794 5.765c0.248 0.314 0.562 0.59 0.933 0.789 1.493 0.837 3.386 0.294 4.214-1.198 0.056-0.099 0.106-0.205 0.149-0.314 0.043-0.11 0.082-0.224 0.115-0.342s0.061-0.24 0.083-0.365 0.040-0.253 0.053-0.382 0.022-0.262 0.027-0.395c0.005-0.133 0.005-0.267 0.002-0.402-0.005-0.133-0.011-0.267-0.021-0.402z"></path>
<path fill="#b5b7ba" d="M15.907 28.659c-1.55 0-2.939-0.608-3.966-1.608l-3.203 3.853c0.15 0.054 0.314 0.085 0.483 0.085h5.683l0.056-0.066 2.022-2.381c-0.077 0.019-0.152 0.038-0.229 0.048-0.277 0.050-0.562 0.069-0.846 0.069zM21.352 15.77l-2.096 2.52c0.723 0.518 1.317 1.202 1.731 1.992 0.104 0.198 0.195 0.403 0.275 0.613 0.24 0.632 0.371 1.318 0.371 2.035v0.029l-0.002 0.058-0.008 0.058 2.339-2.742v-4.562h-2.611z"></path>
<path fill="#373737" d="M30.203 17.445c-0.475-0.533-1.408-0.533-1.912-0.010-0.562 0.581-0.533 1.57-0.533 1.664 0 2.574-1.075 4.926-2.845 6.72v-16.232c0-1.312-1.066-2.378-2.378-2.378h-4.28v-0.475c0-1.312-1.066-2.378-2.378-2.378-1.238 0-2.256 0.949-2.366 2.158-0.88 0.16-1.73 0.395-2.542 0.694h-1.75c-1.296 0-2.349 1.038-2.376 2.326-2.918 2.354-4.758 5.77-4.758 9.563 0 2.744 0.963 5.291 2.6 7.381 0.626 0.798 1.349 1.53 2.155 2.181v0.902c0 1.312 1.066 2.378 2.378 2.378h13.317c1.312 0 2.378-1.066 2.378-2.378v-0.192c1.52-1.027 2.805-2.32 3.768-3.8 1.232-1.891 1.939-4.088 1.939-6.424 0.011-0.114 0.107-1.114-0.416-1.702zM24.915 28.197v-1.083c2.338-2.030 3.795-4.88 3.795-8.034-0.010-0.219 0.048-0.752 0.266-0.979 0.162-0.162 0.437-0.104 0.514-0.019 0.2 0.21 0.21 0.742 0.181 1.018 0 2.894-1.166 5.55-3.101 7.614-0.502 0.538-1.056 1.034-1.654 1.483zM23.963 29.563c0 0.152-0.024 0.299-0.069 0.437-0.184 0.576-0.722 0.99-1.358 0.99h-13.317c-0.17 0-0.331-0.030-0.483-0.085-0.55-0.198-0.944-0.722-0.944-1.341v-13.792h16.171v13.79zM6.842 10.79v1.242c-0.198 0.227-0.307 0.376-0.323 0.4-1.712 1.808-2.539 3.986-2.539 6.667 0 2.706 1.077 5.189 2.862 7.12v1.189c-2.352-2.146-3.805-5.078-3.805-8.309s1.453-6.163 3.805-8.309zM8.264 8.53c0.138-0.125 0.301-0.222 0.478-0.286 0.149-0.053 0.309-0.083 0.477-0.083h4.28v1.427c0 0.101 0.008 0.198 0.021 0.296-0.312 0.458-0.496 1.011-0.496 1.606 0 1.576 1.278 2.854 2.854 2.854s2.854-1.278 2.854-2.854c0-0.597-0.184-1.149-0.496-1.606 0.013-0.098 0.021-0.195 0.021-0.296v-1.427h4.28c0.789 0 1.427 0.637 1.427 1.427v5.232h-16.173v-5.232c0-0.066 0.006-0.131 0.014-0.195 0.048-0.341 0.214-0.643 0.458-0.862zM14.451 6.734c0-0.128 0.018-0.25 0.050-0.368 0.162-0.611 0.715-1.059 1.378-1.059 0.701 0 1.28 0.501 1.402 1.165 0.016 0.085 0.026 0.173 0.026 0.261v2.854c0 0.789-0.637 1.427-1.427 1.427s-1.427-0.637-1.427-1.427v-2.853zM6.842 24.734c-1.206-1.616-1.912-3.554-1.912-5.635 0-2.203 0.622-4.029 1.912-5.592v11.227z"></path>
</svg>
