<!-- Generated by IcoMoon.io -->
<svg version="1.1" xmlns="http://www.w3.org/2000/svg" width="32" height="32" viewBox="0 0 32 32">
<title>featured-item</title>
<path fill="#64c9d7" d="M21.864 1.205v3.73c0.306 0.395 0.467 0.827 0.461 1.277-0.018 0.795-0.544 1.494-1.411 2.010l1.194 2.982c0.598-0.064 1.218-0.037 1.818 0.045l-0.168-1.461-1.789-0.245 1.789-0.235 0.216-1.874 0.226 1.874 1.789 0.235-1.789 0.245-0.178 1.474c1.248 0.182 2.4 0.589 3.094 0.872 0.229-0.565 0.658-1.342 1.338-1.546 0.15-0.046 0.32 0 0.451 0.094 0 0 0.875 0.64 0.754 1.016-0.128 0.39-0.739 0.114-1.038 0.97 1.49 0.494 2.366 1.198 2.851 1.965-0.25-6.138-4.162-11.333-9.606-13.427zM11.464 6.014c0.006-0.427 0.166-0.838 0.461-1.21v-3.581c0.019-0.019 0.038-0.029 0.056-0.038-0.037-0.093-0.056-0.187-0.056-0.288-6.075 1.931-10.485 7.624-10.485 14.358 0 3.331 1.082 6.419 2.909 8.914l0.763-1.496 3.982-10.845-2.573 0.341-0.434 3.586-0.434-3.586-3.406-0.451 3.406-0.451 0.434-3.595 0.434 3.595 2.65 0.352 0.512-1.397 1.498 0.55 1.44-2.824c-0.187-0.134-0.357-0.275-0.501-0.427-0.44-0.453-0.666-0.981-0.656-1.507zM7.115 27.050l0.11 0.045c-0.195-0.136-0.386-0.28-0.57-0.429 0.15 0.13 0.304 0.259 0.459 0.384z"></path>
<path fill="#addfe6" d="M7.226 27.094c1.43 1 3.15 1.672 4.91 2.074-0.179-0.211-0.346-0.432-0.499-0.661-1.666-0.395-3.171-0.914-4.411-1.413zM10.595 26.219c-0.603-0.37-1.059-0.97-1.218-1.71-0.018-0.083-0.030-0.168-0.040-0.251l-4.235-1.557 0.010-0.027-0.763 1.496c0.672 0.914 1.448 1.75 2.309 2.496 0.184 0.149 0.374 0.291 0.57 0.429 1.24 0.499 2.746 1.018 4.411 1.413-0.47-0.693-0.824-1.462-1.043-2.288zM15.315 10.27c1.475-0.251 2.872 0.725 3.12 2.181 0.058 0.334 0.045 0.666-0.021 0.979l0.373 0.138c0.678-1.584 1.946-2.216 3.32-2.365l-1.194-2.982c-0.952 0.565-2.314 0.909-3.869 0.909h-0.206c-1.672-0.032-3.221-0.472-4.214-1.182l-1.44 2.824 2.227 0.819c0.389-0.674 1.069-1.178 1.904-1.32zM17.848 26.066l-0.426 1.163-3.008-1.106c0.606 1.138 1.731 1.848 2.877 2.094 0.632 0.133 1.352 0.010 2.085-0.294l0.302-1.81-1.83-0.048z"></path>
<path fill="#3cbfd1" d="M20.536 4.979h-0.010l-0.114-0.075c-0.846-0.526-2.118-0.846-3.474-0.866h-0.15c-1.506 0-2.89 0.366-3.709 0.97l-0.141 0.094c-0.366 0.32-0.536 0.621-0.536 0.931-0.010 0.282 0.122 0.565 0.395 0.838 0.31 0.323 0.771 0.6 1.325 0.816 0.773 0.302 1.73 0.485 2.731 0.501h0.198c1.515 0 2.746-0.36 3.504-0.853 0.526-0.342 0.827-0.749 0.834-1.142 0.011-0.414-0.299-0.838-0.854-1.214zM13.469 6.23c0-0.998 1.816-1.346 3.37-1.346s3.37 0.349 3.37 1.346-1.806 1.346-3.37 1.346c-1.554 0-3.37-0.347-3.37-1.346zM19.19 6.23c-0.301-0.17-1.11-0.405-2.344-0.405s-2.051 0.226-2.344 0.405c0.301 0.17 1.11 0.405 2.344 0.405s2.043-0.235 2.344-0.405z"></path>
<path fill="#6d6e70" d="M21.864 4.934l-0.010-0.011c-0.226-0.288-0.528-0.555-0.904-0.792l-0.114-0.094h-0.056c-0.979-0.574-2.371-0.914-3.83-0.941h-0.17c-1.656 0-3.162 0.386-4.15 1.074l-0.141 0.094c-0.221 0.163-0.405 0.342-0.555 0.53l-0.010 0.011c-0.294 0.371-0.454 0.781-0.461 1.21-0.010 0.526 0.216 1.054 0.658 1.506 0.144 0.152 0.314 0.294 0.501 0.427 0.994 0.71 2.542 1.15 4.214 1.182h0.206c1.555 0 2.917-0.342 3.869-0.909 0.867-0.515 1.394-1.214 1.411-2.010 0.006-0.448-0.154-0.882-0.459-1.277zM16.856 8.189c-1.003-0.016-1.96-0.2-2.731-0.501-0.554-0.216-1.014-0.494-1.325-0.816-0.274-0.274-0.405-0.555-0.395-0.838 0-0.31 0.17-0.611 0.536-0.931l0.141-0.094c0.819-0.602 2.202-0.97 3.709-0.97h0.15c1.355 0.019 2.626 0.339 3.474 0.866l0.114 0.075h0.010c0.555 0.376 0.866 0.8 0.856 1.214-0.008 0.394-0.307 0.8-0.834 1.142-0.758 0.493-1.989 0.853-3.504 0.853h-0.2z"></path>
<path fill="#9cdde6" d="M16.838 4.885c-1.554 0-3.37 0.349-3.37 1.346s1.816 1.346 3.37 1.346c1.562 0 3.37-0.349 3.37-1.346s-1.818-1.346-3.37-1.346zM16.846 6.635c-1.234 0-2.042-0.235-2.344-0.405 0.291-0.179 1.11-0.405 2.344-0.405s2.042 0.235 2.344 0.405c-0.301 0.17-1.11 0.405-2.344 0.405z"></path>
<path fill="#fff" d="M9.094 11.829l0.077-0.211-2.65-0.352-0.432-3.595-0.434 3.595-3.406 0.453 3.406 0.451 0.434 3.586 0.432-3.586zM23.971 7.435l-0.216 1.874-1.789 0.235 1.789 0.245 0.168 1.461 0.096 0.013 0.178-1.474 1.789-0.245-1.789-0.235-0.226-1.874z"></path>
<path fill="#fff" d="M8.658 9.478c0 0.379-0.307 0.686-0.686 0.686s-0.686-0.307-0.686-0.686c0-0.379 0.307-0.686 0.686-0.686s0.686 0.307 0.686 0.686z"></path>
<path fill="#fff" d="M26.342 7.784c0 0.379-0.307 0.686-0.686 0.686s-0.686-0.307-0.686-0.686c0-0.379 0.307-0.686 0.686-0.686s0.686 0.307 0.686 0.686z"></path>
<path fill="#fff" d="M4.715 14.051c0 0.379-0.307 0.686-0.686 0.686s-0.686-0.307-0.686-0.686c0-0.379 0.307-0.686 0.686-0.686s0.686 0.307 0.686 0.686z"></path>
<path fill="#fff" d="M11 17.59l0.579-0.019c-0.115-0.322-0.226-0.645-0.333-0.968l-0.246 0.987zM10.344 20.216c-0.032 0.106-0.094 0.194-0.173 0.256 0.797-0.174 1.606-0.288 2.421-0.341l-0.026-0.046c-0.224-0.522-0.437-1.051-0.642-1.582l-1.162 0.040-0.419 1.674zM18.061 14.306c-0.397 0.63-1.051 1.099-1.85 1.235-1.475 0.251-2.874-0.725-3.12-2.181-0.051-0.299-0.046-0.597 0.002-0.88l-2.843-1.045-3.934 10.71 3.094 1.138c0.253-0.95 1.024-1.731 2.062-1.954 1.464-0.312 2.901 0.606 3.208 2.050 0.131 0.618 0.034 1.23-0.234 1.754l0.547 0.202 1.675-4.288c-0.102 0.147-0.283 0.234-0.47 0.205-2.362-0.395-4.819-0.235-7.096 0.48-0.046 0.010-0.094 0.019-0.141 0.019-0.198 0-0.386-0.131-0.451-0.33-0.075-0.245 0.056-0.509 0.31-0.594 0.318-0.099 0.64-0.187 0.963-0.267l-0.022-0.006c-0.254-0.066-0.405-0.32-0.339-0.574l0.402-1.6c-0.059-0.075-0.098-0.168-0.101-0.272-0.006-0.202 0.112-0.374 0.283-0.45l0.734-2.92c0.056-0.206 0.235-0.349 0.451-0.358 0.226 0.019 0.405 0.131 0.461 0.339 0.49 1.694 1.082 3.37 1.779 4.989 0.056 0.128 0.046 0.27-0.011 0.39 0.982-0.014 1.966 0.058 2.938 0.222 0.248 0.046 0.424 0.272 0.387 0.53l0.885-2.264 0.037-0.139c0.109-0.358 0.25-0.706 0.411-1.043 0.016-0.069 0.072-0.277 0.197-0.571-0.019-0.923 0.061-1.707 0.219-2.368l-0.434-0.158zM16.669 18.41c-0.056 0.216-0.245 0.358-0.461 0.358-0.038 0-0.075 0-0.114-0.010-0.267-0.067-0.608-0.13-0.963-0.19l-0.118 1.122c-0.029 0.235-0.235 0.414-0.47 0.414h-0.046c-0.264-0.029-0.442-0.264-0.414-0.518l0.125-1.176c-0.363-0.062-0.706-0.123-0.981-0.189-0.254-0.056-0.405-0.31-0.349-0.565s0.31-0.405 0.565-0.349c0.242 0.061 0.542 0.117 0.862 0.173l0.117-1.104c0.029-0.264 0.274-0.451 0.518-0.414 0.264 0.029 0.442 0.264 0.414 0.518l-0.122 1.157c0.405 0.069 0.789 0.136 1.091 0.208 0.251 0.056 0.402 0.31 0.346 0.565z"></path>
<path fill="#808184" d="M21.816 1.186c-1.666-0.64-3.474-0.989-5.365-0.989-1.261 0-2.485 0.16-3.661 0.451-0.291 0.077-0.584 0.152-0.866 0.246v0.003c0 0.102 0.019 0.195 0.056 0.288-0.019 0.010-0.038 0.019-0.056 0.038v3.581l0.010-0.011c0.152-0.189 0.334-0.366 0.555-0.53l0.141-0.094c0.989-0.686 2.494-1.074 4.15-1.074h0.17c1.459 0.029 2.851 0.366 3.83 0.941h0.056l0.114 0.094c0.374 0.237 0.678 0.504 0.904 0.792v-3.718c-0.010-0.010-0.029-0.019-0.038-0.019zM9.685 10.221l-0.512 1.397-0.077 0.211-3.992 10.872 4.235 1.557c-0.019-0.17-0.021-0.339-0.008-0.504 0.013-0.16 0.040-0.317 0.082-0.47l-3.094-1.138 2.402-6.546 1.53-4.165 2.843 1.045c0.026-0.157 0.066-0.309 0.118-0.456 0.054-0.15 0.122-0.296 0.2-0.434l-3.726-1.37zM18.275 13.888c-0.059 0.146-0.131 0.286-0.214 0.419l0.432 0.158c0.038-0.157 0.080-0.307 0.128-0.451 0.051-0.155 0.106-0.306 0.166-0.446l-0.373-0.138c-0.032 0.158-0.078 0.31-0.139 0.458zM15.448 26.005l-0.709-0.018 0.083-0.213 0.171-0.438-0.547-0.202c-0.074 0.142-0.16 0.278-0.256 0.406l-0.018 0.026c0.067 0.195 0.149 0.381 0.242 0.557l3.008 1.106 0.426-1.163-2.4-0.061z"></path>
<path fill="#231f20" d="M31.469 14.634c-0.486-0.765-1.362-1.47-2.851-1.965 0.299-0.856 0.912-0.579 1.038-0.97 0.122-0.376-0.754-1.016-0.754-1.016-0.131-0.094-0.301-0.141-0.451-0.094-0.68 0.203-1.109 0.981-1.338 1.546-0.694-0.283-1.846-0.69-3.094-0.872l-0.096-0.013c-0.6-0.082-1.218-0.109-1.818-0.045-1.374 0.147-2.642 0.781-3.32 2.365-0.061 0.141-0.115 0.29-0.166 0.446-0.046 0.144-0.090 0.293-0.128 0.451-0.16 0.661-0.238 1.445-0.219 2.368 0.213-0.504 0.627-1.251 1.382-1.941 0.128-0.117 0.266-0.232 0.414-0.344 0.15-0.114 0.31-0.224 0.483-0.33 0.634-0.387 1.422-0.709 2.403-0.891 0.254-0.046 0.518-0.086 0.798-0.114 0.010 0 5.266-0.536 7.024 3.312 0.202 0.304 0.381 0.626 0.538 0.962 0.080 0.174 0.155 0.352 0.222 0.536 0.042 0.102 0.078 0.21 0.112 0.317 0.339-0.912 0.651-2.398-0.181-3.709z"></path>
<path fill="#b1b3b3" d="M23.069 24.235v0zM26.41 23.925v-0.003l-0.054 0.040 0.054-0.037zM26.298 23.603c-0.301-0.626-0.976-0.776-1.752-0.629-0.426 0.080-0.755 0.248-1.005 0.485l1.757 0.686c0.318-0.104 0.654-0.275 1-0.542zM25.298 24.144l-1.757-0.686c-0.146 0.138-0.262 0.299-0.352 0.483 0.406 0.218 1.182 0.502 2.109 0.203z"></path>
<path fill="#e6e7e8" d="M12.586 26.558c-0.312 0.066-0.621 0.074-0.92 0.035 0.219 0.59 0.52 1.141 0.891 1.64l1.563-0.918c-0.269-0.326-0.496-0.696-0.672-1.104-0.261 0.16-0.549 0.28-0.862 0.347zM12.397 25.675c0.146-0.030 0.283-0.080 0.411-0.142 0.128-0.061 0.246-0.136 0.354-0.222 0.040-0.034 0.080-0.067 0.117-0.104 0.12-0.115 0.222-0.246 0.306-0.389 0.15-0.259 0.237-0.554 0.24-0.862 0.002-0.126-0.010-0.256-0.037-0.386-0.203-0.955-1.155-1.563-2.126-1.357-0.722 0.154-1.251 0.715-1.39 1.386-0.034 0.158-0.043 0.323-0.030 0.49 0.006 0.077 0.014 0.154 0.032 0.23 0.018 0.083 0.043 0.163 0.072 0.242l0.029 0.077c0.19 0.451 0.56 0.792 1.008 0.96 0.312 0.12 0.662 0.154 1.016 0.078zM30.742 19.936c-0.102-0.99-0.445-1.91-0.965-2.702h-6.824l-0.47-1.741-1.074 1.741-0.334 0.019-1.573 0.094c-0.586 0.936-0.925 2.043-0.925 3.229 0 0.23 0.014 0.458 0.038 0.68 0.034 0.304 0.090 0.6 0.166 0.888 0.066 0.245 0.146 0.483 0.24 0.715 0.536 1.325 1.523 2.419 2.771 3.091 0.149 0.080 0.302 0.154 0.459 0.222 0.123 0.053 0.248 0.102 0.374 0.149 0.64 0.229 1.33 0.354 2.050 0.354 0.171 0 0.342-0.010 0.51-0.022 0.315-0.026 0.624-0.077 0.925-0.149l0.032-0.008 0.035-0.008c0.227-0.058 0.45-0.13 0.667-0.211 2.298-0.875 3.93-3.096 3.93-5.701 0-0.218-0.011-0.43-0.034-0.64zM21.28 18.616c-0.602 0.029-0.894 0.451-0.829 1.016l0.075 0.715-0.725 0.085-0.085-0.686c-0.005-0.040-0.006-0.082-0.008-0.122-0.019-0.443 0.144-0.858 0.427-1.163 0.176-0.19 0.398-0.339 0.653-0.426 0.107-0.037 0.221-0.064 0.339-0.078 0.885-0.104 1.685 0.526 1.789 1.411l0.085 0.686-0.621 0.085-0.085-0.686c-0.037-0.374-0.347-0.874-1.016-0.837zM26.99 23.406c-0.134 0.149-0.28 0.288-0.44 0.414-0.147 0.117-0.302 0.222-0.466 0.317-0.099 0.059-0.213 0.122-0.339 0.182-0.453 0.216-1.062 0.4-1.715 0.296-0.243-0.038-0.494-0.117-0.744-0.25-0.072-0.038-0.144-0.082-0.216-0.13h-0.002l-0.042-0.029c-0.205-0.11-0.394-0.243-0.566-0.395-0.462-0.41-0.802-0.962-0.946-1.59l6.221-0.282c-0.098 0.541-0.365 1.043-0.746 1.466zM28.931 19.595l-0.094-0.678c-0.038-0.376-0.349-0.875-1.016-0.838-0.602 0.029-0.894 0.451-0.829 1.016l0.075 0.715-0.725 0.085-0.085-0.686c-0.104-0.885 0.526-1.685 1.411-1.789s1.685 0.526 1.789 1.411l0.094 0.678-0.621 0.086zM15.466 11.162c-0.501 0.085-0.917 0.366-1.184 0.75-0.091 0.131-0.166 0.275-0.219 0.426-0.051 0.149-0.083 0.304-0.093 0.466-0.008 0.133-0.003 0.267 0.019 0.405 0.163 0.963 1.090 1.61 2.069 1.443 0.464-0.078 0.854-0.326 1.122-0.667 0.098-0.125 0.179-0.262 0.242-0.41 0.061-0.146 0.104-0.301 0.125-0.461 0.021-0.165 0.019-0.336-0.011-0.507-0.163-0.965-1.090-1.611-2.069-1.445z"></path>
<path fill="#a6ce42" d="M13.224 18.221c0.275 0.066 0.618 0.126 0.981 0.189l-0.125 1.176c-0.029 0.254 0.15 0.49 0.414 0.518h0.046c0.235 0 0.442-0.179 0.47-0.414l0.118-1.122c0.357 0.061 0.696 0.123 0.963 0.19 0.038 0.010 0.075 0.010 0.114 0.010 0.216 0 0.405-0.141 0.461-0.358 0.056-0.254-0.094-0.509-0.349-0.565-0.302-0.072-0.688-0.139-1.091-0.208l0.122-1.157c0.029-0.254-0.15-0.49-0.414-0.518-0.245-0.038-0.49 0.15-0.518 0.414l-0.117 1.104c-0.32-0.054-0.621-0.112-0.862-0.173-0.254-0.056-0.509 0.094-0.565 0.349-0.053 0.254 0.098 0.509 0.352 0.565zM16.358 20.32c-0.971-0.163-1.955-0.237-2.938-0.222 0.058-0.12 0.067-0.261 0.011-0.39-0.696-1.619-1.29-3.294-1.779-4.989-0.056-0.206-0.235-0.32-0.461-0.339-0.216 0.010-0.395 0.15-0.451 0.358l-0.734 2.92c-0.17 0.075-0.29 0.248-0.283 0.45 0.003 0.104 0.042 0.197 0.101 0.272l-0.402 1.6c-0.066 0.254 0.085 0.509 0.339 0.574l0.022 0.006c-0.323 0.078-0.645 0.168-0.963 0.267-0.254 0.085-0.386 0.349-0.31 0.594 0.066 0.198 0.254 0.33 0.451 0.33 0.046 0 0.094-0.010 0.141-0.019 2.278-0.715 4.734-0.875 7.096-0.48 0.187 0.027 0.368-0.058 0.47-0.205 0.037-0.053 0.064-0.114 0.075-0.181l0.002-0.016c0.037-0.258-0.139-0.483-0.387-0.53zM11.246 16.602c0.106 0.323 0.218 0.646 0.333 0.968l-0.579 0.019 0.246-0.987zM10.17 20.472c0.080-0.062 0.141-0.149 0.173-0.256l0.419-1.675 1.162-0.040c0.203 0.533 0.418 1.061 0.642 1.582l0.026 0.046c-0.814 0.054-1.624 0.168-2.421 0.342z"></path>
<path fill="#373737" d="M31.989 20.81c0.021-0.653-0.043-1.32-0.205-1.986-0.040-0.163-0.083-0.325-0.133-0.483-0.034-0.107-0.070-0.214-0.112-0.317-0.067-0.182-0.141-0.362-0.222-0.536-0.155-0.338-0.336-0.658-0.538-0.962-1.758-3.848-7.016-3.312-7.024-3.312-0.28 0.027-0.546 0.066-0.798 0.114-0.979 0.182-1.77 0.504-2.403 0.891-0.173 0.106-0.333 0.216-0.483 0.33-0.149 0.112-0.286 0.227-0.414 0.344-0.754 0.69-1.168 1.437-1.382 1.941-0.125 0.294-0.181 0.502-0.197 0.571-0.162 0.336-0.302 0.685-0.411 1.043-0.014 0.046-0.024 0.093-0.037 0.139l-0.885 2.264-0.002 0.016c-0.013 0.067-0.040 0.128-0.075 0.181l-1.93 4.939 4.939 0.125-0.302 1.81c-0.733 0.306-1.453 0.427-2.085 0.294-1.146-0.246-2.269-0.955-2.877-2.094-0.093-0.176-0.174-0.362-0.242-0.557l0.018-0.026c0.098-0.128 0.184-0.264 0.256-0.406 0.267-0.525 0.365-1.138 0.234-1.754-0.307-1.443-1.744-2.362-3.208-2.050-1.038 0.221-1.81 1.003-2.062 1.954-0.040 0.154-0.069 0.31-0.082 0.47-0.013 0.166-0.011 0.334 0.008 0.504 0.010 0.083 0.022 0.168 0.040 0.251 0.158 0.741 0.614 1.342 1.218 1.71 0.219 0.826 0.574 1.595 1.042 2.288 0.155 0.229 0.32 0.45 0.499 0.661 1.080 1.27 2.594 2.195 4.392 2.578 0.424 0.094 0.856 0.15 1.29 0.17 0.294 0.014 0.592 0.013 0.89-0.002l-0.014 0.086h12.33l-1.501-5.666 2.48 0.056c0.002 0 0.272-2.859-0.010-5.581zM11.379 25.598c-0.446-0.168-0.816-0.51-1.008-0.96l-0.029-0.077c-0.029-0.078-0.054-0.158-0.072-0.242-0.016-0.077-0.026-0.154-0.032-0.23-0.013-0.166-0.003-0.331 0.030-0.49 0.141-0.67 0.669-1.232 1.39-1.386 0.971-0.206 1.923 0.4 2.126 1.357 0.027 0.13 0.038 0.258 0.037 0.386-0.003 0.307-0.090 0.603-0.24 0.862-0.083 0.142-0.186 0.274-0.306 0.389-0.037 0.037-0.077 0.070-0.117 0.104-0.107 0.086-0.226 0.162-0.354 0.222-0.128 0.062-0.266 0.11-0.411 0.142-0.352 0.074-0.702 0.040-1.016-0.078zM12.557 28.235c-0.371-0.499-0.672-1.051-0.891-1.64 0.299 0.038 0.608 0.030 0.92-0.035 0.315-0.067 0.603-0.187 0.861-0.346 0.176 0.408 0.405 0.776 0.672 1.104l-1.562 0.917zM26.846 26.275c-0.216 0.083-0.438 0.154-0.667 0.211l-0.035 0.008-0.032 0.008c-0.301 0.072-0.61 0.122-0.925 0.149-0.168 0.014-0.338 0.022-0.51 0.022-0.718 0-1.408-0.125-2.050-0.354-0.126-0.045-0.253-0.094-0.374-0.149-0.157-0.067-0.31-0.141-0.459-0.222-1.25-0.672-2.235-1.765-2.771-3.091-0.094-0.232-0.174-0.47-0.24-0.715-0.077-0.288-0.133-0.584-0.166-0.888-0.026-0.224-0.038-0.45-0.038-0.68 0-1.186 0.339-2.291 0.925-3.229l1.907-0.114 1.074-1.741 0.47 1.741h6.824c0.52 0.792 0.861 1.712 0.965 2.702 0.022 0.21 0.034 0.422 0.034 0.638 0 2.605-1.632 4.827-3.93 5.702zM21.515 22.221c0.144 0.629 0.483 1.179 0.946 1.59 0.173 0.154 0.363 0.286 0.566 0.395l0.042 0.029 0.002 0.002c0.072 0.048 0.144 0.091 0.216 0.13 0.25 0.133 0.499 0.211 0.744 0.25 0.653 0.104 1.264-0.080 1.715-0.296 0.126-0.061 0.24-0.123 0.339-0.182 0.163-0.093 0.32-0.2 0.466-0.317 0.158-0.128 0.306-0.267 0.44-0.414 0.381-0.422 0.648-0.925 0.746-1.467l-6.221 0.282zM25.298 24.144c-0.926 0.299-1.702 0.014-2.109-0.203 0.091-0.182 0.208-0.344 0.352-0.483 0.25-0.237 0.579-0.405 1.005-0.485 0.774-0.147 1.451 0.005 1.752 0.629-0.346 0.269-0.682 0.44-1 0.542zM26.354 23.962l0.054-0.040v0.003l-0.054 0.037zM27.67 17.421c-0.885 0.104-1.515 0.904-1.411 1.789l0.085 0.686 0.725-0.085-0.075-0.715c-0.066-0.565 0.226-0.989 0.829-1.016 0.669-0.038 0.979 0.461 1.016 0.838l0.094 0.678 0.621-0.085-0.094-0.678c-0.104-0.885-0.904-1.515-1.789-1.413zM22.296 19.454l0.085 0.686 0.621-0.085-0.085-0.686c-0.104-0.885-0.904-1.515-1.789-1.411-0.118 0.014-0.23 0.042-0.339 0.078-0.254 0.088-0.477 0.235-0.653 0.426-0.283 0.306-0.446 0.72-0.427 1.163 0.002 0.040 0.003 0.080 0.008 0.122l0.085 0.686 0.114-0.013 0.611-0.072-0.075-0.715c-0.066-0.565 0.226-0.989 0.829-1.016 0.669-0.038 0.979 0.461 1.016 0.837zM16.211 15.541c0.798-0.136 1.453-0.605 1.85-1.235 0.083-0.133 0.155-0.274 0.214-0.419 0.059-0.147 0.107-0.299 0.139-0.456 0.066-0.315 0.077-0.645 0.021-0.979-0.248-1.456-1.645-2.432-3.12-2.181-0.834 0.142-1.515 0.646-1.904 1.32-0.080 0.138-0.146 0.283-0.2 0.434-0.053 0.147-0.091 0.299-0.118 0.456-0.048 0.285-0.053 0.581-0.002 0.88 0.246 1.456 1.645 2.432 3.12 2.181zM13.971 12.803c0.010-0.16 0.042-0.317 0.093-0.466 0.053-0.152 0.128-0.294 0.219-0.426 0.266-0.384 0.683-0.666 1.184-0.75 0.979-0.166 1.906 0.48 2.069 1.443 0.029 0.173 0.030 0.342 0.011 0.507-0.019 0.16-0.062 0.315-0.125 0.461-0.062 0.147-0.142 0.285-0.242 0.41-0.267 0.341-0.658 0.589-1.122 0.667-0.979 0.166-1.906-0.48-2.069-1.443-0.022-0.136-0.027-0.27-0.019-0.403z"></path>
</svg>
