<!-- Generated by IcoMoon.io -->
<svg version="1.1" xmlns="http://www.w3.org/2000/svg" width="32" height="32" viewBox="0 0 32 32">
<title>interviewed</title>
<path fill="#20a0db" d="M16.038 0.235c-1.112 0-2.197 0.118-3.238 0.341 0.333 0.333 0.682 0.741 1.002 1.203 0.56-0.096 1.152-0.149 1.779-0.149 6.218 0 9.365 3.624 9.365 10.779v1.499l1.621-0.218 0.318-2.65 0.315 2.65 2.528 0.338-2.528 0.338-0.318 2.65-0.318-2.65-1.621-0.218c-0.002 2.157-0.006 5.030-0.013 7.845l0.862 0.862c0.464-0.181 1.026-0.082 1.379 0.266 0.254 0.254 0.378 0.589 0.371 0.922 2.17-2.514 3.478-5.755 3.478-9.293 0-8.016-6.704-14.515-14.982-14.515zM24.934 6.79c-0.259 0-0.469-0.21-0.469-0.469s0.21-0.469 0.469-0.469 0.469 0.21 0.469 0.469-0.21 0.469-0.469 0.469zM27.462 9.019l-0.216 1.779-0.206-1.779-1.694-0.224 1.694-0.224 0.206-1.779 0.216 1.779 1.686 0.224-1.686 0.224zM28.68 17.091c-0.259 0-0.469-0.21-0.469-0.469s0.21-0.469 0.469-0.469 0.469 0.21 0.469 0.469-0.21 0.469-0.469 0.469zM7.472 4.274c0.122-0.131 0.259-0.25 0.418-0.349l0.403-0.253c0.165-0.101 0.341-0.173 0.522-0.221 0.179-0.498 0.507-1.25 1.024-1.92-1.336 0.589-2.568 1.363-3.659 2.288 0.418 0.091 0.858 0.235 1.293 0.454zM3.082 7.453c-1.267 2.109-2.002 4.555-2.026 7.166l2.086-0.272 0.262-2.2 0.262 2.2 2.088 0.272-2.088 0.282-0.262 2.192-0.262-2.192-2.086-0.282-0.002 0.131c0 3.296 1.136 6.334 3.046 8.771 0.062-0.152 0.155-0.294 0.278-0.418 0.374-0.366 0.939-0.442 1.392-0.259l0.438-0.438c0.005-4.192 0.005-8.461 0.005-9.997 0-0.389 0.018-0.778 0.048-1.166l-0.123-0.080c-1.032-0.674-2.472-2.032-3.058-3.71zM5.267 13.346c-0.259 0-0.469-0.21-0.469-0.469s0.21-0.469 0.469-0.469 0.469 0.21 0.469 0.469-0.21 0.469-0.469 0.469zM4.107 19.274l-0.216 1.77-0.206-1.77-1.694-0.224 1.694-0.224 0.206-1.779 0.216 1.779 1.694 0.224-1.694 0.224z"></path>
<path fill="#b3b3b3" d="M13.405 29.042c-1.277-0.219-2.496-0.595-3.637-1.106-0.059 0.118-0.136 0.23-0.23 0.328l-0.054 0.053c1.438 0.659 2.949 1.090 4.517 1.288-0.13-0.094-0.254-0.197-0.37-0.312-0.080-0.078-0.155-0.163-0.226-0.251zM21.874 28.118c-0.072 0.030-0.144 0.059-0.218 0.088-1.133 0.446-2.339 0.758-3.594 0.923-0.178 0.205-0.381 0.389-0.606 0.539 1.51-0.131 2.978-0.474 4.378-1.024 0.142-0.056 0.286-0.117 0.429-0.178-0.094-0.054-0.182-0.12-0.261-0.197-0.046-0.045-0.088-0.098-0.128-0.152zM15.579 1.63c-0.627 0-1.219 0.051-1.779 0.149 0.096 0.138 0.189 0.282 0.278 0.429 0.085 0.139 0.166 0.282 0.243 0.429 0.397-0.050 0.811-0.078 1.248-0.078 4.822 0 7.534 2.328 8.24 7.091l0.938 0.101-0.84 0.712c0.059 0.611 0.090 1.256 0.090 1.939 0 1.976-0.003 5.331-0.011 8.717 0.13 0.090 0.254 0.189 0.368 0.302l0.576 0.576c0.006-2.814 0.011-5.69 0.013-7.845v-1.739c0.002-7.158-3.146-10.782-9.363-10.782zM6.533 11.219l-0.206 0.066-0.064-0.042c-0.030 0.387-0.048 0.776-0.048 1.166 0 1.536 0 5.805-0.005 9.997l0.928-0.928c0.003-3.877 0.003-7.648 0.003-9.078 0-0.494 0.027-0.997 0.083-1.501-0.154 0.096-0.318 0.182-0.494 0.251-0.066 0.024-0.13 0.048-0.197 0.069z"></path>
<path fill="#c4c4c4" d="M21.656 19.606c-0.074-0.048-0.147-0.096-0.222-0.144-0.078 0.595-0.277 1.102-0.557 1.531 0.243-0.139 0.506-0.242 0.778-0.304 0.432-0.099 0.885-0.102 1.318-0.010-0.398-0.395-0.84-0.757-1.317-1.074zM21.656 27.595c-0.011-0.069-0.019-0.139-0.019-0.211s0.006-0.142 0.019-0.211c0.018-0.101 0.045-0.2 0.086-0.293l-1.426-1.426c-0.542-0.542-0.843-1.264-0.834-2.022 0-0.486 0.122-0.957 0.35-1.373-0.323 0.227-0.674 0.414-1.034 0.565v2.018c0.498 0.189 0.853 0.669 0.853 1.234 0 0.558-0.354 1.042-0.853 1.232v0.050c0 0.518-0.131 1.006-0.363 1.434-0.104 0.194-0.232 0.373-0.374 0.538 1.254-0.165 2.461-0.477 3.594-0.923l0.218-0.088c-0.094-0.131-0.162-0.28-0.2-0.438-0.006-0.026-0.013-0.054-0.018-0.083zM9.918 19.968c-0.15 0.117-0.294 0.238-0.437 0.363-0.104 0.091-0.206 0.184-0.306 0.28 0.102-0.002 0.203 0.002 0.306 0.010 0.347 0.030 0.69 0.123 1.005 0.274-0.314-0.398-0.488-0.744-0.568-0.926zM12.741 27.158v-0.050c-0.498-0.189-0.853-0.669-0.853-1.234 0-0.355 0.141-0.693 0.394-0.936 0.126-0.133 0.285-0.232 0.459-0.298v-2.066c-0.402-0.17-0.754-0.363-1.056-0.57 0.253 0.43 0.389 0.92 0.382 1.435 0 0.758-0.29 1.48-0.834 2.013l-1.426 1.426c0.062 0.152 0.096 0.315 0.096 0.485 0 0.037-0.002 0.074-0.005 0.109-0.014 0.162-0.058 0.318-0.13 0.462 1.141 0.51 2.36 0.886 3.637 1.106-0.138-0.17-0.253-0.355-0.349-0.549-0.205-0.41-0.317-0.866-0.317-1.334z"></path>
<path fill="#aaabb0" d="M21.029 18.73c-0.2-0.021-0.378 0.088-0.459 0.258-0.026 0.053-0.042 0.11-0.046 0.174-0.098 1.315-0.92 2.069-1.834 2.501 0.019 0.072 0.040 0.146 0.054 0.219 0.037 0.19 0.058 0.387 0.058 0.586v0.157c0.36-0.15 0.71-0.338 1.034-0.565 0.128-0.232 0.29-0.45 0.483-0.64 0.168-0.168 0.358-0.307 0.562-0.424 0.28-0.429 0.477-0.936 0.557-1.531 0.010-0.075 0.019-0.149 0.026-0.227 0.016-0.262-0.171-0.488-0.434-0.507zM10.755 19.526c-0.014-0.037-0.034-0.072-0.056-0.102-0.12-0.174-0.338-0.259-0.544-0.187-0.243 0.085-0.374 0.355-0.29 0.6 0.005 0.014 0.022 0.062 0.053 0.133 0.078 0.182 0.253 0.528 0.568 0.928 0.272 0.13 0.526 0.302 0.746 0.522 0.179 0.179 0.328 0.378 0.451 0.587 0.304 0.206 0.654 0.4 1.056 0.57v-0.109c0-0.128 0.011-0.253 0.026-0.376 0.021-0.168 0.054-0.331 0.102-0.49-1.621-0.779-2.086-1.998-2.112-2.075z"></path>
<path fill="#d1d2d4" d="M19.453 18.528c-0.178-0.059-0.358-0.114-0.541-0.163-0.082-0.022-0.165-0.045-0.248-0.066-1.334 0.64-2.885 0.875-4.453 0.571-0.486-0.094-0.95-0.238-1.389-0.421-0.186 0.058-0.37 0.118-0.55 0.187-0.552 0.214-1.080 0.475-1.573 0.787 0.022 0.032 0.042 0.066 0.056 0.102 0.026 0.077 0.491 1.296 2.114 2.074 0.374-1.246 1.531-2.158 2.896-2.158 0.814 0 1.573 0.318 2.144 0.89 0.378 0.371 0.642 0.829 0.779 1.33 0.914-0.432 1.736-1.186 1.834-2.501 0.005-0.062 0.021-0.12 0.046-0.174l-0.082-0.042c-0.331-0.157-0.677-0.296-1.034-0.416zM14.446 17.738c2.99 0.581 5.899-1.186 6.76-3.994l-0.027-0.014-0.453-0.237c0.022 0.358-0.44 0.731-1.074 0.856-0.504 0.099-0.971 0.010-1.2-0.203l-0.982 0.512 0.43-1.957 0.197-0.899-1.202-1.021h-2.248l-0.078 0.069-0.386 0.334-0.758 0.666 0.206 0.946 0.421 1.976-1.27-0.675c-0.205 0.25-0.704 0.362-1.248 0.254-0.486-0.096-0.872-0.338-1.014-0.606l-0.155 0.083-0.31 0.165c0.669 1.859 2.283 3.331 4.392 3.746zM18.659 14.797c-0.168 0.899-0.749 1.658-1.563 2.061-0.384 0.187-0.814 0.299-1.264 0.309-0.312 0.008-0.624-0.038-0.923-0.128h-0.003c-0.363-0.109-0.709-0.278-1.011-0.499-0.608-0.43-1.058-1.040-1.227-1.723l5.992-0.019z"></path>
<path fill="#aaaaab" d="M16.029 15.63c-0.838-0.163-1.55 0.037-1.779 0.824 1.416 0.682 2.56 0.269 3.029 0.030-0.203-0.522-0.546-0.709-1.25-0.854zM11.318 13.317l-0.8 0.422c0.142 0.269 0.528 0.51 1.014 0.606 0.544 0.107 1.043-0.005 1.248-0.254l-0.509-0.27-0.954-0.504zM20.214 13.224l-1.762 0.922c0.229 0.213 0.694 0.302 1.2 0.203 0.634-0.125 1.096-0.496 1.074-0.856l-0.512-0.269z"></path>
<path fill="#e8e8e8" d="M9.482 15.51v4.821c0.142-0.125 0.286-0.246 0.437-0.363-0.030-0.072-0.048-0.118-0.053-0.133-0.085-0.243 0.046-0.515 0.29-0.6 0.206-0.072 0.424 0.013 0.544 0.187 0.493-0.31 1.021-0.573 1.573-0.787 0.181-0.069 0.363-0.13 0.55-0.187-1.438-0.6-2.594-1.65-3.341-2.938zM18.666 18.299c0.083 0.021 0.166 0.042 0.248 0.066 0.182 0.050 0.363 0.104 0.541 0.163 0.355 0.118 0.701 0.259 1.035 0.418l0.082 0.042c0.082-0.17 0.259-0.278 0.459-0.258 0.262 0.019 0.45 0.243 0.43 0.506-0.006 0.077-0.016 0.152-0.026 0.227 0.075 0.046 0.149 0.094 0.222 0.144v-4.030c-0.709 1.189-1.758 2.131-2.992 2.723zM20.72 7.726v0.128l0.328 0.659 0.44 0.89 0.168 0.018v-1.694zM19.362 8.523l0.302-0.611 0.12-0.242v-0.88h-0.938v2.621l0.085-0.008zM16.974 9.61l0.936-0.101v-1.782h-0.936zM15.728 9.843h0.064l-0.032-0.027zM15.101 9.701l0.602 0.066-0.021-0.018 0.357-0.038v-1.048h-0.938zM13.893 7.867c0.010 0.010-0.102 0.019-0.282 0.019-0.106 0-0.237-0.003-0.384-0.013v1.624l0.44 0.046 0.496 0.054v-1.819l-0.046 0.069-0.224 0.019zM12.15 8.523l0.44 0.909 0.046 0.005v-1.627c-0.253-0.038-0.53-0.094-0.819-0.178l-0.104-0.032 0.042 0.086 0.395 0.837zM10.416 8.662h-0.934v0.832l0.563-0.064z"></path>
<path fill="#fff" d="M23.909 10.461l-1.576 1.339 0.197 0.899 0.43 1.957-0.707-0.368c-0.155 0.454-0.355 0.885-0.595 1.288v4.030c0.477 0.317 0.918 0.678 1.318 1.075 0.36 0.078 0.706 0.222 1.011 0.435 0.008-3.386 0.011-6.741 0.011-8.717 0-0.683-0.032-1.328-0.090-1.939zM8.582 14.77l0.421-1.976 0.206-0.946-0.758-0.666-0.75-0.65c-0.147 0.136-0.306 0.258-0.478 0.366-0.054 0.504-0.083 1.006-0.083 1.501 0 1.43 0 5.202-0.003 9.078l0.059-0.059c0.53-0.53 1.253-0.797 1.979-0.806 0.099-0.096 0.202-0.189 0.306-0.28v-4.822c-0.181-0.31-0.339-0.634-0.47-0.97l-0.427 0.229zM21.656 9.421l0.461 0.048 0.222 0.022 0.234 0.024 1.235 0.133c-0.706-4.763-3.418-7.091-8.24-7.091-0.437 0-0.851 0.029-1.248 0.078 0.299 0.571 0.531 1.194 0.637 1.84 0.037 0.226 0.059 0.453 0.062 0.683 0.006 0.387-0.038 0.779-0.146 1.17-0.123 0.45-0.328 0.899-0.635 1.341l-0.075 0.109v1.818l0.936 0.102v-1.037h0.936v1.048l0.936-0.101v-1.882h0.936v1.782l0.936-0.098v-2.621h0.936v0.88l0.418-0.843 0.005-0.008 0.010 0.019 0.506 1.016v-0.128h0.936v1.694zM10.494 7.072l-0.066 0.046-0.403 0.253c-0.067 0.040-0.138 0.077-0.21 0.109-0.194 0.090-0.397 0.147-0.605 0.174-0.128 0.536-0.36 1.275-0.77 1.954l0.562-0.059 0.48-0.054v-0.832h0.934l0.069-0.141 0.565-1.168c-0.147-0.064-0.293-0.134-0.44-0.214-0.040-0.021-0.078-0.045-0.117-0.067zM12.638 9.435l0.59 0.061v-1.624c-0.174-0.011-0.373-0.030-0.59-0.064v1.627zM13.344 2.814c-0.083-0.141-0.17-0.275-0.258-0.403-0.098-0.142-0.195-0.277-0.293-0.402-0.333-0.43-0.648-0.758-0.832-0.941-1.118 0.317-1.797 1.546-2.142 2.373 0.045 0.011 0.090 0.024 0.134 0.038 0.126 0.038 0.25 0.090 0.366 0.15 0.136-0.234 0.326-0.517 0.587-0.81 0.291-0.326 0.669-0.662 1.147-0.946l0.254 0.291 0.011 0.006s-0.573 0.224-1.106 0.995c-0.15 0.219-0.298 0.482-0.429 0.795l0.010 0.010c0.101 0.099 0.192 0.208 0.27 0.328l2.003-0.864 0.16 0.262-1.949 1.048c0.040 0.12 0.070 0.242 0.086 0.365 0.405 0.088 0.762 0.114 1.069 0.101 0.848-0.034 1.309-0.342 1.309-0.342l0.094 0.384c-0.418 0.192-0.824 0.306-1.198 0.37-0.378 0.064-0.72 0.078-1.005 0.070l-0.024-0.002c-0.086-0.003-0.168-0.008-0.243-0.014-0.013 0.085-0.032 0.168-0.054 0.251-0.042 0.15-0.099 0.296-0.174 0.434 0.085 0.043 0.168 0.085 0.253 0.122 0.072 0.032 0.146 0.062 0.218 0.090 0.362 0.141 0.714 0.227 1.030 0.282 0.109 0.019 0.214 0.034 0.314 0.045 0.264 0.030 0.488 0.038 0.651 0.038 0.077-0.126 0.141-0.253 0.198-0.379 0.194-0.426 0.283-0.851 0.291-1.27 0.005-0.226-0.013-0.45-0.050-0.669-0.109-0.653-0.381-1.27-0.701-1.806zM6.832 9.778l0.086-0.010 0.262-0.027c0.107-0.109 0.205-0.227 0.294-0.352 0.421-0.586 0.666-1.304 0.802-1.838-0.045-0.016-0.088-0.032-0.131-0.051-0.050 0.11-0.128 0.269-0.245 0.459-0.174 0.282-0.43 0.626-0.787 0.954-0.166 0.154-0.357 0.302-0.571 0.44-0.046 0.030-0.091 0.061-0.139 0.090l-0.243-0.272s0.222-0.090 0.51-0.347c0.323-0.29 0.728-0.792 0.995-1.621-0.112-0.093-0.216-0.198-0.307-0.315-0.024-0.030-0.045-0.062-0.067-0.094l-2.163 0.944-0.16-0.253 2.085-1.141c-0.029-0.077-0.050-0.155-0.069-0.235-1.629-0.41-2.531 0.214-2.531 0.214l-0.094-0.384c1.043-0.491 2.030-0.486 2.579-0.429 0.010-0.141 0.035-0.28 0.074-0.414-0.589-0.291-1.194-0.419-1.717-0.464-0.547-0.048-1.003-0.008-1.256 0.026-0.264 0.603-0.326 1.187-0.258 1.739 0.23 1.834 1.93 3.29 2.602 3.792 0.029 0.022 0.056 0.042 0.082 0.059 0.146-0.064 0.28-0.144 0.406-0.237 0.040-0.030 0.080-0.061 0.118-0.094l-0.086-0.075-0.070-0.062zM8.021 6.219c0.030 0.048 0.066 0.093 0.102 0.134 0.104 0.118 0.234 0.21 0.376 0.272 0.101 0.045 0.208 0.074 0.317 0.088 0.17 0.022 0.344 0.006 0.506-0.050 0.072-0.026 0.142-0.058 0.208-0.098l0.142-0.090 0.261-0.163c0.051-0.032 0.099-0.069 0.144-0.107 0.12-0.106 0.214-0.232 0.277-0.373 0.142-0.32 0.13-0.702-0.064-1.019-0.061-0.093-0.134-0.174-0.216-0.246-0.112-0.096-0.243-0.17-0.384-0.214l-0.037-0.013c-0.096-0.027-0.195-0.042-0.299-0.042-0.059 0-0.118 0.006-0.176 0.016-0.053 0.008-0.106 0.021-0.155 0.037-0.085 0.027-0.165 0.061-0.24 0.107l-0.045 0.029-0.357 0.224c-0.038 0.024-0.074 0.050-0.107 0.077-0.126 0.102-0.226 0.23-0.294 0.373-0.106 0.219-0.139 0.47-0.088 0.712 0.021 0.118 0.064 0.235 0.13 0.346z"></path>
<path fill="#ffe687" d="M21.656 10.373l-0.478-0.051c-0.187-0.019-0.355-0.131-0.43-0.29l-0.029-0.056-0.042-0.083-0.003-0.005-0.021-0.042-0.030-0.062-0.419-0.846-0.49 1.008-0.034 0.066c-0.085 0.16-0.243 0.272-0.43 0.29l-1.293 0.139 0.955 0.816c0.131 0.122 0.197 0.299 0.16 0.469l-0.262 1.179 1.152-0.571c0.043-0.027 0.091-0.043 0.142-0.053l0.006-0.002c0.037-0.006 0.075-0.011 0.114-0.011 0.085 0 0.178 0.019 0.262 0.066l1.133 0.59-0.262-1.179c-0.037-0.178 0.019-0.347 0.16-0.469l0.955-0.814-0.816-0.088zM12.638 10.376l-0.338-0.037c-0.187-0.019-0.355-0.131-0.43-0.29l-0.101-0.206-0.162-0.331-0.282-0.576-0.435 0.909-0.099 0.206c-0.075 0.142-0.213 0.243-0.374 0.277l-0.056 0.013-1.293 0.141 0.066 0.056 0.288 0.243 0.63 0.534c0.088 0.082 0.144 0.187 0.163 0.301 0.010 0.058 0.010 0.117-0.003 0.176l-0.262 1.198 1.133-0.6c0.075-0.046 0.178-0.066 0.262-0.066s0.178 0.019 0.262 0.066l1.133 0.6-0.262-1.198c-0.037-0.178 0.019-0.355 0.16-0.478l0.954-0.834-0.954-0.104z"></path>
<path fill="#c9c9c9" d="M16.61 10.536l-0.046-0.040-0.525-0.445-0.246-0.208h-0.064l-0.627 0.542-0.173 0.15-0.28 0.243h2.248zM15.021 5.16c-0.003-0.23-0.026-0.458-0.062-0.683-0.106-0.646-0.338-1.269-0.637-1.84-0.077-0.147-0.158-0.29-0.243-0.429-0.090-0.147-0.182-0.291-0.278-0.429-0.32-0.462-0.669-0.869-1.002-1.203-0.134-0.136-0.267-0.259-0.395-0.37l-0.168-0.141-0.216 0.037c-0.949 0.162-1.661 0.754-2.182 1.427-0.517 0.67-0.845 1.422-1.024 1.92-0.181 0.048-0.357 0.12-0.522 0.221l-0.403 0.253c-0.158 0.099-0.298 0.218-0.418 0.349-0.435-0.219-0.875-0.363-1.293-0.454-1.378-0.302-2.528-0.042-2.56-0.035l-0.216 0.037-0.102 0.197c-0.616 1.211-0.586 2.386-0.219 3.435 0.584 1.678 2.026 3.037 3.056 3.71l0.187 0.122 0.206-0.066c0.067-0.021 0.133-0.045 0.197-0.070 0.176-0.069 0.341-0.155 0.494-0.251 0.173-0.109 0.333-0.23 0.478-0.366l-0.71-0.616c-0.038 0.032-0.078 0.064-0.118 0.094-0.125 0.093-0.261 0.173-0.406 0.237l-0.082-0.059c-0.672-0.502-2.371-1.958-2.602-3.792-0.069-0.55-0.006-1.136 0.258-1.739 0.253-0.034 0.709-0.074 1.256-0.026 0.522 0.046 1.126 0.174 1.717 0.464-0.038 0.136-0.064 0.275-0.074 0.414-0.549-0.058-1.536-0.062-2.579 0.429l0.094 0.384s0.902-0.622 2.531-0.214c0.018 0.078 0.040 0.157 0.069 0.235l-2.085 1.141 0.16 0.253 2.163-0.944c0.022 0.032 0.043 0.064 0.067 0.094 0.091 0.118 0.195 0.222 0.307 0.315-0.269 0.829-0.674 1.331-0.995 1.621-0.288 0.258-0.51 0.347-0.51 0.347l0.243 0.272c0.048-0.029 0.093-0.059 0.139-0.090 0.214-0.138 0.405-0.288 0.571-0.44 0.357-0.328 0.614-0.672 0.787-0.954 0.117-0.189 0.197-0.349 0.245-0.459 0.043 0.019 0.086 0.035 0.131 0.051-0.136 0.534-0.381 1.253-0.802 1.838-0.090 0.125-0.187 0.243-0.294 0.352l1.261-0.134c0.41-0.678 0.642-1.419 0.77-1.954 0.208-0.026 0.413-0.085 0.605-0.174 0.070-0.032 0.141-0.069 0.21-0.109l0.403-0.253 0.066-0.046 0.115 0.067c0.147 0.080 0.293 0.15 0.44 0.214l0.277-0.573 0.102 0.218 0.178 0.376 0.107 0.226 0.104 0.032c0.29 0.083 0.566 0.139 0.819 0.178 0.218 0.034 0.416 0.053 0.59 0.064 0.147 0.010 0.278 0.013 0.384 0.013 0.178 0 0.29-0.010 0.282-0.019l0.224-0.019 0.046-0.069 0.077-0.106c0.307-0.442 0.512-0.891 0.635-1.341 0.107-0.392 0.152-0.784 0.146-1.17zM9.53 6.565c-0.066 0.042-0.136 0.074-0.208 0.098-0.163 0.056-0.336 0.072-0.506 0.050-0.109-0.014-0.216-0.043-0.317-0.088-0.142-0.062-0.272-0.155-0.376-0.272-0.037-0.042-0.072-0.086-0.102-0.134-0.066-0.109-0.109-0.226-0.133-0.344-0.050-0.242-0.018-0.493 0.088-0.712 0.069-0.142 0.168-0.27 0.294-0.373 0.034-0.027 0.069-0.054 0.107-0.077l0.357-0.224 0.045-0.029c0.075-0.046 0.155-0.080 0.24-0.107 0.051-0.016 0.102-0.029 0.155-0.037 0.058-0.010 0.117-0.016 0.176-0.016 0.102 0 0.203 0.016 0.299 0.042l0.037 0.013c0.141 0.045 0.272 0.118 0.384 0.214 0.082 0.070 0.157 0.152 0.216 0.246 0.194 0.317 0.206 0.699 0.064 1.019-0.062 0.139-0.155 0.267-0.277 0.373-0.045 0.038-0.091 0.075-0.144 0.107l-0.261 0.163-0.139 0.088zM11.39 6.483c-0.085-0.037-0.168-0.078-0.253-0.122 0.075-0.138 0.133-0.283 0.174-0.434 0.022-0.083 0.042-0.166 0.054-0.251 0.074 0.006 0.157 0.011 0.243 0.014l0.024 0.002c0.285 0.010 0.627-0.005 1.005-0.070 0.374-0.064 0.782-0.178 1.198-0.37l-0.094-0.384s-0.461 0.31-1.309 0.342c-0.307 0.011-0.664-0.013-1.069-0.101-0.018-0.123-0.046-0.245-0.086-0.365l1.949-1.048-0.16-0.262-2.003 0.864c-0.078-0.122-0.17-0.23-0.27-0.328l-0.010-0.010c0.131-0.314 0.278-0.576 0.429-0.795 0.533-0.771 1.106-0.995 1.106-0.995l-0.008-0.008-0.254-0.291c-0.48 0.283-0.856 0.619-1.147 0.946-0.261 0.293-0.453 0.576-0.587 0.81-0.117-0.061-0.24-0.112-0.366-0.15-0.045-0.013-0.088-0.027-0.134-0.038 0.344-0.827 1.024-2.056 2.142-2.373 0.184 0.181 0.499 0.51 0.832 0.941 0.098 0.126 0.195 0.259 0.293 0.402 0.088 0.128 0.174 0.264 0.258 0.403 0.318 0.536 0.59 1.154 0.699 1.808 0.037 0.219 0.054 0.442 0.050 0.669-0.010 0.418-0.099 0.845-0.291 1.27-0.058 0.126-0.122 0.253-0.198 0.379-0.163 0-0.387-0.008-0.651-0.038-0.099-0.011-0.205-0.027-0.314-0.045-0.317-0.054-0.669-0.141-1.030-0.282-0.074-0.027-0.147-0.056-0.219-0.090z"></path>
<path fill="#d0d2d3" d="M4.71 25.226c-0.325 0.355-0.51 0.811-0.51 1.296 0 0.515 0.197 0.992 0.562 1.358 0.458 0.458 1.141 0.622 1.76 0.498 0.33-0.067 0.643-0.214 0.894-0.446l-2.706-2.706zM13.686 27.197c0.010 0.542 0.224 1.050 0.608 1.434l0.075 0.069c0.179 0.163 0.379 0.294 0.598 0.386 0.251 0.106 0.523 0.163 0.805 0.163 0.323 0 0.627-0.075 0.899-0.205 0.165-0.078 0.318-0.179 0.456-0.296 0.44-0.376 0.723-0.93 0.733-1.549h-4.174zM26.843 25.24l-2.709 2.709c0.254 0.229 0.565 0.374 0.893 0.44 0.619 0.123 1.296-0.043 1.752-0.499 0.365-0.365 0.562-0.843 0.562-1.358 0-0.478-0.173-0.938-0.498-1.291z"></path>
<path fill="#818385" d="M9.482 21.55c-0.477-0.061-0.974 0.046-1.374 0.323-0.086 0.059-0.17 0.125-0.245 0.2l-1.358 1.358 2.715 2.715 1.358-1.358c0.365-0.365 0.562-0.843 0.562-1.358s-0.197-0.992-0.562-1.358c-0.298-0.296-0.688-0.469-1.096-0.522zM17.816 21.982c-0.088-0.374-0.274-0.718-0.552-0.995-0.394-0.403-0.918-0.618-1.48-0.618-0.973 0-1.79 0.669-2.021 1.571-0.042 0.162-0.066 0.33-0.067 0.504v2.11h4.176v-2.088c0-0.058-0.003-0.114-0.008-0.17-0.008-0.107-0.024-0.213-0.048-0.315zM23.69 22.083c-0.365-0.365-0.843-0.562-1.358-0.562-0.235 0-0.462 0.043-0.674 0.122-0.253 0.094-0.485 0.242-0.683 0.44-0.365 0.365-0.562 0.843-0.562 1.358s0.197 0.992 0.562 1.358l1.358 1.358 2.715-2.715-1.358-1.36z"></path>
<path fill="#b8b9ba" d="M8.493 26.742l-2.981-2.974c-0.066-0.066-0.141-0.094-0.224-0.094-0.102 0-0.178 0.029-0.243 0.094-0.122 0.131-0.122 0.338 0 0.459l3.381 3.381c0.122 0.122 0.338 0.122 0.469 0 0.022-0.022 0.038-0.046 0.053-0.072v-0.002c0.027-0.048 0.040-0.101 0.040-0.162 0-0.085-0.037-0.168-0.094-0.234l-0.4-0.397zM18.341 25.491h-5.122c-0.102 0-0.197 0.037-0.262 0.112-0.075 0.075-0.122 0.168-0.122 0.272 0 0.216 0.168 0.384 0.384 0.384h5.123c0.216 0 0.384-0.168 0.384-0.384-0.002-0.214-0.17-0.384-0.386-0.384zM26.507 23.787c-0.066-0.085-0.141-0.112-0.224-0.112-0.102 0-0.178 0.037-0.243 0.094l-3.381 3.381c-0.038 0.038-0.062 0.078-0.077 0.125-0.011 0.034-0.018 0.070-0.018 0.11 0 0.085 0.037 0.168 0.094 0.234 0.042 0.042 0.094 0.067 0.152 0.080 0.102 0.024 0.218 0.002 0.298-0.066l0.019-0.016 0.171-0.171 0.138-0.136 0.328-0.328 2.744-2.736c0.018-0.018 0.032-0.037 0.045-0.056 0.083-0.128 0.067-0.298-0.046-0.403z"></path>
<path fill="#373737" d="M13.893 16.539c0.242 0.176 0.51 0.318 0.794 0.424 0.069 0.027 0.141 0.053 0.218 0.075h0.003c0.056 0.016 0.115 0.032 0.176 0.046 0.245 0.058 0.496 0.088 0.747 0.082 0.45-0.010 0.88-0.122 1.264-0.309 0.814-0.403 1.395-1.162 1.563-2.061l-5.992 0.019c0.17 0.683 0.619 1.293 1.227 1.723zM16.029 15.63c0.706 0.146 1.046 0.333 1.25 0.854-0.469 0.238-1.613 0.651-3.029-0.030 0.229-0.787 0.941-0.987 1.779-0.824zM6.992 9.915l1.461 1.266 0.758 0.666-0.206 0.946-0.421 1.976 0.429-0.227c0.131 0.336 0.29 0.659 0.47 0.97 0.747 1.288 1.901 2.338 3.341 2.939 0.438 0.184 0.902 0.326 1.389 0.421 1.57 0.304 3.12 0.070 4.453-0.571 1.235-0.594 2.283-1.536 2.992-2.723 0.24-0.403 0.44-0.834 0.595-1.288l0.707 0.368-0.43-1.957-0.197-0.899 2.416-2.051-3.258-0.346-0.44-0.89-0.843-1.694-0.005 0.008-0.418 0.843-0.12 0.242-0.302 0.61-0.43 0.88-0.085 0.008-0.992 0.104-2.171 0.234 0.019 0.018-2.472-0.269-0.637-0.066-0.44-0.909-0.395-0.835-0.042-0.086-0.107-0.226-0.178-0.376-0.102-0.218-0.070 0.146-0.206 0.427-0.565 1.168-0.069 0.141-0.373 0.768-1.077 0.122-2.136 0.227 0.157 0.136zM11.87 10.050c0.075 0.16 0.243 0.272 0.43 0.29l1.293 0.141-0.954 0.834c-0.141 0.122-0.197 0.299-0.16 0.478l0.262 1.198-1.133-0.6c-0.085-0.046-0.178-0.066-0.262-0.066s-0.187 0.019-0.262 0.066l-1.133 0.6 0.262-1.198c0.013-0.059 0.013-0.118 0.003-0.176-0.018-0.114-0.075-0.221-0.163-0.301l-0.63-0.534-0.288-0.243-0.066-0.056 1.293-0.141 0.056-0.013c0.162-0.034 0.299-0.134 0.374-0.277l0.099-0.206 0.435-0.909 0.282 0.576 0.162 0.331 0.099 0.206zM19.763 9.843l0.021-0.043 0.421-0.866 0.419 0.846 0.030 0.062 0.021 0.042 0.003 0.005 0.042 0.083 0.029 0.056c0.075 0.16 0.243 0.272 0.43 0.29l1.293 0.139-0.373 0.318-0.582 0.496c-0.141 0.122-0.197 0.29-0.16 0.469l0.262 1.179-1.133-0.59c-0.085-0.046-0.178-0.066-0.262-0.066-0.038 0-0.075 0.005-0.114 0.011l-0.006 0.002c-0.051 0.010-0.101 0.027-0.142 0.053l-1.152 0.571 0.262-1.179c0.037-0.168-0.029-0.347-0.16-0.469l-0.955-0.816 1.293-0.139c0.187-0.019 0.347-0.131 0.43-0.29l0.034-0.070 0.050-0.094zM15.792 9.843l0.245 0.208 0.525 0.445 0.046 0.040 1.488 1.264-0.197 0.899-0.43 1.957 2.744-1.434 0.992 0.52c-0.862 2.808-3.77 4.574-6.76 3.994-2.107-0.414-3.722-1.886-4.394-3.749l0.31-0.165 0.155-0.083 0.8-0.422 2.734 1.451-0.421-1.976-0.206-0.946 0.758-0.666 0.386-0.334 0.078-0.069 0.454-0.392 0.659-0.571 0.032 0.029zM12.067 23.442c0.006-0.515-0.13-1.005-0.382-1.435-0.123-0.211-0.274-0.41-0.451-0.587-0.219-0.219-0.474-0.392-0.746-0.522-0.315-0.15-0.658-0.243-1.005-0.274-0.102-0.010-0.203-0.011-0.306-0.010-0.726 0.010-1.45 0.277-1.979 0.806l-1.426 1.426c-0.453-0.182-1.018-0.109-1.392 0.259-0.123 0.123-0.216 0.266-0.278 0.418-0.13 0.315-0.123 0.669 0.013 0.981l-0.016 0.016c-0.542 0.534-0.834 1.254-0.834 2.013-0.010 0.758 0.29 1.48 0.834 2.022 0.542 0.534 1.254 0.834 2.022 0.834 0.136 0 0.27-0.013 0.403-0.032v1.52h-0.992c-0.338 0-0.6 0.272-0.6 0.6 0 0.338 0.272 0.6 0.6 0.6h3.578c0.338 0 0.6-0.272 0.6-0.6s-0.272-0.6-0.6-0.6h-0.992v-2.296l0.019-0.016 0.026-0.026c0.157 0.066 0.325 0.101 0.498 0.101 0.31 0 0.605-0.114 0.826-0.322l0.054-0.053c0.094-0.098 0.171-0.21 0.23-0.328 0.072-0.144 0.115-0.299 0.13-0.462 0.003-0.037 0.005-0.072 0.005-0.109 0-0.17-0.034-0.334-0.096-0.485l1.426-1.426c0.541-0.536 0.832-1.256 0.832-2.014zM4.762 27.88c-0.365-0.365-0.562-0.843-0.562-1.358 0-0.485 0.186-0.941 0.51-1.296l2.706 2.706c-0.251 0.232-0.563 0.381-0.894 0.446-0.619 0.125-1.302-0.040-1.76-0.498zM8.893 27.608c-0.131 0.122-0.347 0.122-0.469 0l-3.381-3.381c-0.122-0.122-0.122-0.328 0-0.459 0.066-0.066 0.141-0.094 0.243-0.094 0.085 0 0.16 0.029 0.224 0.094l3.381 3.373c0.056 0.066 0.094 0.15 0.094 0.234 0 0.061-0.013 0.114-0.040 0.162v0.002c-0.014 0.024-0.030 0.048-0.053 0.070zM9.219 26.147l-2.715-2.715 1.358-1.358c0.077-0.075 0.158-0.141 0.245-0.2 0.402-0.275 0.899-0.382 1.374-0.323 0.408 0.051 0.798 0.224 1.096 0.523 0.365 0.365 0.562 0.843 0.562 1.358s-0.197 0.992-0.562 1.358l-1.358 1.357zM18.8 24.642v-2.174c0-0.2-0.019-0.395-0.058-0.586-0.014-0.074-0.034-0.147-0.054-0.219-0.138-0.502-0.402-0.958-0.779-1.33-0.571-0.571-1.33-0.89-2.144-0.89-1.366 0-2.523 0.912-2.896 2.158-0.048 0.158-0.082 0.322-0.102 0.49-0.016 0.123-0.026 0.248-0.026 0.376v2.174c-0.174 0.066-0.331 0.166-0.459 0.298-0.253 0.243-0.394 0.581-0.394 0.936 0 0.565 0.354 1.045 0.853 1.234v0.050c0 0.469 0.11 0.925 0.314 1.334 0.096 0.194 0.213 0.379 0.349 0.549 0.070 0.088 0.146 0.173 0.226 0.251 0.115 0.115 0.24 0.218 0.37 0.312 0.294 0.214 0.621 0.371 0.97 0.467v0.728h-1.067c-0.347 0-0.637 0.282-0.637 0.637 0 0.347 0.282 0.637 0.637 0.637h3.84c0.347 0 0.637-0.282 0.637-0.637s-0.282-0.646-0.637-0.646h-1.067v-0.746c0.28-0.088 0.544-0.216 0.782-0.376 0.226-0.152 0.429-0.334 0.606-0.539 0.142-0.165 0.269-0.344 0.374-0.538 0.232-0.427 0.363-0.915 0.363-1.434v-0.050c0.498-0.19 0.853-0.675 0.853-1.232 0-0.566-0.354-1.046-0.853-1.235zM17.131 28.746c-0.138 0.118-0.291 0.218-0.456 0.296-0.272 0.13-0.576 0.205-0.899 0.205-0.282 0-0.554-0.056-0.805-0.163-0.219-0.093-0.419-0.224-0.598-0.386-0.026-0.022-0.051-0.045-0.075-0.069-0.384-0.384-0.6-0.89-0.608-1.434h4.176c-0.013 0.621-0.294 1.174-0.734 1.55zM13.696 22.458v-0.013c0.002-0.174 0.026-0.342 0.067-0.504 0.23-0.902 1.048-1.571 2.021-1.571 0.562 0 1.086 0.216 1.48 0.618 0.277 0.277 0.464 0.621 0.552 0.995 0.024 0.102 0.042 0.208 0.050 0.314 0.005 0.056 0.008 0.114 0.008 0.17v2.088h-4.178v-2.096zM13.219 26.259c-0.216 0-0.384-0.168-0.384-0.384 0-0.102 0.046-0.197 0.122-0.272 0.066-0.075 0.16-0.112 0.262-0.112h5.123c0.216 0 0.384 0.168 0.384 0.384s-0.168 0.384-0.384 0.384h-5.123zM25.43 29.387c0.758 0 1.48-0.299 2.013-0.843 0.542-0.534 0.834-1.254 0.834-2.013 0.010-0.768-0.29-1.48-0.834-2.022 0.062-0.149 0.096-0.307 0.099-0.466 0.006-0.331-0.117-0.666-0.371-0.922-0.354-0.347-0.917-0.446-1.379-0.266l-1.438-1.438c-0.114-0.114-0.238-0.213-0.368-0.302-0.306-0.211-0.651-0.357-1.011-0.435-0.434-0.094-0.886-0.091-1.318 0.010-0.272 0.062-0.534 0.165-0.778 0.304-0.202 0.115-0.392 0.254-0.562 0.424-0.195 0.192-0.355 0.408-0.483 0.64-0.229 0.416-0.35 0.886-0.35 1.373-0.010 0.758 0.29 1.48 0.834 2.022l1.426 1.426c-0.040 0.093-0.069 0.192-0.086 0.293-0.011 0.069-0.019 0.139-0.019 0.211s0.006 0.142 0.019 0.211l0.018 0.085c0.038 0.158 0.106 0.307 0.2 0.438 0.038 0.054 0.082 0.106 0.13 0.154 0.078 0.078 0.166 0.144 0.261 0.197 0.189 0.109 0.405 0.168 0.63 0.168 0.174 0 0.344-0.035 0.501-0.099l0.014 0.014 0.029 0.026v2.298h-0.992c-0.338 0-0.6 0.272-0.6 0.6s0.262 0.6 0.6 0.6h3.578c0.328 0 0.6-0.262 0.6-0.6 0-0.328-0.262-0.6-0.6-0.6h-0.992v-1.522c0.128 0.022 0.262 0.035 0.398 0.035zM22.81 27.698c-0.056-0.013-0.11-0.040-0.152-0.080-0.056-0.066-0.094-0.15-0.094-0.234 0-0.040 0.006-0.075 0.018-0.11 0.014-0.045 0.038-0.086 0.077-0.125l3.381-3.381c0.066-0.056 0.141-0.094 0.243-0.094 0.085 0 0.16 0.029 0.224 0.112 0.114 0.106 0.128 0.275 0.045 0.403-0.013 0.019-0.027 0.038-0.045 0.056l-3.4 3.387c-0.078 0.069-0.192 0.090-0.296 0.066zM20.973 22.083c0.198-0.198 0.43-0.346 0.683-0.44 0.213-0.080 0.438-0.122 0.674-0.122 0.515 0 0.992 0.197 1.358 0.562l1.358 1.358-2.715 2.715-1.358-1.358c-0.365-0.365-0.562-0.843-0.562-1.358 0-0.514 0.197-0.992 0.562-1.357zM25.029 28.389c-0.328-0.066-0.64-0.211-0.893-0.44l2.709-2.709c0.325 0.354 0.498 0.813 0.498 1.291 0 0.515-0.197 0.992-0.562 1.358-0.458 0.456-1.134 0.621-1.752 0.499z"></path>
<path fill="#49b7eb" d="M27.2 13.691l-0.318-2.65-0.318 2.65-1.621 0.218v0.24l1.621 0.218 0.318 2.65 0.318-2.65 2.528-0.338-2.528-0.338zM3.891 17.045l-0.206 1.779-1.694 0.224 1.694 0.226 0.206 1.77 0.216-1.77 1.694-0.226-1.694-0.224zM27.042 9.019l0.206 1.779 0.214-1.779 1.686-0.226-1.686-0.224-0.214-1.779-0.206 1.779-1.694 0.224zM3.405 17.091l0.262-2.192 2.088-0.28-2.088-0.272-0.262-2.2-0.262 2.2-2.086 0.272 2.086 0.28z"></path>
<path fill="#49b7eb" d="M29.149 16.622c0 0.259-0.21 0.469-0.469 0.469s-0.469-0.21-0.469-0.469c0-0.259 0.21-0.469 0.469-0.469s0.469 0.21 0.469 0.469z"></path>
<path fill="#49b7eb" d="M5.736 12.877c0 0.259-0.21 0.469-0.469 0.469s-0.469-0.21-0.469-0.469c0-0.259 0.21-0.469 0.469-0.469s0.469 0.21 0.469 0.469z"></path>
<path fill="#49b7eb" d="M25.403 6.322c0 0.259-0.21 0.469-0.469 0.469s-0.469-0.21-0.469-0.469c0-0.259 0.21-0.469 0.469-0.469s0.469 0.21 0.469 0.469z"></path>
</svg>
