<!-- Generated by IcoMoon.io -->
<svg version="1.1" xmlns="http://www.w3.org/2000/svg" width="32" height="32" viewBox="0 0 32 32">
<title>moderator</title>
<path fill="#ff9d00" d="M21.334 23.474l-0.819 2.656 4.454 1.946-1.901-7.709c-0.45 1.099-0.963 2.288-1.734 3.107zM21.675 13.262c1.61-0.010 2.861 1.051 2.814 2.682 0.010 0.533-0.102 1.069-0.272 1.595l5.458-5.643-9.176-0.904c-0.264-0.029-0.499-0.189-0.611-0.424l-3.963-8.243-1.187 2.334c1.232 0.304 2.28 1.304 2.28 2.992-0.019 1.464-0.091 2.928-0.138 4.39 1.654-1.33 4.088-0.877 4.795 1.221zM6.96 17.037c-0.35-1.838-0.699-3.678-1.048-5.517l-3.587 0.376 4.659 5.272-0.024-0.131zM6.174 27.925l1.048-0.427c0.272-0.11 0.538-0.334 0.808-0.501 0.165-0.131 0.37-0.211 0.59-0.211h0.19l-0.928-4.886-1.709 6.026z"></path>
<path fill="#ffce13" d="M31.99 11.059v0zM31.99 11.059c-0.046-0.133-0.024-0.066 0 0zM31.99 11.059c-0.094-0.264-0.349-0.451-0.63-0.48l-10.278-1.016-4.422-9.224c-0.259-0.539-1.077-0.565-1.355-0.029l-2.267 4.365c0.131-0.035 0.264-0.062 0.398-0.080 0.378-0.062 0.762-0.053 1.136 0.030 0.046 0.010 0.093 0.019 0.139 0.030l0.026 0.006 1.187-2.334 3.962 8.245c0.114 0.235 0.349 0.395 0.611 0.424l9.176 0.904-5.458 5.643c-0.218 0.68-0.528 1.342-0.792 1.962-0.117 0.275-0.235 0.568-0.357 0.866l1.901 7.709-4.454-1.946c-0.067 0.219-0.134 0.438-0.203 0.656h0.987c0.52 0 0.96 0.44 0.96 0.96h-0.010v0.76l3.501 1.528c0.554 0.251 1.198-0.246 1.054-0.846l-2.39-9.704 7.416-7.661c0.202-0.213 0.258-0.506 0.163-0.768zM6.984 17.168l-4.659-5.272 3.587-0.376c-0.093-0.491-0.19-0.965-0.221-1.464l-4.947 0.523c-0.579 0.058-0.885 0.757-0.49 1.214l6.758 7.661-2.71 9.544c-0.182 0.589 0.467 1.12 1.016 0.885l2.344-0.957v-1.181c0-0.038 0.003-0.075 0.008-0.114l0.006-0.043 0.013-0.062 0.014-0.056 0.010-0.029c0.021-0.061 0.046-0.122 0.078-0.176l-1.618 0.658 1.709-6.026c-0.299-1.576-0.598-3.152-0.899-4.73z"></path>
<path fill="#373737" d="M21.675 13.262c-0.707-2.096-3.141-2.55-4.797-1.219 0.048-1.462 0.118-2.926 0.138-4.39 0-1.688-1.046-2.688-2.28-2.992l-0.026-0.006c-0.046-0.011-0.093-0.021-0.139-0.030-0.373-0.072-0.76-0.082-1.136-0.030-0.134 0.019-0.269 0.046-0.398 0.080-1.187 0.315-2.186 1.29-2.213 2.93l-0.010 0.077c-0.069-0.070-0.142-0.136-0.216-0.198-0.029-0.024-0.058-0.048-0.088-0.070l-0.061-0.046-0.056-0.040c-0.032-0.022-0.066-0.045-0.099-0.066l-0.014-0.008c-0.64-0.4-1.398-0.522-2.114-0.386-0.757 0.147-1.459 0.581-1.923 1.251-0.034 0.050-0.066 0.098-0.096 0.147l-0.032 0.056c-0.587 1.014-0.416 2.086-0.205 3.2l1.048 5.517 0.016 0.088 0.008 0.043c0.195 1.029 0.39 2.058 0.586 3.085l0.312 1.645 0.928 4.886h-0.19c-0.221 0-0.427 0.080-0.59 0.211-0.144 0.115-0.256 0.27-0.317 0.446l-0.010 0.029-0.014 0.056-0.013 0.062-0.006 0.043c-0.005 0.037-0.008 0.075-0.008 0.114v3.21c0 0.526 0.434 0.96 0.96 0.96h12.669c0.526 0 0.96-0.434 0.96-0.96v-3.21h0.010c0-0.52-0.44-0.96-0.96-0.96h-0.987l0.203-0.656 0.819-2.656c0.030-0.032 0.061-0.069 0.094-0.109 0.718-0.813 1.21-1.946 1.642-2.998 0.122-0.298 0.24-0.59 0.357-0.866 0.262-0.619 0.574-1.282 0.792-1.962 0.168-0.526 0.282-1.062 0.272-1.595 0.046-1.632-1.205-2.693-2.814-2.682z"></path>
<path fill="#eceff0" d="M19.69 28.386c-1.445 0-1.445 2.24 0 2.24s1.445-2.24 0-2.24z"></path>
<path fill="#ffe994" d="M6.077 8.386l0.070-0.123c0.030-0.050 0.062-0.099 0.096-0.147 0.464-0.67 1.166-1.104 1.923-1.251 0.709-0.138 1.464-0.022 2.114 0.386l0.014 0.008 0.099 0.066 0.056 0.040 0.061 0.046 0.104 0.083 1.659-6.637-9.413 7.53h3.216zM19.802 0.856l1.883 7.53h7.53zM2.691 26.776l3.229-7.058-5.882-4.698zM25.214 19.67l3.237 7.059 2.645-11.755z"></path>
<path fill="#e6e7e8" d="M19.086 24.301c-1.157-0.034-2.085-0.622-2.522-1.504-1.13 0.115-4.275 1.030-5.042-0.104 2.014-0.264 4.034-0.493 6.048-0.754 0.054-0.003 0.107-0.010 0.16-0.014l0.043-0.005 0.122-0.016 0.037-0.006c0.046-0.008 0.091-0.016 0.136-0.026l0.011-0.003c1.328-0.274 2.49-1.237 2.33-2.696-0.006-0.053-0.013-0.106-0.022-0.158l-0.026-0.131c-0.162-0.79-0.517-1.269-0.992-1.563-0.757-0.467-1.816-0.466-2.882-0.506l-0.568-0.022c-0.13-0.005-0.258-0.010-0.387-0.016-1.010-0.042-2.019-0.088-3.029-0.134-0.779-0.037-1.56-0.074-2.341-0.106 0.226-0.312 0.606-0.49 0.989-0.49 1.454 0.029 2.909 0.086 4.363 0.131 1.17 0.037 2.589-0.122 3.674 0.395l1.578-2.629c-0.098-1.715-2.010-2.368-3.214-1.163-0.789 0.771-1.429 1.741-1.862 2.754 0.091-2.709 0.222-5.419 0.272-8.128 0-2.584-4.010-2.595-4.010 0-0.144 2.077-0.288 4.154-0.432 6.232-0.010 0.146-0.192 0.123-0.216 0.019l-0.96-4.245-0.029 0.010c-0.013-0.075-0.029-0.147-0.046-0.216l-0.019-0.061c-0.014-0.048-0.029-0.094-0.046-0.139l-0.024-0.054c-0.019-0.045-0.038-0.090-0.059-0.131l-0.021-0.035c-0.026-0.046-0.051-0.093-0.080-0.134l-0.010-0.013c-0.502-0.733-1.467-0.922-2.259-0.645l-0.032 0.011-0.061 0.024c-0.691 0.278-1.227 0.922-1.154 1.877l0.003 0.050 0.014 0.101-0.029 0.010 3.29 16.725h9.693c0.282-0.885 0.563-1.77 0.846-2.654-0.339 0.123-0.698 0.17-1.058 0.17h-0.178zM23.792 15.827l-0.006-0.086-0.002-0.014c-0.069-0.672-0.526-1.162-1.158-1.349-0.15-0.045-0.31-0.074-0.478-0.082l0.213 0.011c0.166 0.008 0.317 0.016-0.002 0l-0.218-0.011c-0.31-0.014-0.638 0.008-0.925 0.141l-1.483 2.472c1.254 0.974 1.725 2.85 0.802 4.205-0.040 0.059-0.083 0.117-0.126 0.173-0.024 0.029-0.048 0.058-0.074 0.085l-0.064 0.075-0.086 0.088-0.061 0.062-0.093 0.082-0.064 0.056-0.091 0.070-0.075 0.058-0.078 0.053-0.096 0.064-0.059 0.035c-0.040 0.024-0.080 0.050-0.122 0.072l-0.034 0.018c-0.051 0.027-0.102 0.054-0.154 0.080l-0.003 0.002c-0.12 0.059-0.245 0.112-0.37 0.162l-0.021 0.008c-0.118 0.045-0.24 0.085-0.362 0.122l-0.048 0.014c-0.115 0.034-0.23 0.062-0.347 0.090l-0.064 0.014c-0.117 0.026-0.234 0.046-0.35 0.066l-0.053 0.010c0.026 0.043 0.054 0.085 0.085 0.125l0.008 0.010c0.157 0.203 0.355 0.355 0.579 0.462 0.349 0.168 0.757 0.229 1.144 0.214 1.082-0.042 1.539-1.070 1.995-1.896 0.040-0.072 0.082-0.146 0.122-0.219 0.853-1.523 1.923-3.304 2.181-5.050 0.018-0.117 0.032-0.232 0.042-0.347 0-0.046-0.002-0.094-0.003-0.142z"></path>
</svg>
