<!-- Generated by IcoMoon.io -->
<svg version="1.1" xmlns="http://www.w3.org/2000/svg" width="32" height="32" viewBox="0 0 32 32">
<title>talk-shop</title>
<path fill="#f58345" d="M15.030 5.714c-0.018-2.282 1.746-4.165 3.979-4.334l-1.608-0.832-0.499-0.264c-0.914-0.48-2.042-0.47-2.946 0.029l-0.274 0.141-12.272 6.606c-0.904 0.48-1.421 1.43-1.411 2.4v13.234c0 0.802 0.394 1.539 1.042 2.042 0.042-1.872 1.901-3.179 2.813-3.709-1.235-1.029-2.17-2.443-2.594-4.122-0.075-0.291-0.131-0.594-0.17-0.885-0.451-3.331 1.29-6.56 4.235-8.056 0.245-0.131 0.509-0.254 0.781-0.358 0.274-0.104 0.565-0.189 0.856-0.264 2.795-0.706 5.619 0.189 7.51 2.080 0.21 0.206 0.403 0.429 0.587 0.659l-0.030-4.366zM31.085 13.379c-0.782 1.002-1.995 1.65-3.358 1.661l-4.838 0.038c-1.11 1.469-2.926 2.221-5.421 2.24l-0.754 0.010 0.33-0.686c0-0.010 0.31-0.659 0.555-1.92-0.312-0.141-0.6-0.32-0.864-0.525 0.222 2.198-0.499 4.331-1.88 5.933 0.618 0.822 1.344 1.418 2.123 1.622 1.402 0.37 3.082 0.126 4.274-1.043-0.154-0.798 0.026-1.65 0.568-2.326 0.992-1.237 2.814-1.422 4.072-0.413 1.258 1.008 1.472 2.829 0.48 4.064-0.514 0.64-1.251 0.997-2.018 1.053-2.032 2.285-5.182 3.269-8.366 2.44-0.206-0.053-0.411-0.117-0.616-0.187l1.19 6.419c0.181-0.059 0.358-0.134 0.526-0.227l0.274-0.141 12.275-6.61c0.904-0.48 1.534-1.43 1.525-2.4l-0.077-9.002z"></path>
<path fill="#bbd758" d="M22.557 8.982c-0.336-0.283-0.979-0.936-0.989-1.739v-0.442h0.042l4.222-0.035-0.15 0.557c-0.010 0.045-0.266 0.997-0.944 1.616l0.011 1.638v0.069c0.085-0.029 0.17-0.059 0.251-0.094 0.13-0.056 0.254-0.123 0.374-0.195 0.906-0.546 1.51-1.538 1.498-2.669-0.018-1.704-1.413-3.082-3.117-3.064-1.693 0.018-3.061 1.394-3.062 3.083l-0.002 0.034c0.013 1.262 0.782 2.344 1.874 2.813l-0.002-0.195-0.006-1.376zM31.037 8.928l-0.024-3.347c-0.019-1.854-1.544-3.36-3.398-3.341l-8.31 0.066c-1.854 0.019-3.36 1.544-3.341 3.398l0.038 5.12c0.010 1.421 0.922 2.691 2.269 3.154l0.376 0.131-0.066 0.395c-0.131 0.81-0.291 1.421-0.434 1.854 1.92-0.141 3.294-0.81 4.104-2.005l0.141-0.206 5.318-0.046c1.854-0.019 3.36-1.544 3.341-3.398l-0.014-1.774zM27.918 4.89c0.026-0.026 0.053-0.048 0.086-0.066l1.475-0.77c0.182-0.094 0.4-0.022 0.494 0.152 0.069 0.133 0.048 0.283-0.035 0.392-0.030 0.042-0.070 0.077-0.118 0.102l-1.475 0.763c-0.058 0.029-0.117 0.043-0.174 0.043-0.131 0-0.254-0.072-0.32-0.189-0.077-0.149-0.042-0.32 0.067-0.429zM17.674 4.053l1.475 0.77c0.174 0.094 0.246 0.312 0.152 0.494-0.038 0.067-0.098 0.118-0.165 0.15-0.048 0.022-0.101 0.038-0.155 0.038-0.058 0-0.117-0.014-0.174-0.043l-1.475-0.763c-0.128-0.069-0.2-0.205-0.194-0.344 0.003-0.051 0.014-0.102 0.040-0.15 0.096-0.174 0.314-0.246 0.496-0.152zM16.872 8.296c-0.174 0-0.315-0.117-0.352-0.277-0.006-0.027-0.011-0.056-0.011-0.086 0-0.203 0.138-0.378 0.363-0.363l1.563-0.008c0.203 0 0.363 0.16 0.363 0.363 0.005 0.114-0.051 0.216-0.134 0.283-0.061 0.050-0.138 0.080-0.221 0.080l-1.571 0.008zM19.125 10.874l-1.365 0.531c-0.038 0.019-0.077 0.026-0.115 0.026l-0.050-0.008c-0.109-0.018-0.206-0.086-0.251-0.197-0.064-0.166 0.019-0.352 0.179-0.416l1.363-0.531c0.166-0.064 0.352 0.019 0.416 0.179 0.050 0.128 0.011 0.267-0.082 0.354-0.027 0.026-0.059 0.048-0.096 0.062zM22.054 12.522l-0.010-0.997v-0.245c-1.083-0.53-1.893-1.536-2.149-2.747-0.054-0.254-0.083-0.517-0.085-0.787-0.018-2.133 1.659-3.898 3.77-4.002 0.056-0.003 0.112-0.005 0.168-0.006 1.419-0.011 2.675 0.728 3.387 1.845 0.387 0.606 0.614 1.323 0.621 2.093 0.011 1.432-0.739 2.698-1.874 3.406-0.099 0.062-0.202 0.12-0.306 0.173v0.043l0.006 1.198c0.010 0.997-0.874 1.006-0.874 1.006l-1.765 0.018c-0.122 0-0.226-0.021-0.315-0.053-0.568-0.205-0.576-0.946-0.576-0.946zM29.808 11.226c-0.051 0.128-0.173 0.205-0.301 0.205-0.038 0-0.077-0.006-0.115-0.026l-1.363-0.531c-0.16-0.064-0.243-0.25-0.179-0.416l0.021-0.040c0.077-0.133 0.243-0.198 0.395-0.139l1.363 0.531c0.158 0.064 0.242 0.248 0.181 0.413l-0.002 0.003zM30.282 8.296l-1.57-0.008c-0.197 0-0.363-0.166-0.357-0.363 0-0.078 0.024-0.149 0.064-0.208 0.066-0.094 0.174-0.155 0.299-0.155l1.563 0.008c0.13-0.008 0.229 0.046 0.29 0.131l0.021 0.029c0.034 0.059 0.053 0.128 0.053 0.202l-0.005 0.042c-0.019 0.184-0.17 0.323-0.358 0.323zM23.44 8.541l0.010 2.083h0.414l-0.002-0.139-0.016-1.979 0.186-0.133 0.008-0.006c0.202-0.149 0.358-0.352 0.48-0.552 0.030-0.050 0.059-0.099 0.085-0.147l-2.021 0.010c0.186 0.336 0.522 0.627 0.67 0.733l0.186 0.131z"></path>
<path fill="#fff" d="M27.136 5.582c-0.712-1.117-1.968-1.856-3.387-1.845-0.056 0-0.112 0.003-0.168 0.006-2.11 0.106-3.787 1.869-3.77 4.002 0.002 0.269 0.032 0.533 0.085 0.787 0.256 1.211 1.066 2.218 2.149 2.747v0.245l0.010 0.997s0.008 0.741 0.576 0.944c0.091 0.032 0.194 0.053 0.315 0.053l1.765-0.018s0.883-0.010 0.874-1.006l-0.006-1.198v-0.043c0.104-0.053 0.206-0.11 0.306-0.173 1.133-0.709 1.885-1.974 1.874-3.406-0.006-0.768-0.234-1.485-0.621-2.091zM22.928 7.674l1.677-0.008c-0.026 0.048-0.056 0.098-0.085 0.147-0.122 0.202-0.278 0.403-0.48 0.552l-0.008 0.006-0.186 0.133 0.016 1.979 0.002 0.139h-0.414l-0.010-2.083-0.186-0.133c-0.15-0.106-0.485-0.397-0.67-0.733h0.344zM25.376 10.354c-0.12 0.072-0.245 0.139-0.374 0.195-0.082 0.035-0.166 0.067-0.251 0.094v-0.069l-0.011-1.638c0.68-0.618 0.936-1.571 0.944-1.616l0.15-0.557-4.264 0.035v0.442c0.010 0.803 0.653 1.456 0.989 1.739l0.010 1.373 0.002 0.195c-1.091-0.469-1.861-1.55-1.874-2.813l0.002-0.034c0.002-1.688 1.37-3.066 3.062-3.083 1.704-0.018 3.099 1.36 3.117 3.064 0.010 1.134-0.597 2.126-1.501 2.672z"></path>
<path fill="#cae861" d="M19.149 4.822l-1.475-0.77c-0.182-0.094-0.4-0.022-0.494 0.152-0.026 0.048-0.038 0.099-0.040 0.15-0.006 0.139 0.066 0.275 0.194 0.344l1.475 0.763c0.058 0.029 0.117 0.043 0.174 0.043 0.054 0 0.107-0.014 0.155-0.038 0.067-0.032 0.126-0.083 0.165-0.15 0.093-0.181 0.021-0.4-0.154-0.494zM18.662 8.208c0.085-0.067 0.139-0.17 0.134-0.283 0-0.203-0.16-0.363-0.363-0.363l-1.563 0.008c-0.226-0.014-0.363 0.16-0.363 0.363 0 0.030 0.005 0.058 0.011 0.086 0.038 0.16 0.179 0.277 0.352 0.277l1.57-0.008c0.085 0 0.16-0.030 0.222-0.080zM18.888 10.278l-1.363 0.531c-0.16 0.064-0.243 0.25-0.179 0.416 0.045 0.11 0.142 0.181 0.251 0.197l0.050 0.008c0.038 0 0.077-0.006 0.115-0.026l1.363-0.531c0.037-0.014 0.069-0.037 0.098-0.062 0.093-0.086 0.131-0.226 0.082-0.354-0.064-0.16-0.25-0.243-0.416-0.179zM28.171 5.506c0.058 0 0.117-0.014 0.174-0.043l1.475-0.763c0.048-0.026 0.086-0.061 0.118-0.102 0.083-0.109 0.104-0.261 0.035-0.392-0.094-0.174-0.312-0.246-0.494-0.152l-1.475 0.77c-0.032 0.018-0.061 0.042-0.086 0.066-0.109 0.11-0.144 0.28-0.067 0.427 0.066 0.118 0.189 0.19 0.32 0.19zM30.592 7.731l-0.021-0.029c-0.062-0.085-0.162-0.141-0.29-0.131l-1.563-0.008c-0.125 0-0.234 0.061-0.299 0.155-0.040 0.059-0.064 0.13-0.064 0.208-0.008 0.197 0.16 0.363 0.357 0.363l1.57 0.008c0.189 0 0.339-0.139 0.36-0.322l0.005-0.042c-0.002-0.075-0.021-0.146-0.054-0.203zM29.629 10.81l-1.363-0.531c-0.152-0.058-0.318 0.006-0.395 0.139l-0.021 0.040c-0.064 0.166 0.019 0.352 0.179 0.416l1.363 0.531c0.038 0.019 0.077 0.026 0.115 0.026 0.128 0 0.25-0.077 0.301-0.205v-0.003c0.062-0.165-0.021-0.349-0.179-0.413z"></path>
<path fill="#d8dbdb" d="M12.269 17.653l-0.018 0.035 0.022-0.030-0.005-0.005zM10.23 17.195c-0.042 0.013-0.082 0.027-0.122 0.042-0.398 0.141-0.731 0.344-0.947 0.611-0.189 0.232-0.291 0.512-0.275 0.845 0.141 0.024 0.277 0.042 0.408 0.050 0.365 0.026 0.691-0.005 0.979-0.075 0.934-0.224 1.478-0.846 1.738-1.235-0.485-0.35-1.075-0.451-1.781-0.237z"></path>
<path fill="#96989c" d="M21.64 21.696c-0.37 0.309-0.77 0.554-1.189 0.738l1.059 1.646c0.602-0.302 1.16-0.69 1.658-1.154-0.306-0.107-0.6-0.266-0.869-0.48-0.267-0.218-0.486-0.474-0.659-0.75zM25.288 18.723c-0.83-0.667-2.037-0.544-2.694 0.275-0.086 0.107-0.158 0.221-0.216 0.339-0.256 0.514-0.258 1.114-0.026 1.629 0.122 0.272 0.309 0.522 0.558 0.722 0.302 0.243 0.656 0.381 1.014 0.418 0.526 0.054 1.062-0.107 1.469-0.474 0.075-0.067 0.146-0.139 0.211-0.221 0.654-0.816 0.514-2.021-0.317-2.688zM8.894 8.424c-3.622 0-6.56 2.938-6.56 6.56 0 0.989 0.221 1.926 0.613 2.766l0.517-0.189c0.411 0.667 0.875 1.173 1.37 1.554 1.587 1.224 3.469 1.141 4.818 0.83 0.064-0.014 0.128-0.030 0.19-0.046l-0.014-0.005c0.035-0.011 0.066-0.022 0.094-0.035l0.042-0.013c0.242-0.098 0.371-0.336 0.293-0.534-0.058-0.142-0.21-0.224-0.381-0.222l-0.010-0.006 0.043-0.008c-0.157 0.011-0.306 0.014-0.438 0.011h-0.093c-0.088-0.002-0.174-0.008-0.262-0.016-0.123-0.011-0.248-0.027-0.37-0.051-0.63-0.115-1.214-0.382-1.675-0.776-0.592 0.221-1.32 0.333-2.211 0.24 0 0 1.365-0.526 1.44-1.675 0 0 0.15-2.174 2.664-1.75 0 0 0.195-0.582 0.778-0.914 0.349-0.198 0.835-0.307 1.501-0.149 0 0 0.142 0.002 0.358-0.014 0.514-0.040 1.45-0.192 1.92-0.747 0 0 0.019 0.411-0.106 0.92-0.075 0.307-0.203 0.65-0.419 0.962-0.056 0.080-0.118 0.158-0.187 0.234 0.11 0.797-0.072 1.598-0.512 2.259l-0.022 0.045 0.005 0.005-0.022 0.030c-0.072 0.13-0.15 0.25-0.235 0.357l-0.056 0.040c-0.058 0.050-0.101 0.106-0.133 0.165l-0.008 0.014c-0.070 0.142-0.069 0.299 0.022 0.405 0.133 0.154 0.398 0.141 0.597-0.029l0.005-0.005 0.021-0.008c0.134-0.109 0.261-0.221 0.378-0.336 0.379-0.368 0.677-0.76 0.907-1.158 1.386-2.397 0.358-5.088 0.358-5.088l0.528-0.237c-1.122-2.016-3.274-3.384-5.746-3.384zM6.23 15.464l-0.282-0.715c-0.216-0.574-0.715-0.819-1.309-0.546-0.65 0.301-0.696 0.931-0.546 1.318l0.245 0.686-0.64 0.235-0.245-0.686c-0.349-0.894 0.094-1.901 0.989-2.25s1.901 0.094 2.25 0.989l0.274 0.686-0.736 0.282zM12.725 12.669l-0.282-0.715c-0.216-0.574-0.715-0.819-1.309-0.546-0.65 0.301-0.696 0.931-0.546 1.318l0.274 0.696-0.64 0.235-0.274-0.698c-0.349-0.894 0.094-1.901 0.989-2.25s1.901 0.094 2.25 0.989l0.274 0.686-0.736 0.283zM9.17 16.408c-0.058 0.104-0.126 0.219-0.21 0.339l0.19-0.090 1.24-0.59c-0.059-0.006-0.117-0.013-0.178-0.021-0.248-0.035-0.514-0.090-0.802-0.166 0-0.002-0.069 0.216-0.242 0.528z"></path>
<path fill="#4c4d4f" d="M14.739 11.765l-0.102 0.046-0.528 0.237s1.027 2.691-0.358 5.088c-0.23 0.398-0.528 0.789-0.907 1.158-0.117 0.114-0.245 0.226-0.378 0.336l-0.021 0.008-0.005 0.005c-0.197 0.17-0.464 0.182-0.597 0.029-0.091-0.106-0.093-0.262-0.022-0.405-0.432 0.438-0.963 0.654-1.459 0.754-0.098 0.019-0.195 0.035-0.288 0.045-0.056 0.006-0.112 0.011-0.166 0.016l-0.043 0.008 0.010 0.006c0.171-0.002 0.323 0.078 0.381 0.222 0.080 0.198-0.051 0.437-0.293 0.534l-0.042 0.013c-0.029 0.011-0.059 0.024-0.094 0.035l0.014 0.005c-0.062 0.016-0.125 0.032-0.19 0.046-1.349 0.31-3.232 0.394-4.818-0.83-0.493-0.381-0.958-0.888-1.37-1.554l-0.517 0.189 0.026 0.058 0.016 0.034c0.027 0.054 0.066 0.133 0.118 0.23l0.046 0.086c0.032 0.059 0.066 0.117 0.101 0.174 0.016 0.029 0.034 0.058 0.053 0.086 0.171 0.28 0.405 0.624 0.702 0.982 1.133 1.358 3.21 2.93 6.421 2.067 0.181-0.048 0.365-0.104 0.552-0.17 0.133-0.045 0.266-0.096 0.402-0.149 0.35-0.138 0.712-0.302 1.088-0.501 0 0 0.461-0.261 1.029-0.789 0.165-0.154 0.339-0.33 0.514-0.53 0.064-0.074 0.128-0.149 0.19-0.227l0.011-0.014c1.139-1.435 2.142-3.858 0.525-7.331zM7.069 18.245c0.942-0.35 1.538-0.978 1.893-1.498 0.082-0.12 0.152-0.235 0.21-0.339 0.171-0.31 0.242-0.53 0.242-0.53 0.286 0.077 0.552 0.131 0.802 0.166 0.061 0.008 0.12 0.014 0.178 0.021 1.214 0.133 1.957-0.219 2.411-0.717 0.069-0.075 0.131-0.154 0.187-0.234 0.216-0.312 0.344-0.654 0.419-0.962 0.125-0.51 0.106-0.92 0.106-0.92-0.47 0.557-1.406 0.707-1.92 0.747-0.216 0.018-0.358 0.014-0.358 0.014-0.666-0.158-1.152-0.050-1.501 0.149-0.581 0.333-0.776 0.915-0.776 0.915-2.514-0.424-2.664 1.75-2.664 1.75-0.075 1.149-1.44 1.675-1.44 1.675 0.891 0.093 1.621-0.019 2.213-0.24z"></path>
<path fill="#373737" d="M31.971 5.571c-0.018-2.371-1.966-4.291-4.347-4.272l-8.32 0.066c-0.099 0-0.197 0.006-0.293 0.013-2.235 0.17-3.998 2.053-3.979 4.334l0.030 4.368c-0.184-0.23-0.379-0.451-0.587-0.659-1.891-1.891-4.715-2.786-7.51-2.080-0.291 0.075-0.584 0.16-0.856 0.264-0.274 0.104-0.536 0.226-0.781 0.358-2.947 1.496-4.688 4.723-4.237 8.056 0.038 0.291 0.094 0.594 0.17 0.885 0.424 1.678 1.357 3.093 2.594 4.122-0.912 0.53-2.771 1.837-2.813 3.709-0.024 1.082 0.56 2.354 2.288 3.771l0.171-1.926 0.043-0.493 0.192-2.162c0.024-0.21 0.182-0.373 0.386-0.413 0.043-0.008 0.086-0.013 0.131-0.010 0.254 0.019 0.442 0.245 0.424 0.509l-0.23 2.544-0.494 5.466-0.837 0.008v0.002l13.478-0.122-0.027-0.149-1.19-6.419c0.205 0.070 0.411 0.134 0.616 0.187 3.184 0.829 6.334-0.155 8.366-2.44 0.766-0.056 1.502-0.413 2.018-1.053 0.992-1.237 0.778-3.056-0.48-4.064s-3.080-0.822-4.072 0.413c-0.542 0.677-0.722 1.53-0.568 2.326-1.192 1.168-2.874 1.413-4.274 1.043-0.779-0.205-1.506-0.8-2.123-1.622 1.382-1.602 2.104-3.734 1.88-5.933 0.264 0.206 0.552 0.384 0.864 0.525-0.245 1.261-0.555 1.91-0.555 1.92l-0.33 0.686 0.754-0.010c2.494-0.019 4.31-0.771 5.421-2.24l4.834-0.040c1.363-0.011 2.576-0.659 3.358-1.661 0.579-0.741 0.923-1.675 0.915-2.688l-0.029-5.12zM27.709 14.099l-5.318 0.046-0.141 0.206c-0.81 1.195-2.184 1.864-4.104 2.005 0.141-0.434 0.301-1.045 0.434-1.854l0.066-0.395-0.376-0.131c-1.346-0.461-2.259-1.731-2.269-3.154l-0.038-5.12c-0.019-1.854 1.486-3.379 3.341-3.398l8.312-0.064c1.854-0.019 3.379 1.486 3.398 3.341l0.024 3.347 0.013 1.773c0.019 1.854-1.488 3.379-3.341 3.398zM22.592 19c0.658-0.819 1.864-0.942 2.694-0.275s0.973 1.87 0.315 2.69c-0.066 0.082-0.136 0.154-0.211 0.221-0.406 0.365-0.942 0.528-1.469 0.474-0.358-0.037-0.712-0.174-1.014-0.418-0.25-0.2-0.435-0.45-0.558-0.722-0.232-0.515-0.23-1.115 0.026-1.629 0.061-0.12 0.133-0.234 0.218-0.341zM21.64 21.696c0.173 0.278 0.39 0.534 0.661 0.75 0.267 0.214 0.563 0.373 0.869 0.48-0.499 0.464-1.058 0.851-1.658 1.154l-1.059-1.646c0.418-0.186 0.818-0.429 1.187-0.738zM14.214 19.088l-0.011 0.014c-0.064 0.078-0.126 0.155-0.19 0.227-0.174 0.2-0.349 0.376-0.514 0.53-0.566 0.528-1.029 0.789-1.029 0.789-0.374 0.197-0.738 0.362-1.088 0.501-0.136 0.053-0.27 0.104-0.402 0.149-0.187 0.064-0.371 0.12-0.552 0.17-3.211 0.862-5.288-0.709-6.421-2.067-0.299-0.358-0.533-0.702-0.702-0.982l-0.053-0.086c-0.037-0.062-0.070-0.12-0.101-0.174l-0.046-0.086c-0.053-0.098-0.091-0.176-0.118-0.23l-0.016-0.034-0.026-0.058c-0.392-0.842-0.613-1.778-0.613-2.766 0-3.622 2.938-6.56 6.56-6.56 2.472 0 4.624 1.368 5.742 3.387l0.102-0.046c1.619 3.475 0.616 5.898-0.523 7.325z"></path>
<path fill="#000" d="M4.442 13.506c-0.894 0.349-1.336 1.355-0.989 2.25l0.245 0.686 0.64-0.235-0.243-0.686c-0.15-0.386-0.104-1.016 0.546-1.318 0.594-0.274 1.091-0.029 1.309 0.546l0.282 0.715 0.734-0.282-0.274-0.686c-0.347-0.894-1.355-1.336-2.25-0.989zM10.221 13.656l0.64-0.235-0.274-0.696c-0.15-0.386-0.104-1.016 0.546-1.318 0.594-0.274 1.091-0.029 1.309 0.546l0.282 0.715 0.734-0.282-0.274-0.686c-0.349-0.894-1.355-1.336-2.25-0.989-0.893 0.349-1.334 1.355-0.986 2.25l0.272 0.696zM10.39 16.066l-0.197 0.094-1.232 0.586c-0.355 0.52-0.95 1.147-1.893 1.498 0.459 0.394 1.045 0.662 1.675 0.776 0.122 0.024 0.245 0.040 0.37 0.051 0.086 0.008 0.174 0.014 0.262 0.016h0.093c0.134 0.003 0.282 0.002 0.438-0.011 0.054-0.005 0.11-0.010 0.166-0.016 0.094-0.011 0.19-0.026 0.288-0.045 0.496-0.099 1.026-0.315 1.459-0.754l0.008-0.014c0.032-0.059 0.075-0.117 0.133-0.165 0.018-0.016 0.037-0.027 0.056-0.040 0.085-0.107 0.163-0.227 0.235-0.357l0.040-0.080c0.44-0.661 0.621-1.462 0.512-2.259-0.456 0.501-1.2 0.853-2.414 0.72zM10.272 18.669c-0.288 0.069-0.613 0.099-0.979 0.075-0.131-0.010-0.267-0.026-0.408-0.050-0.016-0.331 0.086-0.613 0.275-0.845 0.218-0.267 0.549-0.469 0.947-0.611 0.040-0.014 0.080-0.029 0.122-0.042 0.704-0.214 1.296-0.114 1.779 0.237-0.256 0.389-0.802 1.011-1.736 1.235zM4.254 23.501c-0.045-0.003-0.090 0.002-0.131 0.010-0.203 0.040-0.363 0.203-0.386 0.413l-0.192 2.162-0.043 0.493-0.171 1.926-0.309 3.477v0.046l0.094-0.002 0.837-0.008 0.494-5.466 0.23-2.544c0.018-0.262-0.17-0.488-0.424-0.507z"></path>
</svg>
