<!-- Generated by IcoMoon.io -->
<svg version="1.1" xmlns="http://www.w3.org/2000/svg" width="32" height="32" viewBox="0 0 32 32">
<title>war-story</title>
<path fill="#ffce13" d="M23.764 2.105l-0.361 5.29 0.081 0.6c0.020 0.051 0.043 0.098 0.060 0.15 0.385-0.077 0.759-0.165 1.144-0.253h0.011c0.517-0.351 1.044-0.55 1.594-0.571 1.341-0.066 1.989 0.561 2.297 1.088 0.759 1.308 0.186 3.341-0.462 4.363-1.188 1.858-3.374 3.177-6.21 3.748-0.562 0.615-1.232 1.142-1.98 1.567 2.678 0.711 5.275 2.074 5.398 2.139 0.054 0.029 0.096 0.070 0.137 0.112l0.42-0.046c0.291-0.036 0.572 0.184 0.607 0.487 0.024 0.219-0.086 0.42-0.263 0.527l1.76 3.064c0.173 0.302 0.108 0.649-0.106 0.877l0.001 0.002c0.077 0.14 0.145 0.284 0.217 0.425 2.403-2.7 3.863-6.218 3.863-10.068-0.002-5.809-3.315-10.864-8.209-13.502zM9.354 16.389c-1.792-0.439-4.232-1.429-5.616-3.616-0.638-1-1.209-3-0.494-4.319 0.286-0.517 0.891-1.132 2.154-1.132h0.165c0.472 0.022 0.912 0.153 1.34 0.373 0.249 0.065 0.736 0.184 1.424 0.324l0.067-0.449c0.005-0.096 0.035-0.184 0.067-0.271l-0.020-0.102-0.532-4.87c-4.683 2.691-7.832 7.624-7.832 13.282 0 3.9 1.496 7.457 3.956 10.175l0.676-2.169c0.010-0.034 0.030-0.062 0.045-0.094-0.095-0.087-0.16-0.206-0.175-0.344-0.034-0.302 0.184-0.572 0.486-0.606l0.419-0.046c1.752-2.339 4.834-3.752 6.533-4.39-0.77-0.423-1.48-0.954-2.081-1.603l-0.581-0.143z"></path>
<path fill="#ababab" d="M17.907 21.167l2.112-1.915c-0.421-0.122-0.846-0.23-1.262-0.312-0.133-0.026-0.241-0.103-0.319-0.202-0.196 0.064-0.384 0.141-0.587 0.191-1.49 0.362-2.982 0.288-4.344-0.139-0.063 0.018-0.578 0.172-1.329 0.468l2.419 2.273 3.312-0.364z"></path>
<path fill="#e6d0ba" d="M11.043 21.918c-0.508-0.452-0.923-0.974-1.228-1.551-0.088 0.049-0.174 0.096-0.262 0.146l1.177 1.438 0.313-0.034zM12.332 21.776l-1.772-1.803c-0.244 0.122-0.493 0.253-0.745 0.392 0.303 0.577 0.719 1.099 1.228 1.551l1.29-0.14z"></path>
<path fill="#ababab" d="M13.325 16.003c0.432 0.324 0.944 0.534 1.557 0.495 0.242-0.011 0.406-0.11 0.45-0.483l0.008-0.095-1.030-0.33-0.985 0.412zM16.444 15.94c0.008 0.050 0.011 0.111 0.022 0.152 0.088 0.318 0.286 0.395 0.506 0.406 0.619 0.038 1.14-0.176 1.577-0.508l-0.972-0.412-1.132 0.361zM16.377 12.992h-0.11c-1.451-0.022-4.21-0.264-6.43-1.692-0.077-0.033-0.154-0.099-0.242-0.165h-0.033l-0.22-0.186c0.029 0.555 0.096 1.096 0.242 1.351 0.352 0.627 1.539 0.594 1.847 1.011 0.132 0.165 0.362 0.736 0.736 1.352 0.099 0.154 0.209 0.33 0.33 0.483l0.083 0.106c0.449-0.564 1.14-1.144 2.17-1.399 0.341-0.077 0.715 0.33 1.121 0.308h0.077c0.462 0.033 0.891-0.362 1.264-0.274 0.976 0.261 1.639 0.809 2.078 1.347l0.076-0.097c0.132-0.165 0.242-0.341 0.341-0.506 0.374-0.605 0.594-1.154 0.715-1.319 0.308-0.418 1.495-0.385 1.847-1.011 0.115-0.203 0.182-0.586 0.218-1.013-0.137 0.078-0.268 0.156-0.417 0.233-1.989 1.010-3.638 1.428-5.693 1.472z"></path>
<path fill="#635647" d="M22.719 11.156l-0.013 0.008c-0.067 0.041-0.147 0.081-0.219 0.123-0.036 0.427-0.103 0.81-0.218 1.013-0.352 0.627-1.539 0.594-1.847 1.011-0.121 0.165-0.341 0.715-0.715 1.319-0.099 0.165-0.209 0.341-0.341 0.506l-0.076 0.097c0.169 0.207 0.309 0.412 0.417 0.599 0.145 0.249 0.238 0.459 0.292 0.606l0.004 0.009c0.279-0.21 0.552-0.459 0.818-0.742 0.258-0.271 0.493-0.561 0.702-0.868l0.066-0.096c0.251-0.376 0.489-0.781 0.691-1.255 0 0 0.392-1.055 0.451-2.337l-0.012 0.006zM12.581 15.253l-0.083-0.106c-0.121-0.154-0.23-0.33-0.33-0.483-0.374-0.615-0.605-1.188-0.736-1.352-0.308-0.418-1.495-0.385-1.847-1.011-0.145-0.256-0.213-0.796-0.242-1.351 0 0-0.022-0.011-0.044-0.033-0.054-0.044-0.098-0.077-0.153-0.131l-0.001-0.001-0.042-0.035c-0.037 1.353 0.36 2.453 0.36 2.453 0.453 1.603 1.391 2.648 2.397 3.333l0.025-0.071c0.050-0.14 0.138-0.346 0.281-0.597 0.105-0.191 0.243-0.401 0.413-0.613zM19.367 16.337l-0.819-0.347c-0.437 0.332-0.957 0.546-1.577 0.508-0.22-0.011-0.418-0.088-0.506-0.406-0.010-0.041-0.014-0.102-0.022-0.152l-0.039 0.012c-0.198-0.176-0.423-0.439-0.489-0.648-0.055 0.22-0.367 0.443-0.565 0.619l-0.010-0.003-0.008 0.095c-0.044 0.374-0.209 0.473-0.45 0.483-0.613 0.038-1.126-0.172-1.557-0.495l-1.393 0.583c1.34 0.886 2.785 1.138 3.369 1.2v0.011s0.055 0 0.154 0.011c0.077 0.011 0.121 0.011 0.121 0.011v-0.011c0.186 0.011 0.439 0.011 0.703 0v0.011s0.099 0 0.286-0.022c0.044-0.011 0.088-0.011 0.132-0.011 0.11-0.011 0.23-0.033 0.374-0.055 0.433-0.080 1.014-0.25 1.639-0.533l0.094-0.043c0.164-0.077 0.323-0.16 0.479-0.249 0.064-0.036 0.127-0.079 0.191-0.118 0.132-0.080 0.263-0.149 0.394-0.243l-0.009-0.006-0.489-0.202z"></path>
<path fill="#373634" d="M14.595 21.529l-2.419-2.273c-0.468 0.184-1.023 0.423-1.616 0.717l1.772 1.803 2.263-0.247zM19.762 20.963c0.672-0.294 1.385-0.667 2.010-1.121-0.556-0.212-1.151-0.417-1.753-0.591l-2.112 1.915 1.855-0.203z"></path>
<path fill="#38322b" d="M20.004 16.447l-0.004-0.009c-0.055-0.147-0.147-0.357-0.292-0.606-0.107-0.186-0.246-0.392-0.417-0.599-0.44-0.537-1.103-1.084-2.078-1.347-0.374-0.088-0.803 0.308-1.264 0.274h-0.077c-0.406 0.022-0.78-0.385-1.121-0.308-1.029 0.256-1.719 0.835-2.17 1.399-0.169 0.213-0.308 0.422-0.413 0.612-0.144 0.252-0.231 0.458-0.281 0.597l-0.025 0.071c-0.012 0.039-0.021 0.072-0.023 0.090l0.094-0.039 2.38-0.994 1.040 0.332c0.198-0.176 0.509-0.399 0.565-0.619 0.066 0.209 0.291 0.472 0.489 0.648l0.039-0.012 1.131-0.36 1.792 0.759 0.693 0.286c-0.005-0.025-0.027-0.092-0.057-0.174z"></path>
<path fill="#a37c49" d="M22.557 9.425l-0.030 0.005-0.006 0.001-0.004 0.001c-1.955 0.33-3.998 0.483-6.085 0.483-2.843 0-5.301-0.285-7.082-0.592l-0.008-0.001h-0.003l-0.012-0.003-0.259-0.042 0.198 0.176 0.025 0.019 0.019 0.014 0.005 0.005 0.019 0.016c0.212 0.19 0.424 0.371 0.636 0.53h0.011l0.154 0.121c0.088 0.077 0.176 0.154 0.264 0.198 2.1 1.352 4.815 1.527 5.88 1.539l0.059 0.028 0.018-0.028c1.88-0.033 3.385-0.429 5.21-1.363 0.36-0.18 0.663-0.347 0.964-0.556l0.091-0.058 0.001-0.001 0.040-0.030c0.228-0.16 0.459-0.357 0.718-0.596-0.274 0.051-0.548 0.093-0.822 0.136zM9.493 6.692l12.86-0.077 0.037-0.553 0.304-4.472c-2.030-0.909-4.285-1.43-6.671-1.43-2.542 0-4.935 0.591-7.068 1.615l0.472 4.328 0.065 0.59z"></path>
<path fill="#373737" d="M28.589 8.409c-0.308-0.527-0.956-1.154-2.297-1.088-0.55 0.022-1.077 0.22-1.594 0.571h-0.011c-0.385 0.088-0.759 0.176-1.144 0.253-0.017-0.052-0.040-0.099-0.060-0.15l-0.081-0.6 0.361-5.29c-0.175-0.095-0.355-0.178-0.534-0.266-0.176-0.087-0.355-0.169-0.534-0.249l-0.304 4.472-0.037 0.553-12.86 0.077-0.065-0.59-0.473-4.327c-0.174 0.083-0.356 0.156-0.526 0.245-0.179 0.094-0.346 0.205-0.52 0.305l0.532 4.87c0.004 0.036 0.013 0.067 0.019 0.102-0.034 0.087-0.064 0.175-0.068 0.272l-0.067 0.449c-0.687-0.14-1.174-0.259-1.424-0.324-0.428-0.22-0.868-0.351-1.34-0.374h-0.166c-1.264 0-1.868 0.615-2.154 1.132-0.715 1.319-0.143 3.319 0.494 4.319 1.385 2.188 3.825 3.177 5.616 3.616l0.583 0.143c0.601 0.649 1.311 1.18 2.081 1.603-1.7 0.64-4.781 2.052-6.533 4.39l1.617-0.177c0.278-0.276 0.574-0.537 0.885-0.78 0.503-0.393 1.035-0.747 1.566-1.055 0.088-0.052 0.175-0.097 0.262-0.146 0.252-0.14 0.501-0.272 0.745-0.392 0.593-0.294 1.147-0.534 1.616-0.717 0.752-0.295 1.267-0.449 1.329-0.468 1.364 0.427 2.855 0.502 4.344 0.139 0.203-0.050 0.392-0.127 0.587-0.191 0.079 0.099 0.186 0.176 0.319 0.202 0.417 0.081 0.841 0.19 1.262 0.312 0.602 0.174 1.197 0.379 1.753 0.591l0.054 0.021 0.21 0.081c0.539 0.212 1.032 0.423 1.451 0.612l0.185-0.021 1.801-0.198c-0.040-0.042-0.082-0.083-0.137-0.112-0.123-0.065-2.72-1.429-5.398-2.139 0.747-0.425 1.418-0.952 1.98-1.567 2.836-0.571 5.023-1.891 6.21-3.748 0.649-1.021 1.22-3.054 0.463-4.362zM4.66 12.179c-0.561-0.879-0.879-2.407-0.45-3.198 0.209-0.375 0.594-0.561 1.187-0.561h0.111c0.281 0.019 0.54 0.091 0.814 0.216l-0.008 0.026 0.185 0.052c0.471 0.231 0.933 0.583 1.383 0.979v0.011c-0.088 0.506-0.121 1.033-0.099 1.572-0.044 0.506-0.033 1.033 0.033 1.55 0.033 0.286 0.099 0.571 0.176 0.912 0.099 0.406 0.231 0.813 0.406 1.209-1.351-0.494-2.824-1.34-3.737-2.768zM9.328 9.319l0.012 0.002h0.003l0.008 0.001c1.78 0.307 4.239 0.592 7.082 0.592 2.087 0 4.13-0.154 6.085-0.483l0.004-0.001 0.006-0.001 0.030-0.005c0.273-0.042 0.548-0.084 0.821-0.137-0.26 0.239-0.49 0.436-0.718 0.596l-0.040 0.030-0.001 0.001-0.091 0.058c-0.301 0.21-0.604 0.376-0.964 0.556-1.824 0.935-3.33 1.33-5.21 1.363l-0.018 0.028-0.059-0.028c-1.066-0.011-3.781-0.186-5.88-1.539-0.088-0.044-0.176-0.121-0.264-0.198l-0.154-0.121h-0.011c-0.212-0.159-0.424-0.34-0.636-0.53l-0.019-0.016-0.004-0.003-0.019-0.014-0.025-0.019-0.198-0.176 0.26 0.042zM22.28 13.486c-0.202 0.474-0.44 0.879-0.691 1.255l-0.066 0.096c-0.463 0.671-0.982 1.207-1.519 1.61 0.030 0.081 0.052 0.149 0.056 0.176l-0.193-0.080c-0.132 0.094-0.263 0.162-0.394 0.243-0.064 0.039-0.126 0.080-0.191 0.118-0.163 0.093-0.32 0.174-0.479 0.249l-0.094 0.043c-0.625 0.284-1.206 0.452-1.639 0.533-0.143 0.022-0.264 0.044-0.374 0.055-0.044 0-0.088 0-0.132 0.011-0.187 0.022-0.286 0.022-0.286 0.022v-0.011c-0.264 0.011-0.517 0.011-0.703 0v0.011s-0.044 0-0.121-0.011c-0.099-0.011-0.154-0.011-0.154-0.011v-0.011c-0.583-0.062-2.028-0.314-3.369-1.2l-0.094 0.039c0.003-0.018 0.011-0.050 0.023-0.090-1.007-0.685-1.944-1.73-2.397-3.333 0 0-0.399-1.1-0.36-2.453l0.042 0.035 0.001 0.001c0.054 0.054 0.098 0.087 0.153 0.131 0.022 0.022 0.044 0.033 0.044 0.033l0.219 0.186h0.033c0.088 0.066 0.165 0.132 0.242 0.165 2.22 1.429 4.979 1.671 6.43 1.692h0.11c2.056-0.044 3.704-0.462 5.694-1.473 0.148-0.078 0.28-0.156 0.417-0.233 0.071-0.041 0.152-0.081 0.219-0.123l0.013-0.008 0.012-0.007c-0.061 1.284-0.453 2.339-0.453 2.339zM27.204 12.179c-1.033 1.605-2.748 2.473-4.265 2.945 0.868-1.451 1.275-3.177 1.088-4.935 0.385-0.362 0.835-0.813 1.385-1.439l0.033-0.033c0.308-0.198 0.594-0.286 0.891-0.297 0.659-0.033 1.066 0.143 1.297 0.539 0.461 0.78 0.142 2.33-0.429 3.22z"></path>
<path fill="#e6d8ca" d="M7.821 28.837l-3.466 1.367v1.798h4.345v-2.69c-0.299-0.151-0.592-0.309-0.879-0.476zM7.821 28.837c0.288 0.167 0.581 0.325 0.879 0.476v-0.822l-0.879 0.347z"></path>
<path fill="#e6b07a" d="M18.112 31.665l-6.396-4.364-1.91 0.759h-0.009v3.943h8.428z"></path>
<path fill="#614626" d="M7.102 22.348l3.628-0.397-1.177-1.438c-0.531 0.308-1.063 0.662-1.566 1.055-0.311 0.244-0.607 0.504-0.885 0.78zM8.398 14.948c-0.176-0.396-0.308-0.803-0.406-1.209-0.077-0.341-0.143-0.627-0.176-0.912-0.066-0.517-0.077-1.044-0.033-1.55-0.022-0.539 0.011-1.066 0.099-1.572v-0.011c-0.451-0.397-0.912-0.747-1.384-0.979l-0.185-0.053 0.008-0.026c-0.272-0.125-0.533-0.198-0.813-0.216h-0.111c-0.594 0-0.979 0.187-1.188 0.561-0.429 0.791-0.11 2.319 0.45 3.198 0.913 1.428 2.386 2.275 3.739 2.769zM27.204 12.179c0.571-0.891 0.891-2.44 0.429-3.221-0.23-0.395-0.638-0.571-1.297-0.539-0.297 0.011-0.583 0.099-0.891 0.297l-0.033 0.033c-0.55 0.627-1 1.077-1.385 1.439 0.187 1.759-0.22 3.484-1.088 4.935 1.517-0.473 3.232-1.341 4.265-2.945zM27.994 24.371l-1.76-3.064c-0.067 0.040-0.14 0.070-0.223 0.079l-0.27 0.030 0.027 0.358 0.084 1.116 0.042 0.556-1.204 0.109-0.133-1.775-0.018-0.233-0.493 0.054 0.010 0.182 0.151 2.639-1.204 0.144-0.156-2.777-0.003-0.057-0.477 0.052 0.001 0.008 0.155 2.039-1.204 0.109-0.152-2.024-4.732 0.518 0.008 0.060 0.009 0.069 0.075 0.543 0.069 0.502 0.007 0.051 0.15 1.085 0.036 0.256-3.999 0.481-0.074-1.223-0.018-0.301-0.001-0.021v-0.002c-0.451 0.136-0.961 0.305-1.512 0.512-0.463 0.173-0.953 0.375-1.461 0.605-1.080 0.49-2.233 1.109-3.355 1.898l-0.321-0.539s1.918-1.509 5.151-2.614c0.461-0.157 0.951-0.305 1.464-0.441l-0.014-0.233-0.009-0.161-0.007-0.112-1.825 0.2c-1.413 0.577-3.329 1.388-4.963 2.176l-0.303 0.148-1.035 3.142-0.723 0.048 1.156-3.806s0.543-0.263 1.327-0.62c0.521-0.238 1.146-0.516 1.795-0.788l-2.877 0.315-0.061 0.003c-0.141 0-0.272-0.055-0.37-0.146-0.015 0.032-0.035 0.060-0.045 0.094l-0.678 2.168-1.093 3.504c-0.034 0.107-0.035 0.209-0.023 0.306l0.333-0.13 8.335-3.296c0.028-0.010 0.055-0.008 0.083-0.010 0.026-0.006 0.050-0.020 0.078-0.021l5.401-0.345c0.88-0.108 1.792-0.208 2.689-0.298 0.187-0.019 0.375-0.037 0.552-0.056 0.187-0.019 0.365-0.037 0.543-0.047 2.486-0.232 4.75-0.398 5.915-0.479 0.524-0.036 0.828-0.055 0.828-0.055 0.075 0.13 0.149 0.261 0.214 0.392 0.214-0.23 0.28-0.576 0.106-0.878zM13.409 22.9l0.034 0.267 0.209-0.049c0.098-0.021 0.199-0.040 0.299-0.060l-0.039-0.257-0.014-0.091-0.505 0.055 0.013 0.102 0.004 0.032zM13.546 23.995l0.066 0.523 2.024-0.288-0.058-0.542-0.005-0.040-0.054-0.512-0.058-0.543-0.006-0.051-0.696 0.076 0.008 0.048 0.083 0.53 0.065 0.408 0.023 0.146 0.022 0.141-0.867 0.096-0.016-0.105-0.047-0.306c-0.152 0.036-0.322 0.077-0.52 0.128l0.036 0.291z"></path>
<path fill="#543d21" d="M26.878 25.531l0.149-0.034 0.507-0.116 0.028 0.074v0.001c0.042 0.099 0.124 0.297 0.228 0.568 0.426 1.108 1.258 3.496 1.588 5.978h0.89c-0.378-1.776-1.051-4.159-2.161-6.327-0.073-0.141-0.141-0.286-0.217-0.425l-0.001-0.002c-0.066-0.13-0.14-0.261-0.214-0.392 0 0-0.303 0.019-0.828 0.055-1.166 0.080-3.428 0.246-5.915 0.479-0.178 0.009-0.356 0.028-0.543 0.047-0.178 0.019-0.365 0.037-0.552 0.056-0.896 0.091-1.808 0.19-2.689 0.298l3.968-0.254c0.281-0.016 0.485 0.155 0.553 0.392 0.011 0.040 0.028 0.078 0.031 0.121 0.020 0.303-0.211 0.564-0.513 0.583l-1.816 0.116c0.141 0.133 0.299 0.301 0.466 0.5 0.176 0.21 0.361 0.46 0.552 0.755 0.085 0.132 0.17 0.262 0.257 0.413 0 0-0.095-0.065-0.257-0.17-0.139-0.090-0.33-0.211-0.552-0.347-0.532-0.324-1.259-0.737-1.98-1.055l-0.344 0.023c0.346 0.337 0.773 0.841 1.205 1.598 0 0-1.314-0.898-2.644-1.506l-2.662 0.171 5.469 3.718c0.103 0.066 0.178 0.169 0.215 0.281l0.3 0.871h0.487l-0.047-0.103-1.283-2.828 1.086-0.524 0.197 0.431 0.661 1.457 0.435 0.959 0.103 0.225-0.103 0.056-0.543 0.29-0.075 0.037h1.367l-0.721-1.583 1.086-0.524 0.006 0.012 0.959 2.095h1.723c-0.158-0.863-0.421-1.896-0.803-2.998-0.227-0.656-0.485-1.33-0.818-2.022 0.080 0.095 0.639 0.76 1.283 1.751 0.572 0.881 1.212 2.017 1.648 3.268h2.332c-0.161-1.548-0.524-3.524-1.314-5.259-0.176-0.386-0.365-0.764-0.587-1.118l0.387-0.090 0.015-0.004zM23.554 29.222l0.567 1.242-1.069 0.571-1.421-3.118 1.087-0.526 0.836 1.831z"></path>
<path fill="#966f4b" d="M20.497 30.434l-0.109-0.24-0.553-1.217-0.197-0.431-1.086 0.524 0.748 1.65 0.582 1.281h0.431l0.075-0.037 0.543-0.29 0.103-0.056-0.103-0.225zM22.046 29.895l-0.14 0.068-0.947 0.457 0.721 1.583h1.33l-0.959-2.094zM23.554 29.222l-0.835-1.83-1.087 0.526 0.822 1.807 0.597 1.311 1.069-0.571z"></path>
<path fill="#9c734d" d="M27.265 26.558c-0.066 0.064-0.135 0.123-0.202 0.184 0.79 1.736 1.154 3.712 1.314 5.259h1.002c-0.331-2.482-1.162-4.87-1.588-5.978-0.171 0.182-0.346 0.36-0.525 0.534zM27.562 25.456c-0.058 0.019-0.119 0.034-0.184 0.040l-0.345 0.026c0.095 0.34 0.176 0.684 0.231 1.037 0.18-0.173 0.354-0.352 0.525-0.533-0.105-0.272-0.187-0.47-0.229-0.57zM26.862 25.534l-0.387 0.090c0.221 0.354 0.411 0.732 0.587 1.118 0.067-0.062 0.137-0.122 0.202-0.184-0.055-0.353-0.137-0.697-0.231-1.037l-0.171 0.013zM27.027 25.497l0.007 0.024 0.345-0.026c0.065-0.006 0.125-0.021 0.184-0.040l-0.028-0.074-0.507 0.116zM26.878 25.531l-0.016 0.004 0.171-0.013-0.007-0.024-0.149 0.034z"></path>
<path fill="#73532d" d="M22.035 19.944l-0.21-0.081-0.054-0.021c-0.625 0.455-1.337 0.827-2.010 1.121l3.723-0.407c-0.417-0.188-0.909-0.4-1.449-0.612zM12.664 23.355c-0.513 0.136-1.003 0.284-1.464 0.441-3.233 1.105-5.151 2.614-5.151 2.614l0.321 0.539c1.122-0.789 2.275-1.408 3.355-1.897 0.508-0.23 0.998-0.432 1.461-0.605 0.552-0.207 1.061-0.376 1.512-0.512l-0.016-0.258-0.019-0.321zM14.009 23.44l-0.015-0.096-0.044-0.285c-0.1 0.020-0.2 0.039-0.299 0.060-0.071 0.015-0.139 0.033-0.209 0.049l0.014 0.112 0.021 0.164 0.033 0.262c0.199-0.052 0.368-0.093 0.52-0.128l-0.013-0.087-0.008-0.052zM8.062 23.35c-0.649 0.273-1.274 0.552-1.795 0.788-0.783 0.357-1.327 0.62-1.327 0.62l-0.456 1.5-0.699 2.306 0.722-0.048 0.012-0.036 1.023-3.105c0.1-0.050 0.2-0.098 0.303-0.148 1.633-0.789 3.55-1.6 4.963-2.176l-2.746 0.3z"></path>
<path fill="#b8916c" d="M16.605 23.658l-0.007-0.050-0.070-0.503-0.075-0.543-0.009-0.068-0.008-0.061-0.981 0.108 0.006 0.051 0.057 0.542 0.055 0.512 0.004 0.040 0.058 0.542-2.024 0.289-0.066-0.523-0.036-0.289-0.033-0.263-0.021-0.163-0.014-0.112-0.034-0.267-0.004-0.032-0.013-0.102-0.079 0.008-0.681 0.075 0.008 0.112 0.009 0.161 0.014 0.233 0.020 0.321 0.016 0.258v0.001l0.001 0.021 0.019 0.3 0.074 1.224 3.998-0.482-0.036-0.255zM13.95 23.058l0.044 0.285 0.015 0.096 0.008 0.051 0.013 0.087 0.047 0.306 0.017 0.104 0.867-0.096-0.023-0.141-0.023-0.146-0.065-0.409-0.083-0.53-0.008-0.048-0.862 0.095 0.014 0.091zM25.853 22.889l-0.084-1.116-0.027-0.358-1.201 0.131 0.018 0.233 0.132 1.775 1.204-0.109zM22.369 21.784l-0.072 0.008-1.128 0.124 0.152 2.024 1.204-0.11-0.156-2.039zM24.049 21.6l-1.203 0.131 0.003 0.057 0.156 2.777 1.204-0.144-0.151-2.639z"></path>
<path fill="#402e19" d="M23.113 26.982c0.332 0.692 0.591 1.365 0.818 2.022 0.381 1.101 0.644 2.135 0.803 2.998h1.311c-0.436-1.251-1.076-2.387-1.648-3.268-0.644-0.991-1.203-1.657-1.283-1.751zM21.115 25.539l-0.184 0.012-9.185 0.586c-0.028 0.002-0.052 0.015-0.078 0.021-0.028 0.002-0.055 0-0.083 0.010l-1.779 0.702-0.562 0.225-6.602 2.612c-0.29 0.122-0.431 0.44-0.309 0.712 0.112 0.29 0.431 0.431 0.702 0.309l0.215-0.084v1.358h1.105v-1.798l4.345-1.714v3.512h1.096v-3.943h0.009l1.91-0.759 6.396 4.364 0.112 0.337h1.171l-0.3-0.871c-0.037-0.112-0.112-0.215-0.215-0.281l-0.064-0.043-5.406-3.676 2.663-0.17c1.331 0.607 2.644 1.506 2.644 1.506-0.433-0.757-0.86-1.26-1.205-1.598l0.343-0.022c0.721 0.316 1.448 0.73 1.98 1.055 0.223 0.136 0.414 0.257 0.552 0.347 0.163 0.106 0.257 0.17 0.257 0.17-0.086-0.151-0.171-0.281-0.257-0.413-0.191-0.295-0.376-0.545-0.552-0.755-0.168-0.2-0.326-0.367-0.466-0.5l1.816-0.116c0.303-0.020 0.533-0.281 0.513-0.583-0.003-0.044-0.020-0.081-0.031-0.121-0.066-0.237-0.27-0.407-0.551-0.392zM25.892 20.293l-20.826 2.28c-0.302 0.034-0.52 0.304-0.486 0.606 0.015 0.138 0.080 0.257 0.175 0.344 0.098 0.091 0.228 0.146 0.37 0.146l0.061-0.003 20.826-2.283c0.082-0.009 0.156-0.038 0.223-0.079 0.177-0.108 0.288-0.308 0.263-0.527-0.034-0.301-0.315-0.521-0.606-0.485z"></path>
</svg>
