<svg xmlns="http://www.w3.org/2000/svg" width="32" height="32" viewBox="0 0 32 32"><path fill="#fcb017" d="M21.478.922v3.707c.317.4.482.838.47 1.291-.018.8-.544 1.501-1.413 2.018l4.157 10.394a2.717 2.717 0 0 1 1.728-1.054c1.475-.251 2.872.725 3.12 2.181a2.647 2.647 0 0 1-.501 2.04c.04.333.058.666.054.997a15.025 15.025 0 0 0 2.003-7.52A15.05 15.05 0 0 0 21.477.923zm3.802 5.892a.686.686 0 1 1 0 1.372.686.686 0 0 1 0-1.372zm-1.685 4.565l-.216-1.874-1.789-.235 1.789-.245.216-1.874.226 1.874 1.789.245-1.789.235-.226 1.874zm3.661 2.739l-.32 2.664-.32-2.664-2.531-.339 2.531-.339.32-2.664.32 2.664 2.541.339-2.541.339zm-16.17-8.387c.006-.427.166-.834.461-1.205V.94a.198.198 0 0 1 .056-.038.761.761 0 0 1-.056-.291C5.467 2.541 1.053 8.235 1.053 14.973c0 1.381.186 2.717.533 3.987a2.702 2.702 0 0 1 2.982-1.682 2.718 2.718 0 0 1 1.997 1.498l.133-.259c-.154-1.16.253-2.542 2.016-3.952l.024-.046c-.566-.678-1.05-.219-1.294-.536-.245-.31.358-1.214.358-1.214.094-.131.235-.235.395-.245.47-.027.922.221 1.293.522l2.75-5.384a3.622 3.622 0 0 1-.494-.422c-.442-.453-.667-.979-.659-1.507zM7.595 8.509a.686.686 0 1 1 0 1.372.686.686 0 0 1 0-1.372zm-3.944 5.947a.686.686 0 1 1 0-1.372.686.686 0 0 1 0 1.372zm2.495-2.57l-.434 3.586-.432-3.586-3.406-.451 3.406-.451.434-3.595.434 3.595 3.406.451-3.408.451z"/><path fill="#e6e7e8" d="M4.608 22.546a2.729 2.729 0 0 1-.933.005 2.728 2.728 0 0 1-.86-.303 6.618 6.618 0 0 0 .222 1.846l1.79-.274a4.543 4.543 0 0 1-.214-1.203c-.005-.026-.005-.05-.005-.072zm-.189-4.375c-.979-.166-1.906.48-2.069 1.443a1.763 1.763 0 0 0 .565 1.605 1.816 1.816 0 0 0 2.389.037 1.736 1.736 0 0 0 .609-1.193 1.782 1.782 0 0 0-1.493-1.891zm21.957 4.37a4.66 4.66 0 0 1-.218 1.277l1.789.274c.16-.598.235-1.219.222-1.845a2.742 2.742 0 0 1-.854.299c-.32.056-.637.05-.939-.005zm2.264-2.93c-.163-.963-1.09-1.61-2.069-1.443a1.799 1.799 0 0 0-1.432 1.278 1.727 1.727 0 0 0 .064 1.137 1.764 1.764 0 0 0 1.105 1.011 1.803 1.803 0 0 0 1.76-.374 1.768 1.768 0 0 0 .572-1.609zm-8.33 2.103l-2.315-.15a1.783 1.783 0 0 1-.781-.216 1.984 1.984 0 0 1-1.064-1.882l.005-.061-.43-.038-.006.09a1.985 1.985 0 0 1-2.099 1.845l-2.315-.15a1.966 1.966 0 0 1-1.599-1.011 6.087 6.087 0 0 0 2.618 5.368c.261.181.538.344.826.483a6.081 6.081 0 0 0 1.92.557c.238.029.48.045.725.045l.094-.003a6.047 6.047 0 0 0 2.813-.735l.006-.003a6.103 6.103 0 0 0 3.154-4.741c-.038.04-.077.078-.12.117a1.999 1.999 0 0 1-1.43.486zm-2.867 2.408l-.01.006-.032.021h-.002a2.45 2.45 0 0 1-.984.384c-.166.024-.331.03-.49.022a2.945 2.945 0 0 1-.72-.133 3.98 3.98 0 0 1-.822-.371c-.163-.093-.32-.2-.466-.317l-.067-.058c-.576-.483-.992-1.118-1.118-1.824l6.221.282a3.015 3.015 0 0 1-1.51 1.987zm-3.504-7.736c1.062.066 1.909 1.043 1.845 2.096l.43.038.002-.026a1.973 1.973 0 0 1 2.099-1.845l2.334.152a6.086 6.086 0 0 0-4.858-2.411 6.079 6.079 0 0 0-4.366 1.843 1.85 1.85 0 0 1 .197.002l2.317.15z"/><path fill="#b1b3b3" d="M17.402 24.15zm-3.341-.31l.056.037-.054-.04-.002.003zm2.534-.71a2.139 2.139 0 0 0-.67-.24c-.598-.114-1.138-.048-1.491.275a1.152 1.152 0 0 0-.261.355c.459.354.901.541 1.307.621l.029.005a2.719 2.719 0 0 0 1.752-.277l.022-.013a1.79 1.79 0 0 0-.27-.4 1.713 1.713 0 0 0-.418-.326z"/><path d="M20.65 16.802l-.019-.002-2.315-.15a1.973 1.973 0 0 0-2.099 1.845l-.002.026-.43-.038c.064-1.053-.782-2.029-1.845-2.096l-2.315-.15a1.979 1.979 0 0 0-1.415.476l-.016.013a1.963 1.963 0 0 0-.618 1.035 2.113 2.113 0 0 0-.051.32l-.066.97a1.983 1.983 0 0 0 1.064 1.881c.245.122.509.198.781.216l2.315.15a1.979 1.979 0 0 0 2.099-1.845l.006-.09.43.038-.005.061a1.98 1.98 0 0 0 1.064 1.882c.245.131.509.206.781.216l2.315.15a1.979 1.979 0 0 0 2.099-1.847l.066-.97c.066-1.043-.771-2.016-1.826-2.093zm-6.175 3.339a1.066 1.066 0 0 1-.79.274l-2.315-.15a1.106 1.106 0 0 1-1.026-1.158l.066-.97a1.097 1.097 0 0 1 1.156-1.028l2.315.15a1.105 1.105 0 0 1 1.028 1.157l-.066.97a1.112 1.112 0 0 1-.368.755zm7.125-1.29l-.066.97c-.019.291-.15.555-.366.754s-.499.291-.79.274l-2.315-.15c-.594-.046-1.064-.584-1.026-1.166l.066-.97a1.095 1.095 0 0 1 1.158-1.026l2.315.15a1.093 1.093 0 0 1 .924.642 1.3 1.3 0 0 1 .074.206c.021.102.032.21.027.317z"/><path fill="#373737" d="M29.539 19.458c-.248-1.456-1.645-2.432-3.12-2.181a2.722 2.722 0 0 0-1.728 1.054 2.642 2.642 0 0 0 .784 3.88c.074 1.547-.797 2.862-1.918 3.616-.686.454-1.661.576-2.723.445l-.07-.421A7.296 7.296 0 0 0 22.9 22.23a7.157 7.157 0 0 0-.104-3.869 7.334 7.334 0 0 0-3.04-4.026c-2.93-6.402-8.118-2.362-9.779-.824a4.652 4.652 0 0 0-.486-.466c-.371-.301-.822-.549-1.293-.522-.16.01-.301.114-.395.245 0 0-.602.904-.358 1.214.245.315.728-.142 1.294.536l.014.016-.037.029c-1.763 1.408-2.17 2.792-2.016 3.952.237 1.787 1.808 3.045 1.808 3.045l.021-.146a7.343 7.343 0 0 0 2.482 4.61l-.026.098c-1.373.317-2.688.272-3.549-.299-1.122-.752-1.992-2.067-1.918-3.614a2.65 2.65 0 0 0 1.277-1.842 2.626 2.626 0 0 0-.227-1.592 2.718 2.718 0 0 0-1.997-1.498 2.7 2.7 0 0 0-3.12 2.181 2.649 2.649 0 0 0 .502 2.043c-.338 2.824.92 5.621 3.469 7.325.358.235.744.451 1.139.63a9.29 9.29 0 0 0 3.323.819l-.434 1.637h12.33l-.28-1.669a9.253 9.253 0 0 0 2.933-.787 8.453 8.453 0 0 0 1.139-.63c2.25-1.504 3.493-3.859 3.522-6.334a7.767 7.767 0 0 0-.054-.997 2.633 2.633 0 0 0 .501-2.038zM4.01 23.944l-.083.013-.891.136a6.61 6.61 0 0 1-.222-1.846 2.792 2.792 0 0 0 .86.303c.318.054.634.048.933-.005l.002.07c.019.419.094.821.214 1.203l-.813.126zm1.294-2.69a1.808 1.808 0 0 1-2.389-.037 1.763 1.763 0 0 1-.565-1.605c.163-.963 1.09-1.61 2.069-1.443a1.785 1.785 0 0 1 1.475 2.046 1.75 1.75 0 0 1-.591 1.038zm13.643 4.456a4.679 4.679 0 0 1-.24.138l-.006.003a6.153 6.153 0 0 1-1.68.613 6.209 6.209 0 0 1-1.133.122l-.094.003a6.142 6.142 0 0 1-2.645-.602 6.006 6.006 0 0 1-.826-.483 6.094 6.094 0 0 1-2.618-5.368 2.005 2.005 0 0 1-.246-1.086l.066-.97c.008-.109.026-.216.051-.32.093-.4.304-.76.618-1.035l.016-.013a1.964 1.964 0 0 1 1.218-.478 6.093 6.093 0 0 1 9.224.568c1.054.077 1.891 1.05 1.826 2.096l-.066.97c-.034.47-.226.904-.549 1.24a6.105 6.105 0 0 1-2.915 4.603zm9.002-1.617l-1.789-.274c.128-.403.205-.832.218-1.277v-.002a2.714 2.714 0 0 0 1.793-.293 6.611 6.611 0 0 1-.222 1.845zm.12-2.872a1.803 1.803 0 0 1-1.76.374 1.764 1.764 0 0 1-1.212-1.382 1.726 1.726 0 0 1 .043-.766 1.796 1.796 0 0 1 1.432-1.278c.979-.166 1.906.48 2.069 1.443a1.762 1.762 0 0 1-.572 1.609zm-14.216 2.457l.067.058c.147.117.302.222.466.317.213.128.496.27.822.371.222.069.466.12.72.133a2.546 2.546 0 0 0 .663-.054 2.45 2.45 0 0 0 .811-.352l.002-.002.032-.021.01-.006a3.026 3.026 0 0 0 1.512-1.986l-6.221-.282c.125.706.541 1.341 1.117 1.824zm.581-.513c.354-.323.891-.389 1.491-.275.259.048.478.131.67.24a1.66 1.66 0 0 1 .684.726l-.022.013c-.362.189-.99.418-1.752.277l-.029-.005c-.406-.08-.848-.267-1.307-.621.072-.144.16-.261.264-.355zm-.372.672l.054.04-.056-.037.002-.003zm-.584-4.826l-.075.715.725.085.085-.686a1.612 1.612 0 0 0-3.202-.378l-.094.678.621.085.094-.678c.038-.376.349-.875 1.016-.838.603.03.896.453.83 1.018zm5.863-1.137a1.61 1.61 0 0 0-1.789 1.411l-.085.686.621.085.085-.686c.038-.376.349-.875 1.016-.838.602.029.894.451.829 1.016l-.075.715.725.085.085-.686a1.606 1.606 0 0 0-1.411-1.787z"/><path fill="#808184" d="M21.44.904a14.925 14.925 0 0 0-5.365-.989c-1.261 0-2.485.16-3.661.451-.291.075-.584.15-.866.245a.77.77 0 0 0 .056.291c-.019.01-.038.019-.056.038v3.586c.154-.192.339-.376.565-.546l.141-.094c.989-.686 2.494-1.074 4.15-1.074h.17c1.459.029 2.851.366 3.83.941h.066l.114.094c.37.234.67.498.894.779V.92a.087.087 0 0 0-.038-.018z"/><path fill="#ffce13" d="M18.814 5.949c-.301-.17-1.11-.405-2.344-.405s-2.042.226-2.344.405c.301.17 1.11.405 2.344.405 1.224 0 2.043-.235 2.344-.405zm1.327-1.253h-.01l-.114-.075c-.846-.526-2.118-.846-3.474-.866h-.16c-1.506 0-2.89.366-3.709.97l-.114.094c-.366.31-.536.621-.546.931-.01.282.122.565.395.838.309.322.766.597 1.317.813.774.304 1.733.488 2.739.504h.198c1.523 0 2.754-.363 3.51-.859.52-.341.816-.744.827-1.136.003-.414-.298-.846-.862-1.214zm-7.05 1.253c0-.998 1.816-1.346 3.37-1.346s3.37.349 3.37 1.346-1.806 1.346-3.37 1.346c-1.552 0-3.37-.349-3.37-1.346z"/><path fill="#6d6e70" d="M21.478 4.629a3.508 3.508 0 0 0-.894-.779l-.114-.094h-.066c-.979-.574-2.371-.914-3.83-.941h-.17c-1.656 0-3.162.386-4.15 1.074l-.141.094c-.226.17-.411.354-.565.546-.294.371-.454.778-.461 1.205-.01.526.216 1.054.659 1.506.142.15.31.291.494.422.994.714 2.546 1.155 4.221 1.187h.206c1.555 0 2.917-.342 3.867-.909.867-.517 1.394-1.219 1.413-2.018.011-.454-.154-.893-.47-1.293zM16.47 7.906c-1.006-.016-1.966-.202-2.739-.504-.55-.216-1.008-.493-1.317-.813-.274-.274-.405-.555-.395-.838.01-.31.179-.621.546-.931l.114-.094c.819-.602 2.202-.97 3.709-.97h.16c1.355.019 2.626.339 3.474.866l.114.075h.01c.565.366.866.8.866 1.214-.011.39-.307.795-.827 1.136-.757.496-1.989.859-3.51.859h-.202z"/><path fill="#ffe99e" d="M25.477 22.211a2.652 2.652 0 0 1-1.28-1.845 2.65 2.65 0 0 1 .496-2.035L20.536 7.937c-.95.566-2.312.909-3.867.909h-.206c-1.675-.032-3.227-.474-4.221-1.187l-2.75 5.39c.186.15.349.315.486.466 1.659-1.538 6.848-5.579 9.779.824a7.334 7.334 0 0 1 3.04 4.026 7.175 7.175 0 0 1 .104 3.869 7.314 7.314 0 0 1-2.136 3.621l.07.421c1.062.13 2.038.01 2.723-.445 1.122-.757 1.99-2.074 1.918-3.619zm-16.949-.793l-.021.146s-1.571-1.256-1.808-3.045l-.133.259c.23.48.322 1.029.227 1.592a2.648 2.648 0 0 1-1.277 1.842c-.072 1.546.797 2.861 1.918 3.614.861.571 2.176.616 3.549.299l.026-.098a7.357 7.357 0 0 1-2.482-4.61zm.211-6.896l-.024.046.037-.029-.013-.018zm7.722-7.228c1.562 0 3.37-.349 3.37-1.346s-1.816-1.346-3.37-1.346-3.37.349-3.37 1.346 1.818 1.346 3.37 1.346zm.009-1.75c1.234 0 2.042.235 2.344.405-.301.17-1.12.405-2.344.405-1.234 0-2.042-.235-2.344-.405.302-.179 1.112-.405 2.344-.405z"/><path fill="#fff" d="M14.315 17.384a1.113 1.113 0 0 0-.434-.122l-2.315-.15a1.054 1.054 0 0 0-.79.274 1.085 1.085 0 0 0-.366.754l-.066.97a1.106 1.106 0 0 0 1.026 1.158l2.315.15c.291.019.574-.075.79-.274s.349-.461.366-.754l.066-.97a1.101 1.101 0 0 0-.592-1.037zm-.104 1.741l-.085.686-.725-.085.075-.715c.066-.565-.226-.989-.829-1.016-.669-.038-.979.461-1.016.838l-.094.678-.621-.085.094-.678a1.61 1.61 0 0 1 1.789-1.411 1.606 1.606 0 0 1 1.411 1.787zm7.285-.799a1.08 1.08 0 0 0-.49-.52 1.113 1.113 0 0 0-.434-.122l-2.315-.15a1.095 1.095 0 0 0-1.158 1.026l-.066.97c-.038.584.434 1.12 1.026 1.166l2.315.15c.291.019.574-.075.79-.274s.349-.461.366-.754l.066-.97a1.165 1.165 0 0 0-.1-.523zm-.742 1.335l-.085.686-.725-.085.075-.715c.066-.565-.226-.989-.829-1.016-.669-.038-.979.461-1.016.838l-.085.686-.621-.085.085-.686a1.61 1.61 0 0 1 1.789-1.411 1.609 1.609 0 0 1 1.411 1.787zM5.714 7.389l-.434 3.595-3.406.451 3.406.451.434 3.587.432-3.587 3.408-.451-3.408-.451zm21.542 6.051l-.32-2.664-.32 2.664-2.531.339 2.531.339.32 2.662.32-2.662 2.542-.339zm-3.435-4.414l-.226-1.872-.216 1.872-1.789.245 1.789.235.216 1.874.226-1.874 1.789-.235z"/><path fill="#fff" d="M8.282 9.195a.686.686 0 1 1-1.372 0 .686.686 0 0 1 1.372 0zm17.684-1.694a.686.686 0 1 1-1.372 0 .686.686 0 0 1 1.372 0zM4.338 13.77a.686.686 0 1 1-1.372 0 .686.686 0 0 1 1.372 0z"/></svg>