<svg xmlns="http://www.w3.org/2000/svg" width="32" height="32" viewBox="0 0 32 32"><path fill="#bbd758" d="M16.827 31.941h-1.965c.635.218 1.33.218 1.965 0zm1.936-10.538zM29.586 7.086L17.287.427a3.036 3.036 0 0 0-2.882 0L2.104 7.086C1.219 7.571.667 8.465.667 9.425v13.317c0 .97.542 1.854 1.437 2.339l2.581 1.397c-1.637-2.09-2.6-4.637-2.6-7.381 0-3.794 1.84-7.21 4.758-9.563a2.376 2.376 0 0 1 2.376-2.326h1.749a15.28 15.28 0 0 1 2.542-.694 2.377 2.377 0 0 1 4.744.22v.475h4.28a2.38 2.38 0 0 1 2.378 2.378v16.232c1.768-1.795 2.845-4.146 2.845-6.72 0-.094-.029-1.085.533-1.664.504-.523 1.437-.523 1.912.01.523.59.429 1.589.419 1.702 0 2.336-.707 4.533-1.939 6.424l.902-.488c.894-.475 1.446-1.37 1.437-2.339V9.427c0-.97-.542-1.854-1.435-2.339zM6.842 24.734V13.507c-1.29 1.563-1.912 3.389-1.912 5.592 0 2.082.706 4.019 1.912 5.635zm14.79-1.801zm-.053-.792z"/><path fill="#dbdbdb" d="M29.49 18.082c-.077-.086-.352-.142-.514.019-.219.229-.275.762-.266.979 0 3.154-1.458 6.002-3.795 8.034v1.083c.598-.45 1.154-.946 1.656-1.482 1.934-2.064 3.101-4.72 3.101-7.614.027-.277.018-.81-.182-1.019zM3.037 19.099c0 3.23 1.453 6.163 3.805 8.309v-1.189c-1.787-1.931-2.862-4.414-2.862-7.12 0-2.682.827-4.861 2.539-6.667a5.28 5.28 0 0 1 .323-.4V10.79c-2.352 2.146-3.805 5.078-3.805 8.309z"/><path fill="#a6a8ab" d="M10.171 22.933a5.736 5.736 0 0 1 5.736-5.736c1.256 0 2.416.41 3.349 1.094l2.096-2.52H7.792v13.792c0 .619.394 1.144.944 1.341l3.203-3.853a5.659 5.659 0 0 1-1.768-4.118zm11.453.142a5.687 5.687 0 0 1-4.642 5.469l-2.078 2.446h7.634a1.425 1.425 0 0 0 1.427-1.427v-9.23l-2.341 2.742z"/><path fill="#009435" d="M22.536 8.16h-4.28v1.427c0 .101-.008.198-.021.296a2.854 2.854 0 1 1-5.211 1.606c0-.597.184-1.149.496-1.606a2.23 2.23 0 0 1-.021-.296V8.16h-4.28a1.419 1.419 0 0 0-.955.369 1.417 1.417 0 0 0-.47 1.059v5.232h16.171V9.588a1.429 1.429 0 0 0-1.429-1.429z"/><path fill="#e6e7e8" d="M17.28 6.472a1.426 1.426 0 1 0-2.83.262v2.854c0 .789.637 1.427 1.427 1.427s1.427-.637 1.427-1.427V6.734c0-.09-.01-.178-.026-.262z"/><path fill="#4b4e49" d="M17.99 19.49a.64.64 0 0 1 .142.133l1.123-1.331a5.645 5.645 0 0 0-3.349-1.094 5.736 5.736 0 0 0-5.736 5.736 5.65 5.65 0 0 0 1.77 4.118l1.398-1.664c-.762-.952-.923-2.312-.275-3.424.181-.304.437-.581.494-.637.038-.038.21.077.152.162-.275.989-.142 1.674.19 2.331.029.01.152.067.171.019.067-2.035 1.131-3.301 2.397-4.166.712-.221 1.312-.296 1.522-.182zm-1.009 9.056a5.688 5.688 0 0 0 4.642-5.469l-4.642 5.469z"/><path fill="#a4cc40" d="M17.99 19.49c-.21-.114-.808-.038-1.522.181-1.266.866-2.331 2.131-2.397 4.166-.019.048-.142-.01-.171-.019-.333-.656-.466-1.341-.19-2.331.058-.086-.114-.2-.152-.162a3.747 3.747 0 0 0-.494.637c-.646 1.114-.485 2.474.275 3.424l4.794-5.765a.73.73 0 0 0-.142-.131z"/><path fill="#5b5e58" d="M16.754 28.592c.077-.01.152-.029.229-.048l4.642-5.469.008-.058.002-.058v-.029a5.72 5.72 0 0 0-.646-2.648 5.699 5.699 0 0 0-1.731-1.992l-1.123 1.331c.227.298.477.974.63 1.781a9.778 9.778 0 0 1 .131.973 7.615 7.615 0 0 1 .019.804 5.734 5.734 0 0 1-.08.777c-.023.124-.05.246-.083.365-.034.118-.07.232-.115.342-.043.11-.094.214-.149.314a3.094 3.094 0 0 1-4.214 1.198 3.02 3.02 0 0 1-.933-.789l-1.398 1.664a5.653 5.653 0 0 0 4.812 1.541zm.227-.046zm-.227.046c.077-.01.152-.029.229-.048-.077.019-.154.038-.229.048z"/><path fill="#b4db53" d="M18.894 22.376a8.602 8.602 0 0 0-.131-.973c-.155-.806-.403-1.483-.63-1.781l-4.794 5.765c.248.314.562.59.933.789a3.096 3.096 0 0 0 4.214-1.198c.056-.099.106-.205.149-.314a3.61 3.61 0 0 0 .198-.707 5.24 5.24 0 0 0 .08-.777 6.727 6.727 0 0 0-.019-.804z"/><path fill="#b5b7ba" d="M15.907 28.659a5.644 5.644 0 0 1-3.966-1.608l-3.203 3.853c.15.054.314.085.483.085h5.683l.056-.066 2.022-2.381c-.077.019-.152.038-.229.048-.277.05-.562.069-.846.069zm5.445-12.889l-2.096 2.52a5.717 5.717 0 0 1 2.006 2.605 5.72 5.72 0 0 1 .371 2.035v.029l-.002.058-.008.058 2.339-2.742v-4.562h-2.611z"/><path fill="#373737" d="M30.203 17.445c-.475-.533-1.408-.533-1.912-.01-.562.581-.533 1.57-.533 1.664 0 2.574-1.075 4.926-2.845 6.72V9.587a2.38 2.38 0 0 0-2.378-2.378h-4.28v-.475a2.377 2.377 0 1 0-4.744-.22c-.88.16-1.73.395-2.542.694h-1.75a2.377 2.377 0 0 0-2.376 2.326c-2.918 2.354-4.758 5.77-4.758 9.563 0 2.744.963 5.291 2.6 7.381.626.798 1.349 1.53 2.155 2.181v.902a2.38 2.38 0 0 0 2.378 2.378h13.317a2.38 2.38 0 0 0 2.378-2.378v-.192a13.493 13.493 0 0 0 3.768-3.8c1.232-1.891 1.939-4.088 1.939-6.424.011-.114.107-1.114-.416-1.702zm-5.288 10.752v-1.083c2.338-2.03 3.795-4.88 3.795-8.034-.01-.219.048-.752.266-.979.162-.162.437-.104.514-.019.2.21.21.742.181 1.018 0 2.894-1.166 5.55-3.101 7.614a12.644 12.644 0 0 1-1.654 1.483zm-.952 1.366a1.424 1.424 0 0 1-1.427 1.427H9.219a1.425 1.425 0 0 1-1.427-1.426V15.772h16.171v13.79zM6.842 10.79v1.242a5.28 5.28 0 0 0-.323.4C4.807 14.24 3.98 16.418 3.98 19.099c0 2.706 1.077 5.189 2.862 7.12v1.189c-2.352-2.146-3.805-5.078-3.805-8.309s1.453-6.163 3.805-8.309zm1.422-2.26a1.443 1.443 0 0 1 .955-.369h4.28v1.427c0 .101.008.198.021.296a2.854 2.854 0 1 0 4.716 0 2.23 2.23 0 0 0 .021-.296V8.161h4.28c.789 0 1.427.637 1.427 1.427v5.232H7.791V9.588a1.422 1.422 0 0 1 .472-1.057zm6.187-1.796c0-.128.018-.25.05-.368a1.423 1.423 0 0 1 1.378-1.059 1.423 1.423 0 0 1 1.428 1.426v2.854c0 .789-.637 1.427-1.427 1.427s-1.427-.637-1.427-1.427V6.734zm-7.609 18C5.636 23.118 4.93 21.18 4.93 19.099c0-2.203.622-4.029 1.912-5.592v11.227z"/></svg>