<svg xmlns="http://www.w3.org/2000/svg" width="32" height="32" viewBox="0 0 32 32"><path fill="#64c9d7" d="M21.864 1.205v3.73c.306.395.467.827.461 1.277-.018.795-.544 1.494-1.411 2.01l1.194 2.982a7.583 7.583 0 0 1 1.818.045l-.168-1.461-1.789-.245 1.789-.235.216-1.874.226 1.874 1.789.235-1.789.245-.178 1.474c1.248.182 2.4.589 3.094.872.229-.565.658-1.342 1.338-1.546.15-.046.32 0 .451.094 0 0 .875.64.754 1.016-.128.39-.739.114-1.038.97 1.49.494 2.366 1.198 2.851 1.965a15.045 15.045 0 0 0-9.606-13.427zm-10.4 4.809c.006-.427.166-.838.461-1.21V1.223a.198.198 0 0 1 .056-.038.765.765 0 0 1-.056-.288C5.85 2.828 1.44 8.521 1.44 15.255c0 3.331 1.082 6.419 2.909 8.914l.763-1.496 3.982-10.845-2.573.341-.434 3.586-.434-3.586-3.406-.451 3.406-.451.434-3.595.434 3.595 2.65.352.512-1.397 1.498.55 1.44-2.824a3.479 3.479 0 0 1-.501-.427c-.44-.453-.666-.981-.656-1.507zM7.115 27.05l.11.045a9.981 9.981 0 0 1-.57-.429c.15.13.304.259.459.384z"/><path fill="#addfe6" d="M7.226 27.094c1.43 1 3.15 1.672 4.91 2.074a7.242 7.242 0 0 1-.499-.661 31.156 31.156 0 0 1-4.411-1.413zm3.369-.875a2.657 2.657 0 0 1-1.258-1.961l-4.235-1.557.01-.027-.763 1.496a15.29 15.29 0 0 0 2.309 2.496c.184.149.374.291.57.429a31.199 31.199 0 0 0 4.411 1.413 7.486 7.486 0 0 1-1.043-2.288zm4.72-15.949c1.475-.251 2.872.725 3.12 2.181.058.334.045.666-.021.979l.373.138c.678-1.584 1.946-2.216 3.32-2.365l-1.194-2.982c-.952.565-2.314.909-3.869.909h-.206c-1.672-.032-3.221-.472-4.214-1.182l-1.44 2.824 2.227.819a2.717 2.717 0 0 1 1.904-1.32zm2.533 15.796l-.426 1.163-3.008-1.106c.606 1.138 1.731 1.848 2.877 2.094.632.133 1.352.01 2.085-.294l.302-1.81-1.83-.048z"/><path fill="#3cbfd1" d="M20.536 4.979h-.01l-.114-.075c-.846-.526-2.118-.846-3.474-.866h-.15c-1.506 0-2.89.366-3.709.97l-.141.094c-.366.32-.536.621-.536.931-.01.282.122.565.395.838.31.323.771.6 1.325.816.773.302 1.73.485 2.731.501h.198c1.515 0 2.746-.36 3.504-.853.526-.342.827-.749.834-1.142.011-.414-.299-.838-.854-1.214zM13.469 6.23c0-.998 1.816-1.346 3.37-1.346s3.37.349 3.37 1.346-1.806 1.346-3.37 1.346c-1.554 0-3.37-.347-3.37-1.346zm5.721 0c-.301-.17-1.11-.405-2.344-.405s-2.051.226-2.344.405c.301.17 1.11.405 2.344.405s2.043-.235 2.344-.405z"/><path fill="#6d6e70" d="M21.864 4.934l-.01-.011a3.527 3.527 0 0 0-.904-.792l-.114-.094h-.056c-.979-.574-2.371-.914-3.83-.941h-.17c-1.656 0-3.162.386-4.15 1.074l-.141.094a2.934 2.934 0 0 0-.555.53l-.01.011c-.294.371-.454.781-.461 1.21-.01.526.216 1.054.658 1.506.144.152.314.294.501.427.994.71 2.542 1.15 4.214 1.182h.206c1.555 0 2.917-.342 3.869-.909.867-.515 1.394-1.214 1.411-2.01.006-.448-.154-.882-.459-1.277zm-5.008 3.255c-1.003-.016-1.96-.2-2.731-.501-.554-.216-1.014-.494-1.325-.816-.274-.274-.405-.555-.395-.838 0-.31.17-.611.536-.931l.141-.094c.819-.602 2.202-.97 3.709-.97h.15c1.355.019 2.626.339 3.474.866l.114.075h.01c.555.376.866.8.856 1.214-.008.394-.307.8-.834 1.142-.758.493-1.989.853-3.504.853h-.2z"/><path fill="#9cdde6" d="M16.838 4.885c-1.554 0-3.37.349-3.37 1.346s1.816 1.346 3.37 1.346c1.562 0 3.37-.349 3.37-1.346s-1.818-1.346-3.37-1.346zm.008 1.75c-1.234 0-2.042-.235-2.344-.405.291-.179 1.11-.405 2.344-.405s2.042.235 2.344.405c-.301.17-1.11.405-2.344.405z"/><path fill="#fff" d="M9.094 11.829l.077-.211-2.65-.352-.432-3.595-.434 3.595-3.406.453 3.406.451.434 3.586.432-3.586zm14.877-4.394l-.216 1.874-1.789.235 1.789.245.168 1.461.096.013.178-1.474 1.789-.245-1.789-.235-.226-1.874z"/><path fill="#fff" d="M8.658 9.478a.686.686 0 1 1-1.372 0 .686.686 0 0 1 1.372 0zm17.684-1.694a.686.686 0 1 1-1.372 0 .686.686 0 0 1 1.372 0zM4.715 14.051a.686.686 0 1 1-1.372 0 .686.686 0 0 1 1.372 0zM11 17.59l.579-.019a44.272 44.272 0 0 1-.333-.968L11 17.59zm-.656 2.626a.512.512 0 0 1-.173.256 16.311 16.311 0 0 1 2.421-.341l-.026-.046a46.294 46.294 0 0 1-.642-1.582l-1.162.04-.419 1.674zm7.717-5.91a2.719 2.719 0 0 1-1.85 1.235c-1.475.251-2.874-.725-3.12-2.181a2.625 2.625 0 0 1 .002-.88l-2.843-1.045-3.934 10.71 3.094 1.138a2.719 2.719 0 0 1 2.062-1.954c1.464-.312 2.901.606 3.208 2.05.131.618.034 1.23-.234 1.754l.547.202 1.675-4.288a.485.485 0 0 1-.47.205 15.355 15.355 0 0 0-7.096.48.48.48 0 0 1-.592-.311.478.478 0 0 1 .31-.594c.318-.099.64-.187.963-.267l-.022-.006a.469.469 0 0 1-.339-.574l.402-1.6a.46.46 0 0 1-.101-.272.475.475 0 0 1 .283-.45l.734-2.92a.483.483 0 0 1 .451-.358c.226.019.405.131.461.339a42.517 42.517 0 0 0 1.779 4.989.47.47 0 0 1-.011.39c.982-.014 1.966.058 2.938.222a.47.47 0 0 1 .387.53l.885-2.264.037-.139a7.48 7.48 0 0 1 .411-1.043c.016-.069.072-.277.197-.571-.019-.923.061-1.707.219-2.368l-.434-.158zm-1.392 4.104a.473.473 0 0 1-.461.358c-.038 0-.075 0-.114-.01-.267-.067-.608-.13-.963-.19l-.118 1.122a.477.477 0 0 1-.47.414h-.046a.467.467 0 0 1-.414-.518l.125-1.176a16.106 16.106 0 0 1-.981-.189c-.254-.056-.405-.31-.349-.565s.31-.405.565-.349c.242.061.542.117.862.173l.117-1.104a.466.466 0 0 1 .518-.414.467.467 0 0 1 .414.518l-.122 1.157c.405.069.789.136 1.091.208.251.056.402.31.346.565z"/><path fill="#808184" d="M21.816 1.186a14.925 14.925 0 0 0-5.365-.989c-1.261 0-2.485.16-3.661.451-.291.077-.584.152-.866.246v.003c0 .102.019.195.056.288-.019.01-.038.019-.056.038v3.581l.01-.011c.152-.189.334-.366.555-.53l.141-.094c.989-.686 2.494-1.074 4.15-1.074h.17c1.459.029 2.851.366 3.83.941h.056l.114.094c.374.237.678.504.904.792V1.204a.072.072 0 0 0-.038-.019zM9.685 10.221l-.512 1.397-.077.211-3.992 10.872 4.235 1.557a2.66 2.66 0 0 1 .074-.974l-3.094-1.138L8.721 15.6l1.53-4.165 2.843 1.045a2.677 2.677 0 0 1 .318-.89l-3.726-1.37zm8.59 3.667a2.71 2.71 0 0 1-.214.419l.432.158a5.564 5.564 0 0 1 .294-.897l-.373-.138c-.032.158-.078.31-.139.458zm-2.827 12.117l-.709-.018.083-.213.171-.438-.547-.202a2.95 2.95 0 0 1-.256.406l-.018.026c.067.195.149.381.242.557l3.008 1.106.426-1.163-2.4-.061z"/><path fill="#231f20" d="M31.469 14.634c-.486-.765-1.362-1.47-2.851-1.965.299-.856.912-.579 1.038-.97.122-.376-.754-1.016-.754-1.016-.131-.094-.301-.141-.451-.094-.68.203-1.109.981-1.338 1.546-.694-.283-1.846-.69-3.094-.872l-.096-.013a7.58 7.58 0 0 0-1.818-.045c-1.374.147-2.642.781-3.32 2.365a5.17 5.17 0 0 0-.166.446 6.36 6.36 0 0 0-.128.451c-.16.661-.238 1.445-.219 2.368a5.616 5.616 0 0 1 1.796-2.285c.15-.114.31-.224.483-.33.634-.387 1.422-.709 2.403-.891.254-.046.518-.086.798-.114.01 0 5.266-.536 7.024 3.312a7.387 7.387 0 0 1 .872 1.815c.339-.912.651-2.398-.181-3.709z"/><path fill="#b1b3b3" d="M23.069 24.235zm3.341-.31v-.003l-.054.04.054-.037zm-.112-.322c-.301-.626-.976-.776-1.752-.629-.426.08-.755.248-1.005.485l1.757.686a3.328 3.328 0 0 0 1-.542zm-1 .541l-1.757-.686a1.66 1.66 0 0 0-.352.483 2.69 2.69 0 0 0 2.109.203z"/><path fill="#e6e7e8" d="M12.586 26.558a2.725 2.725 0 0 1-.92.035c.219.59.52 1.141.891 1.64l1.563-.918a4.583 4.583 0 0 1-.672-1.104c-.261.16-.549.28-.862.347zm-.189-.883a1.836 1.836 0 0 0 .765-.364c.04-.034.08-.067.117-.104a1.753 1.753 0 0 0 .509-1.637c-.203-.955-1.155-1.563-2.126-1.357a1.797 1.797 0 0 0-1.39 1.386 1.701 1.701 0 0 0-.03.49c.006.077.014.154.032.23.018.083.043.163.072.242l.029.077c.19.451.56.792 1.008.96.312.12.662.154 1.016.078zm18.345-5.739a6.048 6.048 0 0 0-.965-2.702h-6.824l-.47-1.741-1.074 1.741-.334.019-1.573.094a6.065 6.065 0 0 0-.887 3.909c.034.304.09.6.166.888a6.127 6.127 0 0 0 3.844 4.177 6.073 6.073 0 0 0 2.56.332 6.15 6.15 0 0 0 .925-.149l.032-.008.035-.008a6.1 6.1 0 0 0 4.563-6.552zm-9.462-1.32c-.602.029-.894.451-.829 1.016l.075.715-.725.085-.085-.686c-.005-.04-.006-.082-.008-.122a1.607 1.607 0 0 1 1.419-1.667 1.61 1.61 0 0 1 1.789 1.411l.085.686-.621.085-.085-.686a.929.929 0 0 0-1.016-.837zm5.71 4.79c-.134.149-.28.288-.44.414a3.82 3.82 0 0 1-.466.317 4.143 4.143 0 0 1-.339.182c-.453.216-1.062.4-1.715.296a2.352 2.352 0 0 1-.96-.38h-.002l-.042-.029a3.037 3.037 0 0 1-1.512-1.985l6.221-.282a3.007 3.007 0 0 1-.746 1.466zm1.941-3.811l-.094-.678c-.038-.376-.349-.875-1.016-.838-.602.029-.894.451-.829 1.016l.075.715-.725.085-.085-.686c-.104-.885.526-1.685 1.411-1.789s1.685.526 1.789 1.411l.094.678-.621.086zm-13.465-8.433a1.803 1.803 0 0 0-1.403 1.176 1.769 1.769 0 0 0-.074.871c.163.963 1.09 1.61 2.069 1.443a1.801 1.801 0 0 0 1.489-1.538 1.695 1.695 0 0 0-.011-.507c-.163-.965-1.09-1.611-2.069-1.445z"/><path fill="#a6ce42" d="M13.224 18.221c.275.066.618.126.981.189l-.125 1.176c-.029.254.15.49.414.518h.046a.476.476 0 0 0 .47-.414l.118-1.122c.357.061.696.123.963.19.038.01.075.01.114.01a.468.468 0 0 0 .112-.923 18.729 18.729 0 0 0-1.091-.208l.122-1.157a.466.466 0 0 0-.414-.518.464.464 0 0 0-.518.414l-.117 1.104c-.32-.054-.621-.112-.862-.173a.468.468 0 0 0-.565.349.473.473 0 0 0 .352.565zm3.134 2.099a16.254 16.254 0 0 0-2.938-.222.466.466 0 0 0 .011-.39 42.452 42.452 0 0 1-1.779-4.989c-.056-.206-.235-.32-.461-.339a.482.482 0 0 0-.451.358l-.734 2.92a.474.474 0 0 0-.283.45.46.46 0 0 0 .101.272l-.402 1.6a.468.468 0 0 0 .339.574l.022.006c-.323.078-.645.168-.963.267a.477.477 0 0 0-.31.594c.066.198.254.33.451.33.046 0 .094-.01.141-.019a15.356 15.356 0 0 1 7.096-.48.49.49 0 0 0 .47-.205.441.441 0 0 0 .075-.181l.002-.016a.471.471 0 0 0-.387-.53zm-5.112-3.718c.106.323.218.646.333.968l-.579.019.246-.987zm-1.076 3.87a.502.502 0 0 0 .173-.256l.419-1.675 1.162-.04c.203.533.418 1.061.642 1.582l.026.046c-.814.054-1.624.168-2.421.342z"/><path fill="#373737" d="M31.989 20.81a7.386 7.386 0 0 0-.45-2.786 7.04 7.04 0 0 0-.76-1.498c-1.758-3.848-7.016-3.312-7.024-3.312-.28.027-.546.066-.798.114-.979.182-1.77.504-2.403.891a5.827 5.827 0 0 0-.897.674 5.643 5.643 0 0 0-1.382 1.941 3.718 3.718 0 0 0-.197.571 7.312 7.312 0 0 0-.411 1.043c-.014.046-.024.093-.037.139l-.885 2.264-.002.016a.503.503 0 0 1-.075.181l-1.93 4.939 4.939.125-.302 1.81c-.733.306-1.453.427-2.085.294-1.146-.246-2.269-.955-2.877-2.094a4.036 4.036 0 0 1-.242-.557l.018-.026a2.643 2.643 0 0 0 .49-2.16c-.307-1.443-1.744-2.362-3.208-2.05a2.713 2.713 0 0 0-2.144 2.424 2.658 2.658 0 0 0 .048.755 2.643 2.643 0 0 0 1.218 1.71 7.627 7.627 0 0 0 1.541 2.949c1.08 1.27 2.594 2.195 4.392 2.578.424.094.856.15 1.29.17.294.014.592.013.89-.002l-.014.086h12.33l-1.501-5.666 2.48.056c.002 0 .272-2.859-.01-5.581zm-20.61 4.788a1.774 1.774 0 0 1-1.008-.96l-.029-.077a1.736 1.736 0 0 1-.072-.242 1.842 1.842 0 0 1-.002-.72 1.802 1.802 0 0 1 1.39-1.386c.971-.206 1.923.4 2.126 1.357a1.756 1.756 0 0 1-.509 1.637c-.037.037-.077.07-.117.104a1.865 1.865 0 0 1-.765.364c-.352.074-.702.04-1.016-.078zm1.178 2.637a6.61 6.61 0 0 1-.891-1.64 2.711 2.711 0 0 0 1.781-.381c.176.408.405.776.672 1.104l-1.562.917zm14.289-1.96a5.687 5.687 0 0 1-.667.211l-.035.008-.032.008a6.28 6.28 0 0 1-1.435.171 6.09 6.09 0 0 1-5.654-3.816 5.898 5.898 0 0 1-.406-1.603 6.07 6.07 0 0 1 .887-3.909l1.907-.114 1.074-1.741.47 1.741h6.824a6.072 6.072 0 0 1 .999 3.34 6.1 6.1 0 0 1-3.93 5.702zm-5.331-4.054a3.031 3.031 0 0 0 1.512 1.985l.042.029.002.002a2.36 2.36 0 0 0 .96.38c.653.104 1.264-.08 1.715-.296.126-.061.24-.123.339-.182.163-.093.32-.2.466-.317.158-.128.306-.267.44-.414.381-.422.648-.925.746-1.467l-6.221.282zm3.783 1.923a2.695 2.695 0 0 1-2.109-.203 1.76 1.76 0 0 1 .352-.483c.25-.237.579-.405 1.005-.485.774-.147 1.451.005 1.752.629a3.24 3.24 0 0 1-1 .542zm1.056-.182l.054-.04v.003l-.054.037zm1.316-6.541a1.61 1.61 0 0 0-1.411 1.789l.085.686.725-.085-.075-.715c-.066-.565.226-.989.829-1.016.669-.038.979.461 1.016.838l.094.678.621-.085-.094-.678a1.612 1.612 0 0 0-1.789-1.413zm-5.374 2.033l.085.686.621-.085-.085-.686a1.61 1.61 0 0 0-3.208.256c.002.04.003.08.008.122l.085.686.114-.013.611-.072-.075-.715c-.066-.565.226-.989.829-1.016.669-.038.979.461 1.016.837zm-6.085-3.913a2.721 2.721 0 0 0 2.064-1.654 2.64 2.64 0 0 0 .16-1.435c-.248-1.456-1.645-2.432-3.12-2.181a2.719 2.719 0 0 0-2.104 1.754 2.677 2.677 0 0 0-.12 1.336c.246 1.456 1.645 2.432 3.12 2.181zm-2.24-2.738c.01-.16.042-.317.093-.466a1.797 1.797 0 0 1 1.403-1.176c.979-.166 1.906.48 2.069 1.443.029.173.03.342.011.507-.019.16-.062.315-.125.461a1.799 1.799 0 0 1-1.364 1.077c-.979.166-1.906-.48-2.069-1.443a1.825 1.825 0 0 1-.019-.403z"/></svg>