<svg xmlns="http://www.w3.org/2000/svg" width="32" height="32" viewBox="0 0 32 32"><path fill="#20a0db" d="M16.038.235c-1.112 0-2.197.118-3.238.341a8.83 8.83 0 0 1 1.002 1.203c.56-.096 1.152-.149 1.779-.149 6.218 0 9.365 3.624 9.365 10.779v1.499l1.621-.218.318-2.65.315 2.65 2.528.338-2.528.338-.318 2.65-.318-2.65-1.621-.218c-.002 2.157-.006 5.03-.013 7.845l.862.862c.464-.181 1.026-.082 1.379.266.254.254.378.589.371.922 2.17-2.514 3.478-5.755 3.478-9.293C31.02 6.734 24.316.235 16.038.235zm8.896 6.555a.469.469 0 1 1 0-.938.469.469 0 0 1 0 .938zm2.528 2.229l-.216 1.779-.206-1.779-1.694-.224 1.694-.224.206-1.779.216 1.779 1.686.224-1.686.224zm1.218 8.072a.469.469 0 1 1 0-.938.469.469 0 0 1 0 .938zM7.472 4.274c.122-.131.259-.25.418-.349l.403-.253c.165-.101.341-.173.522-.221.179-.498.507-1.25 1.024-1.92A15.044 15.044 0 0 0 6.18 3.819c.418.091.858.235 1.293.454zm-4.39 3.179a14.118 14.118 0 0 0-2.026 7.166l2.086-.272.262-2.2.262 2.2 2.088.272-2.088.282-.262 2.192-.262-2.192-2.086-.282-.002.131c0 3.296 1.136 6.334 3.046 8.771a1.28 1.28 0 0 1 .278-.418c.374-.366.939-.442 1.392-.259l.438-.438c.005-4.192.005-8.461.005-9.997 0-.389.018-.778.048-1.166l-.123-.08c-1.032-.674-2.472-2.032-3.058-3.71zm2.185 5.893a.469.469 0 1 1 0-.938.469.469 0 0 1 0 .938zm-1.16 5.928l-.216 1.77-.206-1.77-1.694-.224 1.694-.224.206-1.779.216 1.779 1.694.224-1.694.224z"/><path fill="#b3b3b3" d="M13.405 29.042a15.162 15.162 0 0 1-3.637-1.106 1.34 1.34 0 0 1-.23.328l-.054.053a15.444 15.444 0 0 0 4.517 1.288 3.118 3.118 0 0 1-.596-.563zm8.469-.924l-.218.088a15.227 15.227 0 0 1-3.594.923 3.045 3.045 0 0 1-.606.539 15.642 15.642 0 0 0 4.807-1.202 1.306 1.306 0 0 1-.261-.197 1.269 1.269 0 0 1-.128-.152zM15.579 1.63c-.627 0-1.219.051-1.779.149a8.09 8.09 0 0 1 .521.858c.397-.05.811-.078 1.248-.078 4.822 0 7.534 2.328 8.24 7.091l.938.101-.84.712c.059.611.09 1.256.09 1.939 0 1.976-.003 5.331-.011 8.717.13.09.254.189.368.302l.576.576c.006-2.814.011-5.69.013-7.845v-1.739c.002-7.158-3.146-10.782-9.363-10.782zm-9.046 9.589l-.206.066-.064-.042c-.03.387-.048.776-.048 1.166 0 1.536 0 5.805-.005 9.997l.928-.928c.003-3.877.003-7.648.003-9.078 0-.494.027-.997.083-1.501a3.013 3.013 0 0 1-.494.251c-.066.024-.13.048-.197.069z"/><path fill="#c4c4c4" d="M21.656 19.606l-.222-.144a3.629 3.629 0 0 1-.557 1.531c.243-.139.506-.242.778-.304a3.068 3.068 0 0 1 1.318-.01 8.742 8.742 0 0 0-1.317-1.074zm0 7.989a1.134 1.134 0 0 1 0-.422c.018-.101.045-.2.086-.293l-1.426-1.426a2.806 2.806 0 0 1-.834-2.022c0-.486.122-.957.35-1.373a5.497 5.497 0 0 1-1.034.565v2.018c.498.189.853.669.853 1.234 0 .558-.354 1.042-.853 1.232v.05a2.999 2.999 0 0 1-.737 1.972 15.24 15.24 0 0 0 3.594-.923l.218-.088a1.255 1.255 0 0 1-.2-.438c-.006-.026-.013-.054-.018-.083zM9.918 19.968a10.126 10.126 0 0 0-.743.643 2.913 2.913 0 0 1 1.311.284 4.36 4.36 0 0 1-.568-.926zm2.823 7.19v-.05a1.32 1.32 0 0 1-.853-1.234c0-.355.141-.693.394-.936.126-.133.285-.232.459-.298v-2.066a6 6 0 0 1-1.056-.57c.253.43.389.92.382 1.435 0 .758-.29 1.48-.834 2.013l-1.426 1.426a1.279 1.279 0 0 1-.039 1.056c1.141.51 2.36.886 3.637 1.106a2.928 2.928 0 0 1-.349-.549 2.984 2.984 0 0 1-.317-1.334z"/><path fill="#aaabb0" d="M21.029 18.73a.453.453 0 0 0-.459.258.453.453 0 0 0-.046.174c-.098 1.315-.92 2.069-1.834 2.501.019.072.04.146.054.219.037.19.058.387.058.586v.157c.36-.15.71-.338 1.034-.565.128-.232.29-.45.483-.64a2.66 2.66 0 0 1 .562-.424c.28-.429.477-.936.557-1.531.01-.075.019-.149.026-.227a.47.47 0 0 0-.434-.507zm-10.274.796a.437.437 0 0 0-.056-.102.472.472 0 0 0-.544-.187.475.475 0 0 0-.29.6c.005.014.022.062.053.133.078.182.253.528.568.928a2.688 2.688 0 0 1 1.197 1.109c.304.206.654.4 1.056.57v-.109c0-.128.011-.253.026-.376a2.96 2.96 0 0 1 .102-.49c-1.621-.779-2.086-1.998-2.112-2.075z"/><path fill="#d1d2d4" d="M19.453 18.528a9.661 9.661 0 0 0-.541-.163c-.082-.022-.165-.045-.248-.066a7.133 7.133 0 0 1-5.842.15c-.186.058-.37.118-.55.187a9.064 9.064 0 0 0-1.573.787.507.507 0 0 1 .056.102c.026.077.491 1.296 2.114 2.074a3.03 3.03 0 0 1 2.896-2.158c.814 0 1.573.318 2.144.89.378.371.642.829.779 1.33.914-.432 1.736-1.186 1.834-2.501a.509.509 0 0 1 .046-.174l-.082-.042a9.412 9.412 0 0 0-1.034-.416zm-5.007-.79c2.99.581 5.899-1.186 6.76-3.994l-.027-.014-.453-.237c.022.358-.44.731-1.074.856-.504.099-.971.01-1.2-.203l-.982.512.43-1.957.197-.899-1.202-1.021h-2.248l-.078.069-.386.334-.758.666.206.946.421 1.976-1.27-.675c-.205.25-.704.362-1.248.254-.486-.096-.872-.338-1.014-.606l-.155.083-.31.165a5.842 5.842 0 0 0 4.392 3.746zm4.213-2.941a2.891 2.891 0 0 1-1.563 2.061 3.043 3.043 0 0 1-1.264.309 2.946 2.946 0 0 1-.923-.128h-.003a3.349 3.349 0 0 1-1.011-.499c-.608-.43-1.058-1.04-1.227-1.723l5.992-.019z"/><path fill="#aaaaab" d="M16.029 15.63c-.838-.163-1.55.037-1.779.824 1.416.682 2.56.269 3.029.03-.203-.522-.546-.709-1.25-.854zm-4.711-2.313l-.8.422c.142.269.528.51 1.014.606.544.107 1.043-.005 1.248-.254l-.509-.27-.954-.504zm8.896-.093l-1.762.922c.229.213.694.302 1.2.203.634-.125 1.096-.496 1.074-.856l-.512-.269z"/><path fill="#e8e8e8" d="M9.482 15.51v4.821c.142-.125.286-.246.437-.363a2.877 2.877 0 0 1-.053-.133.474.474 0 0 1 .29-.6.472.472 0 0 1 .544.187 9.208 9.208 0 0 1 1.573-.787c.181-.069.363-.13.55-.187a6.963 6.963 0 0 1-3.341-2.938zm9.184 2.789a10.893 10.893 0 0 1 .789.229 9.06 9.06 0 0 1 1.035.418l.082.042a.455.455 0 0 1 .459-.258c.262.019.45.243.43.506-.006.077-.016.152-.026.227.075.046.149.094.222.144v-4.03a7.012 7.012 0 0 1-2.992 2.723zM20.72 7.726v.128l.328.659.44.89.168.018V7.727zm-1.358.797l.302-.611.12-.242v-.88h-.938v2.621l.085-.008zM16.974 9.61l.936-.101V7.727h-.936zm-1.246.233h.064l-.032-.027zm-.627-.142l.602.066-.021-.018.357-.038V8.663h-.938zm-1.208-1.834c.01.01-.102.019-.282.019-.106 0-.237-.003-.384-.013v1.624l.44.046.496.054V7.778l-.046.069-.224.019zm-1.743.656l.44.909.046.005V7.81a6.273 6.273 0 0 1-.819-.178l-.104-.032.042.086.395.837zm-1.734.139h-.934v.832l.563-.064z"/><path fill="#fff" d="M23.909 10.461L22.333 11.8l.197.899.43 1.957-.707-.368a6.827 6.827 0 0 1-.595 1.288v4.03c.477.317.918.678 1.318 1.075.36.078.706.222 1.011.435.008-3.386.011-6.741.011-8.717 0-.683-.032-1.328-.09-1.939zM8.582 14.77l.421-1.976.206-.946-.758-.666-.75-.65a3.235 3.235 0 0 1-.478.366 14.11 14.11 0 0 0-.083 1.501c0 1.43 0 5.202-.003 9.078l.059-.059c.53-.53 1.253-.797 1.979-.806a8.12 8.12 0 0 1 .306-.28V15.51a6.885 6.885 0 0 1-.47-.97l-.427.229zm13.074-5.349l.461.048.222.022.234.024 1.235.133c-.706-4.763-3.418-7.091-8.24-7.091-.437 0-.851.029-1.248.078.299.571.531 1.194.637 1.84.037.226.059.453.062.683.006.387-.038.779-.146 1.17a4.35 4.35 0 0 1-.635 1.341l-.075.109v1.818l.936.102V8.661h.936v1.048l.936-.101V7.726h.936v1.782l.936-.098V6.789h.936v.88l.418-.843.005-.008.01.019.506 1.016v-.128h.936v1.694zM10.494 7.072l-.066.046-.403.253c-.067.04-.138.077-.21.109-.194.09-.397.147-.605.174-.128.536-.36 1.275-.77 1.954l.562-.059.48-.054v-.832h.934l.069-.141.565-1.168a5.548 5.548 0 0 1-.44-.214c-.04-.021-.078-.045-.117-.067zm2.144 2.363l.59.061V7.872a6.423 6.423 0 0 1-.59-.064v1.627zm.706-6.621a8.236 8.236 0 0 0-.551-.805 9.837 9.837 0 0 0-.832-.941c-1.118.317-1.797 1.546-2.142 2.373a2.164 2.164 0 0 1 .5.188 4.879 4.879 0 0 1 1.734-1.756l.254.291.011.006s-.573.224-1.106.995c-.15.219-.298.482-.429.795l.01.01c.101.099.192.208.27.328l2.003-.864.16.262-1.949 1.048c.04.12.07.242.086.365.405.088.762.114 1.069.101.848-.034 1.309-.342 1.309-.342l.094.384a4.803 4.803 0 0 1-1.198.37 5.16 5.16 0 0 1-1.005.07l-.024-.002a5.438 5.438 0 0 1-.243-.014 2.083 2.083 0 0 1-.228.685c.085.043.168.085.253.122a5.37 5.37 0 0 0 1.562.417c.264.03.488.038.651.038a3.44 3.44 0 0 0 .198-.379 3.18 3.18 0 0 0 .291-1.27 3.546 3.546 0 0 0-.05-.669c-.109-.653-.381-1.27-.701-1.806zM6.832 9.778l.086-.01.262-.027c.107-.109.205-.227.294-.352.421-.586.666-1.304.802-1.838a1.871 1.871 0 0 1-.131-.051c-.05.11-.128.269-.245.459a4.54 4.54 0 0 1-.787.954 4.131 4.131 0 0 1-.571.44c-.046.03-.091.061-.139.09l-.243-.272s.222-.09.51-.347c.323-.29.728-.792.995-1.621a2.035 2.035 0 0 1-.307-.315c-.024-.03-.045-.062-.067-.094l-2.163.944-.16-.253 2.085-1.141a1.917 1.917 0 0 1-.069-.235c-1.629-.41-2.531.214-2.531.214l-.094-.384a4.913 4.913 0 0 1 2.579-.429c.01-.141.035-.28.074-.414a4.815 4.815 0 0 0-1.717-.464 5.81 5.81 0 0 0-1.256.026 3.265 3.265 0 0 0-.258 1.739c.23 1.834 1.93 3.29 2.602 3.792.029.022.056.042.082.059a2.104 2.104 0 0 0 .524-.331l-.086-.075-.07-.062zm1.189-3.559a1.074 1.074 0 0 0 .478.406 1.133 1.133 0 0 0 1.031-.06l.142-.09.261-.163a1.092 1.092 0 0 0 .357-1.499 1.211 1.211 0 0 0-.216-.246 1.093 1.093 0 0 0-.384-.214l-.037-.013a1.096 1.096 0 0 0-.87.118l-.045.029-.357.224a1.082 1.082 0 0 0-.401.45c-.106.219-.139.47-.088.712.021.118.064.235.13.346z"/><path fill="#ffe687" d="M21.656 10.373l-.478-.051a.535.535 0 0 1-.43-.29l-.029-.056-.042-.083-.003-.005-.021-.042-.03-.062-.419-.846-.49 1.008-.034.066a.546.546 0 0 1-.43.29l-1.293.139.955.816a.502.502 0 0 1 .16.469l-.262 1.179 1.152-.571a.412.412 0 0 1 .142-.053l.006-.002a.54.54 0 0 1 .376.055l1.133.59-.262-1.179a.474.474 0 0 1 .16-.469l.955-.814-.816-.088zm-9.018.003l-.338-.037a.535.535 0 0 1-.43-.29l-.101-.206-.162-.331-.282-.576-.435.909-.099.206a.55.55 0 0 1-.374.277l-.056.013-1.293.141.066.056.288.243.63.534a.529.529 0 0 1 .163.301c.01.058.01.117-.003.176L9.95 12.99l1.133-.6c.075-.046.178-.066.262-.066s.178.019.262.066l1.133.6-.262-1.198a.49.49 0 0 1 .16-.478l.954-.834-.954-.104z"/><path fill="#c9c9c9" d="M16.61 10.536l-.046-.04-.525-.445-.246-.208h-.064l-.627.542-.173.15-.28.243h2.248zM15.021 5.16a4.712 4.712 0 0 0-.062-.683 6.146 6.146 0 0 0-.637-1.84A8.774 8.774 0 0 0 12.799.576a6.9 6.9 0 0 0-.395-.37l-.168-.141-.216.037c-.949.162-1.661.754-2.182 1.427-.517.67-.845 1.422-1.024 1.92-.181.048-.357.12-.522.221l-.403.253a2.03 2.03 0 0 0-.418.349 5.453 5.453 0 0 0-1.293-.454c-1.378-.302-2.528-.042-2.56-.035l-.216.037-.102.197c-.616 1.211-.586 2.386-.219 3.435.584 1.678 2.026 3.037 3.056 3.71l.187.122.206-.066a3.053 3.053 0 0 0 1.169-.687l-.71-.616a2.104 2.104 0 0 1-.524.331l-.082-.059c-.672-.502-2.371-1.958-2.602-3.792a3.258 3.258 0 0 1 .258-1.739 5.81 5.81 0 0 1 1.256-.026 4.873 4.873 0 0 1 1.717.464 2.104 2.104 0 0 0-.074.414 4.903 4.903 0 0 0-2.579.429l.094.384s.902-.622 2.531-.214c.018.078.04.157.069.235L4.968 7.483l.16.253 2.163-.944c.022.032.043.064.067.094.091.118.195.222.307.315-.269.829-.674 1.331-.995 1.621-.288.258-.51.347-.51.347l.243.272c.048-.029.093-.059.139-.09.214-.138.405-.288.571-.44a4.508 4.508 0 0 0 1.032-1.413c.043.019.086.035.131.051-.136.534-.381 1.253-.802 1.838-.09.125-.187.243-.294.352l1.261-.134c.41-.678.642-1.419.77-1.954.208-.026.413-.085.605-.174a2.47 2.47 0 0 0 .21-.109l.403-.253.066-.046.115.067c.147.08.293.15.44.214l.277-.573.102.218.178.376.107.226.104.032a6.66 6.66 0 0 0 1.793.255c.178 0 .29-.01.282-.019l.224-.019.046-.069.077-.106a4.35 4.35 0 0 0 .635-1.341 4.18 4.18 0 0 0 .146-1.17zM9.53 6.565a1.115 1.115 0 0 1-.714.148 1.133 1.133 0 0 1-.693-.36 1.029 1.029 0 0 1-.102-.134A1.118 1.118 0 0 1 8.27 4.79c.034-.027.069-.054.107-.077l.357-.224.045-.029a1.078 1.078 0 0 1 .395-.144 1.038 1.038 0 0 1 .475.026l.037.013a1.109 1.109 0 0 1 .6.46 1.098 1.098 0 0 1-.213 1.392 1.12 1.12 0 0 1-.144.107l-.261.163-.139.088zm1.86-.082a4.172 4.172 0 0 1-.253-.122 2.157 2.157 0 0 0 .228-.685c.074.006.157.011.243.014l.024.002a4.936 4.936 0 0 0 2.203-.44l-.094-.384s-.461.31-1.309.342a4.295 4.295 0 0 1-1.069-.101 2.125 2.125 0 0 0-.086-.365l1.949-1.048-.16-.262-2.003.864a1.872 1.872 0 0 0-.27-.328l-.01-.01c.131-.314.278-.576.429-.795.533-.771 1.106-.995 1.106-.995l-.008-.008-.254-.291a4.79 4.79 0 0 0-1.147.946 4.862 4.862 0 0 0-.587.81 2.116 2.116 0 0 0-.366-.15c-.045-.013-.088-.027-.134-.038.344-.827 1.024-2.056 2.142-2.373a9.47 9.47 0 0 1 1.125 1.343c.088.128.174.264.258.403.318.536.59 1.154.699 1.808.037.219.054.442.05.669-.01.418-.099.845-.291 1.27a3.822 3.822 0 0 1-.198.379 5.813 5.813 0 0 1-.965-.083 5.26 5.26 0 0 1-1.249-.372z"/><path fill="#d0d2d3" d="M4.71 25.226a1.913 1.913 0 0 0 .052 2.654c.458.458 1.141.622 1.76.498.33-.067.643-.214.894-.446L4.71 25.226zm8.976 1.971c.01.542.224 1.05.608 1.434l.075.069a2.064 2.064 0 0 0 2.302.344 2.087 2.087 0 0 0 1.189-1.845h-4.174zm13.157-1.957l-2.709 2.709c.254.229.565.374.893.44.619.123 1.296-.043 1.752-.499.365-.365.562-.843.562-1.358 0-.478-.173-.938-.498-1.291z"/><path fill="#818385" d="M9.482 21.55a1.98 1.98 0 0 0-1.374.323c-.086.059-.17.125-.245.2l-1.358 1.358 2.715 2.715 1.358-1.358c.365-.365.562-.843.562-1.358s-.197-.992-.562-1.358a1.892 1.892 0 0 0-1.096-.522zm8.334.432a2.064 2.064 0 0 0-.552-.995 2.046 2.046 0 0 0-1.48-.618 2.09 2.09 0 0 0-2.088 2.075v2.11h4.176v-2.088c0-.058-.003-.114-.008-.17a2.045 2.045 0 0 0-.048-.315zm5.874.101a1.926 1.926 0 0 0-2.715 0c-.365.365-.562.843-.562 1.358s.197.992.562 1.358l1.358 1.358 2.715-2.715-1.358-1.36z"/><path fill="#b8b9ba" d="M8.493 26.742l-2.981-2.974a.304.304 0 0 0-.224-.094.32.32 0 0 0-.243.094.334.334 0 0 0 0 .459l3.381 3.381a.346.346 0 0 0 .469 0 .334.334 0 0 0 .053-.072v-.002a.322.322 0 0 0 .04-.162.365.365 0 0 0-.094-.234l-.4-.397zm9.848-1.251h-5.122a.34.34 0 0 0-.262.112.384.384 0 0 0-.122.272.38.38 0 0 0 .384.384h5.123a.38.38 0 0 0 .384-.384.383.383 0 0 0-.386-.384zm8.166-1.704a.265.265 0 0 0-.224-.112.352.352 0 0 0-.243.094l-3.381 3.381a.3.3 0 0 0-.077.125.352.352 0 0 0-.018.11c0 .085.037.168.094.234a.303.303 0 0 0 .152.08.346.346 0 0 0 .298-.066l.019-.016.171-.171.138-.136.328-.328 2.744-2.736a.38.38 0 0 0 .045-.056.315.315 0 0 0-.046-.403z"/><path fill="#373737" d="M13.893 16.539c.242.176.51.318.794.424.069.027.141.053.218.075h.003a2.94 2.94 0 0 0 .923.128c.45-.01.88-.122 1.264-.309a2.891 2.891 0 0 0 1.563-2.061l-5.992.019c.17.683.619 1.293 1.227 1.723zm2.136-.909c.706.146 1.046.333 1.25.854-.469.238-1.613.651-3.029-.03.229-.787.941-.987 1.779-.824zM6.992 9.915l1.461 1.266.758.666-.206.946-.421 1.976.429-.227c.131.336.29.659.47.97a6.961 6.961 0 0 0 3.341 2.939 7.123 7.123 0 0 0 5.842-.15 7.032 7.032 0 0 0 2.992-2.723c.24-.403.44-.834.595-1.288l.707.368-.43-1.957-.197-.899 2.416-2.051-3.258-.346-.44-.89-.843-1.694-.005.008-.418.843-.12.242-.302.61-.43.88-.085.008-.992.104-2.171.234.019.018-2.472-.269-.637-.066-.44-.909-.395-.835-.042-.086-.107-.226-.178-.376-.102-.218-.07.146-.206.427-.565 1.168-.069.141-.373.768-1.077.122-2.136.227.157.136zm4.878.135a.53.53 0 0 0 .43.29l1.293.141-.954.834a.488.488 0 0 0-.16.478l.262 1.198-1.133-.6a.556.556 0 0 0-.524 0l-1.133.6.262-1.198a.517.517 0 0 0-.16-.477l-.63-.534-.288-.243-.066-.056 1.293-.141.056-.013a.544.544 0 0 0 .374-.277l.099-.206.435-.909.282.576.162.331.099.206zm7.893-.207l.021-.043.421-.866.419.846.03.062.021.042.003.005.042.083.029.056a.53.53 0 0 0 .43.29l1.293.139-.373.318-.582.496a.473.473 0 0 0-.16.469l.262 1.179-1.133-.59a.556.556 0 0 0-.376-.055l-.006.002a.418.418 0 0 0-.142.053l-1.152.571.262-1.179a.503.503 0 0 0-.16-.469l-.955-.816 1.293-.139a.547.547 0 0 0 .43-.29l.034-.07.05-.094zm-3.971 0l.245.208.525.445.046.04 1.488 1.264-.197.899-.43 1.957 2.744-1.434.992.52c-.862 2.808-3.77 4.574-6.76 3.994a5.848 5.848 0 0 1-4.394-3.749l.31-.165.155-.083.8-.422 2.734 1.451-.421-1.976-.206-.946.758-.666.386-.334.078-.069.454-.392.659-.571.032.029zm-3.725 13.599a2.761 2.761 0 0 0-.382-1.435 2.694 2.694 0 0 0-1.197-1.109 2.958 2.958 0 0 0-1.005-.274c-.102-.01-.203-.011-.306-.01-.726.01-1.45.277-1.979.806l-1.426 1.426c-.453-.182-1.018-.109-1.392.259a1.256 1.256 0 0 0-.265 1.399l-.016.016a2.807 2.807 0 0 0-.834 2.013c-.01.758.29 1.48.834 2.022a2.859 2.859 0 0 0 2.022.834c.136 0 .27-.013.403-.032v1.52h-.992c-.338 0-.6.272-.6.6 0 .338.272.6.6.6H9.11c.338 0 .6-.272.6-.6s-.272-.6-.6-.6h-.992v-2.296l.019-.016.026-.026c.157.066.325.101.498.101.31 0 .605-.114.826-.322l.054-.053a1.29 1.29 0 0 0 .365-.899c0-.17-.034-.334-.096-.485l1.426-1.426a2.816 2.816 0 0 0 .832-2.014zM4.762 27.88a1.899 1.899 0 0 1-.562-1.358c0-.485.186-.941.51-1.296l2.706 2.706a1.832 1.832 0 0 1-.894.446c-.619.125-1.302-.04-1.76-.498zm4.131-.272a.346.346 0 0 1-.469 0l-3.381-3.381a.334.334 0 0 1 0-.459.317.317 0 0 1 .243-.094c.085 0 .16.029.224.094l3.381 3.373c.056.066.094.15.094.234a.322.322 0 0 1-.04.162v.002a.308.308 0 0 1-.053.07zm.326-1.461l-2.715-2.715 1.358-1.358c.077-.075.158-.141.245-.2a2.007 2.007 0 0 1 1.374-.323c.408.051.798.224 1.096.523.365.365.562.843.562 1.358s-.197.992-.562 1.358l-1.358 1.357zm9.581-1.505v-2.174a2.92 2.92 0 0 0-.112-.805 2.963 2.963 0 0 0-.779-1.33 3.011 3.011 0 0 0-2.144-.89 3.029 3.029 0 0 0-3.024 3.024v2.174a1.257 1.257 0 0 0-.459.298 1.295 1.295 0 0 0-.394.936c0 .565.354 1.045.853 1.234v.05a3.034 3.034 0 0 0 .889 2.134c.115.115.24.218.37.312.294.214.621.371.97.467v.728h-1.067a.638.638 0 0 0 0 1.274h3.84c.347 0 .637-.282.637-.637s-.282-.646-.637-.646h-1.067v-.746a3.036 3.036 0 0 0 2.125-2.887v-.05a1.319 1.319 0 0 0 0-2.467zm-1.669 4.104a2.078 2.078 0 0 1-2.16.338 2.135 2.135 0 0 1-.673-.455c-.384-.384-.6-.89-.608-1.434h4.176a2.09 2.09 0 0 1-.734 1.55zm-3.435-6.288v-.013a2.089 2.089 0 0 1 2.088-2.075 2.05 2.05 0 0 1 1.48.618 2.072 2.072 0 0 1 .602 1.309c.005.056.008.114.008.17v2.088h-4.178v-2.096zm-.477 3.801a.38.38 0 0 1-.384-.384c0-.102.046-.197.122-.272a.341.341 0 0 1 .262-.112h5.123c.216 0 .384.168.384.384s-.168.384-.384.384h-5.123zm12.211 3.128c.758 0 1.48-.299 2.013-.843a2.807 2.807 0 0 0 .834-2.013c.01-.768-.29-1.48-.834-2.022a1.273 1.273 0 0 0-.272-1.388c-.354-.347-.917-.446-1.379-.266l-1.438-1.438a2.84 2.84 0 0 0-1.379-.737 3.006 3.006 0 0 0-1.318.01 2.855 2.855 0 0 0-1.34.728 2.84 2.84 0 0 0-.833 2.013c-.01.758.29 1.48.834 2.022l1.426 1.426a1.282 1.282 0 0 0-.086.715l.018.085a1.255 1.255 0 0 0 .33.592 1.258 1.258 0 0 0 .891.365c.174 0 .344-.035.501-.099l.014.014.029.026v2.298h-.992c-.338 0-.6.272-.6.6s.262.6.6.6h3.578c.328 0 .6-.262.6-.6 0-.328-.262-.6-.6-.6h-.992v-1.522c.128.022.262.035.398.035zm-2.62-1.689a.33.33 0 0 1-.152-.08.372.372 0 0 1-.094-.234.33.33 0 0 1 .095-.235l3.381-3.381a.359.359 0 0 1 .243-.094c.085 0 .16.029.224.112a.314.314 0 0 1 .045.403.38.38 0 0 1-.045.056l-3.4 3.387a.336.336 0 0 1-.296.066zm-1.837-5.615a1.899 1.899 0 0 1 1.357-.562 1.9 1.9 0 0 1 1.358.562l1.358 1.358-2.715 2.715-1.358-1.358a1.899 1.899 0 0 1-.562-1.358c0-.514.197-.992.562-1.357zm4.056 6.306a1.875 1.875 0 0 1-.893-.44l2.709-2.709a1.9 1.9 0 0 1 .498 1.291 1.9 1.9 0 0 1-.562 1.358c-.458.456-1.134.621-1.752.499z"/><path fill="#49b7eb" d="M27.2 13.691l-.318-2.65-.318 2.65-1.621.218v.24l1.621.218.318 2.65.318-2.65 2.528-.338-2.528-.338zM3.891 17.045l-.206 1.779-1.694.224 1.694.226.206 1.77.216-1.77 1.694-.226-1.694-.224zm23.151-8.026l.206 1.779.214-1.779 1.686-.226-1.686-.224-.214-1.779-.206 1.779-1.694.224zM3.405 17.091l.262-2.192 2.088-.28-2.088-.272-.262-2.2-.262 2.2-2.086.272 2.086.28zm25.744-.469a.469.469 0 1 1-.938 0 .469.469 0 0 1 .938 0zM5.736 12.877a.469.469 0 1 1-.938 0 .469.469 0 0 1 .938 0zm19.667-6.555a.469.469 0 1 1-.938 0 .469.469 0 0 1 .938 0z"/></svg>