<svg xmlns="http://www.w3.org/2000/svg" width="32" height="32" viewBox="0 0 32 32"><path fill="#ff9d00" d="M21.334 23.474l-.819 2.656 4.454 1.946-1.901-7.709c-.45 1.099-.963 2.288-1.734 3.107zm.341-10.212c1.61-.01 2.861 1.051 2.814 2.682.01.533-.102 1.069-.272 1.595l5.458-5.643-9.176-.904a.768.768 0 0 1-.611-.424l-3.963-8.243-1.187 2.334c1.232.304 2.28 1.304 2.28 2.992-.019 1.464-.091 2.928-.138 4.39 1.654-1.33 4.088-.877 4.795 1.221zM6.96 17.037L5.912 11.52l-3.587.376 4.659 5.272-.024-.131zm-.786 10.888l1.048-.427c.272-.11.538-.334.808-.501a.949.949 0 0 1 .59-.211h.19L7.882 21.9l-1.709 6.026z"/><path fill="#ffce13" d="M31.99 11.059zm0 0c-.046-.133-.024-.066 0 0zm0 0a.753.753 0 0 0-.63-.48L21.082 9.563 16.66.339C16.401-.2 15.583-.226 15.305.31l-2.267 4.365c.131-.035.264-.062.398-.08a2.995 2.995 0 0 1 1.136.03c.046.01.093.019.139.03l.026.006 1.187-2.334 3.962 8.245a.774.774 0 0 0 .611.424l9.176.904-5.458 5.643c-.218.68-.528 1.342-.792 1.962-.117.275-.235.568-.357.866l1.901 7.709-4.454-1.946c-.067.219-.134.438-.203.656h.987c.52 0 .96.44.96.96h-.01v.76l3.501 1.528c.554.251 1.198-.246 1.054-.846l-2.39-9.704 7.416-7.661a.74.74 0 0 0 .163-.768zM6.984 17.168l-4.659-5.272 3.587-.376c-.093-.491-.19-.965-.221-1.464l-4.947.523c-.579.058-.885.757-.49 1.214l6.758 7.661-2.71 9.544c-.182.589.467 1.12 1.016.885l2.344-.957v-1.181c0-.038.003-.075.008-.114l.006-.043.013-.062.014-.056.01-.029a.96.96 0 0 1 .078-.176l-1.618.658 1.709-6.026c-.299-1.576-.598-3.152-.899-4.73z"/><path fill="#373737" d="M21.675 13.262c-.707-2.096-3.141-2.55-4.797-1.219.048-1.462.118-2.926.138-4.39 0-1.688-1.046-2.688-2.28-2.992l-.026-.006a3.448 3.448 0 0 0-1.673.02c-1.187.315-2.186 1.29-2.213 2.93l-.01.077a3.087 3.087 0 0 0-.216-.198c-.029-.024-.058-.048-.088-.07l-.061-.046-.056-.04a3.403 3.403 0 0 0-.099-.066l-.014-.008a2.947 2.947 0 0 0-2.114-.386 3.044 3.044 0 0 0-2.019 1.398l-.032.056c-.587 1.014-.416 2.086-.205 3.2l1.048 5.517.016.088.008.043.586 3.085.312 1.645.928 4.886h-.19a.943.943 0 0 0-.59.211.988.988 0 0 0-.317.446l-.01.029-.014.056-.013.062-.006.043a.85.85 0 0 0-.008.114v3.21c0 .526.434.96.96.96h12.669c.526 0 .96-.434.96-.96v-3.21h.01c0-.52-.44-.96-.96-.96h-.987l.203-.656.819-2.656c.03-.032.061-.069.094-.109.718-.813 1.21-1.946 1.642-2.998.122-.298.24-.59.357-.866.262-.619.574-1.282.792-1.962.168-.526.282-1.062.272-1.595.046-1.632-1.205-2.693-2.814-2.682z"/><path fill="#eceff0" d="M19.69 28.386c-1.445 0-1.445 2.24 0 2.24s1.445-2.24 0-2.24z"/><path fill="#ffe994" d="M6.077 8.386l.07-.123a3.044 3.044 0 0 1 2.019-1.398 2.913 2.913 0 0 1 2.114.386l.014.008.099.066.056.04.061.046.104.083L12.273.857 2.86 8.387h3.216zM19.802.856l1.883 7.53h7.53zM2.691 26.776l3.229-7.058L.038 15.02zm22.523-7.106l3.237 7.059 2.645-11.755z"/><path fill="#e6e7e8" d="M19.086 24.301c-1.157-.034-2.085-.622-2.522-1.504-1.13.115-4.275 1.03-5.042-.104 2.014-.264 4.034-.493 6.048-.754.054-.003.107-.01.16-.014l.043-.005.122-.016.037-.006a2.97 2.97 0 0 0 .136-.026l.011-.003c1.328-.274 2.49-1.237 2.33-2.696a2.729 2.729 0 0 0-.022-.158l-.026-.131c-.162-.79-.517-1.269-.992-1.563-.757-.467-1.816-.466-2.882-.506l-.568-.022-.387-.016c-1.01-.042-2.019-.088-3.029-.134-.779-.037-1.56-.074-2.341-.106.226-.312.606-.49.989-.49 1.454.029 2.909.086 4.363.131 1.17.037 2.589-.122 3.674.395l1.578-2.629c-.098-1.715-2.01-2.368-3.214-1.163a8.639 8.639 0 0 0-1.862 2.754c.091-2.709.222-5.419.272-8.128 0-2.584-4.01-2.595-4.01 0l-.432 6.232c-.01.146-.192.123-.216.019l-.96-4.245-.029.01a3.15 3.15 0 0 0-.046-.216l-.019-.061a1.886 1.886 0 0 0-.046-.139l-.024-.054a1.985 1.985 0 0 0-.059-.131l-.021-.035c-.026-.046-.051-.093-.08-.134l-.01-.013c-.502-.733-1.467-.922-2.259-.645l-.032.011-.061.024c-.691.278-1.227.922-1.154 1.877l.003.05.014.101-.029.01 3.29 16.725h9.693c.282-.885.563-1.77.846-2.654-.339.123-.698.17-1.058.17h-.178zm4.706-8.474l-.006-.086-.002-.014c-.069-.672-.526-1.162-1.158-1.349a1.991 1.991 0 0 0-.478-.082l.213.011c.166.008.317.016-.002 0l-.218-.011c-.31-.014-.638.008-.925.141l-1.483 2.472c1.254.974 1.725 2.85.802 4.205-.04.059-.083.117-.126.173-.024.029-.048.058-.074.085l-.064.075-.086.088-.061.062-.093.082-.064.056-.091.07-.075.058-.078.053-.096.064-.059.035c-.04.024-.08.05-.122.072l-.034.018a7.445 7.445 0 0 1-.154.08l-.003.002c-.12.059-.245.112-.37.162l-.021.008c-.118.045-.24.085-.362.122l-.048.014a6.79 6.79 0 0 1-.347.09l-.064.014c-.117.026-.234.046-.35.066l-.053.01c.026.043.054.085.085.125l.008.01c.157.203.355.355.579.462.349.168.757.229 1.144.214 1.082-.042 1.539-1.07 1.995-1.896l.122-.219c.853-1.523 1.923-3.304 2.181-5.05.018-.117.032-.232.042-.347l-.003-.142z"/></svg>