<svg xmlns="http://www.w3.org/2000/svg" width="32" height="32" viewBox="0 0 32 32"><path fill="#f58345" d="M15.03 5.714a4.316 4.316 0 0 1 3.979-4.334L17.401.548l-.499-.264a3.139 3.139 0 0 0-2.946.029l-.274.141L1.41 7.06a2.687 2.687 0 0 0-1.411 2.4v13.234c0 .802.394 1.539 1.042 2.042.042-1.872 1.901-3.179 2.813-3.709A7.848 7.848 0 0 1 1.09 16.02c-.451-3.331 1.29-6.56 4.235-8.056a6.88 6.88 0 0 1 .781-.358 8.18 8.18 0 0 1 .856-.264 7.89 7.89 0 0 1 8.097 2.739l-.03-4.366zm16.055 7.665a4.297 4.297 0 0 1-3.358 1.661l-4.838.038c-1.11 1.469-2.926 2.221-5.421 2.24l-.754.01.33-.686c0-.01.31-.659.555-1.92-.312-.141-.6-.32-.864-.525a7.878 7.878 0 0 1-1.88 5.933c.618.822 1.344 1.418 2.123 1.622 1.402.37 3.082.126 4.274-1.043a2.842 2.842 0 0 1 .568-2.326c.992-1.237 2.814-1.422 4.072-.413 1.258 1.008 1.472 2.829.48 4.064a2.84 2.84 0 0 1-2.018 1.053c-2.032 2.285-5.182 3.269-8.366 2.44a8.346 8.346 0 0 1-.616-.187l1.19 6.419c.181-.059.358-.134.526-.227l.274-.141 12.275-6.61c.904-.48 1.534-1.43 1.525-2.4l-.077-9.002z"/><path fill="#bbd758" d="M22.557 8.982c-.336-.283-.979-.936-.989-1.739v-.442h.042l4.222-.035-.15.557c-.01.045-.266.997-.944 1.616l.011 1.638v.069c.085-.029.17-.059.251-.094.13-.056.254-.123.374-.195a3.076 3.076 0 0 0 1.498-2.669 3.094 3.094 0 0 0-3.117-3.064 3.092 3.092 0 0 0-3.062 3.083l-.002.034a3.097 3.097 0 0 0 1.874 2.813l-.002-.195-.006-1.376zm8.48-.054l-.024-3.347c-.019-1.854-1.544-3.36-3.398-3.341l-8.31.066c-1.854.019-3.36 1.544-3.341 3.398l.038 5.12a3.368 3.368 0 0 0 2.269 3.154l.376.131-.066.395c-.131.81-.291 1.421-.434 1.854 1.92-.141 3.294-.81 4.104-2.005l.141-.206 5.318-.046c1.854-.019 3.36-1.544 3.341-3.398l-.014-1.774zM27.918 4.89a.371.371 0 0 1 .086-.066l1.475-.77a.369.369 0 0 1 .494.152.365.365 0 0 1-.035.392.334.334 0 0 1-.118.102l-1.475.763a.37.37 0 0 1-.494-.146.366.366 0 0 1 .067-.429zm-10.244-.837l1.475.77a.369.369 0 0 1 .152.494.374.374 0 0 1-.165.15.377.377 0 0 1-.155.038.382.382 0 0 1-.174-.043l-1.475-.763a.372.372 0 0 1-.154-.494.372.372 0 0 1 .496-.152zm-.802 4.243a.357.357 0 0 1-.352-.277.397.397 0 0 1-.011-.086c0-.203.138-.378.363-.363l1.563-.008a.36.36 0 0 1 .363.363.347.347 0 0 1-.134.283.348.348 0 0 1-.221.08l-1.571.008zm2.253 2.578l-1.365.531a.253.253 0 0 1-.115.026l-.05-.008a.322.322 0 0 1-.251-.197.324.324 0 0 1 .179-.416l1.363-.531a.324.324 0 0 1 .416.179.324.324 0 0 1-.178.416zm2.929 1.648l-.01-.997v-.245a3.987 3.987 0 0 1-2.149-2.747 3.978 3.978 0 0 1 3.853-4.795 3.98 3.98 0 0 1 4.008 3.938 3.976 3.976 0 0 1-2.18 3.579v.043l.006 1.198c.01.997-.874 1.006-.874 1.006l-1.765.018a.922.922 0 0 1-.315-.053c-.568-.205-.576-.946-.576-.946zm7.754-1.296a.324.324 0 0 1-.301.205.241.241 0 0 1-.115-.026l-1.363-.531a.324.324 0 0 1-.179-.416l.021-.04a.322.322 0 0 1 .395-.139l1.363.531a.326.326 0 0 1 .181.413l-.002.003zm.474-2.93l-1.57-.008a.358.358 0 0 1-.357-.363.362.362 0 0 1 .363-.363l1.563.008a.319.319 0 0 1 .29.131l.021.029a.403.403 0 0 1 .053.202l-.005.042a.357.357 0 0 1-.358.323zm-6.842.245l.01 2.083h.414l-.002-.139-.016-1.979.186-.133.008-.006c.202-.149.358-.352.48-.552.03-.05.059-.099.085-.147l-2.021.01c.186.336.522.627.67.733l.186.131z"/><path fill="#fff" d="M27.136 5.582a3.98 3.98 0 0 0-3.555-1.839 3.98 3.98 0 0 0-3.685 4.789 3.985 3.985 0 0 0 2.149 2.747v.245l.01.997s.008.741.576.944a.935.935 0 0 0 .315.053l1.765-.018s.883-.01.874-1.006l-.006-1.198v-.043a3.982 3.982 0 0 0 2.18-3.579 3.932 3.932 0 0 0-.621-2.091zm-4.208 2.092l1.677-.008c-.026.048-.056.098-.085.147a1.892 1.892 0 0 1-.48.552l-.008.006-.186.133.016 1.979.002.139h-.414l-.01-2.083-.186-.133c-.15-.106-.485-.397-.67-.733h.344zm2.448 2.68a2.804 2.804 0 0 1-.625.289v-.069l-.011-1.638c.68-.618.936-1.571.944-1.616l.15-.557-4.264.035v.442c.01.803.653 1.456.989 1.739l.01 1.373.002.195a3.098 3.098 0 0 1-1.874-2.813l.002-.034a3.094 3.094 0 0 1 3.062-3.083 3.094 3.094 0 0 1 3.117 3.064 3.089 3.089 0 0 1-1.501 2.672z"/><path fill="#cae861" d="M19.149 4.822l-1.475-.77a.369.369 0 0 0-.494.152.372.372 0 0 0 .154.494l1.475.763a.348.348 0 0 0 .329.005.379.379 0 0 0 .165-.15.37.37 0 0 0-.154-.494zm-.487 3.386a.342.342 0 0 0 .134-.283.36.36 0 0 0-.363-.363l-1.563.008c-.226-.014-.363.16-.363.363a.359.359 0 0 0 .363.363l1.57-.008c.085 0 .16-.03.222-.08zm.226 2.07l-1.363.531a.324.324 0 0 0-.179.416.32.32 0 0 0 .251.197l.05.008a.241.241 0 0 0 .115-.026l1.363-.531a.325.325 0 0 0 .18-.416.324.324 0 0 0-.416-.179zm9.283-4.772a.382.382 0 0 0 .174-.043L29.82 4.7a.376.376 0 0 0 .118-.102.365.365 0 0 0 .035-.392.369.369 0 0 0-.494-.152l-1.475.77a.436.436 0 0 0-.086.066.364.364 0 0 0-.067.427c.066.118.189.19.32.19zm2.421 2.225l-.021-.029a.317.317 0 0 0-.29-.131l-1.563-.008a.361.361 0 0 0-.363.363.357.357 0 0 0 .357.363l1.57.008a.36.36 0 0 0 .36-.322l.005-.042a.431.431 0 0 0-.054-.203zm-.963 3.079l-1.363-.531a.323.323 0 0 0-.395.139l-.021.04a.324.324 0 0 0 .179.416l1.363.531a.253.253 0 0 0 .115.026c.128 0 .25-.077.301-.205v-.003a.324.324 0 0 0-.179-.413z"/><path fill="#d8dbdb" d="M12.269 17.653l-.018.035.022-.03-.005-.005zm-2.039-.458a2.183 2.183 0 0 0-.122.042c-.398.141-.731.344-.947.611a1.205 1.205 0 0 0-.275.845c.141.024.277.042.408.05.365.026.691-.005.979-.075.934-.224 1.478-.846 1.738-1.235-.485-.35-1.075-.451-1.781-.237z"/><path fill="#96989c" d="M21.64 21.696c-.37.309-.77.554-1.189.738l1.059 1.646a7.107 7.107 0 0 0 1.658-1.154 2.965 2.965 0 0 1-.869-.48 3.071 3.071 0 0 1-.659-.75zm3.648-2.973c-.83-.667-2.037-.544-2.694.275a1.905 1.905 0 0 0-.242 1.968 1.947 1.947 0 0 0 1.572 1.14 1.898 1.898 0 0 0 1.68-.695c.654-.816.514-2.021-.317-2.688zM8.894 8.424a6.561 6.561 0 0 0-5.947 9.326l.517-.189a5.703 5.703 0 0 0 1.37 1.554c1.587 1.224 3.469 1.141 4.818.83.064-.014.128-.03.19-.046l-.014-.005a.776.776 0 0 0 .094-.035l.042-.013c.242-.098.371-.336.293-.534-.058-.142-.21-.224-.381-.222l-.01-.006.043-.008c-.157.011-.306.014-.438.011h-.093a3.836 3.836 0 0 1-.262-.016 3.575 3.575 0 0 1-.37-.051 3.564 3.564 0 0 1-1.675-.776c-.592.221-1.32.333-2.211.24 0 0 1.365-.526 1.44-1.675 0 0 .15-2.174 2.664-1.75 0 0 .195-.582.778-.914.349-.198.835-.307 1.501-.149 0 0 .142.002.358-.014.514-.04 1.45-.192 1.92-.747 0 0 .019.411-.106.92-.075.307-.203.65-.419.962-.056.08-.118.158-.187.234a3.263 3.263 0 0 1-.512 2.259l-.022.045.005.005-.022.03c-.072.13-.15.25-.235.357l-.056.04a.582.582 0 0 0-.133.165l-.008.014c-.07.142-.069.299.022.405.133.154.398.141.597-.029l.005-.005.021-.008c.134-.109.261-.221.378-.336a5.33 5.33 0 0 0 .907-1.158c1.386-2.397.358-5.088.358-5.088l.528-.237a6.572 6.572 0 0 0-5.746-3.384zm-2.664 7.04l-.282-.715c-.216-.574-.715-.819-1.309-.546-.65.301-.696.931-.546 1.318l.245.686-.64.235-.245-.686a1.737 1.737 0 1 1 3.239-1.261l.274.686-.736.282zm6.495-2.795l-.282-.715c-.216-.574-.715-.819-1.309-.546-.65.301-.696.931-.546 1.318l.274.696-.64.235-.274-.698a1.737 1.737 0 1 1 3.239-1.261l.274.686-.736.283zM9.17 16.408a3.868 3.868 0 0 1-.21.339l.19-.09 1.24-.59a6.112 6.112 0 0 1-.178-.021 6.97 6.97 0 0 1-.802-.166c0-.002-.069.216-.242.528z"/><path fill="#4c4d4f" d="M14.739 11.765l-.102.046-.528.237s1.027 2.691-.358 5.088c-.23.398-.528.789-.907 1.158a6.262 6.262 0 0 1-.378.336l-.021.008-.005.005c-.197.17-.464.182-.597.029-.091-.106-.093-.262-.022-.405-.432.438-.963.654-1.459.754a3.489 3.489 0 0 1-.288.045l-.166.016-.043.008.01.006c.171-.002.323.078.381.222.08.198-.051.437-.293.534l-.042.013c-.029.011-.059.024-.094.035l.014.005a4.808 4.808 0 0 1-.19.046c-1.349.31-3.232.394-4.818-.83a5.768 5.768 0 0 1-1.37-1.554l-.517.189.026.058.016.034c.027.054.066.133.118.23l.046.086a3.75 3.75 0 0 0 .154.26c.171.28.405.624.702.982 1.133 1.358 3.21 2.93 6.421 2.067a9.486 9.486 0 0 0 .954-.319c.35-.138.712-.302 1.088-.501 0 0 .461-.261 1.029-.789a7.306 7.306 0 0 0 .704-.757l.011-.014c1.139-1.435 2.142-3.858.525-7.331zm-7.67 6.48a3.952 3.952 0 0 0 1.893-1.498c.082-.12.152-.235.21-.339.171-.31.242-.53.242-.53.286.077.552.131.802.166l.178.021c1.214.133 1.957-.219 2.411-.717.069-.075.131-.154.187-.234.216-.312.344-.654.419-.962.125-.51.106-.92.106-.92-.47.557-1.406.707-1.92.747-.216.018-.358.014-.358.014-.666-.158-1.152-.05-1.501.149a1.838 1.838 0 0 0-.776.915c-2.514-.424-2.664 1.75-2.664 1.75-.075 1.149-1.44 1.675-1.44 1.675.891.093 1.621-.019 2.213-.24z"/><path fill="#373737" d="M31.971 5.571a4.314 4.314 0 0 0-4.347-4.272l-8.32.066a4.316 4.316 0 0 0-4.272 4.347l.03 4.368a7.89 7.89 0 0 0-8.097-2.739c-.291.075-.584.16-.856.264a6.56 6.56 0 0 0-.781.358C2.381 9.459.64 12.686 1.091 16.019a7.84 7.84 0 0 0 2.764 5.007c-.912.53-2.771 1.837-2.813 3.709-.024 1.082.56 2.354 2.288 3.771l.171-1.926.043-.493.192-2.162a.477.477 0 0 1 .386-.413.52.52 0 0 1 .131-.01.468.468 0 0 1 .424.509l-.23 2.544-.494 5.466-.837.008v.002l13.478-.122-.027-.149-1.19-6.419c.205.07.411.134.616.187 3.184.829 6.334-.155 8.366-2.44a2.845 2.845 0 0 0 2.018-1.053c.992-1.237.778-3.056-.48-4.064s-3.08-.822-4.072.413a2.845 2.845 0 0 0-.568 2.326c-1.192 1.168-2.874 1.413-4.274 1.043-.779-.205-1.506-.8-2.123-1.622a7.865 7.865 0 0 0 1.88-5.933c.264.206.552.384.864.525-.245 1.261-.555 1.91-.555 1.92l-.33.686.754-.01c2.494-.019 4.31-.771 5.421-2.24l4.834-.04a4.297 4.297 0 0 0 3.358-1.661 4.297 4.297 0 0 0 .915-2.688l-.029-5.12zm-4.262 8.528l-5.318.046-.141.206c-.81 1.195-2.184 1.864-4.104 2.005.141-.434.301-1.045.434-1.854l.066-.395-.376-.131a3.365 3.365 0 0 1-2.269-3.154l-.038-5.12c-.019-1.854 1.486-3.379 3.341-3.398l8.312-.064c1.854-.019 3.379 1.486 3.398 3.341l.024 3.347.013 1.773c.019 1.854-1.488 3.379-3.341 3.398zM22.592 19c.658-.819 1.864-.942 2.694-.275s.973 1.87.315 2.69a1.904 1.904 0 0 1-1.68.695 1.947 1.947 0 0 1-1.572-1.14 1.905 1.905 0 0 1 .244-1.97zm-.952 2.696a2.93 2.93 0 0 0 1.53 1.23 7.2 7.2 0 0 1-1.658 1.154l-1.059-1.646a5.02 5.02 0 0 0 1.187-.738zm-7.426-2.608l-.011.014c-.064.078-.126.155-.19.227-.174.2-.349.376-.514.53-.566.528-1.029.789-1.029.789a11.213 11.213 0 0 1-1.49.65c-.187.064-.371.12-.552.17-3.211.862-5.288-.709-6.421-2.067a7.994 7.994 0 0 1-.702-.982l-.053-.086-.101-.174-.046-.086c-.053-.098-.091-.176-.118-.23l-.016-.034-.026-.058a6.561 6.561 0 0 1 11.689-5.939l.102-.046c1.619 3.475.616 5.898-.523 7.325z"/><path d="M4.442 13.506a1.74 1.74 0 0 0-.989 2.25l.245.686.64-.235-.243-.686c-.15-.386-.104-1.016.546-1.318.594-.274 1.091-.029 1.309.546l.282.715.734-.282-.274-.686a1.739 1.739 0 0 0-2.25-.989zm5.779.15l.64-.235-.274-.696c-.15-.386-.104-1.016.546-1.318.594-.274 1.091-.029 1.309.546l.282.715.734-.282-.274-.686a1.74 1.74 0 0 0-2.25-.989 1.738 1.738 0 0 0-.986 2.25l.272.696zm.169 2.41l-.197.094-1.232.586a3.953 3.953 0 0 1-1.893 1.498 3.545 3.545 0 0 0 1.675.776c.122.024.245.04.37.051.086.008.174.014.262.016h.093c.134.003.282.002.438-.011l.166-.016c.094-.011.19-.026.288-.045.496-.099 1.026-.315 1.459-.754l.008-.014a.556.556 0 0 1 .133-.165c.018-.016.037-.027.056-.04.085-.107.163-.227.235-.357l.04-.08c.44-.661.621-1.462.512-2.259-.456.501-1.2.853-2.414.72zm-.118 2.603a3.265 3.265 0 0 1-.979.075 4.442 4.442 0 0 1-.408-.05 1.208 1.208 0 0 1 .275-.845c.218-.267.549-.469.947-.611.04-.014.08-.029.122-.042.704-.214 1.296-.114 1.779.237a2.898 2.898 0 0 1-1.736 1.235zm-6.018 4.832a.512.512 0 0 0-.131.01.477.477 0 0 0-.386.413l-.192 2.162-.043.493-.171 1.926-.309 3.477v.046l.094-.002.837-.008.494-5.466.23-2.544a.468.468 0 0 0-.424-.507z"/></svg>